<?xml version="1.0" encoding="utf-8"?>
<!-- Generator: Adobe Illustrator 22.0.1, SVG Export Plug-In . SVG Version: 6.00 Build 0)  -->
<svg version="1.1" xmlns="http://www.w3.org/2000/svg" xmlns:xlink="http://www.w3.org/1999/xlink" x="0px" y="0px"
	 viewBox="0 0 1000 1000" style="enable-background:new 0 0 1000 1000;" xml:space="preserve">
<style type="text/css">
	.st0{display:none;}
	.st1{display:inline;}
	.st2{fill:none;stroke:#000000;stroke-width:0.5;stroke-miterlimit:10;}
	.st3{fill:#CB9651;}
	.st4{fill:#C08B4E;}
	.st5{fill:#B57E4D;}
	.st6{fill:#F2D294;}
	.st7{fill:#876236;}
	.st8{fill:#B68748;}
	.st9{fill:#BD915A;}
	.st10{fill:#C49969;}
	.st11{fill:#6D5114;}
	.st12{fill:#915401;}
	.st13{fill:#8B662E;}
	.st14{fill:#B2833E;}
	.st15{fill:#AC7A2C;}
	.st16{fill:#C9A177;}
	.st17{display:none;fill:url(#SVGID_1_);}
	.st18{fill:#2F5925;}
	.st19{fill:#3C692E;}
	.st20{fill:#241F1D;}
	.st21{fill:#DEAA88;}
	.st22{fill:#344242;}
	.st23{fill:#355A60;}
	.st24{fill:#273132;}
	.st25{fill:#E9C6AF;}
	.st26{fill:#E29E25;}
	.st27{fill:#C9AC36;}
	.st28{fill:#EBC11C;}
	.st29{fill:#9E2621;}
	.st30{fill:#141919;}
	.st31{fill:#EB4834;}
	.st32{fill:#6D5E54;}
	.st33{fill:#CCCCCC;}
	.st34{fill:#E0E1E0;}
	.st35{fill:#AEAEAE;}
	.st36{fill:#E3DEDB;}
	.st37{fill:#807061;}
	.st38{fill:#D9D9D8;}
	.st39{fill:#44566D;}
	.st40{fill:#352115;}
	.st41{fill:#726155;}
	.st42{fill:#B68153;}
	.st43{fill:#394555;}
	.st44{fill:#6F7E90;}
	.st45{fill:#C29C7B;}
	.st46{fill:#3E4E62;}
	.st47{fill:#948578;}
	.st48{fill:#5A7490;}
	.st49{fill:#FEFEFE;}
	.st50{fill:#9B9B9B;}
	.st51{fill:#4F3B29;}
	.st52{fill:#62492F;}
	.st53{fill:#816243;}
	.st54{fill:#32220F;}
	.st55{fill:#76593C;}
	.st56{fill:#725639;}
	.st57{fill:#244C1C;}
	.st58{fill:#315C26;}
	.st59{display:inline;fill:#2F5925;}
	.st60{display:none;fill:none;stroke:#000000;stroke-width:5;stroke-miterlimit:10;}
	.st61{fill:none;stroke:url(#);stroke-width:0.8666;stroke-miterlimit:10;}
	.st62{fill:none;stroke:url(#);stroke-width:2.1665;stroke-miterlimit:10;}
	.st63{fill:none;stroke:url(#);stroke-width:1.2999;stroke-miterlimit:10;}
	.st64{stroke:url(#);stroke-width:0.8666;stroke-miterlimit:10;}
	.st65{fill:none;stroke:url(#);stroke-width:0.8666;stroke-linecap:square;stroke-miterlimit:10;}
	.st66{fill:none;stroke:url(#);stroke-width:0.4333;stroke-miterlimit:10;}
	.st67{fill:url(#);}
	.st68{fill:#2D3235;stroke:#000000;stroke-miterlimit:10;}
	.st69{fill:#577488;stroke:#000000;stroke-miterlimit:10;}
	.st70{fill:#768C9A;stroke:#000000;stroke-miterlimit:10;}
	.st71{fill:none;stroke:#000000;stroke-miterlimit:10;}
	.st72{fill:#231F20;stroke:#000000;stroke-miterlimit:10;}
	.st73{fill:#67AADD;stroke:#000000;stroke-miterlimit:10;}
	.st74{fill:none;stroke:#231F20;stroke-width:0.5543;stroke-miterlimit:10;}
	.st75{fill:#FCBC6F;}
	.st76{fill:#644627;}
	.st77{fill:none;}
	.st78{fill:#231F20;stroke:#231F20;stroke-width:1.0876;stroke-miterlimit:10;}
	.st79{fill:#231F20;}
	.st80{fill:none;stroke:#231F20;stroke-width:1.0876;stroke-miterlimit:10;}
	.st81{fill:none;stroke:#231F20;stroke-width:0.5438;stroke-miterlimit:10;}
	.st82{fill:#67AADD;}
	.st83{fill:#F5BDA2;}
	.st84{fill:#FFECD0;}
</style>
<g id="Layer_2" class="st0">
	<g class="st1">
		<polygon class="st2" points="-931,612.9 499.7,-213.2 1930.4,612.9 499.7,1439 		"/>
		<line class="st2" x1="487.9" y1="1432.2" x2="1918.6" y2="606.1"/>
		<line class="st2" x1="476.1" y1="1425.4" x2="1906.8" y2="599.3"/>
		<line class="st2" x1="464.2" y1="1418.6" x2="1895" y2="592.5"/>
		<line class="st2" x1="452.4" y1="1411.7" x2="1883.1" y2="585.6"/>
		<line class="st2" x1="440.6" y1="1404.9" x2="1871.3" y2="578.8"/>
		<line class="st2" x1="428.8" y1="1398.1" x2="1859.5" y2="572"/>
		<line class="st2" x1="417" y1="1391.2" x2="1847.7" y2="565.1"/>
		<line class="st2" x1="405.1" y1="1384.4" x2="1835.9" y2="558.3"/>
		<line class="st2" x1="393.3" y1="1377.6" x2="1824" y2="551.5"/>
		<line class="st2" x1="381.5" y1="1370.8" x2="1812.2" y2="544.7"/>
		<line class="st2" x1="369.7" y1="1363.9" x2="1800.4" y2="537.8"/>
		<line class="st2" x1="357.8" y1="1357.1" x2="1788.6" y2="531"/>
		<line class="st2" x1="346" y1="1350.3" x2="1776.7" y2="524.2"/>
		<line class="st2" x1="334.2" y1="1343.5" x2="1764.9" y2="517.4"/>
		<line class="st2" x1="322.4" y1="1336.6" x2="1753.1" y2="510.5"/>
		<line class="st2" x1="310.5" y1="1329.8" x2="1741.3" y2="503.7"/>
		<line class="st2" x1="298.7" y1="1323" x2="1729.4" y2="496.9"/>
		<line class="st2" x1="286.9" y1="1316.1" x2="1717.6" y2="490"/>
		<line class="st2" x1="275.1" y1="1309.3" x2="1705.8" y2="483.2"/>
		<line class="st2" x1="263.2" y1="1302.5" x2="1694" y2="476.4"/>
		<line class="st2" x1="251.4" y1="1295.7" x2="1682.1" y2="469.6"/>
		<line class="st2" x1="239.6" y1="1288.8" x2="1670.3" y2="462.7"/>
		<line class="st2" x1="227.8" y1="1282" x2="1658.5" y2="455.9"/>
		<line class="st2" x1="215.9" y1="1275.2" x2="1646.7" y2="449.1"/>
		<line class="st2" x1="204.1" y1="1268.4" x2="1634.8" y2="442.3"/>
		<line class="st2" x1="192.3" y1="1261.5" x2="1623" y2="435.4"/>
		<line class="st2" x1="180.5" y1="1254.7" x2="1611.2" y2="428.6"/>
		<line class="st2" x1="168.6" y1="1247.9" x2="1599.4" y2="421.8"/>
		<line class="st2" x1="156.8" y1="1241" x2="1587.5" y2="414.9"/>
		<line class="st2" x1="145" y1="1234.2" x2="1575.7" y2="408.1"/>
		<line class="st2" x1="133.2" y1="1227.4" x2="1563.9" y2="401.3"/>
		<line class="st2" x1="121.3" y1="1220.6" x2="1552.1" y2="394.5"/>
		<line class="st2" x1="109.5" y1="1213.7" x2="1540.2" y2="387.6"/>
		<line class="st2" x1="97.7" y1="1206.9" x2="1528.4" y2="380.8"/>
		<line class="st2" x1="85.9" y1="1200.1" x2="1516.6" y2="374"/>
		<line class="st2" x1="74.1" y1="1193.3" x2="1504.8" y2="367.2"/>
		<line class="st2" x1="62.2" y1="1186.4" x2="1493" y2="360.3"/>
		<line class="st2" x1="50.4" y1="1179.6" x2="1481.1" y2="353.5"/>
		<line class="st2" x1="38.6" y1="1172.8" x2="1469.3" y2="346.7"/>
		<line class="st2" x1="26.8" y1="1165.9" x2="1457.5" y2="339.8"/>
		<line class="st2" x1="14.9" y1="1159.1" x2="1445.7" y2="333"/>
		<line class="st2" x1="3.1" y1="1152.3" x2="1433.8" y2="326.2"/>
		<line class="st2" x1="-8.7" y1="1145.5" x2="1422" y2="319.4"/>
		<line class="st2" x1="-20.5" y1="1138.6" x2="1410.2" y2="312.5"/>
		<line class="st2" x1="-32.4" y1="1131.8" x2="1398.4" y2="305.7"/>
		<line class="st2" x1="-44.2" y1="1125" x2="1386.5" y2="298.9"/>
		<line class="st2" x1="-56" y1="1118.2" x2="1374.7" y2="292.1"/>
		<line class="st2" x1="-67.8" y1="1111.3" x2="1362.9" y2="285.2"/>
		<line class="st2" x1="-79.7" y1="1104.5" x2="1351.1" y2="278.4"/>
		<line class="st2" x1="-91.5" y1="1097.7" x2="1339.2" y2="271.6"/>
		<line class="st2" x1="-103.3" y1="1090.8" x2="1327.4" y2="264.7"/>
		<line class="st2" x1="-115.1" y1="1084" x2="1315.6" y2="257.9"/>
		<line class="st2" x1="-127" y1="1077.2" x2="1303.8" y2="251.1"/>
		<line class="st2" x1="-138.8" y1="1070.4" x2="1291.9" y2="244.3"/>
		<line class="st2" x1="-150.6" y1="1063.5" x2="1280.1" y2="237.4"/>
		<line class="st2" x1="-162.4" y1="1056.7" x2="1268.3" y2="230.6"/>
		<line class="st2" x1="-174.3" y1="1049.9" x2="1256.5" y2="223.8"/>
		<line class="st2" x1="-186.1" y1="1043.1" x2="1244.6" y2="217"/>
		<line class="st2" x1="-197.9" y1="1036.2" x2="1232.8" y2="210.1"/>
		<line class="st2" x1="-209.7" y1="1029.4" x2="1221" y2="203.3"/>
		<line class="st2" x1="-221.6" y1="1022.6" x2="1209.2" y2="196.5"/>
		<line class="st2" x1="-233.4" y1="1015.7" x2="1197.3" y2="189.6"/>
		<line class="st2" x1="-245.2" y1="1008.9" x2="1185.5" y2="182.8"/>
		<line class="st2" x1="-257" y1="1002.1" x2="1173.7" y2="176"/>
		<line class="st2" x1="-268.9" y1="995.3" x2="1161.9" y2="169.2"/>
		<line class="st2" x1="-280.7" y1="988.4" x2="1150.1" y2="162.3"/>
		<line class="st2" x1="-292.5" y1="981.6" x2="1138.2" y2="155.5"/>
		<line class="st2" x1="-304.3" y1="974.8" x2="1126.4" y2="148.7"/>
		<line class="st2" x1="-316.1" y1="968" x2="1114.6" y2="141.9"/>
		<line class="st2" x1="-328" y1="961.1" x2="1102.8" y2="135"/>
		<line class="st2" x1="-339.8" y1="954.3" x2="1090.9" y2="128.2"/>
		<line class="st2" x1="-351.6" y1="947.5" x2="1079.1" y2="121.4"/>
		<line class="st2" x1="-363.4" y1="940.6" x2="1067.3" y2="114.5"/>
		<line class="st2" x1="-375.3" y1="933.8" x2="1055.5" y2="107.7"/>
		<line class="st2" x1="-387.1" y1="927" x2="1043.6" y2="100.9"/>
		<line class="st2" x1="-398.9" y1="920.2" x2="1031.8" y2="94.1"/>
		<line class="st2" x1="-410.7" y1="913.3" x2="1020" y2="87.2"/>
		<line class="st2" x1="-422.6" y1="906.5" x2="1008.2" y2="80.4"/>
		<line class="st2" x1="-434.4" y1="899.7" x2="996.3" y2="73.6"/>
		<line class="st2" x1="-446.2" y1="892.9" x2="984.5" y2="66.8"/>
		<line class="st2" x1="-458" y1="886" x2="972.7" y2="59.9"/>
		<line class="st2" x1="-469.9" y1="879.2" x2="960.9" y2="53.1"/>
		<line class="st2" x1="-481.7" y1="872.4" x2="949" y2="46.3"/>
		<line class="st2" x1="-493.5" y1="865.5" x2="937.2" y2="39.4"/>
		<line class="st2" x1="-505.3" y1="858.7" x2="925.4" y2="32.6"/>
		<line class="st2" x1="-517.2" y1="851.9" x2="913.6" y2="25.8"/>
		<line class="st2" x1="-529" y1="845.1" x2="901.7" y2="19"/>
		<line class="st2" x1="-540.8" y1="838.2" x2="889.9" y2="12.1"/>
		<line class="st2" x1="-552.6" y1="831.4" x2="878.1" y2="5.3"/>
		<line class="st2" x1="-564.5" y1="824.6" x2="866.3" y2="-1.5"/>
		<line class="st2" x1="-576.3" y1="817.8" x2="854.4" y2="-8.3"/>
		<line class="st2" x1="-588.1" y1="810.9" x2="842.6" y2="-15.2"/>
		<line class="st2" x1="-599.9" y1="804.1" x2="830.8" y2="-22"/>
		<line class="st2" x1="-611.8" y1="797.3" x2="819" y2="-28.8"/>
		<line class="st2" x1="-623.6" y1="790.4" x2="807.1" y2="-35.7"/>
		<line class="st2" x1="-635.4" y1="783.6" x2="795.3" y2="-42.5"/>
		<line class="st2" x1="-647.2" y1="776.8" x2="783.5" y2="-49.3"/>
		<line class="st2" x1="-659" y1="770" x2="771.7" y2="-56.1"/>
		<line class="st2" x1="-670.9" y1="763.1" x2="759.9" y2="-63"/>
		<line class="st2" x1="-682.7" y1="756.3" x2="748" y2="-69.8"/>
		<line class="st2" x1="-694.5" y1="749.5" x2="736.2" y2="-76.6"/>
		<line class="st2" x1="-706.3" y1="742.7" x2="724.4" y2="-83.4"/>
		<line class="st2" x1="-718.2" y1="735.8" x2="712.6" y2="-90.3"/>
		<line class="st2" x1="-730" y1="729" x2="700.7" y2="-97.1"/>
		<line class="st2" x1="-741.8" y1="722.2" x2="688.9" y2="-103.9"/>
		<line class="st2" x1="-753.6" y1="715.3" x2="677.1" y2="-110.8"/>
		<line class="st2" x1="-765.5" y1="708.5" x2="665.3" y2="-117.6"/>
		<line class="st2" x1="-777.3" y1="701.7" x2="653.4" y2="-124.4"/>
		<line class="st2" x1="-789.1" y1="694.9" x2="641.6" y2="-131.2"/>
		<line class="st2" x1="-800.9" y1="688" x2="629.8" y2="-138.1"/>
		<line class="st2" x1="-812.8" y1="681.2" x2="618" y2="-144.9"/>
		<line class="st2" x1="-824.6" y1="674.4" x2="606.1" y2="-151.7"/>
		<line class="st2" x1="-836.4" y1="667.6" x2="594.3" y2="-158.5"/>
		<line class="st2" x1="-848.2" y1="660.7" x2="582.5" y2="-165.4"/>
		<line class="st2" x1="-860.1" y1="653.9" x2="570.7" y2="-172.2"/>
		<line class="st2" x1="-871.9" y1="647.1" x2="558.8" y2="-179"/>
		<line class="st2" x1="-883.7" y1="640.2" x2="547" y2="-185.9"/>
		<line class="st2" x1="-895.5" y1="633.4" x2="535.2" y2="-192.7"/>
		<line class="st2" x1="-907.4" y1="626.6" x2="523.4" y2="-199.5"/>
		<line class="st2" x1="-919.2" y1="619.8" x2="511.5" y2="-206.3"/>
		<line class="st2" x1="487.9" y1="-206.3" x2="1918.6" y2="619.8"/>
		<line class="st2" x1="476.1" y1="-199.5" x2="1906.8" y2="626.6"/>
		<line class="st2" x1="464.2" y1="-192.7" x2="1895" y2="633.4"/>
		<line class="st2" x1="452.4" y1="-185.9" x2="1883.1" y2="640.2"/>
		<line class="st2" x1="440.6" y1="-179" x2="1871.3" y2="647.1"/>
		<line class="st2" x1="428.8" y1="-172.2" x2="1859.5" y2="653.9"/>
		<line class="st2" x1="417" y1="-165.4" x2="1847.7" y2="660.7"/>
		<line class="st2" x1="405.1" y1="-158.5" x2="1835.9" y2="667.6"/>
		<line class="st2" x1="393.3" y1="-151.7" x2="1824" y2="674.4"/>
		<line class="st2" x1="381.5" y1="-144.9" x2="1812.2" y2="681.2"/>
		<line class="st2" x1="369.7" y1="-138.1" x2="1800.4" y2="688"/>
		<line class="st2" x1="357.8" y1="-131.2" x2="1788.6" y2="694.9"/>
		<line class="st2" x1="346" y1="-124.4" x2="1776.7" y2="701.7"/>
		<line class="st2" x1="334.2" y1="-117.6" x2="1764.9" y2="708.5"/>
		<line class="st2" x1="322.4" y1="-110.8" x2="1753.1" y2="715.3"/>
		<line class="st2" x1="310.5" y1="-103.9" x2="1741.3" y2="722.2"/>
		<line class="st2" x1="298.7" y1="-97.1" x2="1729.4" y2="729"/>
		<line class="st2" x1="286.9" y1="-90.3" x2="1717.6" y2="735.8"/>
		<line class="st2" x1="275.1" y1="-83.4" x2="1705.8" y2="742.7"/>
		<line class="st2" x1="263.2" y1="-76.6" x2="1694" y2="749.5"/>
		<line class="st2" x1="251.4" y1="-69.8" x2="1682.1" y2="756.3"/>
		<line class="st2" x1="239.6" y1="-63" x2="1670.3" y2="763.1"/>
		<line class="st2" x1="227.8" y1="-56.1" x2="1658.5" y2="770"/>
		<line class="st2" x1="215.9" y1="-49.3" x2="1646.7" y2="776.8"/>
		<line class="st2" x1="204.1" y1="-42.5" x2="1634.8" y2="783.6"/>
		<line class="st2" x1="192.3" y1="-35.7" x2="1623" y2="790.4"/>
		<line class="st2" x1="180.5" y1="-28.8" x2="1611.2" y2="797.3"/>
		<line class="st2" x1="168.6" y1="-22" x2="1599.4" y2="804.1"/>
		<line class="st2" x1="156.8" y1="-15.2" x2="1587.5" y2="810.9"/>
		<line class="st2" x1="145" y1="-8.3" x2="1575.7" y2="817.8"/>
		<line class="st2" x1="133.2" y1="-1.5" x2="1563.9" y2="824.6"/>
		<line class="st2" x1="121.3" y1="5.3" x2="1552.1" y2="831.4"/>
		<line class="st2" x1="109.5" y1="12.1" x2="1540.2" y2="838.2"/>
		<line class="st2" x1="97.7" y1="19" x2="1528.4" y2="845.1"/>
		<line class="st2" x1="85.9" y1="25.8" x2="1516.6" y2="851.9"/>
		<line class="st2" x1="74.1" y1="32.6" x2="1504.8" y2="858.7"/>
		<line class="st2" x1="62.2" y1="39.4" x2="1493" y2="865.5"/>
		<line class="st2" x1="50.4" y1="46.3" x2="1481.1" y2="872.4"/>
		<line class="st2" x1="38.6" y1="53.1" x2="1469.3" y2="879.2"/>
		<line class="st2" x1="26.8" y1="59.9" x2="1457.5" y2="886"/>
		<line class="st2" x1="14.9" y1="66.8" x2="1445.7" y2="892.9"/>
		<line class="st2" x1="3.1" y1="73.6" x2="1433.8" y2="899.7"/>
		<line class="st2" x1="-8.7" y1="80.4" x2="1422" y2="906.5"/>
		<line class="st2" x1="-20.5" y1="87.2" x2="1410.2" y2="913.3"/>
		<line class="st2" x1="-32.4" y1="94.1" x2="1398.4" y2="920.2"/>
		<line class="st2" x1="-44.2" y1="100.9" x2="1386.5" y2="927"/>
		<line class="st2" x1="-56" y1="107.7" x2="1374.7" y2="933.8"/>
		<line class="st2" x1="-67.8" y1="114.5" x2="1362.9" y2="940.6"/>
		<line class="st2" x1="-79.7" y1="121.4" x2="1351.1" y2="947.5"/>
		<line class="st2" x1="-91.5" y1="128.2" x2="1339.2" y2="954.3"/>
		<line class="st2" x1="-103.3" y1="135" x2="1327.4" y2="961.1"/>
		<line class="st2" x1="-115.1" y1="141.9" x2="1315.6" y2="968"/>
		<line class="st2" x1="-127" y1="148.7" x2="1303.8" y2="974.8"/>
		<line class="st2" x1="-138.8" y1="155.5" x2="1291.9" y2="981.6"/>
		<line class="st2" x1="-150.6" y1="162.3" x2="1280.1" y2="988.4"/>
		<line class="st2" x1="-162.4" y1="169.2" x2="1268.3" y2="995.3"/>
		<line class="st2" x1="-174.3" y1="176" x2="1256.5" y2="1002.1"/>
		<line class="st2" x1="-186.1" y1="182.8" x2="1244.6" y2="1008.9"/>
		<line class="st2" x1="-197.9" y1="189.6" x2="1232.8" y2="1015.7"/>
		<line class="st2" x1="-209.7" y1="196.5" x2="1221" y2="1022.6"/>
		<line class="st2" x1="-221.6" y1="203.3" x2="1209.2" y2="1029.4"/>
		<line class="st2" x1="-233.4" y1="210.1" x2="1197.3" y2="1036.2"/>
		<line class="st2" x1="-245.2" y1="217" x2="1185.5" y2="1043.1"/>
		<line class="st2" x1="-257" y1="223.8" x2="1173.7" y2="1049.9"/>
		<line class="st2" x1="-268.9" y1="230.6" x2="1161.9" y2="1056.7"/>
		<line class="st2" x1="-280.7" y1="237.4" x2="1150.1" y2="1063.5"/>
		<line class="st2" x1="-292.5" y1="244.3" x2="1138.2" y2="1070.4"/>
		<line class="st2" x1="-304.3" y1="251.1" x2="1126.4" y2="1077.2"/>
		<line class="st2" x1="-316.1" y1="257.9" x2="1114.6" y2="1084"/>
		<line class="st2" x1="-328" y1="264.7" x2="1102.8" y2="1090.8"/>
		<line class="st2" x1="-339.8" y1="271.6" x2="1090.9" y2="1097.7"/>
		<line class="st2" x1="-351.6" y1="278.4" x2="1079.1" y2="1104.5"/>
		<line class="st2" x1="-363.4" y1="285.2" x2="1067.3" y2="1111.3"/>
		<line class="st2" x1="-375.3" y1="292.1" x2="1055.5" y2="1118.2"/>
		<line class="st2" x1="-387.1" y1="298.9" x2="1043.6" y2="1125"/>
		<line class="st2" x1="-398.9" y1="305.7" x2="1031.8" y2="1131.8"/>
		<line class="st2" x1="-410.7" y1="312.5" x2="1020" y2="1138.6"/>
		<line class="st2" x1="-422.6" y1="319.4" x2="1008.2" y2="1145.5"/>
		<line class="st2" x1="-434.4" y1="326.2" x2="996.3" y2="1152.3"/>
		<line class="st2" x1="-446.2" y1="333" x2="984.5" y2="1159.1"/>
		<line class="st2" x1="-458" y1="339.8" x2="972.7" y2="1165.9"/>
		<line class="st2" x1="-469.9" y1="346.7" x2="960.9" y2="1172.8"/>
		<line class="st2" x1="-481.7" y1="353.5" x2="949" y2="1179.6"/>
		<line class="st2" x1="-493.5" y1="360.3" x2="937.2" y2="1186.4"/>
		<line class="st2" x1="-505.3" y1="367.2" x2="925.4" y2="1193.3"/>
		<line class="st2" x1="-517.2" y1="374" x2="913.6" y2="1200.1"/>
		<line class="st2" x1="-529" y1="380.8" x2="901.7" y2="1206.9"/>
		<line class="st2" x1="-540.8" y1="387.6" x2="889.9" y2="1213.7"/>
		<line class="st2" x1="-552.6" y1="394.5" x2="878.1" y2="1220.6"/>
		<line class="st2" x1="-564.5" y1="401.3" x2="866.3" y2="1227.4"/>
		<line class="st2" x1="-576.3" y1="408.1" x2="854.4" y2="1234.2"/>
		<line class="st2" x1="-588.1" y1="414.9" x2="842.6" y2="1241"/>
		<line class="st2" x1="-599.9" y1="421.8" x2="830.8" y2="1247.9"/>
		<line class="st2" x1="-611.8" y1="428.6" x2="819" y2="1254.7"/>
		<line class="st2" x1="-623.6" y1="435.4" x2="807.1" y2="1261.5"/>
		<line class="st2" x1="-635.4" y1="442.3" x2="795.3" y2="1268.4"/>
		<line class="st2" x1="-647.2" y1="449.1" x2="783.5" y2="1275.2"/>
		<line class="st2" x1="-659" y1="455.9" x2="771.7" y2="1282"/>
		<line class="st2" x1="-670.9" y1="462.7" x2="759.9" y2="1288.8"/>
		<line class="st2" x1="-682.7" y1="469.6" x2="748" y2="1295.7"/>
		<line class="st2" x1="-694.5" y1="476.4" x2="736.2" y2="1302.5"/>
		<line class="st2" x1="-706.3" y1="483.2" x2="724.4" y2="1309.3"/>
		<line class="st2" x1="-718.2" y1="490" x2="712.6" y2="1316.1"/>
		<line class="st2" x1="-730" y1="496.9" x2="700.7" y2="1323"/>
		<line class="st2" x1="-741.8" y1="503.7" x2="688.9" y2="1329.8"/>
		<line class="st2" x1="-753.6" y1="510.5" x2="677.1" y2="1336.6"/>
		<line class="st2" x1="-765.5" y1="517.4" x2="665.3" y2="1343.5"/>
		<line class="st2" x1="-777.3" y1="524.2" x2="653.4" y2="1350.3"/>
		<line class="st2" x1="-789.1" y1="531" x2="641.6" y2="1357.1"/>
		<line class="st2" x1="-800.9" y1="537.8" x2="629.8" y2="1363.9"/>
		<line class="st2" x1="-812.8" y1="544.7" x2="618" y2="1370.8"/>
		<line class="st2" x1="-824.6" y1="551.5" x2="606.1" y2="1377.6"/>
		<line class="st2" x1="-836.4" y1="558.3" x2="594.3" y2="1384.4"/>
		<line class="st2" x1="-848.2" y1="565.1" x2="582.5" y2="1391.2"/>
		<line class="st2" x1="-860.1" y1="572" x2="570.7" y2="1398.1"/>
		<line class="st2" x1="-871.9" y1="578.8" x2="558.8" y2="1404.9"/>
		<line class="st2" x1="-883.7" y1="585.6" x2="547" y2="1411.7"/>
		<line class="st2" x1="-895.5" y1="592.5" x2="535.2" y2="1418.6"/>
		<line class="st2" x1="-907.4" y1="599.3" x2="523.4" y2="1425.4"/>
		<line class="st2" x1="-919.2" y1="606.1" x2="511.5" y2="1432.2"/>
	</g>
</g>
<g id="Layer_1">
	<g>
		<g>
			<g>
				<g>
					<polygon class="st3" points="507.9,323.7 508.8,323.3 888.9,541.6 512.7,759.1 135.2,541.4 					"/>
				</g>
			</g>
			<g>
				<polygon class="st4" points="510.9,854.5 136.4,639.2 136.4,538.9 513.5,756.4 				"/>
			</g>
			<g>
				<g>
					<g>
						<polygon class="st5" points="889.8,539.6 513.6,757.1 510.9,858.4 889.8,639.8 						"/>
					</g>
				</g>
			</g>
			<g>
				<g>
					<g>
						<polygon class="st6" points="510.9,865.5 136.4,650.2 136.4,549.9 513.5,767.4 						"/>
					</g>
				</g>
			</g>
			<g>
				<polygon class="st7" points="889.8,549.8 513.6,767.2 510.9,865.5 889.8,646.9 				"/>
			</g>
		</g>
	</g>
	<polygon class="st5" points="765.2,479.2 737.6,540.1 690.3,543.5 648.9,567.4 637.1,591.3 610.9,611.8 560.2,673.2 542.5,680 
		483.4,714.2 423.2,715.3 423.2,704.6 483.4,701.5 542.5,667.3 560.2,660.5 610.9,599 637.1,578.6 648.9,554.7 690.3,530.8 
		737.6,527.4 763.4,470.6 	"/>
	<g>
		<g>
			<polygon class="st5" points="326.5,659.5 326.5,649.3 442,632.2 477.5,625.4 563.7,543.5 551.2,529.8 587.7,495.7 714,436.7 
				714.2,451.5 589.8,505.9 557.5,536.7 569.7,550.9 479.7,637.3 			"/>
		</g>
	</g>
	<polygon class="st3" points="327.1,649.3 434.6,633.4 478.1,625.4 564.3,543.5 551.8,529.8 588.3,495.7 714,436.7 511.5,321.6 
		137,538.9 	"/>
	<g class="st0">
		
			<image style="display:inline;overflow:visible;" width="3442" height="2116" xlink:href="3348E8F0.png"  transform="matrix(0.24 0 0 0.24 88.08 259.44)">
		</image>
	</g>
	
		<image style="display:none;overflow:visible;opacity:0.32;" width="400" height="300" xlink:href="../Inspire/1.jpg"  transform="matrix(1.5819 0 0 1.5819 180.4677 310.7884)">
	</image>
	<g id="XMLID_276_">
		<polygon id="XMLID_253_" class="st8" points="684,521.4 669.3,517.3 663,509.3 646.5,501.3 633.5,492.3 638.2,484.1 719.2,496.7 
			693.5,515.9 		"/>
		<polygon id="XMLID_254_" class="st9" points="680.2,505.7 670,502.5 650,494.2 638.2,484.1 642.5,478.3 651,476.7 672.4,464.3 
			680.2,459.8 722.3,484.1 707.5,489.9 690.4,502.5 		"/>
		<polygon id="XMLID_255_" class="st10" points="690.4,491.7 672.4,481.3 658.7,478.3 667.8,469.3 690.4,456.3 702.7,457.6 721,474 
			711.4,479.5 699.6,482.8 		"/>
		<polygon id="XMLID_256_" class="st11" points="680.2,505.7 690.4,491.7 699.6,482.8 690.4,502.5 684,521.4 		"/>
		<polygon id="XMLID_257_" class="st12" points="684,521.4 693.5,515.9 690.4,502.5 		"/>
		<polygon id="XMLID_258_" class="st13" points="721,474 711.4,479.5 699.6,482.8 690.4,502.5 693.5,515.9 705.2,513.6 729.5,495.9 
			722.3,484.1 		"/>
		<polygon id="XMLID_260_" class="st11" points="711.4,479.5 722.3,484.1 721,474 		"/>
		<polygon id="XMLID_261_" class="st11" points="705.2,513.6 717.1,487.5 723.2,500.5 		"/>
		<polygon id="XMLID_259_" class="st14" points="702.7,457.6 703.9,471.3 711.4,479.5 721,474 		"/>
		<polygon id="XMLID_263_" class="st13" points="703.9,471.3 695.4,481 690.4,491.7 699.6,482.8 711.4,479.5 		"/>
		<polygon id="XMLID_262_" class="st15" points="650,494.2 646.5,501.3 652.8,504.3 655.8,500.5 668.2,501.7 		"/>
		<polygon id="XMLID_264_" class="st15" points="658.7,478.3 664.6,489 672.6,487.9 672.4,481.3 		"/>
		<polygon id="XMLID_265_" class="st9" points="663,509.3 670.8,502.8 675.8,504.3 669.3,517.3 		"/>
		<polygon id="XMLID_266_" class="st8" points="672.6,487.9 683.4,501.3 690.4,491.7 672.4,481.3 		"/>
		<polygon id="XMLID_267_" class="st16" points="643.7,484.1 651.1,491.2 665.7,497.3 679.2,502.8 690.4,491.7 680.2,505.7 
			670.8,502.8 650,494.2 638.2,484.1 642.5,478.3 651,476.7 644.5,479.5 		"/>
		<polygon id="XMLID_269_" class="st16" points="677.8,463.5 665,476.3 672.4,477.6 685.9,489.1 672.4,481.3 658.7,478.3 
			667.8,469.3 		"/>
		<polygon id="XMLID_270_" class="st16" points="702.7,457.6 701.2,469.9 693.5,476.7 695.4,481 703.9,471.3 		"/>
		<polygon id="XMLID_268_" class="st9" points="690.4,456.3 687.8,465.2 693.5,476.7 701.2,469.9 702.7,457.6 		"/>
		<polygon id="XMLID_271_" class="st11" points="690.4,491.7 695.5,491.7 700.9,485.6 713.1,480.2 711.4,479.5 699.6,482.8 		"/>
		<polygon id="XMLID_273_" class="st12" points="713.1,480.2 717.1,487.5 723.2,500.5 729.5,495.9 722.3,484.1 		"/>
		<polygon id="XMLID_274_" class="st11" points="664.6,489 673.6,489 672.6,487.9 		"/>
	</g>
	<linearGradient id="SVGID_1_" gradientUnits="userSpaceOnUse" x1="126.0166" y1="457.6629" x2="702.9962" y2="457.6629">
		<stop  offset="0" style="stop-color:#FFFFFF;stop-opacity:0"/>
		<stop  offset="0" style="stop-color:#000000;stop-opacity:0.15"/>
	</linearGradient>
	<polygon class="st17" points="316.1,621.5 423.7,605.6 467.1,597.6 553.3,515.7 540.8,502 577.3,467.9 703,409 500.5,293.8 
		126,511.1 	"/>
	<g>
		<polygon class="st6" points="318.7,435.5 319.3,460.5 482,549.5 481.4,524.7 		"/>
		<polygon class="st7" points="481.4,524.6 482,549.4 640.5,453 639.9,428.1 		"/>
		<polygon class="st3" points="477.2,339.1 318.7,435.5 481.4,524.6 639.9,428.1 		"/>
	</g>
</g>
<g id="Layer_3">
	<g>
		<g>
			<path class="st18" d="M237.2,540.8c0.8,0,1.7-0.4,2.1-1.2c0.7-1.2,0.3-2.7-0.9-3.4l-6-3.6c-0.8-0.5-1.4-1.4-1.4-2.4v-40.5
				c0-1.4-1.1-2.5-2.5-2.5c-1.4,0-2.5,1.1-2.5,2.5v40.5c0,2.7,1.4,5.2,3.8,6.6l6,3.6C236.4,540.7,236.8,540.8,237.2,540.8z"/>
			<path class="st18" d="M241.1,529.7c0.2,0,0.4-0.1,0.6-0.2l6-3.6c2.4-1.4,3.2-4.1,3.2-10.7V483c0-0.7-0.5-1.2-1.2-1.2
				c-0.7,0-1.2,0.5-1.2,1.2v32.2c0,6.8-1,8-2,8.6l-6,3.6c-0.6,0.3-0.8,1.1-0.4,1.7C240.3,529.5,240.7,529.7,241.1,529.7z"/>
			<path class="st19" d="M245.4,558.8c0,0-3.6,3.4-9.8,0.1c0,0,0-0.1,0-0.1v-78.9c0-2.7,2.2-4.9,4.9-4.9c2.7,0,4.9,2.2,4.9,4.9
				L245.4,558.8L245.4,558.8L245.4,558.8z"/>
		</g>
		<path class="st18" d="M242.6,559.8c-0.1,0-0.3-0.1-0.3-0.3v-80.1c0-0.1,0.1-0.3,0.3-0.3c0.1,0,0.3,0.1,0.3,0.3v80.1
			C242.8,559.7,242.7,559.8,242.6,559.8z"/>
		<path class="st18" d="M244.1,559.8c-0.1,0-0.3-0.1-0.3-0.3v-80.1c0-0.1,0.1-0.3,0.3-0.3c0.1,0,0.3,0.1,0.3,0.3v80.1
			C244.4,559.7,244.3,559.8,244.1,559.8z"/>
		<path class="st18" d="M240.5,559.8c-0.1,0-0.3-0.1-0.3-0.3v-80.1c0-0.1,0.1-0.3,0.3-0.3c0.1,0,0.3,0.1,0.3,0.3v80.1
			C240.8,559.7,240.6,559.8,240.5,559.8z"/>
		<path class="st18" d="M238.3,559.8c-0.1,0-0.3-0.1-0.3-0.3v-80.1c0-0.1,0.1-0.3,0.3-0.3c0.1,0,0.3,0.1,0.3,0.3v80.1
			C238.6,559.7,238.5,559.8,238.3,559.8z"/>
		<path class="st18" d="M236.9,559c-0.1,0-0.3-0.1-0.3-0.3v-80.1c0-0.1,0.1-0.3,0.3-0.3c0.1,0,0.3,0.1,0.3,0.3v80.1
			C237.1,558.9,237,559,236.9,559z"/>
	</g>
	<g id="XMLID_1_">
		<polygon id="XMLID_22_" class="st8" points="318.7,595.7 335.6,588.9 342.9,575.8 362,562.6 377,547.8 371.6,534.3 278.1,555.1 
			307.8,586.7 		"/>
		<polygon id="XMLID_21_" class="st9" points="323.1,569.9 334.9,564.6 358,551 371.6,534.3 366.6,524.7 356.9,522.2 332.1,501.8 
			323.1,494.4 274.5,534.3 291.6,543.8 311.3,564.6 		"/>
		<polygon id="XMLID_20_" class="st10" points="311.4,546.8 332.1,529.7 347.9,524.7 337.5,510 311.4,488.5 297.1,490.8 276,517.7 
			287,526.8 300.7,532.2 		"/>
		<polygon id="XMLID_19_" class="st11" points="323.1,569.9 311.4,546.8 300.7,532.2 311.3,564.6 318.7,595.7 		"/>
		<polygon id="XMLID_18_" class="st12" points="318.7,595.7 307.8,586.7 311.3,564.6 		"/>
		<polygon id="XMLID_17_" class="st13" points="276,517.7 287,526.8 300.7,532.2 311.3,564.6 307.8,586.7 294.2,582.9 266.2,553.8 
			274.5,534.3 		"/>
		<polygon id="XMLID_16_" class="st11" points="287,526.8 274.5,534.3 276,517.7 		"/>
		<polygon id="XMLID_15_" class="st11" points="294.2,582.9 280.5,539.8 273.5,561.3 		"/>
		<polygon id="XMLID_14_" class="st14" points="297.1,490.8 295.8,513.3 287,526.8 276,517.7 		"/>
		<polygon id="XMLID_13_" class="st13" points="295.8,513.3 305.5,529.2 311.4,546.8 300.7,532.2 287,526.8 		"/>
		<polygon id="XMLID_12_" class="st15" points="358,551 362,562.6 354.8,567.6 351.3,561.3 337,563.4 		"/>
		<polygon id="XMLID_11_" class="st15" points="347.9,524.7 341.1,542.4 331.9,540.6 332.1,529.7 		"/>
		<polygon id="XMLID_10_" class="st9" points="342.9,575.8 333.9,565 328.2,567.6 335.6,588.9 		"/>
		<polygon id="XMLID_9_" class="st8" points="331.9,540.6 319.4,562.6 311.4,546.8 332.1,529.7 		"/>
		<polygon id="XMLID_8_" class="st16" points="365.2,534.2 356.7,546 339.9,556 324.3,565 311.4,546.8 323.1,569.9 333.9,565 
			358,551 371.6,534.3 366.6,524.7 356.9,522.2 364.3,526.8 		"/>
		<polygon id="XMLID_7_" class="st16" points="325.8,500.4 340.6,521.5 332.1,523.5 316.5,542.5 332.1,529.7 347.9,524.7 337.5,510 
					"/>
		<polygon id="XMLID_6_" class="st16" points="297.1,490.8 298.8,510.9 307.8,522.2 305.5,529.2 295.8,513.3 		"/>
		<polygon id="XMLID_5_" class="st9" points="311.4,488.5 314.4,503.2 307.8,522.2 298.8,510.9 297.1,490.8 		"/>
		<polygon id="XMLID_4_" class="st11" points="311.4,546.8 305.5,546.8 299.2,536.8 285.1,527.9 287,526.8 300.7,532.2 		"/>
		<polygon id="XMLID_3_" class="st12" points="285.1,527.9 280.5,539.8 273.5,561.3 266.2,553.8 274.5,534.3 		"/>
		<polygon id="XMLID_2_" class="st11" points="341.1,542.4 330.7,542.4 331.9,540.6 		"/>
	</g>
	<g>
		<g>
			<path class="st57" d="M770.1,556.2c-0.8,0-1.6-0.4-2.1-1.2c-0.7-1.1-0.3-2.6,0.8-3.3l5.9-3.5c0.8-0.5,1.3-1.4,1.3-2.3v-39.4
				c0-1.3,1.1-2.4,2.4-2.4c1.3,0,2.4,1.1,2.4,2.4v39.4c0,2.6-1.4,5.1-3.7,6.4l-5.9,3.5C771,556.1,770.5,556.2,770.1,556.2z"/>
			<path class="st57" d="M766.3,545.4c-0.2,0-0.4-0.1-0.6-0.2l-5.9-3.5c-2.3-1.4-3.1-4-3.1-10.4v-31.4c0-0.7,0.5-1.2,1.2-1.2
				s1.2,0.5,1.2,1.2v31.4c0,6.7,0.9,7.8,1.9,8.3l5.9,3.5c0.6,0.3,0.8,1.1,0.4,1.6C767.1,545.2,766.7,545.4,766.3,545.4z"/>
			<path class="st58" d="M762.1,573.8c0,0,3.5,3.3,9.6,0.1c0,0,0-0.1,0-0.1v-76.9c0-2.6-2.1-4.8-4.8-4.8c-2.6,0-4.8,2.1-4.8,4.8
				L762.1,573.8C762.1,573.8,762.1,573.8,762.1,573.8L762.1,573.8z"/>
		</g>
		<path class="st57" d="M764.9,574.8c-0.1,0-0.3-0.1-0.3-0.3v-78.1c0-0.1,0.1-0.3,0.3-0.3s0.3,0.1,0.3,0.3v78.1
			C765.2,574.7,765.1,574.8,764.9,574.8z"/>
		<path class="st57" d="M763.4,574.8c-0.1,0-0.3-0.1-0.3-0.3v-78.1c0-0.1,0.1-0.3,0.3-0.3s0.3,0.1,0.3,0.3v78.1
			C763.7,574.7,763.5,574.8,763.4,574.8z"/>
		<path class="st57" d="M766.9,574.8c-0.1,0-0.3-0.1-0.3-0.3v-78.1c0-0.1,0.1-0.3,0.3-0.3s0.3,0.1,0.3,0.3v78.1
			C767.2,574.7,767.1,574.8,766.9,574.8z"/>
		<path class="st57" d="M769.1,574.8c-0.1,0-0.3-0.1-0.3-0.3v-78.1c0-0.1,0.1-0.3,0.3-0.3s0.3,0.1,0.3,0.3v78.1
			C769.3,574.7,769.2,574.8,769.1,574.8z"/>
		<path class="st57" d="M770.5,574c-0.1,0-0.3-0.1-0.3-0.3v-78.1c0-0.1,0.1-0.3,0.3-0.3c0.1,0,0.3,0.1,0.3,0.3v78.1
			C770.7,573.9,770.6,574,770.5,574z"/>
	</g>
	<g>
		<g>
			<path class="st18" d="M434.2,663.9c0.8,0,1.7-0.4,2.1-1.2c0.7-1.2,0.3-2.7-0.9-3.4l-6-3.6c-0.8-0.5-1.4-1.4-1.4-2.4v-40.5
				c0-1.4-1.1-2.5-2.5-2.5s-2.5,1.1-2.5,2.5v40.5c0,2.7,1.4,5.2,3.8,6.6l6,3.6C433.4,663.8,433.8,663.9,434.2,663.9z"/>
			<path class="st18" d="M438.1,652.9c0.2,0,0.4-0.1,0.6-0.2l6-3.6c2.4-1.4,3.2-4.1,3.2-10.7v-32.2c0-0.7-0.5-1.2-1.2-1.2
				c-0.7,0-1.2,0.5-1.2,1.2v32.2c0,6.8-1,8-2,8.6l-6,3.6c-0.6,0.3-0.8,1.1-0.4,1.7C437.3,652.6,437.7,652.9,438.1,652.9z"/>
			<path class="st19" d="M442.4,682c0,0-3.6,3.4-9.8,0.1c0,0,0-0.1,0-0.1v-78.9c0-2.7,2.2-4.9,4.9-4.9c2.7,0,4.9,2.2,4.9,4.9
				L442.4,682L442.4,682L442.4,682z"/>
		</g>
		<path class="st18" d="M439.6,683c-0.1,0-0.3-0.1-0.3-0.3v-80.1c0-0.1,0.1-0.3,0.3-0.3c0.1,0,0.3,0.1,0.3,0.3v80.1
			C439.9,682.9,439.7,683,439.6,683z"/>
		<path class="st18" d="M441.1,683c-0.1,0-0.3-0.1-0.3-0.3v-80.1c0-0.1,0.1-0.3,0.3-0.3c0.1,0,0.3,0.1,0.3,0.3v80.1
			C441.4,682.9,441.3,683,441.1,683z"/>
		<path class="st18" d="M437.5,683c-0.1,0-0.3-0.1-0.3-0.3v-80.1c0-0.1,0.1-0.3,0.3-0.3c0.1,0,0.3,0.1,0.3,0.3v80.1
			C437.8,682.9,437.7,683,437.5,683z"/>
		<path class="st18" d="M435.3,683c-0.1,0-0.3-0.1-0.3-0.3v-80.1c0-0.1,0.1-0.3,0.3-0.3c0.1,0,0.3,0.1,0.3,0.3v80.1
			C435.6,682.9,435.5,683,435.3,683z"/>
		<path class="st18" d="M433.9,682.2c-0.1,0-0.3-0.1-0.3-0.3v-80.1c0-0.1,0.1-0.3,0.3-0.3c0.1,0,0.3,0.1,0.3,0.3v80.1
			C434.1,682.1,434,682.2,433.9,682.2z"/>
	</g>
	
		<image style="display:none;overflow:visible;" width="640" height="853" xlink:href="3348E8F0.jpg"  transform="matrix(1 0 0 1 197.5086 84.1034)">
	</image>
	<path class="st60" d="M355.7,273.9l-0.3,18.4l18.5,9.4c0,0,2.3,0.8,2.2-2.8"/>
	<g>
		<polygon class="st3" points="451.9,121.2 451.8,122.2 451.7,132 463.1,125.6 		"/>
		<polygon class="st3" points="425.7,135 425.5,136.1 425.5,145.8 436.8,139.5 		"/>
		<polygon class="st3" points="496.4,119.9 496.6,121.1 496.7,132.7 483.2,125.2 		"/>
		<polygon class="st3" points="522,132.7 522.1,133.8 522.2,143.5 510.9,137.2 		"/>
		<polygon class="st3" points="549.3,142.7 549.6,144.6 549.7,154.4 537.7,148.2 		"/>
		<polygon class="st3" points="400,166.7 387.6,172.7 389.8,174.7 398.9,179 		"/>
		<polygon class="st3" points="567,289.7 566.9,247.3 555.6,237.2 546.6,234.5 515.7,222.5 511.5,222.5 495.1,223.5 476.4,224.7 
			444.2,232.9 420.1,235.3 393.1,245 385.5,249.9 385.5,292 474.4,247.4 		"/>
		<polygon class="st3" points="427.3,179.9 415.1,185.3 417.1,188 426.2,192.3 		"/>
		<polygon class="st3" points="453.3,192.3 441.1,197.6 443.1,200.3 453.3,206 		"/>
		<polygon class="st7" points="549.7,144.5 549.5,146.4 549.4,156.2 561.3,150 		"/>
		<polygon class="st3" points="399.5,146.3 399.3,148.2 399.2,158 411.1,151.8 		"/>
		<polygon class="st7" points="399.1,148.1 399.4,150 399.5,159.7 387.5,153.6 		"/>
		<polygon class="st7" points="533,173.1 534.9,173.6 535.1,181 533.9,183.9 528.7,186.5 523.6,189.9 522.8,187.6 523.7,179.1 
			524.3,178.2 524.3,177.5 522,175.6 524,168 		"/>
		<path class="st75" d="M410.4,269.3l-0.4-20.6c0,0,0.6-7.1,4.4-7.2c0,0,5.8-3.8,6.3,3.8V264L410.4,269.3z"/>
		<path class="st75" d="M443.2,253.5l-0.4-20.6c0,0,0.6-7.1,4.4-7.2c0,0,5.8-3.8,6.3,3.8v18.8L443.2,253.5z"/>
		<path class="st75" d="M542.3,267.6l-0.2-22.3c0,0,0-8.7-4.3-8.8c0,0-6.5-4.3-7,4.3v21L542.3,267.6z"/>
		<path class="st75" d="M507.7,249.2l0.4-20.6c0,0-2-4.6-4.4-7.2c0,0-5.8-3.8-6.3,3.8v18.8L507.7,249.2z"/>
		<g>
			<path class="st11" d="M451.9,121.2l0.5-9.8c0,0,3.5,0,4,0.4c0.5,0.4,1.3,1.3,1.7,1.4c0.6,0.2,1.7,0.7,2.4,1.1
				c0.7,0.4,2.7,1.7,2.7,1.7c0.3,0.6,0.5,4.6,0.5,4.6c0.2,2-1,5-1,5s-3.6-1-4.1-1.2s-3.4-1.5-4-1.8
				C454,122.3,451.9,121.2,451.9,121.2z"/>
			<path class="st76" d="M475.1,486.3l1.3,11.8l12.1-0.4c-1.4,0.2,19.1-11.8,19.9-12.6c0,0,22.8-13.9,24.6-14.1l35.6-17.8l24.6-13.6
				c0,0-0.5-20.4-0.5-22.5l-1-14.1c0,0,1.3-29.5,0-31.4c0,0-1.2-20.4-1-22.5c0,0-0.8-12-0.5-14.1c0,0-1.2-7.6-1-8.9l0.7-17.2
				c0,0,0.1-3.5-0.7-6.9c-0.6-2.4-2.3-4.8-2.3-5.4l2.3-5.1c0,0-3.4-4.6-1.6-6.3v-10.5c0,0-1.6-5.9-1-7.9c0.6-1.9,1.5-10.2,0.5-11
				c-1-0.8-0.8-4.1,0-5.2c0.8-1.1-1-10.9-1.6-12.6c-0.6-1.7-0.3-8.8,0.5-10.5s-0.9-6.4-1.9-8.5l0.8-3.5c0,0,0.8-4.3-0.5-4.7v-5.2
				c0,0-1.6-4.1-0.9-7.1l0.3-9.7c0,0,0.9-3.4,0.1-7s-1.2-6.1-1.2-6.1l-0.5-5.1c0,0,1-2.8,0.7-5.4c0,0-1-3.6-0.9-5.4
				c0-1.4,0-6-0.3-8.2l-3.4,1l-8.1,3.4l-5.8,3.4l-3.9,2.1l0.4,0.9l0.5,6.7l-1.2,2.9l-5.2,2.6l-3.7,2.6l-1.1-1.9l-0.1-6.8l0.2-1.8
				l0.4-0.4c0,0-4.8,2.3-5.4,2.3c-0.5,0-6.2,2.9-6.2,2.9l-3,1l-1.7,1.4l-0.6,3.6l0.2,4.9l-1.5,2.1c0,0-2.1,1.1-3.6,1.6
				s-4.4,3.1-4.4,3.1s-1.9-0.4-1.4-0.4s0.4-4.7,0.4-4.7s0.5-2.6-0.1-3.7c-0.3-0.6-8.2,3.5-11.6,5.7c-1,0.6-0.9,1.6-1,1.6
				c-0.5,0-3.2,1.2-3.2,1.2l-0.5,4.1l-1,2.1l0.9,2c0,0-0.4,0.7-0.9,1.2c-0.5,0.5-1,1-1,1s-2,2.3-2.1,2.1c-0.1-0.2-4.4,1.5-4.2,2.1
				s-2.5,1-2.1,0c0.2-0.5-0.6-2-0.1-2.6c0.5-0.5,0.3-5.6,0.3-5.6l-1.1-1.8l-5.9,4.3l-1.6,2.1h-3.1l-2.1,1l-2.6,2.6h-3.1l-2.9,0.5
				l0.6,7l-0.2,4.5l0.1,3.1l0.3,3.3l0.5,3.1l3.7,0.6l4.7,2l5.2-0.5l4.7-1.6h8.9l8.4-2.6h4.2l4.2,2.1l18.3,11h4.7l3.7-1l3.7,2.1
				l5.2,0.5l5.4,6.3l3.2,2.3l4.2,2.3l2.4-0.3l2.7,7.8l1.8,3.7l-0.3,3.4l-0.4,5l-2.1,7.3l0.5,4.7l1.6,3.7l0.5,4.7l-3.7,5.8l-4,0.7
				l-6,7.7l-3.1,1l-4.3,1.2l-7.8,4l-1.6,1.6l-7.3,2.6l-2.8,3.5l-2.6,2.3l-2.1,0.6c0,0-1.3,0.6-2.5,0.5c-1-0.1-1.8-1.1-2.1-1
				c-0.5,0-3.7,0.5-3.7,0.5l-9.4,12.1l-5.8,7.9H500l-2.7,0.3l-5.2,3.4l-13.6,4.2l-3.5,6.5c0,0,0.3,5.1,0.5,5.9
				c0.1,0.9,0.8,6.6,0.8,6.6l-1.3,3.4l0.8,2.3l0.1,3.1l0.2,11.5l-1,7.5l1.2,6.7l-0.3,10.3l0.1,7l0.1,4.7l-1.7,10.2
				c0,0,2.4,2.8,2.4,3.4c0,0.5-1.2,10-1.2,10l-0.1,6.2l0.1,5.8l-0.1,8.1c0,0,0,0.5,0,1.6c0,1-0.4,6.3-0.4,6.3l1.4,2.3L475.1,486.3z"
				/>
			<path class="st5" d="M479.5,488.4l-1.1,11.8L463,491c0,0-3.8-4.4-9.1-5.1c0,0-6.9-1-7.6-1.7c0,0-2-3.2-3.9-3.5
				c0,0-2.7-0.4-4.2-1.4c0,0-2.6-1.7-4.1-1.9c0,0-5.9-2.4-6.5-3c0,0-5.7-4.2-7.5-4.4c0,0-17.3-8.2-18.4-8.4
				c-1.1-0.3-13.8-6.6-13.8-6.6l-3-3.3c0,0-4.7-1.4-5.7-1.8c-1-0.5-4.7-3.3-4.7-3.3s-2.4,0-3-0.5c-0.5-0.5-3.4-1.7-5.3-2.9
				c-2-1.2-2.4-3-2.4-3v-10.8c0,0-1.3-4.2-1-6.1c0,0,1-1.9,1-4.1l-0.5-12.3c0,0,0.6-5.9,1.5-5.8c0,0-1.2-5.2-1.1-6.5l0.2-8.1
				l0.4-6.2c0,0-1.4-2.5-0.1-4.5v-12.1c0,0-0.9-8-0.4-9.7c0,0,1.2-8.2,1-10.4c0,0,0.6-5.5,0.3-7.7c0,0,0.3-5.7,0.3-7.1l-0.6-16.6
				c0,0-0.4-10.6-0.3-12l0.3-8.1c0,0,0.2-1.3,2.1-1.8c0,0,1-1.6-0.9-3.3l-0.1-9.4c0,0,1.4-6.2,0.7-8.1c-0.6-1.9-1.5-10-0.5-10.8
				c1-0.8,0.9-4.5,0.1-5.6s-0.7-9.6-0.2-11.3c0.5-1.7,1.7-10.2,0.9-11.8c-0.8-1.6-2.1-5.3-1.1-7.4l1-4.6c0,0,0.8,0.4-0.1-3.5
				l-0.6-5.6c0,0,0.7-3.8-0.1-6.8l0.5-10.1c0,0-1.9-3-1.2-6.6c0.7-3.6,1.1-6.2,1.1-6.2l0.5-5.1c0,0-1.1-2.8-0.8-5.3
				c0,0,0.9-3.6,0.8-5.4c-0.1-1.4,0.6-7.7,0.8-9.9l2.7,2.6l8.1,3.3l6.6,2.4l3.2,2.9l-0.8,0.8l0,6.8l1.8,1.8l3.2,1.8l6.3,2.9v-0.5
				v-6.8l-0.3-1.8l0.3-1.3c0,0,4.1,3.1,4.6,3.1s7.1,2.4,7.1,2.4l2.2,1.4l2.3,1l0.1,4l-0.1,4.9l1.6,2.1c0,0,2.1,1,3.7,1.6
				c1.6,0.5,4.7,2.6,4.7,2.6s1.6,0,1,0s-0.5-4.7-0.5-4.7s-0.5-2.6,0-3.7c0.5-1,1.6-2.6,1.6-2.6l5.8,4.2l3.7,1.6l2.1,0.5l3.6,2.1
				l-0.7,2.3l0.5,4.1l-0.5,2.2l0.8,1.8c0,0,1.6,0,2.1,0.5s2.9,1.8,2.9,1.8s4.5,3.4,5,3.4c0.5,0,1-1.6,0.5-2.1
				c-0.5-0.5-0.3-5.7-0.3-5.7l0.5-1.5l0.6-2l11.3,6l3.2,1.1l3.5,1.8l3,0.7l1.4,10.2l0.3,5l0.5,3.3l-0.3,2.9l-6,2.6l-7.6,1.8
				l-6.9,2.4l-3.6,1.3l-4.7,3.1l-7.5-0.5l-10.8,0.7l-4.8-0.2l-2.9,2l-11.8,5.3l-10.5,2.6l-6.3-1l-3.7,2.1l-3.2,2.3l-4.1,2.4
				l-2.4-0.3l-1,7.3l-0.8,4.5l-2.1,3.1l1.6,4.7l1.3,2.4l0.6,4.6l0.3,5.5l0.9,3.8l-0.6,3.7l0.4,3.9l3.7,3.1l6.8,2.4l5,3.7l1.7,3.7
				l1.9,4.7l6.8,4.2l3.2,0.1l7.7,2.4l2.7,2.2l2.1,0.5c0,0,3.1,0.5,3.7,0.5s5.2,2.1,5.2,2.1l5.2,1.6l4.5,1.8l2.9,1.3l3.1,4.2l0.8,1.8
				l5,4.5l2.4,1.8l4.7-0.4l5.8,1.4l3.7,1.6l3.8,0.8l2,0.3l1,2.6l1,0.5l0.5,6.8c0,0-0.3,5.1-0.4,6c-0.1,0.9-0.7,6.6-0.7,6.6l1.3,3.4
				l-0.8,2.4v3.1v11.5l1.1,7.5l-1.1,6.7l0.5,10.3l0,7v4.7l1.8,10.2c0,0-2.4,2.9-2.4,3.4s1.4,10,1.4,10l0.2,6.2v5.8l0.3,8.1
				c0,0,0,0.5,0,1.6s0.5,6.3,0.5,6.3l-1.3,2.4L479.5,488.4z"/>
			<polyline class="st14" points="474.4,225.1 474.4,247.4 567.1,289.8 476.3,337.2 385.5,292 474.4,247.4 			"/>
			<path class="st11" d="M385.5,248.2v43.9l91,44.6l90.6-46.9l-0.2-43.8l3.3,0.2l2.9,1.6l1.4,3.5l1.7,5.9l0.9,2.5l-0.7,7l-1.3,5.4
				l-1,4.4l1.3,4.9l1.7,4.7l-1.3,4.8l-3.4,3.2l-4.6,2.1l-3.7,4.7l-2.1,2.4l-8.8,3.3l-5.4,1.8l-3.9,2.7l-5,1.8l-3.1,3.2l-2,2.5
				l-4.2,1.3l-1.9,0.2l-3.8-1l-3.3,2.2l-3.6,6.1l-2.7,3.5l-1.6,0.5l-2.5,5.1l-1.8,2.6l-2.8,1.1l-6-0.3l-5.4,2.5l-4.8,2l-8.1,2.2
				l-3.3,1.6l-0.7,1.1l-1-0.7l-0.6-1.8l-1.4-0.5l-4.1-0.7l-4.4-2.1l-5-1.1l-6.2,0.4l-4.4-3.9l-2.9-2.6l-3.3-4.6l-2.1-2.4l-5.7-2.4
				l-5.7-1.4l-6.5-2.7l-5.5-0.5l-5.4-3.7l-6.9-1.2l-7.6-4.2l-3.6-7.2l-7.2-5.9l-6.5-2.8l-2.2-2l-1-3.1l0.4-3.8l0.2-2.6l-1.2-5.4
				l-0.3-6.7c0,0-0.7-2.5-0.8-2.6c0-0.1-2.3-3.6-2.3-3.6v-2.9l2.2-4.1l1.5-7.1l0.4-2.2l2.8-0.5l3.4-1.5L385.5,248.2z"/>
			<path class="st11" d="M393.3,164l80.5-40.6l23.4,11.5l6.6,1L525,148l28.8,12.7l-4.6,1.9l-0.9,1.3l-2.6,1.3l-2.3-0.2l-0.5,1
				l-0.5,1.1l-0.8,1.1l-0.7,0.9l-2.3-0.5l-1.2,0.5L524,168l-2,7.5l2.3,1.9l0.1,2.6l-0.2,1.2l-3.1-1.3c0,0-0.5-0.5-1-0.6
				c-0.4-0.1-1,0.6-1,0.6l-1-0.2l-0.6,1.5l-0.8,1.3c0,0-7.8,4.1-8.6,4.4c-1,0.3-2.4-0.5-2.4-0.5l-2,1.4l-0.5,0.8l-14.6,8.1
				c0,0-1.1-0.4-1.6-0.3c-0.5,0.1-2.8,0.1-2.8,0.1l0.1,1.9l-3.1,0.2l-1,2l-3.5,0.5l-4.1,1l-3.6-2.9l-2.4-2.7l-1.5,0.6l-3.2-2l-1.6,2
				l-1,0.3c0,0-7.4-4.1-7.5-4.4c-0.1-0.3,0-0.2-1.2-2.4c-1.2-2.1-2-1.7-2.4-1.8s-0.6-0.7-0.6-0.7l-3.5-2l-4.7-1.7
				c0,0-2.3-1.3-2.6-1.3c-0.2,0-5.4-2.5-5.4-2.5l-2.9-0.1l-5.1-2.2l-9.8-4.3l-1.6-0.8l-3.2-1.5l-7.1-2.6c0,0-5.1-3.4-5.3-3.4
				C396.3,165.5,393.3,164,393.3,164z"/>
			<path class="st77" d="M479.5,488.4l-1.1,11.8L463,491c0,0-3.8-4.4-9.1-5.1c0,0-6.9-1-7.6-1.7c0,0-2-3.2-3.9-3.5
				c0,0-2.7-0.4-4.2-1.4c0,0-2.6-1.7-4.1-1.9c0,0-5.9-2.4-6.5-3c0,0-5.7-4.2-7.5-4.4c0,0-17.3-8.2-18.4-8.4
				c-1.1-0.3-13.8-6.6-13.8-6.6l-3-3.3c0,0-4.7-1.4-5.7-1.8c-1-0.5-4.7-3.3-4.7-3.3s-2.4,0-3-0.5c-0.5-0.5-3.4-1.7-5.3-2.9
				c-2-1.2-2.4-3-2.4-3v-10.8c0,0-1.3-4.2-1-6.1c0,0,1-1.9,1-4.1l-0.5-12.3c0,0,0.6-5.9,1.5-5.8c0,0-1.2-5.2-1.1-6.5l0.2-8.1
				l0.4-6.2c0,0-1.4-2.5-0.1-4.5v-12.1c0,0-0.9-8-0.4-9.7c0,0,1.2-8.2,1-10.4c0,0,0.6-5.5,0.3-7.7c0,0,0.3-5.7,0.3-7.1l-0.6-16.6
				c0,0-0.4-10.6-0.3-12l0.3-8.1c0,0,0.2-1.3,2.1-1.8c0,0,1-1.6-0.9-3.3l-0.1-9.4c0,0,1.4-6.2,0.7-8.1c-0.6-1.9-1.5-10-0.5-10.8
				c1-0.8,0.9-4.5,0.1-5.6s-0.7-9.6-0.2-11.3c0.5-1.7,1.7-10.2,0.9-11.8c-0.8-1.6-2.1-5.3-1.1-7.4l1-4.6c0,0,0.8,0.4-0.1-3.5
				l-0.6-5.6c0,0,0.7-3.8-0.1-6.8l0.5-10.1c0,0-1.9-3-1.2-6.6c0.7-3.6,1.1-6.2,1.1-6.2l0.5-5.1c0,0-1.1-2.8-0.8-5.3
				c0,0,0.9-3.6,0.8-5.4c-0.1-1.4,0.6-7.7,0.8-9.9"/>
			<path class="st77" d="M476.9,348.8l0,11.8c-0.5,3.6,0.5,8.6,0.5,8.6c0.9,2.7-0.4,7.3-0.4,7.3c0.6,2.8,0.1,5.8,0.1,5.8l0.3,9.6
				c1.2,7.1-0.5,10.5-0.5,10.5l0.5,15.5c0.9,1,0.1,3,0.1,3l0.4,9.5l1.6,4.3c-4.3,2.7-1.3,11-1.3,11c-0.6,3,0.8,13.8,0.8,13.8
				c-1.4,5,0.5,17.5,0.5,17.5c-0.5,0-2,2.4-2,2.4s0.7,4.8,1.1,4.9s0.9,4.8,0.9,4.8"/>
			<path class="st77" d="M582.1,150.3l1.4,25.6c0.1,4.4,0.8,9.5,0.8,9.5c0.7,2.2,0.2,10.5,0.2,10.5l0.5,12.6
				c0.8,2.1,0.1,3.5,0.1,3.5l0.5,7.4c0.5,2.3-0.1,5.3-0.1,5.3l0.2,7.1c-0.3,3.5,0.6,10.2,0.6,10.2c0.2,1.8,0.8,6.5,0.8,6.5
				c0.3,0.9-0.1,3.1-0.1,3.1c0.1,1,0.3,2.9,0.3,4.1c0,1.2-0.3,9.4-0.3,9.4c-0.5,2.8,0.3,7.7,0.3,7.7l0.3,13.1
				c0.5,0.8,0.6,1.4,0.8,3.9c0.2,2.5-0.6,5.6-0.6,6.5c0,1,1.4,1.8,1.7,3.5s-0.3,6.3-0.3,6.3c-0.1,2.7,0.1,2.5,1,4.4
				c0.8,1.9-0.6,4.2-0.6,4.2l-0.4,12c0,1.7,1.2,3.4,1.5,4.5c0.3,1.1-0.3,4.6-0.3,4.6l0.1,11.4c1.3,4.6,0.1,7,0.1,7l-0.1,5
				c-0.3,2.3,0.6,9.6,0.6,9.6c0.1,2.5,0.7,8.8,0.7,8.8l0.1,17.3c0.9,3,0.3,7,0.3,7c-0.3,1.2-0.1,7.9-0.1,7.9
				c0.5,1.8,0.3,6.3,0.3,6.3s0.3,6.1,0.3,6.3c0,0.2-0.1,6.9-0.1,6.9l1,4.8c0,0-0.4-1.9-0.1,0.3c0.2,2.2,0,5.8,0,5.8
				c-1,0-7.7,4.1-8.7,4.3c-1,0.2-5.4,4.1-5.4,4.1l-9.7,3.1l-0.3,2.2l-6.1,1.9c-4,1.4-9.9,6.3-10.7,6.8c-0.8,0.5-9.5,2-9.5,2
				l-0.5,1.5c-0.1,1.5-5.5,3.8-5.5,3.8c-2.1,0-7.6,3.9-7.6,3.9c-2,2-7.8,5.5-7.8,5.5c-4,0.1-13.3,5.8-13.3,5.8
				c-1,0.9-6.6,3.9-6.6,3.9c-1.9,0.4-7.2,4.1-7.2,4.1c-1.9,3.1-5.7,3.5-5.7,3.5l-9.4,2.9v-11.2"/>
			<path class="st77" d="M560.9,161v9.7c0,0.3-1.8,1.2-1.8,1.2c-0.6-0.1-1.9,1.4-1.9,1.4c-0.2,0.6-1.5,1.1-1.5,1.1
				c-0.5-0.1-2.5,0.3-2.9,1.2c-0.3,0.8-2,1-2,1V165l-0.7,1.4c-0.6,0.4-2.2,1.2-2.2,1.2c-1.3,0.1-3,0.6-3,0.6c-0.6,0-1.4,1.1-1.4,1.1
				c-0.6,1-0.6,0.8-0.6,0.8c-1-0.2-1.8,0.6-1.8,0.6c-0.3,0.3-2.9,1-2.9,1c-1-0.1-2,0.9-2,0.9c-1.6,0.7-1.1,1.6-1.1,1.6
				c0.1,0.7-0.4,1.4-0.3,1.8c0.1,0.3-0.5,0.9-0.4,1.6c0.1,0.7-0.1,1.8,0.2,2.6c0.3,0.7,0,2.2,0,2.2c-0.1,1-0.7,0.6-0.7,0.6l-1.6,0.5
				l-1.3,1.6c0,0,0,0-0.3,0.3s-1,1.2-1.8,0.9c-0.7-0.3-2,0.3-2.4,0.5c-0.3,0.1,0.1,0.7-1.2,2s-1.7-1.2-1.7-1.2V180l-0.7,0.5
				l-2.2,1.2c0,0-2,0.2-2.4,0.9s-2.7,1.7-3,2c-0.3,0.3-1.9,0.8-2.7,0.8c-0.8,0-1.1,1-1.3,1.8c-0.2,0.8-1,0.4-1.8,0.3
				c-0.8-0.1-2,1.3-2,1.3c0,1.2-0.7,3.5-0.7,3.5c-0.3,0.3-0.2,4.4-0.5,5.6s-9.6,6.5-9.6,6.5v-9.6l-2.2,0c-0.5,0-1.4,0.8-1.4,0.8
				c-0.3,0.6-2.4,1.4-2.4,1.4c-0.9,0.3-2.4,2.1-2.4,2.1c-0.4,0-2,0.1-2,0.1c-1,0-3.2,1.2-3.2,1.2c-1.9,0.7-2.2,2.7-2.4,2.7
				s-2.2-0.1-2.2-0.1c-0.7-0.2-5.3,0.4-5.3,0.4c-0.4-0.2-3.3-1.5-3.3-1.5c-0.8-0.2-3.7-2.1-3.7-2.1c-0.4,0-3-0.7-3.4-1
				c0,0-0.1-0.1-0.2-0.2c-0.8-0.5-2.8-1.7-2.8-1.7c-1.5,0-5.5-2.5-5.5-2.5c-1.6-0.8-1.3,0.8-1.3,0.8c0.2,1.1-0.7,2.4-1.1,4.4
				s0.6,3.4,0.9,4.2c0.2,0.8-0.2,1.4-0.6,1.4c-0.4,0-2.1-2-2.4-2.5c-0.3-0.5-2.9-1.8-4-1.8c-1,0-1.3-0.9-1.3-0.9l-2.4-0.9v-10.7
				c0,0,7-2.6,9.3-3.6s1.5-1.9,1.5-1.9c-0.5-0.5-7.4-3.1-8.2-3.3c-0.8-0.2-6.7-4-6.7-4c-1.4-0.3-3.7,1.8-3.7,1.8
				c-0.5,0.8-2.2,1.6-2.2,1.6c-0.7,0.2-5.1,1.1-5.1,1.1l0-0.1c0,0,0.8,1.8,1.5,2s1.6,1.2,2,1.4c0.3,0.2,1.6,0.5,1.7,0.8
				c0.1,0.3,1.3,0.4,1.6,0.5c0.3,0.1,0.8,0.2,1.4,0.7s-0.4,0.6,1,0.8c1.4,0.2,2,0,2.2,0.3s0.1,0.4,0.6,0.8c0.5,0.5,2.6,1,3.1,1.1"/>
			<path class="st77" d="M388.2,165l-0.5,8.2c0,0,9.8,5.7,10.7,5.7v-10.7c0,0,3.2,1.5,3.7,2c0.5,0.5,2.9,1.9,3.3,2.2
				c0,0,1,0.6,1.4,0.5s3.9,0.7,4.6,1.1s2.4,1.8,2.9,1.8s1.1,0.1,1.1,0.1v9.4c0,0,0.8,2.2,1.8,2.5c1,0.3,2.6-0.2,3.6,0.5
				c0,0,1.7,1.4,2.3,1.7c0,0,2.4,1.6,2.8,1.2c0,0,0.7-0.8,0-3.2c0,0-1-2-0.7-4.2c0,0,0.3-1.2,0.7-1.9c0,0,0.9-1.4,0.9-2.1"/>
			<path class="st77" d="M549.9,155.6c0,0-1.7-1.1-3.2-1.9c0,0-2.6-0.7-3.2-0.6c0,0-3.3-1.8-3.7-2.7l-1.2-0.5c0,0,2.8-1.3,4-1.4
				c0,0,3-0.8,3.4-1.2c0.4-0.4,2-0.7,2.2-1.2c0.3-0.5,0.4-0.3,0.7-1.4c0,0,0.8-1.8,0.8-2.4c0-0.5-0.3-6.6-1.3-7.5c0,0-7.7,4.8-8.8,5
				s-1.1,0-1.1,0v10.1"/>
			<path class="st7" d="M522.4,132.3l-0.4-8.4c0,0-0.8,0.1-1.8,0.6c-1.1,0.5-2.4,0.8-2.8,1.1c-0.5,0.3-1.1,1.1-1.5,1.2
				c-0.5,0.2-1.6,0.6-2.2,1c-0.6,0.3-2.4,1.4-2.4,1.4c-0.3,0.5-0.4,3.9-0.4,3.9c-0.2,1.7,0.9,4.3,0.9,4.3s3.3-0.9,3.7-1
				c0.4-0.1,3-1.8,3.5-2S522.4,132.3,522.4,132.3"/>
			<path class="st77" d="M451.1,121.2v-3.7c-0.1-6.4,2.2-6.8,2.2-6.8l12.9-7.2c0.7-0.3,4.6-0.5,4.6-0.5c0.8-1.2,3.1-2.3,3.1-2.3
				c0.5,0.5,1.1,0,1.1,0c1.1,0.8,18.8,10.3,18.8,10.3s1.6,1.1,2,2.7s0,7.1,0,7.1"/>
			<path class="st77" d="M399.3,149.7l0.6,8.3c0,0,1.9-1.9,4.4-2.4c0,0,2.7-1.1,3.8-1.3c1.1-0.2,1.5-1.2,1.5-1.2v-10.8
				c0,0-4.4-0.6-5.6-1c0,0-4.8-2.9-4.1-3.4c0,0,2.9-0.8,3.8-1.8s3-2.4,3.9-2.7c1-0.3,3.4-1.8,4.8-2.6l1.7-1.1c0,0,3.1,1.4,4.2,1.8
				c1.1,0.4,3.3,1,4.1,1.9c0.8,0.9,1.2,0.4,2.4,1.4l1.6,1.2v9.2l9.2-5.4l1-9c0,0-0.2-0.2-0.6-0.5c-0.7-0.6-2.1-1.6-3.5-1.9
				c0,0-4.8-1-7.2-2.6c0,0-0.8-0.7,3-2.5c0,0,4.2-1.8,4.5-2.5c0,0,3.9-1.8,3.8-1.8s3.4-0.7,3.7-1.4c0.3-0.7,1-1.1,1-1.1
				s3.3,2.4,4.2,2.6c1,0.1,2.9,1.9,3.4,1.6c0.5-0.3,3,1,3,1v9.1c0,0,0.7,1.2,2.4-0.5c0,0,1.2-1.7,3.3-2.1c0,0,2.4-1.2,2.9-1.8
				c0.4-0.5,1.5-0.7,1.5-0.7h1v-9.2"/>
			<path class="st77" d="M462,125.4c0,0-2.7-1.2-3.5-1.4c-0.8-0.2-1.6-0.7-2.2-0.7c-0.7,0-2.2-1-2.9-1.5c-0.6-0.5-1.4-1-1.4-1"/>
			<path class="st77" d="M409.4,163.6l64.2-32.5c0,0,11.9,5.9,13.8,6.7c1.9,0.7,4,2.9,5.3,2.9c1.3,0.1,4.3,0.3,5.8,1
				c0,0,9.9,5.2,11,6.3c0,0,5.6,3.9,7.3,4.1c0,0,5.5,1.6,6.2,2.2c0,0,5.7,4.2,6.8,4.5l7.2,1.9"/>
			<path class="st77" d="M474.8,207.6c0,0,0.2,3.3,0,5.1s-0.3,5.1,0.3,6.6c0,0,0.4,2.8,0,3.9c0,0,0.1,1.3,1.4,1.7
				c0,0,1.3-0.5,2.2-0.4c0,0,2,1,2.9,1.9c0,0,2.8,1.1,4.1,0.9c0,0,4-0.5,5.7-1.5c0,0,1.7-1.4,2.8-1.2c0,0,5,0.4,6,0.4
				s3.7-0.1,4.5-0.5c0,0,3.5-1,4.7-1.7c0,0,6-0.6,7.4,0c0,0,6.2,2.3,7.4,3.9c0,0,6,4.5,6.8,4.8c0,0,5.5,4,7.7,4.1
				c0,0,3.7,0.8,4.8,0.3c0,0,2.4-1.2,3.4-1.2c0,0,2.4,0.7,3.6,2.1h4.8c0,0,3.2,1,5,5.2c0,0,3.7,4.2,5.3,4.6c0,0,5.5,0.5,6.2,2.8
				c0,0,1,1.5,1.4,4.8c0,0,0.6,3,1.5,4c0,0,1.2,0.9,0.5,5.3c0,0-0.7,4.4-0.8,5.3c0,0-0.2,2.7-1.6,5.1c0,0-0.8,3.4,0,5.8
				c0,0,1.3,2.3,1.8,3.9c0,0,1.6,3-0.1,6.5c0,0-1.7,3.2-4.5,4.3c0,0-3.4,0.2-5.9,4.3l-2.8,3.9c0,0-5.8,1.9-6.8,2.4l-4.9,2.4
				c0,0-3.3,0.6-3.3,0.7c0,0.1-3.4,2.5-3.4,2.5s-2.2,0.8-3.7,1c0,0-3,1.6-4.7,4.6c0,0-1.5,2.2-2.8,2.4c0,0-3.3,1-4.8,0.9
				c0,0-2.5-1.8-4-0.8c0,0-2.6,0.5-4.4,4.4l-1.6,2.9c0,0-1.9,3.5-2.9,4s-2,0.2-2.3,1.2c-0.3,1-1.7,2.9-1.9,3.9
				c-0.1,1-1.9,3.9-4.1,4.2l-6-0.5c0,0-3.7,1-5.2,2.3c0,0-3.4,1.9-4.2,2c-0.8,0.1-2.5,0.8-4,1.1c-1.5,0.3-1,0.1-3,0.5
				c0,0-0.6,0.2-1.7,0.7c-1.1,0.5-1.8,0.8-1.8,0.8s-1.8,0.9-1.9,1c-0.1,0.2-0.4,0.5-0.7,1.4c0,0-1-1.1-1.1-2
				c-0.2-0.9-0.6-0.9-1.1-1.4c-0.5-0.5-2.5-0.1-3.7-0.6c-1.2-0.5-5.1-2.2-5.6-2.4c-0.5-0.3-4.4-1.2-4.4-1.2
				c-0.5,0.1-6.3,0.6-6.3,0.6c-0.3-1.1-5.2-4.7-5.2-4.7c-0.8-0.1-2.9-3.4-3-3.8c-0.1-0.5-3.4-3.9-3.4-4.4c-0.1-0.5-5-2.2-5.4-2.4
				c-0.5-0.3-2.1-1.1-3.9-1.1s-3.8-1.4-4.4-1.8c-0.5-0.5-4.2-1.3-5.3-1.5c-1.2-0.2-4.4-0.5-4.4-0.5c-0.2-0.9-4.4-3.4-4.4-3.4
				c-0.7-0.4-7.2-1.3-7.2-1.3c-1.8,0.1-7.7-4-7.7-4c-1.3-1-3.7-7.2-3.7-7.2c-1.4-3.3-7.6-6.3-7.6-6.3c-2.7,0.2-7-3.3-7-3.3
				c-3.2-2.5-1.8-7-1.8-7c1.4-2.2-0.2-4.8-0.2-4.8c-0.7-0.5-0.6-4.4-0.6-4.4l-0.2-5c-0.5-4.5-2.1-5-2.1-5c-2.2-3-1-5.4-1-5.4
				c1.7-1,2.1-3.9,2.1-3.9l1-4.4l0.9-4.6h1.5c2-0.6,6-3.4,6-3.4c0.9-0.4,4.4-3.6,4.4-3.6c1.1,0.3,4.1,0.7,4.1,0.7s3.2,0.5,4.1,0.5
				c0.9,0,3-1.4,3-1.4c1.1-0.1,1.5,0,1.9,0c0.5,0,4.5-1.5,5.3-1.7c0.8-0.2,6-2.3,6-2.3c0.4,0,3.5-2.1,4.1-2.2s4.1-2.1,4.1-2.1
				l3.2-0.1c1.7,0.4,9.2-0.5,9.2-0.5c0.6-0.4,4.6-0.3,4.6-0.3l6.2,0.8l4.4-3c0.5-0.5,5.6-2.3,5.6-2.3c1.1-0.4,8.3-2.8,8.3-2.8
				c2-0.3,4.3-0.9,4.3-0.9c1.8-0.8,4.6-4.3,4.6-4.3"/>
			<g>
				<path class="st79" d="M494.6,374.1l-1.1,0.5l-0.6,0.2c-0.1,0.1-0.2,0.1-0.4,0.2c-0.2,0-0.2,0-0.3,0.1c-0.3,0.1-0.7,0.3-0.9,0.6
					c-0.2,0.3-0.4,0.6-0.7,1c-0.1,0.1-0.2,0.2-0.3,0.3c-0.2,0.1-0.3,0.1-0.4,0.2c-0.2,0.1-0.3,0.1-0.6,0.2c-0.5,0.2-0.9,0.2-1.4,0.2
					c-0.4,0-0.8,0-1.2,0.1c-0.4,0-0.9,0.1-1.2,0.2c0,0,0,0,0-0.1c0-0.1,0-0.1,0,0c0,0.1,0,0.4-0.1,0.5c-0.2,0.3-0.3,0.3-0.5,0.5
					c-0.3,0.3-0.6,0.6-1,0.8c-0.7,0.5-1.6,0.6-2.4,0.9c-0.8,0.3-1.5,0.8-2.2,1.2c-0.8,0.4-1.6,0.6-2.4,0.6c0.8-0.1,1.7-0.3,2.4-0.8
					c0.7-0.4,1.4-1,2.2-1.3c0.8-0.3,1.6-0.5,2.3-1c0.3-0.2,0.6-0.5,0.9-0.8c0.1-0.1,0.3-0.3,0.4-0.4c0-0.1,0,0,0-0.1
					c0,0-0.1-0.1,0-0.3c0.1-0.2,0.2-0.2,0.2-0.3c1.7-0.6,3.6-0.3,4.6-1.2c0.2-0.3,0.4-0.7,0.7-1.1c0.2-0.2,0.4-0.4,0.6-0.5
					c0.2-0.1,0.4-0.2,0.6-0.3c0.4-0.1,0.4-0.1,0.5-0.2l0.6-0.3l1.2-0.6L494.6,374.1z"/>
			</g>
			<g>
				<path class="st79" d="M488.1,377.1l0.1-1.5c0-0.2,0-0.4,0-0.6c0-0.1-0.1-0.2-0.1-0.4c0-0.2,0-0.3,0-0.5c0.1-0.5,0.2-1,0.5-1.5
					c0.1-0.1,0.1-0.3,0.2-0.3c0,0,0-0.1,0-0.2c0-0.2,0-0.4-0.1-0.7c0-0.2,0-0.5-0.1-0.7l-0.3-0.6c-0.1-0.2-0.2-0.4-0.3-0.6
					c0,0-0.1-0.1-0.1-0.1c0,0,0,0-0.1-0.1c-0.1-0.1-0.1-0.1-0.1-0.2c0-0.1,0-0.3,0-0.4c0-0.5,0-0.9,0-1.4c0-0.2,0-0.5-0.1-0.7
					c-0.1-0.2,0.1-0.5,0.1-0.7c-0.3,0.5,0.1,0.9,0.1,1.4c0.1,0.5,0.1,0.9,0.2,1.4c0,0.1,0,0.2,0,0.3c0,0,0,0,0,0c-0.1,0,0,0,0,0
					c0.1,0,0.1,0.1,0.2,0.2c0.2,0.2,0.3,0.4,0.4,0.6l0.3,0.6c0.1,0.3,0.1,0.5,0.2,0.7c0,0.2,0.1,0.5,0.1,0.7c0,0.1,0,0.4-0.1,0.5
					c-0.1,0.1-0.1,0.2-0.1,0.3c-0.1,0.4-0.2,0.9-0.3,1.3c0,0.2,0,0.2,0.1,0.5c0.1,0.3,0.1,0.6,0.1,0.8l0.1,1.3L488.1,377.1z"/>
			</g>
			<g>
				<path class="st79" d="M476.5,382.5c-1.1-0.4-2.1-0.8-3.1-1.4c-0.5-0.3-1-0.6-1.3-1.1c-0.2-0.2-0.3-0.5-0.5-0.6
					c-0.2-0.2-0.5-0.2-0.7-0.3c0.3,0.1,0.5,0.1,0.8,0.3c0.2,0.2,0.4,0.4,0.6,0.6c0.4,0.4,0.8,0.7,1.3,1c1,0.5,2,0.8,3.1,1.1
					L476.5,382.5z"/>
			</g>
			<g>
				<path class="st79" d="M500.2,393.6c0.4-0.5,0.9-1,1.4-1.4c0.5-0.4,1.2-0.7,1.7-1c0.3-0.2,0.5-0.4,0.8-0.5c0.3-0.2,0.7-0.3,1-0.3
					c0.3,0,0.7,0,1,0c0.1,0,0.2,0,0.3-0.1c0.1-0.1,0.2-0.2,0.3-0.3c0.2-0.2,0.5-0.5,0.9-0.6c0.3-0.2,0.7-0.2,0.9-0.4
					c0.5-0.2,1-0.7,1.2-1.2c0-0.1,0-0.4,0.3-0.6c0.2-0.1,0.4-0.2,0.5-0.2c0.3-0.1,0.7-0.1,1-0.1c0.7,0,1.3-0.1,2-0.1
					c-0.6,0.2-1.3,0.3-1.9,0.4c-0.3,0.1-0.7,0.1-1,0.2c-0.1,0-0.3,0.1-0.4,0.2c-0.1,0-0.1,0.1-0.1,0.3c-0.1,0.8-0.8,1.3-1.4,1.6
					c-0.7,0.2-1.2,0.4-1.6,0.9c-0.1,0.1-0.2,0.2-0.4,0.3c-0.1,0.1-0.4,0.2-0.6,0.2c-0.3,0-0.6,0-0.9,0c-0.3,0-0.6,0.1-0.8,0.3
					c-0.3,0.2-0.6,0.4-0.9,0.5C502.3,392.1,501.2,392.7,500.2,393.6z"/>
			</g>
			<g>
				<path class="st79" d="M506.2,390.5c0.4,0.4,0.7,1.1,0.8,1.7c0,0.3,0.1,0.6,0.1,0.9l0.1,0.5c0.1,0.2-0.1,0.5-0.2,0.6l0,0l0,0
					l-0.8,0.5l-0.4,0.2c-0.1,0-0.1,0.1-0.2,0.1c0,0,0,0,0,0c-0.1,0.2-0.3,0.2-0.4,0.1c0,0,0,0,0,0c0,0,0.2-0.1,0.2-0.1c0,0,0,0,0,0
					c0,0,0,0,0,0c0,0,0,0.1,0,0.2l0,0.5l0.1,0.9l0-0.1c0.2,0.4,0.3,0.9,0.2,1.3c0,0.2-0.1,0.4-0.2,0.6c-0.1,0.2-0.2,0.4-0.4,0.5
					c0.1-0.2,0.2-0.4,0.3-0.6c0.1-0.2,0.1-0.4,0.1-0.6c0-0.4-0.1-0.8-0.3-1.1l0,0l0,0c-0.1-0.3-0.1-0.6-0.2-0.9
					c0-0.2-0.1-0.3-0.1-0.5c0-0.1,0-0.2,0-0.3c0,0,0-0.1,0-0.1c0,0,0-0.1,0.1-0.2c0-0.1,0.2-0.2,0.3-0.1c0.1,0,0.1,0,0.1,0
					c0,0-0.1,0-0.2,0.1c0-0.1,0.1-0.1,0.1-0.1c0.1-0.1,0.1-0.1,0.2-0.2c0.1-0.1,0.3-0.2,0.4-0.3c0.3-0.2,0.6-0.3,0.9-0.5l-0.1,0.1
					c0.1-0.1,0.1-0.1,0.1-0.3l-0.1-0.5c0-0.3,0-0.7,0-1C506.7,391.7,506.6,391.1,506.2,390.5z"/>
			</g>
			<g>
				<path class="st79" d="M541.8,396.2c0.7-0.4,1.4-0.7,2.2-1c0.7-0.3,1.5-0.5,2.2-0.8c0.7-0.3,1.4-0.6,2-1.1c0.3-0.2,0.7-0.4,1-0.7
					c0.1-0.1,0.3-0.3,0.3-0.3c0,0,0.1-0.1,0.1-0.2c0,0,0.1-0.1,0.1-0.1c0.1,0,0.1-0.1,0.2-0.1l0.3-0.1l1.1-0.5
					c0.2-0.1,0.3-0.2,0.4-0.3c0,0,0.1-0.1,0,0c0,0,0,0,0,0c0,0,0-0.2,0.1-0.3c0.2-0.5,0.5-0.5,0.7-0.6c0.2-0.1,0.4-0.2,0.6-0.3
					l1.1-0.4c0.4-0.1,0.7-0.3,1.1-0.4c0.3-0.1,0.6-0.4,1-0.6c0.4-0.2,0.7-0.4,1.1-0.6c0.2-0.1,0.4-0.2,0.6-0.2
					c0.2-0.1,0.3-0.1,0.5-0.3l0.1,0.1c-0.1,0.1-0.1,0.2-0.2,0.3c-0.1,0.1-0.2,0.1-0.2,0.2l-0.4,0.4c-0.3,0.3-0.6,0.5-0.9,0.8
					c-0.3,0.3-0.6,0.6-1,0.8c-0.4,0.2-0.7,0.4-1.1,0.6l-1.1,0.5c-0.2,0.1-0.3,0.1-0.5,0.2c-0.1,0.1-0.3,0.2-0.2,0.1c0,0,0-0.1,0,0
					c0,0,0,0.2-0.1,0.3c-0.1,0.2-0.2,0.3-0.4,0.4c-0.2,0.2-0.4,0.2-0.6,0.3l-1.1,0.4l-0.3,0.1l-0.1,0c0,0,0,0,0,0c0,0,0,0,0,0
					c-0.2,0.3-0.4,0.4-0.6,0.5c-0.4,0.2-0.7,0.4-1,0.6c-0.7,0.4-1.5,0.7-2.2,1c-0.8,0.2-1.6,0.4-2.3,0.6
					C543.3,395.8,542.6,396,541.8,396.2L541.8,396.2z"/>
			</g>
			<g>
				<path class="st79" d="M550,393.1l-0.2-2c-0.1-0.7-0.1-1.3,0-2c0-0.3,0.1-0.7,0.2-1.1c0.1-0.2,0.1-0.4,0.2-0.5l0.1-0.3
					c0,0,0,0,0-0.1c0-0.4-0.3-1.1-0.5-1.6l0,0.1c-0.2-0.3-0.3-0.6-0.3-0.9c0-0.2,0-0.3,0-0.5c0-0.1,0-0.2,0.1-0.3
					c0-0.1,0.1-0.1,0.1-0.2l0.7-1.5l0.1,0c0.1,0.3,0.1,0.6,0.1,0.9c0,0.3,0,0.6,0,0.9c0,0.1,0,0.2,0,0.2c0,0,0,0.1,0,0.1
					c0,0.1,0,0.2,0.1,0.3c0.1,0.2,0.2,0.4,0.3,0.6l0,0l0,0c0.3,0.7,0.5,1.3,0.3,2.2c0,0.1-0.1,0.3-0.2,0.4l-0.1,0.2
					c-0.1,0.1-0.1,0.3-0.2,0.4c-0.1,0.3-0.2,0.6-0.3,0.9c-0.1,0.6-0.2,1.3-0.2,1.9l-0.2,2H550z"/>
			</g>
			<g>
				<path class="st79" d="M517.3,213.8c0.2-0.3,0.4-0.6,0.6-0.9l0.3-0.4c0.1-0.2,0.3-0.2,0.4-0.3l0.2-0.2l0.3,0.1
					c0.1,0,0.3,0.1,0.5,0.1c0.1,0,0.1,0,0.2,0c0.1,0,0.1,0,0.3-0.1c0.5-0.2,1-0.3,1.4-0.4c0.4-0.1,0.8-0.3,1.1-0.5
					c0.2-0.2,0.6-0.3,0.9-0.3c0.3,0,0.5,0,0.6-0.1c0.2-0.1,0.5-0.4,0.8-0.7l0.1-0.1l0,0c0,0-0.1,0.1,0,0.2c0,0.1,0.1,0.3,0.2,0.4
					c0.2,0.1,0.2,0.1,0.3,0.1c0.1,0,0.1,0,0.2,0l0,0c0,0,0,0,0,0l-0.1,0l0,0c0,0,0,0-0.1,0c-0.1,0.1-0.5-0.2-0.5-0.5
					c0-0.2,0.1-0.3,0.1-0.3l0-0.1c0.1-0.1,0.1-0.1,0.1-0.1l0,0l0.1-0.1l0.1-0.1l0.5-0.5c0.2-0.1,0.3-0.3,0.5-0.5
					c0.1-0.1,0.1-0.2,0.2-0.3c0.1-0.1,0.2-0.1,0.3-0.2c0.2-0.1,0.4-0.3,0.7-0.4c0.3-0.1,0.5-0.1,0.8-0.1c-0.2,0.2-0.4,0.3-0.5,0.5
					c-0.1,0.2-0.2,0.4-0.3,0.6c0,0.1-0.1,0.2-0.2,0.3c-0.1,0.1-0.2,0.2-0.3,0.3c-0.2,0.2-0.3,0.4-0.5,0.5l-0.5,0.5l-0.1,0.1
					l-0.1,0.1l0,0c0,0,0,0,0,0l0-0.1c0,0,0.1,0,0.1-0.3c0-0.3-0.4-0.6-0.5-0.5c-0.2,0-0.1,0-0.1,0l0,0l-0.1,0l0,0l0,0
					c0.1,0,0.1,0,0.2,0c0.1,0,0.1,0,0.3,0.1c0.2,0.1,0.2,0.4,0.2,0.4c0,0.1-0.1,0.3-0.1,0.3l0,0.1c-0.1,0.1-0.1,0.1-0.1,0.2
					c-0.3,0.4-0.7,0.8-1.3,1.1c-0.3,0.1-0.6,0.1-0.8,0.1c-0.2,0-0.3,0.1-0.4,0.1c-0.5,0.3-1,0.5-1.4,0.6c-0.5,0.1-0.9,0.2-1.3,0.4
					c0,0-0.2,0.1-0.4,0.1c-0.2,0-0.3,0.1-0.5,0.1c-0.3,0-0.6,0-0.9-0.2l0.5-0.1c-0.1,0.1-0.2,0.2-0.4,0.3l-0.5,0.2
					C518,213.6,517.7,213.7,517.3,213.8z"/>
			</g>
			<g>
				<path class="st79" d="M524.7,211c-0.6-0.8-1-1.7-1.1-2.8c-0.1-0.5,0-1,0-1.4c0-0.4,0-0.9-0.1-1.3c0-0.5-0.1-0.9,0-1.4
					c0-0.5,0.2-0.9,0.3-1.4c0-0.1,0-0.1,0-0.3c0-0.1-0.1-0.2-0.1-0.3l-0.3-0.6c-0.2-0.4-0.5-0.8-0.5-1.2c0.1,0.4,0.4,0.8,0.7,1.2
					l0.4,0.6c0.1,0.1,0.1,0.2,0.2,0.3c0.1,0.1,0.1,0.3,0.1,0.4c-0.2,0.9-0.3,1.8,0,2.6c0.1,0.4,0.2,0.9,0.3,1.4
					c0.1,0.5,0.1,0.9,0.1,1.3c0.2,0.8,0.6,1.6,1.1,2.2L524.7,211z"/>
			</g>
			<g>
				<path class="st79" d="M522.3,212c0,0.6,0,1.2-0.1,1.8c0,0.3-0.1,0.6-0.2,0.9c-0.1,0.3-0.3,0.5-0.4,0.8c-0.1,0.2-0.2,0.5-0.3,0.7
					c0,0.2,0,0.5,0,0.8c0,0.6,0.1,1.1,0.2,1.7c-0.2-0.5-0.3-1.1-0.4-1.7c-0.1-0.3-0.1-0.5-0.1-0.9c0-0.3,0.1-0.6,0.2-0.9
					c0.2-0.6,0.4-1,0.3-1.5c0-0.5-0.1-1.1-0.2-1.6L522.3,212z"/>
			</g>
			<g>
				<g>
					<path class="st79" d="M545.3,438.6c1.2-0.7,2.4-1.3,3.7-1.8l3.9-1.3l1.9-0.7c0.6-0.2,1.2-0.5,1.7-0.8c1-0.7,1.9-1.8,3.1-2.7
						c0.6-0.4,1.3-0.7,2-0.9c0.7-0.2,1.3-0.4,1.9-0.6c1.3-0.4,2.5-0.9,3.9-1.3c0.8-0.2,1.5-0.2,2.1-0.3c0.6-0.1,1.2-0.4,1.7-0.7
						c1.3-0.5,2.6-0.9,4-1.2c-1.2,0.7-2.4,1.3-3.5,2.1c-0.6,0.4-1.3,0.6-2.1,0.8c-0.7,0.1-1.4,0.1-2,0.3c-1.2,0.4-2.5,0.9-3.8,1.3
						c-0.6,0.2-1.3,0.4-2,0.6c-0.6,0.2-1.2,0.4-1.7,0.8c-1,0.7-1.9,1.8-3.1,2.7c-0.6,0.4-1.3,0.8-1.9,1l-1.9,0.7l-3.9,1.3
						C548,438.1,546.6,438.3,545.3,438.6z"/>
				</g>
				<g>
					<path class="st79" d="M570.2,429c-0.5,0-0.8-0.2-1-0.4c-0.2-0.2-0.3-0.5-0.4-0.7c-0.1-0.5-0.2-0.9-0.1-1.4
						c0-0.9,0.2-1.7,0.4-2.5c0.1-0.2,0.1-0.4,0.3-0.7c0,0,0,0,0,0c0,0,0-0.1,0-0.1l0-0.3c0-0.4,0-0.8,0-1.2c0-0.4,0.1-0.8,0.2-1.2
						c0.1-0.2,0.2-0.4,0.2-0.6c0-0.1-0.1-0.1-0.2-0.2l-0.3-0.1l0.3,0.1c0.1,0,0.2,0.1,0.2,0.2c-0.1,0.2-0.1,0.4-0.2,0.6
						c-0.1,0.4-0.1,0.8-0.1,1.2l0.1,1.2l0,0.3c0,0.1,0,0.1,0,0.2c0,0.1-0.1,0.2-0.1,0.3c-0.1,0.1-0.1,0.3-0.1,0.5
						c-0.1,0.8-0.2,1.6-0.1,2.4c0,0.4,0.1,0.8,0.2,1c0.1,0.3,0.4,0.4,0.3,0.4L570.2,429z"/>
				</g>
				<g>
					<path class="st79" d="M558.8,433.2c-0.1,0.2-0.2,0.6-0.2,1c0,0.2,0,0.4,0.1,0.6c0,0.2,0.1,0.5,0.1,0.7c0,0.3-0.1,0.6-0.1,0.8
						c-0.1,0.2-0.1,0.3-0.1,0.5c0,0.2,0,0.4,0.1,0.6l0.1,0.3l0,0l0,0c0,0,0,0.1,0,0.1c-0.1,0.1,0.2,0-0.2,0.3
						c-0.6-0.1-0.3-0.2-0.3-0.2l0,0l0,0l0,0c0,0,0,0,0.1,0.1c0.1,0,0.2,0,0.3,0c0,0,0.1-0.1,0.1-0.1c0-0.1,0,0,0,0.1
						c-0.1,0.8,0,1.7,0,2.6c0,0.4,0,0.9,0,1.3c0,0.2,0,0.4,0.1,0.6c0.1,0.2,0.4,0.2,0.6,0.2c-0.2,0-0.5,0-0.6-0.2
						c-0.1-0.2-0.2-0.4-0.2-0.6c-0.1-0.4-0.1-0.9-0.2-1.3c-0.1-0.9-0.3-1.7-0.3-2.6c0-0.1,0-0.1,0-0.3c0,0,0-0.1,0.1-0.1
						c0.1-0.1,0.2-0.1,0.3,0c0.1,0.1,0.1,0.1,0.2,0.1l0,0l0,0l0,0c-0.1,0,0.2,0-0.3-0.1c-0.4,0.3-0.1,0.2-0.2,0.3c0,0,0,0.1,0,0.1
						c0,0,0,0,0,0l0,0l-0.1-0.3c-0.1-0.2-0.1-0.4-0.2-0.7c0-0.3,0-0.6,0.1-0.8c0.1-0.2,0.1-0.3,0-0.5c0-0.3-0.3-0.8-0.3-1.3
						c-0.1-0.5-0.1-1,0.1-1.6L558.8,433.2z"/>
				</g>
			</g>
			<g>
				<g>
					<path class="st79" d="M468.4,462.1c-1-0.9-2.1-1.6-3.3-2c-0.3-0.1-0.6-0.3-0.9-0.5c-0.3-0.2-0.5-0.2-0.8-0.3
						c-0.3,0-0.6,0-0.9,0c-0.2,0-0.5-0.1-0.6-0.2c-0.2-0.1-0.3-0.2-0.4-0.3c-0.4-0.5-0.9-0.7-1.6-0.9c-0.7-0.3-1.3-0.8-1.4-1.6
						c0-0.2,0-0.3-0.1-0.3c-0.1-0.1-0.2-0.1-0.4-0.2c-0.3-0.1-0.6-0.1-1-0.2c-0.7-0.1-1.3-0.3-1.9-0.4c0.7,0,1.3,0.1,2,0.1
						c0.3,0,0.7,0.1,1,0.1c0.2,0,0.3,0.1,0.5,0.2c0.2,0.2,0.2,0.4,0.3,0.6c0.1,0.5,0.6,1,1.2,1.2c0.3,0.1,0.6,0.2,0.9,0.4
						c0.3,0.1,0.6,0.4,0.9,0.6c0.1,0.1,0.2,0.2,0.3,0.3c0.1,0.1,0.2,0.1,0.3,0.1c0.3,0,0.7,0,1,0c0.3,0,0.7,0.2,1,0.3
						c0.3,0.2,0.5,0.4,0.8,0.5c0.5,0.3,1.2,0.6,1.7,1C467.5,461.1,468,461.6,468.4,462.1z"/>
				</g>
				<g>
					<path class="st79" d="M462.4,459c-0.3,0.5-0.5,1.1-0.5,1.7c0,0.3,0,0.6,0,1l-0.1,0.5c0,0.1,0,0.1,0.1,0.3l-0.1-0.1
						c0.3,0.1,0.6,0.3,0.9,0.5c0.1,0.1,0.3,0.2,0.4,0.3c0.1,0,0.1,0.1,0.2,0.2c0,0,0.1,0.1,0.1,0.1c0-0.1-0.2-0.1-0.2-0.1
						c0,0,0,0,0.1,0c0.1,0,0.2,0.1,0.3,0.1c0,0.1,0.1,0.1,0.1,0.2c0,0,0,0.1,0,0.1c0,0.1,0,0.2,0,0.3c0,0.2,0,0.3-0.1,0.5
						c-0.1,0.3-0.1,0.6-0.2,0.9l0,0l0,0c-0.2,0.3-0.3,0.7-0.3,1.1c0,0.2,0,0.4,0.1,0.6c0.1,0.2,0.1,0.4,0.3,0.6
						c-0.2-0.1-0.3-0.3-0.4-0.5c-0.1-0.2-0.2-0.4-0.2-0.6c-0.1-0.5,0-0.9,0.2-1.3l0,0.1l0.1-0.9l0-0.5c0-0.1,0-0.2,0-0.2
						c0,0,0,0,0,0c0,0,0,0,0,0c0,0,0.1,0.1,0.2,0.1c0,0,0,0,0,0c0,0-0.3,0-0.4-0.1c0,0,0,0,0,0c0,0-0.1-0.1-0.2-0.1l-0.4-0.2
						l-0.8-0.5l0,0l0,0c-0.1-0.1-0.2-0.4-0.2-0.6l0.1-0.5c0.1-0.3,0.1-0.6,0.1-0.9C461.6,460.1,461.9,459.5,462.4,459z"/>
				</g>
			</g>
			<g>
				<g>
					<path class="st79" d="M439.5,414.7c-0.7-0.3-1.5-0.5-2.2-0.8c-0.8-0.2-1.5-0.3-2.3-0.6c-0.8-0.2-1.5-0.6-2.2-1
						c-0.4-0.2-0.7-0.4-1-0.6c-0.2-0.1-0.4-0.2-0.6-0.5c0,0,0,0,0,0c0,0,0,0,0,0l-0.1,0l-0.3-0.1l-1.1-0.4c-0.2-0.1-0.4-0.2-0.6-0.3
						c-0.1-0.1-0.2-0.2-0.4-0.4c-0.1-0.1-0.1-0.2-0.1-0.3c0-0.1,0,0,0,0c0.1,0.1-0.1-0.1-0.2-0.1c-0.1-0.1-0.3-0.1-0.5-0.2l-1.1-0.5
						c-0.4-0.2-0.7-0.3-1.1-0.6c-0.4-0.2-0.7-0.6-1-0.8c-0.3-0.3-0.6-0.5-0.9-0.8l-0.4-0.4c-0.1-0.1-0.2-0.1-0.2-0.2
						c-0.1-0.1-0.1-0.2-0.2-0.3l0.1-0.1c0.2,0.1,0.3,0.2,0.5,0.3c0.2,0.1,0.4,0.2,0.6,0.2c0.4,0.2,0.7,0.4,1.1,0.6
						c0.4,0.2,0.7,0.5,1,0.6c0.3,0.1,0.7,0.3,1.1,0.4l1.1,0.4c0.2,0.1,0.4,0.2,0.6,0.3c0.2,0.1,0.4,0.2,0.7,0.6
						c0.1,0.1,0.1,0.2,0.1,0.3c0,0.1,0,0,0,0c0,0,0,0,0,0c0.1,0.1,0.3,0.2,0.4,0.3l1.1,0.5l0.3,0.1c0,0,0.1,0.1,0.2,0.1
						c0,0,0.1,0.1,0.1,0.1c0.1,0.1,0.1,0.1,0.1,0.2c0,0,0.2,0.2,0.3,0.3c0.3,0.2,0.6,0.4,1,0.7c0.6,0.4,1.3,0.8,2,1.1
						c0.7,0.3,1.5,0.5,2.2,0.8C438.1,414,438.9,414.3,439.5,414.7L439.5,414.7z"/>
				</g>
				<g>
					<path class="st79" d="M431.2,411.5l-0.2-2c-0.1-0.7-0.1-1.3-0.2-1.9c-0.1-0.3-0.1-0.6-0.3-0.9c-0.1-0.1-0.1-0.3-0.2-0.4
						l-0.1-0.2c-0.1-0.1-0.1-0.3-0.2-0.4c-0.1-0.9,0.1-1.5,0.3-2.2l0,0l0,0c0.1-0.2,0.2-0.4,0.3-0.6c0-0.1,0.1-0.2,0.1-0.3
						c0,0,0-0.1,0-0.1c0,0,0-0.1,0-0.2c0-0.3-0.1-0.6,0-0.9c0-0.3,0-0.6,0.1-0.9l0.1,0l0.7,1.5c0,0.1,0,0.1,0.1,0.2
						c0,0.1,0.1,0.2,0.1,0.3c0,0.2,0,0.4,0,0.5c-0.1,0.3-0.2,0.6-0.3,0.9l0-0.1c-0.2,0.5-0.5,1.2-0.5,1.6c0,0,0,0.1,0,0.1l0.1,0.3
						c0.1,0.2,0.1,0.3,0.2,0.5c0.1,0.4,0.2,0.7,0.2,1.1c0.1,0.7,0,1.4,0,2l-0.2,2H431.2z"/>
				</g>
			</g>
			<g>
				<g>
					<path class="st79" d="M395.3,441.8c-1-0.3-1.9-0.6-2.8-1l-2.6-1.4l-1.3-0.7c-0.5-0.3-0.9-0.6-1.2-1c-0.7-0.8-1.1-1.7-1.7-2.4
						c-0.3-0.3-0.6-0.6-1-0.8c-0.4-0.2-0.9-0.4-1.3-0.6c-0.9-0.4-1.8-1-2.6-1.4c-0.4-0.2-0.8-0.2-1.4-0.3c-0.6-0.2-1-0.5-1.4-0.8
						c-0.6-0.7-1.4-1.3-2.2-2c0.9,0.3,1.8,0.7,2.7,1.3c0.4,0.3,0.7,0.5,1.1,0.6c0.4,0.1,1,0.1,1.5,0.4c0.9,0.5,1.7,1,2.6,1.4
						c0.4,0.2,0.8,0.4,1.3,0.6c0.5,0.3,0.9,0.6,1.3,1c0.7,0.8,1.1,1.7,1.7,2.4c0.3,0.3,0.6,0.6,1,0.8l1.3,0.7l2.6,1.4
						C393.7,440.7,394.5,441.2,395.3,441.8z"/>
				</g>
				<g>
					<path class="st79" d="M379,431.3c-0.2,0-0.1,0-0.1,0c0,0,0.1-0.1,0.1-0.1c0.1-0.1,0.1-0.3,0.2-0.4c0.1-0.3,0.1-0.7,0.1-1.1
						c0-0.8,0-1.5-0.1-2.3c0-0.2,0-0.4-0.1-0.5c-0.1-0.2,0-0.3,0-0.4l0-0.3l0.1-1.2c0-0.4,0-0.8,0-1.2c0-0.2-0.1-0.4-0.1-0.6
						c0-0.1,0-0.2,0.1-0.3c0.1-0.1,0.2-0.1,0.3-0.1c-0.5,0.1-0.1,0.6-0.1,1c0.1,0.4,0.1,0.8,0.1,1.2l0,1.2c0,0.2,0,0.5,0,0.5
						c0.1,0.2,0.1,0.4,0.2,0.6c0.1,0.8,0.2,1.6,0.3,2.4c0,0.4,0,0.8,0,1.2c0,0.2-0.1,0.4-0.2,0.7c-0.1,0.1-0.1,0.2-0.2,0.4
						c-0.1,0.1-0.3,0.3-0.6,0.2L379,431.3z"/>
				</g>
				<g>
					<path class="st79" d="M387.1,436.1c0.1,0.5,0.1,1,0.1,1.4c0,0.4-0.2,0.9-0.2,1.2c0,0.2,0,0.3,0,0.5c0,0.2,0.1,0.5,0.1,0.7
						c0,0.2-0.1,0.5-0.1,0.7l-0.1,0.3l0,0.1l0,0c0,0,0,0,0,0l0,0c0.3-0.1-0.5-0.3-0.4-0.1c0,0,0,0,0,0l0,0l0-0.1c0,0,0-0.1,0.2-0.1
						c0.1,0,0.1,0.1,0.1,0.1l0,0.1c0,0,0,0,0,0.1c0,0.1,0,0.1,0,0.1c0,0.9-0.1,1.7-0.2,2.5l-0.1,1.3c0,0.2,0,0.4-0.1,0.6
						c0,0.1-0.1,0.2-0.2,0.3c-0.1,0.1-0.2,0.1-0.3,0.1c0.2,0,0.4-0.1,0.4-0.4c0-0.2,0-0.4,0.1-0.6l0-1.3c0-0.8,0-1.7,0-2.5
						c0,0,0,0,0,0l0,0l0,0c0,0,0.1,0.1,0.1,0.1c0.2,0,0.2-0.1,0.2-0.1l0,0l0,0l0,0c0.1,0.2-0.7,0-0.4-0.1l0,0l0,0l0,0l0-0.1l0-0.3
						c0-0.2,0-0.4,0-0.6c0-0.2,0-0.3-0.1-0.6c-0.1-0.2-0.1-0.5-0.1-0.7c0-0.5,0.1-0.9,0.1-1.3c0-0.4,0-0.8-0.1-1.1L387.1,436.1z"/>
				</g>
			</g>
			<g>
				<path class="st79" d="M364.8,360.8c0.4-0.1,0.8,0,1.2,0c0.4,0,0.8,0,1.2,0.1c0.4,0.1,0.8,0,1.2,0.3c0.3,0.3,0.6,0.7,0.6,1.3
					l-0.1,0.1c-0.6,0.1-0.9,0.1-1.2,0.1c-0.3,0-0.6-0.4-0.9-0.6l-1.9-1.1L364.8,360.8z"/>
			</g>
			<g>
				<path class="st79" d="M364.5,303.7c0.2,0.2,0.5,0.2,0.7,0.3l0.8,0.2c0.6,0.1,1.2,0.4,1.6,0.6c0.4,0.2,1,0.4,1.5,0.6
					c0.5,0.2,1,0.6,1.5,0.8c-0.6,0.2-1.2,0.1-1.8,0c-0.5-0.1-1.1-0.2-1.7-0.5c-0.6-0.3-1-0.6-1.5-0.8c-0.2-0.1-0.5-0.3-0.8-0.5
					c-0.1-0.1-0.2-0.2-0.3-0.3C364.6,304,364.5,303.9,364.5,303.7z"/>
			</g>
			<g>
				<path class="st79" d="M586.7,386.8c0.5-0.2,0.8-0.5,1.2-0.8c0.4-0.3,0.7-0.5,1.1-0.8c0.2-0.1,0.4-0.2,0.7-0.4
					c0.1-0.1,0.2-0.1,0.5-0.2c0.1,0,0.2,0,0.2,0c0,0,0,0,0,0c0,0,0.1,0,0.1,0c0.4,0,0.9-0.2,1.4-0.2c-0.3,0.4-0.7,0.8-1.2,1
					c-0.1,0-0.1,0.1-0.2,0.1c0,0-0.1,0-0.1,0c0,0,0,0,0,0c0,0-0.1,0.1-0.2,0.1l-0.6,0.4c-0.4,0.2-0.9,0.5-1.3,0.6
					C587.7,387,587.2,387,586.7,386.8z"/>
			</g>
			<g>
				<path class="st79" d="M585.2,337.9c0.2-0.2,0.4-0.4,0.5-0.7c0.2-0.1,0.4-0.1,0.6-0.2c0.4-0.2,0.8-0.4,1.2-0.7
					c0.2-0.1,0.4-0.3,0.6-0.4c0.1-0.1,0.2-0.1,0.5-0.2c0.1,0,0.2,0,0.2,0c0,0,0,0,0,0l0.1,0c0.2,0,0.4-0.1,0.6-0.2
					c0.3,0.1,0.6,0.1,0.9,0.2c-0.1,0.3-0.2,0.6-0.4,0.8c-0.2,0.1-0.5,0.2-0.8,0.3c-0.1,0-0.2,0-0.2,0.1l-0.2,0c0,0,0,0,0,0
					c0,0-0.1,0-0.2,0.1c-0.2,0.1-0.4,0.2-0.6,0.4c-0.4,0.2-0.8,0.5-1.3,0.7c-0.2,0.1-0.5,0.2-0.7,0.3
					C585.7,338.2,585.4,338.1,585.2,337.9z"/>
			</g>
			<g>
				<path class="st79" d="M579.7,232.7c0.4,0,0.9-0.1,1.4-0.3c0.5-0.2,1-0.5,1.6-0.7c0.1-0.1,0.3-0.1,0.4-0.2c0,0,0.1,0,0.2,0l0.1,0
					c0.1,0,0.1,0,0.2-0.1c0.3-0.1,0.5-0.3,0.7-0.4c0.5-0.3,1-0.6,1.4-1c-0.4,0.4-0.9,0.8-1.3,1.1c-0.2,0.2-0.5,0.3-0.7,0.5
					c-0.1,0-0.1,0.1-0.2,0.1l-0.1,0l-0.1,0c-0.1,0.1-0.2,0.1-0.3,0.2c-0.5,0.3-0.9,0.7-1.4,1c-0.5,0.3-1,0.7-1.8,0.7V232.7z"/>
			</g>
			<g>
				<path class="st79" d="M569,218.1c0.2-0.7,0.4-1.4,0.6-2.1c0.1-0.3,0.2-0.7,0.2-1c0-0.3,0-0.7,0-1.1c0-0.7-0.1-1.4-0.2-2.1
					c-0.2-0.7-0.4-1.3-0.7-1.9l0.4,0.2c-0.5,0.1-0.9,0.5-1.3,0.9c-0.4,0.4-0.8,0.9-1.4,1.4c-1.1,0.8-2.2,1.4-3.4,1.9
					c-1.1,0.5-2.4,1-3.5,1.4c-0.3,0.1-0.6,0.2-0.8,0.4c-0.1,0.1-0.3,0.1-0.4,0.2c-0.1,0.1-0.1,0.1-0.4,0.3c-0.2,0.1-0.4,0.2-0.6,0.2
					l-0.5,0.1c-0.3,0.1-0.6,0.2-0.8,0.3c-1.1,0.4-2.3,1-3.5,1.4c-0.6,0.2-1.3,0.4-1.9,0.5c-0.6,0.1-1.1,0.4-1.6,0.7
					c-0.5,0.3-1,0.7-1.3,1.2c-0.2,0.2-0.3,0.5-0.5,0.8c-0.2,0.3-0.4,0.5-0.7,0.7c-1,0.8-2.1,1.4-3.3,1.9c1.1-0.6,2.2-1.2,3.2-2
					c0.2-0.2,0.4-0.4,0.6-0.7c0.1-0.3,0.2-0.6,0.4-0.9c0.3-0.6,0.8-1.1,1.3-1.5c0.5-0.4,1.1-0.7,1.8-0.9c0.6-0.2,1.2-0.4,1.7-0.6
					c1.1-0.5,2.2-1.1,3.4-1.6c0.3-0.1,0.6-0.2,0.9-0.3l0.5-0.1c0.1,0,0.3-0.1,0.3-0.1c0,0,0.2-0.2,0.4-0.3c0.2-0.1,0.3-0.2,0.5-0.3
					c0.3-0.1,0.6-0.3,0.9-0.4c1.2-0.5,2.3-0.9,3.5-1.4c1.1-0.5,2.2-1.1,3.2-1.7c0.4-0.3,0.9-0.8,1.3-1.2c0.5-0.4,1-0.9,1.8-1.1
					l0.3,0l0.1,0.3c0.3,0.7,0.5,1.4,0.7,2.2c0.1,0.8,0.2,1.5,0.1,2.3c0,0.4-0.1,0.7-0.2,1.1c-0.1,0.4-0.2,0.7-0.4,1.1
					C569.6,216.8,569.3,217.4,569,218.1z"/>
			</g>
			<g>
				<path class="st79" d="M558.1,215.8c-0.1-0.3-0.2-0.6-0.3-0.9c0-0.1-0.1-0.1-0.1-0.1c0,0,0,0-0.1-0.1c-0.2-0.2-0.3-0.3-0.4-0.5
					c-0.2-0.3-0.4-0.7-0.4-1.1c0-0.2,0-0.5,0.1-0.7c0.1-0.2,0.2-0.3,0.3-0.5c0.2-0.3,0.5-0.5,0.7-0.8c0,0,0.1-0.1,0.1-0.1l0-0.3
					l0-0.5c0-0.7,0.1-1.4,0-2.1c0.2,0.7,0.2,1.4,0.2,2.1l0,0.5l0,0.2c0,0.2-0.1,0.3-0.1,0.4c-0.2,0.3-0.4,0.6-0.6,0.9
					c-0.1,0.1-0.2,0.3-0.2,0.4c0,0.1,0,0.2,0,0.3c0.1,0.3,0.2,0.5,0.4,0.8c0.1,0.1,0.2,0.2,0.3,0.3c0,0,0.2,0.1,0.3,0.2
					c0.1,0.1,0.2,0.2,0.2,0.3c0.2,0.4,0.4,0.7,0.5,1.1L558.1,215.8z"/>
			</g>
			<g>
				<path class="st79" d="M576.7,173.1c0.1-0.1,0.3-0.3,0.4-0.4c0.1-0.1,0.2-0.3,0.3-0.3c0.2-0.1,0.5-0.2,0.7-0.3
					c0.5-0.3,0.9-0.6,1.5-0.9c0.1-0.1,0.3-0.2,0.5-0.2c0,0,0.2,0,0.3,0c0.1,0,0,0,0,0c0,0,0.1,0,0.1,0c0.2-0.1,0.4-0.3,0.7-0.4
					c0.1-0.1,0.2-0.2,0.3-0.2c0.1-0.1,0.3-0.1,0.4-0.1c0.3-0.1,0.6-0.1,0.9-0.2c-0.1,0.3-0.3,0.6-0.4,0.8c-0.1,0.1-0.2,0.3-0.3,0.4
					c-0.1,0.1-0.2,0.2-0.4,0.2c-0.3,0.2-0.5,0.3-0.8,0.5c-0.1,0-0.2,0.1-0.3,0.1c-0.1,0-0.2,0-0.2,0c0,0,0.1,0,0,0
					c-0.1,0-0.2,0.1-0.3,0.1c-0.5,0.3-1,0.6-1.5,0.9c-0.3,0.1-0.5,0.3-0.9,0.4c-0.1,0.1-0.3,0-0.5,0
					C577,173.3,576.8,173.2,576.7,173.1z"/>
			</g>
			<g>
				<path class="st79" d="M367.1,172.9c0.4,0.1,0.6,0.3,0.8,0.4c0.2,0.1,0.4,0.3,0.6,0.5c0.4,0.3,0.7,0.7,1,1.1
					c0.5,0.7,1.1,1.4,1.6,2.1c-0.8-0.4-1.6-0.7-2.4-1.1c-0.4-0.2-0.8-0.3-1.1-0.3c-0.2,0-0.4-0.1-0.5-0.1c-0.2,0-0.4,0-0.4,0
					L367.1,172.9z"/>
			</g>
			<g>
				<path class="st79" d="M386.1,205.5c0.6-0.2,1.3-0.1,2,0.2c0.6,0.3,1.2,0.8,1.6,1.3c0.4,0.5,0.8,0.9,1.3,1.1
					c0.5,0.2,1.3,0.4,1.8,0.7c1.2,0.5,2.3,1.1,3.5,1.5c0.7,0.2,1.3,0.6,1.8,0.9l0.8,0.6c0.1,0.1,0.3,0.2,0.4,0.3
					c0.1,0.1,0.3,0.2,0.4,0.2c-0.3,0.1-0.7-0.1-1-0.2l-0.9-0.3c-0.6-0.2-1.2-0.5-1.8-0.6c-1.4-0.2-2.6-0.8-3.7-1.3
					c-0.6-0.3-1.1-0.5-1.8-0.7c-0.7-0.4-1.2-1-1.5-1.5c-0.4-0.5-0.7-1-1.2-1.3C387.4,205.7,386.8,205.5,386.1,205.5z"/>
			</g>
			<g>
				<path class="st79" d="M393,208.8c0.2-0.3,0.2-0.6,0-0.9c-0.1-0.3-0.3-0.4-0.5-0.7c-0.1-0.1-0.1-0.1-0.2-0.3c0-0.1,0-0.1-0.1-0.2
					c0-0.2,0.1-0.3,0.2-0.4c0.1-0.1,0.1-0.1,0.1-0.1c-0.1,0.1,0,0,0-0.1c0-0.3,0-0.6-0.1-0.9c0-0.3-0.1-0.7-0.1-0.9c0,0,0,0,0,0l0,0
					c0,0-0.1-0.1-0.1-0.1c-0.1-0.2-0.1-0.3-0.1-0.3c0-0.2,0-0.2,0-0.3c0-0.2,0.1-0.3,0.1-0.5c0.1-0.7,0.3-1.4,0.6-2
					c0.2,0.7,0.2,1.4,0.3,2.1c0,0.2,0,0.3,0,0.5c0,0.1,0,0.2,0,0.2c0,0,0,0-0.1-0.2c0,0-0.1-0.1-0.1-0.1c0,0,0.1,0,0.1,0.1
					c0.1,0.1,0.1,0.2,0.2,0.3c0.2,0.5,0.2,0.8,0.3,1.1c0,0.4,0.1,0.7,0,1.1c0,0.2,0,0.5-0.4,0.8c-0.1,0.1-0.2,0.1-0.1,0.1
					c0.1-0.1,0.2-0.2,0.2-0.3c0-0.1,0-0.1,0-0.1c0,0,0,0.1,0.1,0.2c0.1,0.3,0.3,0.7,0.3,1.1C393.5,208.2,393.3,208.6,393,208.8z"/>
			</g>
			<g>
				<g>
					<path class="st79" d="M416.4,217.2c0.7,0.3,1.5,0.5,2.2,0.8c0.8,0.2,1.5,0.4,2.3,0.6c0.8,0.2,1.5,0.6,2.2,1
						c0.4,0.2,0.7,0.4,1,0.6c0.2,0.1,0.4,0.2,0.6,0.5c0,0,0,0,0,0c0,0,0,0,0,0l0.1,0l0.3,0.1l1.1,0.4c0.2,0.1,0.4,0.2,0.6,0.3
						c0.1,0.1,0.2,0.2,0.4,0.4c0.1,0.1,0.1,0.2,0.1,0.3c0,0.1,0,0,0,0c-0.1-0.1,0.1,0.1,0.2,0.1c0.1,0.1,0.3,0.1,0.5,0.2l1.1,0.5
						c0.4,0.2,0.7,0.3,1.1,0.6c0.4,0.2,0.7,0.6,1,0.8c0.3,0.3,0.6,0.5,0.9,0.8l0.4,0.4c0.1,0.1,0.2,0.1,0.2,0.2
						c0.1,0.1,0.1,0.2,0.2,0.3l-0.1,0.1c-0.2-0.1-0.3-0.2-0.5-0.3c-0.2-0.1-0.4-0.2-0.6-0.2c-0.4-0.2-0.7-0.4-1.1-0.6
						c-0.4-0.2-0.7-0.5-1-0.6c-0.3-0.1-0.7-0.3-1.1-0.4l-1.1-0.4c-0.2-0.1-0.4-0.2-0.6-0.3c-0.2-0.1-0.4-0.2-0.7-0.6
						c-0.1-0.1-0.1-0.2-0.1-0.3c0-0.1,0,0,0,0c0,0,0,0,0,0c-0.1-0.1-0.3-0.2-0.4-0.3l-1.1-0.5l-0.3-0.1c0,0-0.1-0.1-0.2-0.1
						c0,0-0.1-0.1-0.1-0.1c-0.1-0.1-0.1-0.1-0.1-0.2c0,0-0.2-0.2-0.3-0.3c-0.3-0.2-0.6-0.4-1-0.7c-0.6-0.4-1.3-0.8-2-1.1
						c-0.7-0.3-1.5-0.5-2.2-0.8C417.8,218,417,217.7,416.4,217.2L416.4,217.2z"/>
				</g>
				<g>
					<path class="st79" d="M424.7,220.5l0.2,2c0.1,0.7,0.1,1.3,0.2,1.9c0.1,0.3,0.1,0.6,0.3,0.9c0.1,0.1,0.1,0.3,0.2,0.4l0.1,0.2
						c0.1,0.1,0.1,0.3,0.2,0.4c0.1,0.9-0.1,1.5-0.3,2.2l0,0l0,0c-0.1,0.2-0.2,0.4-0.3,0.6c0,0.1-0.1,0.2-0.1,0.3c0,0,0,0.1,0,0.1
						c0,0,0,0.1,0,0.2c0,0.3,0.1,0.6,0,0.9c0,0.3,0,0.6-0.1,0.9l-0.1,0l-0.7-1.5c0-0.1,0-0.1-0.1-0.2c0-0.1-0.1-0.2-0.1-0.3
						c0-0.2,0-0.4,0-0.5c0.1-0.3,0.2-0.6,0.3-0.9l0,0.1c0.2-0.5,0.5-1.2,0.5-1.6c0,0,0-0.1,0-0.1l-0.1-0.3c-0.1-0.2-0.1-0.4-0.2-0.5
						c-0.1-0.4-0.2-0.7-0.2-1.1c-0.1-0.7,0-1.4,0-2l0.2-2L424.7,220.5z"/>
				</g>
			</g>
			<path class="st80" d="M504.5,224.4c2.6,0.8,3.9,5.6,3.9,5.6v20.2l-11.4-5.6v-19.8"/>
			<path class="st80" d="M542.4,267.6v-20.5c0,0-1.1-10-5.1-10.9s-6.9,0.4-7.1,9.1c-0.2,8.7,0,16.7,0,16.7L542.4,267.6z"/>
			<polyline class="st80" points="453.5,232.9 453.5,248.6 442.8,253.9 442.8,236 			"/>
			<path class="st80" d="M453.5,248.6c0,0-9.9-4.5-10.9-4.9"/>
			<path class="st80" d="M412.1,242.5c-1.7,0.7-2.1,6.1-2.1,6.1V270l11.1-5.8v-18.9c0,0,0.6-4.3-2.7-5.6"/>
			<line class="st81" x1="410" y1="259.4" x2="421.1" y2="264.2"/>
			<path class="st81" d="M530.2,262c0,0,10.9-4.7,12.1-5.4"/>
			<line class="st81" x1="497" y1="244.6" x2="508.5" y2="240.5"/>
			<path class="st7" d="M549.4,143.2l-0.4-8.4c0,0-0.8,0.1-1.8,0.6c-1.1,0.5-2.4,0.8-2.8,1.1s-1.1,1.1-1.5,1.2
				c-0.5,0.2-1.6,0.6-2.2,1c-0.6,0.3-1.9,1.1-1.9,1.1c-0.3,0.5,0,8.5,0,8.5s3.3-0.9,3.7-1c0.4-0.1,3-1.8,3.5-2
				S549.4,143.2,549.4,143.2"/>
			<path class="st7" d="M547.3,167.7l3.4-12.8l-12-6.6l0-8.5l-16.7-7.4l-0.4,9.9c0,0-10.2-4.9-10.1-5c0.1-0.1-0.3-8.2-0.3-8.2
				l-4.7-4.5l-10.6-3.9l-1,4l0.3,6l-11-5.2l0.3-9.9l-11.4-4.5l-0.1,0.1c-0.5,0.4,0.2,7.4,0.1,8.6c-0.1,1.2,0.4,11.1,0.4,11.1"/>
			<g>
				<path class="st3" d="M415.3,177.6l11.2-5.9c0,0,0.1,0.5,0,0.1s-2.7-1.5-2.7-1.5c-1-0.5-8.2-3.5-8.2-3.5
					c-1.9-0.7-6.7-3.3-6.7-3.3c-1-0.3-3.4,1.4-3.4,1.4c-0.8,0.5-7,3.2-7,3.2l1.1,1.3l1.6,1.4l2.3,1.2l2.8,0.9l4,1.5
					c0,0,1.7,1.1,1.8,1.1c0,0,1.7,0.5,1.7,0.5l1.4,2"/>
				<path class="st3" d="M367.6,153.6c1.9-0.2,3.7-1.9,5.1-2.5c1.4-0.6,2.2-0.7,3.7-1.6s1.1-1.1,2.1-1.3c1-0.1,2.4-1.3,2.4-1.3
					s1.5,0.1,2.5-1c1-1.1,2.5-1.4,3.2-1.8c0.7-0.4,1.5-1,1.9-1c0,0,2.2,2,3.1,2.2c1,0.1,4.1,1.6,4.9,1.9c0.8,0.2,1.7,1.1,2.3,1.5
					c0.6,0.3,1,1.1,1,1.1s-9.3,3-10.9,4.6c0,0,2.7,1.4,4.2,2c0,0,6.4,1.2,6.4,1.9c0,0-8.3,6.1-11.3,6.4c0,0-2.9-2.1-4.7-2.7
					c0,0-5.9-2.1-6.5-2.6c0,0-5.3-2.2-5.7-2.2s-1-0.9-1.5-1.3c-0.5-0.5-1.5-1.6-1.6-1.7S367.6,153.6,367.6,153.6z"/>
				<path class="st3" d="M523.9,179.8c0,0-0.5-0.7-1.1-1.1c-0.6-0.4-2.9-0.8-2.9-0.8s-2-0.8-2.4-0.8s-0.5-0.3-1.2-0.5
					c-0.7-0.3-0.7-0.5-1.5-0.7c-0.8-0.1-1.1-2.1-1.4-1.8c-0.3,0.3-3.2,1.4-3.4,1.6c-0.2,0.1-1.7,1.1-1.8,1.6
					c-0.1,0.5-1.4,0.6-1.4,0.6l-1.3,0.5c0,0-6.5,2.7-7,3c-0.5,0.3-1.8,1.5-1.8,1.5l2.3,0.6l1.2,1.1l1.7,0.5l2.4,1.5l3.2,1.8l0.6,0.8
					l2.6-1.5l2.2-2.3c0,0,1.9-0.5,2.1-0.6c0.2-0.1,2.7-1.9,2.7-1.9l1.3-1l2.3-0.6l1.7-0.9L523.9,179.8z"/>
				<path class="st3" d="M561,161.2c0,0-8.5-4.6-9.4-5c-0.8-0.3-1.4-0.7-1.4-1.1c0,0,4.4-2,5-2.2c0.7-0.2,1.9-1,2.7-1.2s2-0.7,2.2-1
					c0,0,0.3-0.7-1.8-1.6s-4.4-1-4.4-1s-3.1-1.4-3.7-3.1c0,0-1.8-1.4,0-1.9c0,0,3-0.4,3.9-1.2c0,0,2-0.9,2.4-0.8s-0.5-0.1-0.5-0.1
					s1.4-0.3,1.9-0.7c0,0,1.2-0.7,2-0.5c0,0,5.4,2.2,6.7,2.9c1.2,0.7,4.4,2.3,5.6,2.3c0,0,3.7,1.4,5.4,2.7c0,0,3.6,1.2,4,2.9l-2,1.6
					c0,0-2.2,0.5-3.3,1c-1.2,0.5-5.3,2.7-6.3,3.2C569.1,156.9,561,161.2,561,161.2"/>
				<polygon class="st7" points="560.9,160.7 561.7,168.9 560.7,172.7 555.3,176 551.2,176.9 550.2,175 549.3,166.6 549.8,165.8 
					550.6,165.2 548.2,163.6 550.5,155.6 				"/>
				<path class="st3" d="M522,123.9c0,0,0,0-1.2-1.6c-1.2-1.6-4.9-3-6.4-3.3c-1.5-0.3-4.6-2.3-6.7-3.3c-2.1-1-4.3,0.7-4.3,0.7
					s0.5,0,0.2,0s-3.7,2.7-3.7,2.7c-1,1-3.9,1.6-3.9,1.6c0.3,0,7.3,3.9,7.3,3.9c3.1,0.5,8,4.4,8,4.4l4.6-2.4l3.3-1.3L522,123.9z"/>
				<path class="st3" d="M425.8,136.3c-0.3,0.6-0.3,0.5-0.6,0.5s-1.4-0.2-2.2,0.5c-0.8,0.7-0.4,0.7-1.1,0.8c-0.7,0.1-1.1,0.3-3,1.3
					s0,0-0.9,0.4s-1.8,1-2.4,0.9c-0.6-0.1-2.1,0.5-2.5,0.8s-0.5,0.3-1.2,0.3s-1.8,1.5-1.8,1.5l-4.7-1.7l-5.2-2.9v-0.8l2.4-1.1
					c0,0,2.7-2.1,2.8-2.2c0.1-0.1,4.5-2.4,4.5-2.4l4.1-2.5l5.1,2.1l3.2,1.6l3.3,2l0.7,0.5L425.8,136.3z"/>
				<path class="st3" d="M451.9,121.7c-0.4,0.7-1.5,1.2-2.3,1.3s-0.8,0.7-1.5,1.6c-0.7,0.8-1.1,0.3-2,1.2c-1,1-0.7,0.3-2,0.3
					c-1.2,0-1.6,0.9-2.7,1.1c-1.1,0.2-1.2,0.2-2.2,1.9c-1,1.7-0.3,0.4-1.4,0.7c-1.1,0.3-1.1,1-1.1,1l-3.6-2.3c0,0-4.4-1.6-5.1-1.4
					c-0.7,0.2-2.5-1.2-2.5-1.2l1.3-1.6l5.3-2.5l2.4-1.7l4.2-1.9l2.6-1l0-0.6l1.8,1.4l2.6,1.3l2.5,1.2c0,0,1.3,0.5,1.3,0.5
					s2.2,0.8,2.2,0.8L451.9,121.7z"/>
				<path class="st3" d="M494.3,111.4c0,0-0.3,0.4-1.3,0.6c-1,0.2-0.7,0.2-1.6,0.7s0,0-0.7,0.5c-0.7,0.5-0.9,0.7-2.3,0.8
					c-1.4,0.1-0.5-0.1-1,0s-0.6,0.6-1,1.1c-0.3,0.5-2.1,1.5-2.1,1.5s-1.6-0.8-2.3-1.1s-0.7-0.6-1.2-0.7c-0.5-0.1-1.1-0.3-2.4-1.4
					c-1.3-1-2.4-0.4-2.7-1c-0.3-0.5-3.5-1.1-3.5-1.1c-1.4,0.5-0.4,0-1.5,0.7c-1.1,0.7-0.5,0.3-1.4,0.7c-0.9,0.4-1,1.5-2.2,1.6
					s0,0-1.8,0.7c-1.8,0.7-2.2,1.5-2.2,1.5s0,0-1.4-0.7c-1.4-0.7-0.8-0.1-2.7-0.7c-1.8-0.6-0.7-0.2-2.2-1c-1.4-0.7-0.6-0.5-1.3-1
					c-0.7-0.5-2-1.4-3-1.8l9.9-5.7l3.5-1.9l5-0.7l2.6-2h1.5L494.3,111.4z"/>
				<path class="st3" d="M453.8,194.9l7.3,3.5l6,2.9l4.3,2.3h7.6l1.6-0.5l7.2-2.7l0.8-1.2l2.1-1.2l1.5-1.8l1.5-0.8l1.9-0.9l0.2-1.5
					c-0.3-0.4-0.3-0.3-0.6-0.9c-0.3-0.5-0.8-0.3-1.4-0.5s-1.2-0.3-1.4-0.6c-0.3-0.2-3.9-1.2-4.5-1.5s-0.7-1.4-1.1-1.5
					c-0.3-0.1-0.7-0.4-1.6,0.1c-0.9,0.5-3.2,0.8-3.8,1.3c-0.6,0.5-2.3,1.4-3.1,1.7s-1.2,0.7-2,1.4s-1.9,0.1-3,0.3
					c-1.1,0.2-5.8-3.5-6-4.2c-0.2-0.7-2.7,0-3.3-0.5c-0.6-0.5-4,2.2-5.1,2.1c-1.1-0.1-2,1.4-2.5,1.4c-0.5,0-1.8,1.4-2.9,1.8
					c-1.1,0.5,0.1,0.8,0.1,0.8"/>
				<path class="st3" d="M548.6,134.8l-13.3-7.2c0,0-2.7-1.6-6,0.6c0,0-4.7,3.3-7.3,4.1c0,0,5.7,3.2,7,3.6c1.3,0.4,2.4,0.7,4.1,1.6
					c1.7,0.9,3.2,1.7,4.3,1.9c1.1,0.2,1.3,0.3,1.3,0.3l3.9-1.3L548.6,134.8z"/>
				<path class="st3" d="M550.6,165c0,0-0.8-0.6-1.5-1c-0.7-0.4-0.7-0.3-1.8-1.1c-1.1-0.8-2.1-0.5-2.7-0.5s-2.4-1-3.3-1.6
					c-1-0.7-0.5-0.4-1.8-0.7s-0.7-0.5-1.3,0c-0.6,0.5-1.2,1.2-2.9,1.7c-1.7,0.5-2,0.7-2.4,1.3c-0.4,0.6-1,0.2-1.6,1
					c-0.7,0.7-4.8,3.3-6,3.3c-1.2,0-1,0.8-1,0.8l3.1,2l3.8,1.7l1.9,1.2l2,0.6l1.5-1.4l1.7-0.6l2.9-1l1.5-0.6l1.8-1.5l1.7-0.7
					l2.9-0.9l1.6-1.6"/>
			</g>
			<path class="st7" d="M496.3,120.1l-2-8.7c0,0-2.9,0-3.5,0.4c-0.5,0.4-1.3,1.3-1.7,1.4c-0.6,0.2-1.7,0.7-2.4,1.1s-2.7,1.7-2.7,1.7
				c-0.3,0.6-0.5,4.6-0.5,4.6c-0.2,2,1,5,1,5s3.6-1,4.1-1.2c0.5-0.2,3.3-2.1,3.9-2.4C493.2,121.7,496.3,120.1,496.3,120.1z"/>
			<path class="st11" d="M425,135.2l0.5-9.8c0,0,3.5,0,4,0.4c0.5,0.4,1.3,1.3,1.7,1.4c0.6,0.2,1.7,0.7,2.4,1.1
				c0.7,0.4,2.7,1.7,2.7,1.7c0.3,0.6,0.5,4.6,0.5,4.6c0.2,2-1,5-1,5s-3.6-1-4.1-1.2s-3.4-1.5-4-1.8C427.1,136.4,425,135.2,425,135.2
				z"/>
			<path class="st11" d="M399.3,148.2l0.8-10.2c0,0,2.1-0.2,2.6,0.2c0.5,0.4,1.3,1.3,1.7,1.4c0.6,0.2,1.7,0.7,2.4,1.1
				c0.7,0.4,2.7,1.7,2.7,1.7c0.3,0.6,0.5,4.6,0.5,4.6c0.2,2-0.3,4.7-0.3,4.7s-4.4-0.8-4.8-0.9c-0.5-0.2-3.4-1.5-4-1.8
				C400.3,148.8,399.3,148.2,399.3,148.2z"/>
			<path class="st7" d="M428.7,180.5l-2.2-8.7c0,0-3.7-0.2-4.3,0.2c-0.5,0.4-1.3,1.3-1.7,1.4c-0.6,0.2-1.7,0.7-2.4,1.1
				c-0.7,0.4-2.7,1.7-2.7,1.7c-0.3,0.6-0.5,4.6-0.5,4.6c-0.2,2,0.2,4.7,0.2,4.7s4.4-1.4,4.8-1.5s3.3-1.5,3.9-1.8
				C424.6,181.9,428.7,180.5,428.7,180.5z"/>
			<path class="st7" d="M387.6,172.7V165l22-13.4l-0.5-8.5l17.4-7.6l-0.2,9.2c0,0,9.9-5.5,9.8-5.5c-0.1-0.1-0.1-8.2-0.1-8.2l4.5-4.7
				l11.4-4.4l0.2,3.9l0,6l10.7-5.8l-0.9-9.8l11.1-5.2l0.1,0.1c0.5,0.4,0.3,7.4,0.4,8.6c0.1,1.2,0.3,11.2,0.3,11.2L387.6,172.7z"/>
			<path class="st3" d="M442,189.8l9.8-5.9c0,0,0.1,0.5,0,0.1s-2.4-1.5-2.4-1.5c-0.8-0.5-7.2-3.5-7.2-3.5c-1.7-0.7-5.8-3.3-5.8-3.3
				c-0.8-0.3-3,1.4-3,1.4c-0.7,0.5-6.2,3.2-6.2,3.2l1,1.3l1.4,1.4l2,1.2l2.4,0.9l3.5,1.5c0,0,1.5,1.1,1.6,1.1c0,0,1.5,0.5,1.5,0.5
				l1.2,2"/>
			<path class="st7" d="M451.9,193.3l-0.5-9.3c0,0-3.4-0.2-3.9,0.2c-0.5,0.4-1.1,1.3-1.5,1.4c-0.5,0.2-1.6,0.7-2.2,1.1
				c-0.6,0.4-2.5,1.7-2.5,1.7c-0.3,0.6,0.4,4.6,0.4,4.6c-0.2,2,0.3,6.5,0.3,6.5s3.4-1.5,3.8-1.7c0.4-0.2,2.7-3.1,3.3-3.4
				C449.6,194.2,451.9,193.3,451.9,193.3z"/>
			<g>
				<g>
					<path class="st79" d="M418,358.6c-1-0.3-1.9-0.6-2.8-1l-2.6-1.4l-1.3-0.7c-0.5-0.3-0.9-0.6-1.2-1c-0.7-0.8-1.1-1.7-1.7-2.4
						c-0.3-0.3-0.6-0.6-1-0.8c-0.4-0.2-0.9-0.4-1.3-0.6c-0.9-0.4-1.8-1-2.6-1.4c-0.4-0.2-0.8-0.2-1.4-0.3c-0.6-0.2-1-0.5-1.4-0.8
						c-0.6-0.7-1.4-1.3-2.2-2c0.9,0.3,1.8,0.7,2.7,1.3c0.4,0.3,0.7,0.5,1.1,0.6c0.4,0.1,1,0.1,1.5,0.4c0.9,0.5,1.7,1,2.6,1.4
						c0.4,0.2,0.8,0.4,1.3,0.6c0.5,0.3,0.9,0.6,1.3,1c0.7,0.8,1.1,1.7,1.7,2.4c0.3,0.3,0.6,0.6,1,0.8l1.3,0.7l2.6,1.4
						C416.4,357.4,417.2,357.9,418,358.6z"/>
				</g>
				<g>
					<path class="st79" d="M401.8,348c-0.2,0-0.1,0-0.1,0c0,0,0.1-0.1,0.1-0.1c0.1-0.1,0.1-0.3,0.2-0.4c0.1-0.3,0.1-0.7,0.1-1.1
						c0-0.8,0-1.5-0.1-2.3c0-0.2,0-0.4-0.1-0.5c-0.1-0.2,0-0.3,0-0.4l0-0.3l0.1-1.2c0-0.4,0-0.8,0-1.2c0-0.2-0.1-0.4-0.1-0.6
						c0-0.1,0-0.2,0.1-0.3c0.1-0.1,0.2-0.1,0.3-0.1c-0.5,0.1-0.1,0.6-0.1,1c0.1,0.4,0.1,0.8,0.1,1.2l0,1.2c0,0.2,0,0.5,0,0.5
						c0.1,0.2,0.1,0.4,0.2,0.6c0.1,0.8,0.2,1.6,0.3,2.4c0,0.4,0,0.8,0,1.2c0,0.2-0.1,0.4-0.2,0.7c-0.1,0.1-0.1,0.2-0.2,0.4
						c-0.1,0.1-0.3,0.3-0.6,0.2L401.8,348z"/>
				</g>
				<g>
					<path class="st79" d="M409.9,352.8c0.1,0.5,0.1,1,0.1,1.4c0,0.4-0.2,0.9-0.2,1.2c0,0.2,0,0.3,0,0.5c0,0.2,0.1,0.5,0.1,0.7
						c0,0.2-0.1,0.5-0.1,0.7l-0.1,0.3l0,0.1l0,0c0,0,0,0,0,0l0,0c0.3-0.1-0.5-0.3-0.4-0.1c0,0,0,0,0,0l0,0l0-0.1c0,0,0-0.1,0.2-0.1
						c0.1,0,0.1,0.1,0.1,0.1l0,0.1c0,0,0,0,0,0.1c0,0.1,0,0.1,0,0.1c0,0.9-0.1,1.7-0.2,2.5l-0.1,1.3c0,0.2,0,0.4-0.1,0.6
						c0,0.1-0.1,0.2-0.2,0.3c-0.1,0.1-0.2,0.1-0.3,0.1c0.2,0,0.4-0.1,0.4-0.4c0-0.2,0-0.4,0.1-0.6l0-1.3c0-0.8,0-1.7,0-2.5
						c0,0,0,0,0,0l0,0l0,0c0,0,0.1,0.1,0.1,0.1c0.2,0,0.2-0.1,0.2-0.1l0,0l0,0l0,0c0.1,0.2-0.7,0-0.4-0.1l0,0l0,0l0,0l0-0.1l0-0.3
						c0-0.2,0-0.4,0-0.6c0-0.2,0-0.3-0.1-0.6c-0.1-0.2-0.1-0.5-0.1-0.7c0-0.5,0.1-0.9,0.1-1.3c0-0.4,0-0.8-0.1-1.1L409.9,352.8z"/>
				</g>
			</g>
		</g>
		<polygon class="st7" points="506.1,187.4 508,188 508.1,195.3 506.9,198.3 503.5,201 502,201.6 498.2,203.8 496.9,203.7 
			496.6,201.1 497,194.9 495.6,192.8 497.4,191.8 495.1,189.9 497.1,182.4 		"/>
		<g>
			<g>
				<path class="st83" d="M493.3,261.8c0,0-0.2,4.8-0.7,8.8c-0.3,2.3-0.7,5-0.9,5.5c-0.3,1.5-1,4.5-1,4.5s-0.1,1.5,0,2.1
					c0.2,1.7,0.8,4.5-1.9,4.7c-2.3,0.2-1.9-3.1-0.8-5.8c0.2-0.5,0.1-3.3,0.2-5.5c0.1-2.6,0.4-3.2,0.6-6.1c0.2-3.6,0.3-8.6,0.3-8.6
					L493.3,261.8z"/>
				<path class="st32" d="M477.1,308c0.6,0.4,4.5,1.4,4.1,3.6c-0.4,2.2-8.1-0.3-7.9-2.7C473.4,307,476.5,307.6,477.1,308z"/>
				<path class="st32" d="M485,304.8c0.6,0.4,4.5,1.4,4.1,3.6c-0.4,2.2-8.1-0.3-7.9-2.7C481.4,303.8,484.5,304.4,485,304.8z"/>
				<path class="st33" d="M491.3,280.6c0,0-1.7,26.2-2.5,27.3c-0.8,1.1-2.5,0.8-3.3,0.2c-0.8-0.6-1.5-27.3-1.5-27.3L491.3,280.6z"/>
				<path class="st33" d="M484,280.8c0,0-2.1,29.2-3.3,30c-1.2,0.8-2.4,0.7-3.3,0.2c-0.9-0.5-1.2-30-1.2-30L484,280.8z"/>
				<path class="st42" d="M481.7,250.7c0,0-0.3,3.5,0.3,3.8c1.8,1,4-0.2,4-0.2l0.3-4.2L481.7,250.7z"/>
				<path class="st84" d="M487.2,254.5c0,0,3.9-0.3,4.9,2.3c1,2.6,2.6,7.1,1.4,7.5c-1.2,0.4-2.4,0.8-2.9,0.7
					C490.1,265,486.9,257.5,487.2,254.5z"/>
				<path class="st42" d="M479.6,242.9c0,0-2.6,9.3,0.6,10.1c2.5,0.6,6.8-0.5,7.2-3.9c0.4-3.4,2.4-7.2,0-7.4
					C485,241.5,479.5,240.6,479.6,242.9z"/>
				<path class="st36" d="M478.7,244c0,0,0.9,1.3,1.6,1.8s0.2,2.2,0.3,2.7c0.1,0.5,2.3,0.6,2.3,1.7c0,1-1.5,2.9,1.6,3.1
					c1.3,0.1,4-0.6,4.2-2.3c0.2-1.6,1.6-2.9,1.8-5c0.3-4.6-2.5-6.6-5.2-6.8C482.6,239.1,477.3,240.5,478.7,244z"/>
				<path class="st42" d="M481.4,248.2c0,0,0.8-1.7,1.8-0.9c1,0.8-0.1,3.7-1.4,3.1C480.6,249.9,481.4,248.2,481.4,248.2z"/>
			</g>
			<g>
				<path class="st33" d="M492.4,288l1.1-18.2l0.9-14.2l-0.3-3.2l-3-1.1l-10.4,3.6l-2.2,0.7l-3.3,1.6c1.5,15.5,7.2,16.6,7.2,16.6
					s0,0-4.3,3.9c-2.4,2.2-4.5,5.8-5.9,8.7l-1.5,13l0,0c1.3-8.5,19-24.9,19-24.9s-10.8,16.9-7.2,23.8C494,296.2,492.4,288,492.4,288
					z"/>
				<path class="st34" d="M470.7,299.4l-0.2,1.3c-0.2,1.3,0.5,2.7,1.6,3.4l0,0c1,0.6,2.2,0.7,3.2,0.2l0.9-0.5
					c0.7-0.3,1.2-0.9,1.5-1.6l0.8-1.9c-0.7-3.1-1.4-13.2,11.1-25.8C489.7,274.5,472,290.9,470.7,299.4L470.7,299.4z"/>
				<path class="st33" d="M489.7,274.5c-12.5,12.6-11.7,22.7-11.1,25.8l0-0.1c0.5-1.1,1.6-1.9,2.8-1.9l1.1,0l0,0
					C479,291.4,489.7,274.5,489.7,274.5z"/>
				<path class="st34" d="M482.5,298.3L482.5,298.3l7.7-0.2c1,0,2-0.4,2.7-1.1l1.6-1.7c0.6-0.6,0.8-1.6,0.4-2.4l-2.5-5
					C492.4,288,494,296.2,482.5,298.3z"/>
				<path class="st35" d="M482.4,273.9c0,0-5.6-1.1-7.2-16.6l-0.3,0.2l-0.8,12.2l-1.9,16.8c1.4-2.8,3.5-6.5,5.9-8.7
					C482.4,273.9,482.4,273.9,482.4,273.9z"/>
			</g>
			<path class="st33" d="M475.6,258c1.5-0.2,4.1,1.6,3.1,3.8c-1,2.2-6.9,6.9-7.9,6.5c-0.6-0.3-1.8-1.2-2.5-2.1
				c-0.8-1.1-0.6-2-0.5-2.6C468,262.8,473,258.3,475.6,258z"/>
			<path class="st33" d="M480.7,254.9c0,0-0.1-1.8,0-3.9c0.1-2.1-1-4.4-1.5-6.2c-0.3-1-1.5-3.8,0.2-5.1c2.8-2.1,7.8-1.6,8.4-1.1
				c2.9,2.3,3.8,4.4,3.3,8.6c-0.5,4.3-0.9,4.6-0.9,4.6"/>
		</g>
	</g>
</g>
</svg>
