<svg id="Layer_1" data-name="Layer 1" xmlns="http://www.w3.org/2000/svg" xmlns:xlink="http://www.w3.org/1999/xlink" viewBox="0 0 1000 1000"><defs><style>.cls-1{fill:gray;}.cls-2{opacity:0;}.cls-3{fill:#05283d;}.cls-4{fill:#596176;}.cls-5{fill:#323232;opacity:0.37;}.cls-6{fill:#4e5464;}.cls-7{fill:#292b38;}.cls-40,.cls-8{fill:#de1f26;}.cls-8{opacity:0.49;}.cls-9{isolation:isolate;}.cls-10{fill:#818181;}.cls-11{fill:#262626;}.cls-12{fill:#a6a6a6;}.cls-13{fill:#1b1b1b;}.cls-14{fill:#4b4b4b;}.cls-15{fill:#0c0c0c;}.cls-16{fill:#737373;}.cls-17{clip-path:url(#clip-path);}.cls-18{fill:#565656;}.cls-19{fill:#2f2f2f;}.cls-20{fill:#474747;}.cls-21{fill:#424242;}.cls-22{fill:#73a1b2;}.cls-23,.cls-24,.cls-25{fill:none;stroke:#9f9f9f;stroke-miterlimit:10;}.cls-23{stroke-width:2.49px;}.cls-24{stroke-width:2.5px;}.cls-25{stroke-width:2.52px;}.cls-26{fill:#7d201e;}.cls-27{fill:#ef4343;}.cls-28{fill:#d3d3d3;}.cls-29{fill:#5a585d;}.cls-30{fill:#424146;}.cls-31{fill:#39393b;}.cls-32{fill:#41495e;}.cls-33{fill:#808285;}.cls-34,.cls-35,.cls-36{fill:#000012;}.cls-34{opacity:0.38;}.cls-35{opacity:0.61;}.cls-37{fill:#646a75;}.cls-38{fill:#636363;}.cls-39{fill:#848484;}.cls-40{opacity:0.75;}</style><clipPath id="clip-path"><path id="_Clipping_Path_" data-name="&lt;Clipping Path&gt;" class="cls-1" d="M621.42,645.79l.18-.1a2.17,2.17,0,0,1-1.91,0l.18.1A1.79,1.79,0,0,0,621.42,645.79Z"/></clipPath></defs><title>Installation_09</title><g class="cls-2"><polygon class="cls-3" points="308.79 745.36 298.02 739.17 298.02 747.77 308.79 753.96 308.79 745.36"/><polygon class="cls-3" points="308.79 729.47 298.02 723.29 298.02 731.88 308.79 738.07 308.79 729.47"/><polygon class="cls-3" points="308.79 713.59 298.02 707.4 298.02 716 308.79 722.18 308.79 713.59"/><polygon class="cls-3" points="308.79 697.7 298.02 691.51 298.02 700.11 308.79 706.3 308.79 697.7"/><polygon class="cls-3" points="308.79 681.81 298.02 675.62 298.02 684.22 308.79 690.41 308.79 681.81"/><polygon class="cls-3" points="308.79 665.92 298.02 659.73 298.02 668.33 308.79 674.52 308.79 665.92"/><polygon class="cls-3" points="308.79 650.03 298.02 643.84 298.02 652.44 308.79 658.63 308.79 650.03"/><polygon class="cls-3" points="308.79 634.14 298.02 627.95 298.02 636.55 308.79 642.74 308.79 634.14"/><polygon class="cls-3" points="308.79 618.25 298.02 612.07 298.02 620.66 308.79 626.85 308.79 618.25"/><polygon class="cls-3" points="308.79 602.37 298.02 596.18 298.02 604.78 308.79 610.97 308.79 602.37"/><polygon class="cls-3" points="323.99 753.9 313.21 747.71 313.21 756.31 323.99 762.5 323.99 753.9"/><polygon class="cls-3" points="323.99 738.01 313.21 731.82 313.21 740.42 323.99 746.61 323.99 738.01"/><polygon class="cls-3" points="323.99 722.12 313.21 715.94 313.21 724.53 323.99 730.72 323.99 722.12"/><polygon class="cls-3" points="323.99 706.24 313.21 700.05 313.21 708.65 323.99 714.84 323.99 706.24"/><polygon class="cls-3" points="323.99 690.35 313.21 684.16 313.21 692.76 323.99 698.95 323.99 690.35"/><polygon class="cls-3" points="323.99 674.46 313.21 668.27 313.21 676.87 323.99 683.06 323.99 674.46"/><polygon class="cls-3" points="323.99 658.57 313.21 652.38 313.21 660.98 323.99 667.17 323.99 658.57"/><polygon class="cls-3" points="323.99 642.68 313.21 636.49 313.21 645.09 323.99 651.28 323.99 642.68"/><polygon class="cls-3" points="323.99 626.79 313.21 620.6 313.21 629.2 323.99 635.39 323.99 626.79"/><polygon class="cls-3" points="323.99 610.9 313.21 604.72 313.21 613.31 323.99 619.5 323.99 610.9"/><polygon class="cls-3" points="339 762.66 328.23 756.47 328.23 765.07 339 771.26 339 762.66"/><polygon class="cls-3" points="339 746.77 328.23 740.59 328.23 749.18 339 755.37 339 746.77"/><polygon class="cls-3" points="339 730.88 328.23 724.7 328.23 733.29 339 739.48 339 730.88"/><polygon class="cls-3" points="339 715 328.23 708.81 328.23 717.41 339 723.6 339 715"/><polygon class="cls-3" points="339 699.11 328.23 692.92 328.23 701.52 339 707.71 339 699.11"/><polygon class="cls-3" points="339 683.22 328.23 677.03 328.23 685.63 339 691.82 339 683.22"/><polygon class="cls-3" points="339 667.33 328.23 661.14 328.23 669.74 339 675.93 339 667.33"/><polygon class="cls-3" points="339 651.44 328.23 645.25 328.23 653.85 339 660.04 339 651.44"/><polygon class="cls-3" points="339 635.55 328.23 629.37 328.23 637.96 339 644.15 339 635.55"/><polygon class="cls-3" points="339 619.66 328.23 613.48 328.23 622.08 339 628.26 339 619.66"/><polygon class="cls-3" points="308.79 586.22 298.02 580.03 298.02 588.63 308.79 594.82 308.79 586.22"/><polygon class="cls-3" points="308.79 570.33 298.02 564.14 298.02 572.74 308.79 578.93 308.79 570.33"/><polygon class="cls-3" points="308.79 554.44 298.02 548.25 298.02 556.85 308.79 563.04 308.79 554.44"/><polygon class="cls-3" points="308.79 538.55 298.02 532.36 298.02 540.96 308.79 547.15 308.79 538.55"/><polygon class="cls-3" points="308.79 522.66 298.02 516.47 298.02 525.07 308.79 531.26 308.79 522.66"/><polygon class="cls-3" points="308.79 506.77 298.02 500.59 298.02 509.19 308.79 515.37 308.79 506.77"/><polygon class="cls-3" points="308.79 490.89 298.02 484.7 298.02 493.3 308.79 499.49 308.79 490.89"/><polygon class="cls-3" points="323.99 594.76 313.21 588.57 313.21 597.17 323.99 603.36 323.99 594.76"/><polygon class="cls-3" points="323.99 578.87 313.21 572.68 313.21 581.28 323.99 587.47 323.99 578.87"/><polygon class="cls-3" points="323.99 562.98 313.21 556.79 313.21 565.39 323.99 571.58 323.99 562.98"/><polygon class="cls-3" points="323.99 547.09 313.21 540.9 313.21 549.5 323.99 555.69 323.99 547.09"/><polygon class="cls-3" points="323.99 531.2 313.21 525.01 313.21 533.61 323.99 539.8 323.99 531.2"/><polygon class="cls-3" points="323.99 515.31 313.21 509.12 313.21 517.72 323.99 523.91 323.99 515.31"/><polygon class="cls-3" points="323.99 499.42 313.21 493.24 313.21 501.83 323.99 508.02 323.99 499.42"/><polygon class="cls-3" points="339 603.52 328.23 597.33 328.23 605.93 339 612.12 339 603.52"/><polygon class="cls-3" points="339 587.63 328.23 581.44 328.23 590.04 339 596.23 339 587.63"/><polygon class="cls-3" points="339 571.74 328.23 565.55 328.23 574.15 339 580.34 339 571.74"/><polygon class="cls-3" points="339 555.85 328.23 549.66 328.23 558.26 339 564.45 339 555.85"/><polygon class="cls-3" points="339 539.96 328.23 533.77 328.23 542.37 339 548.56 339 539.96"/><polygon class="cls-3" points="339 524.07 328.23 517.88 328.23 526.48 339 532.67 339 524.07"/><polygon class="cls-3" points="339 508.19 328.23 502 328.23 510.6 339 516.78 339 508.19"/><polygon class="cls-3" points="375.74 746.07 386.52 739.88 386.52 748.48 375.74 754.67 375.74 746.07"/><polygon class="cls-3" points="375.74 730.18 386.52 723.99 386.52 732.59 375.74 738.78 375.74 730.18"/><polygon class="cls-3" points="375.74 714.29 386.52 708.1 386.52 716.7 375.74 722.89 375.74 714.29"/><polygon class="cls-3" points="375.74 698.4 386.52 692.21 386.52 700.81 375.74 707 375.74 698.4"/><polygon class="cls-3" points="375.74 682.51 386.52 676.33 386.52 684.92 375.74 691.11 375.74 682.51"/><polygon class="cls-3" points="375.74 666.63 386.52 660.44 386.52 669.04 375.74 675.22 375.74 666.63"/><polygon class="cls-3" points="375.74 650.74 386.52 644.55 386.52 653.15 375.74 659.34 375.74 650.74"/><polygon class="cls-3" points="375.74 634.85 386.52 628.66 386.52 637.26 375.74 643.45 375.74 634.85"/><polygon class="cls-3" points="375.74 618.96 386.52 612.77 386.52 621.37 375.74 627.56 375.74 618.96"/><polygon class="cls-3" points="375.74 603.07 386.52 596.88 386.52 605.48 375.74 611.67 375.74 603.07"/><polygon class="cls-3" points="360.55 754.61 371.32 748.42 371.32 757.02 360.55 763.21 360.55 754.61"/><polygon class="cls-3" points="360.55 738.72 371.32 732.53 371.32 741.13 360.55 747.32 360.55 738.72"/><polygon class="cls-3" points="360.55 722.83 371.32 716.64 371.32 725.24 360.55 731.43 360.55 722.83"/><polygon class="cls-3" points="360.55 706.94 371.32 700.75 371.32 709.35 360.55 715.54 360.55 706.94"/><polygon class="cls-3" points="360.55 691.05 371.32 684.86 371.32 693.46 360.55 699.65 360.55 691.05"/><polygon class="cls-3" points="360.55 675.16 371.32 668.98 371.32 677.57 360.55 683.76 360.55 675.16"/><polygon class="cls-3" points="360.55 659.27 371.32 653.09 371.32 661.68 360.55 667.87 360.55 659.27"/><polygon class="cls-3" points="360.55 643.39 371.32 637.2 371.32 645.8 360.55 651.99 360.55 643.39"/><polygon class="cls-3" points="360.55 627.5 371.32 621.31 371.32 629.91 360.55 636.1 360.55 627.5"/><polygon class="cls-3" points="360.55 611.61 371.32 605.42 371.32 614.02 360.55 620.21 360.55 611.61"/><polygon class="cls-3" points="345.53 763.37 356.3 757.18 356.3 765.78 345.53 771.97 345.53 763.37"/><polygon class="cls-3" points="345.53 747.48 356.3 741.29 356.3 749.89 345.53 756.08 345.53 747.48"/><polygon class="cls-3" points="345.53 731.59 356.3 725.4 356.3 734 345.53 740.19 345.53 731.59"/><polygon class="cls-3" points="345.53 715.7 356.3 709.51 356.3 718.11 345.53 724.3 345.53 715.7"/><polygon class="cls-3" points="345.53 699.81 356.3 693.62 356.3 702.22 345.53 708.41 345.53 699.81"/><polygon class="cls-3" points="345.53 683.92 356.3 677.74 356.3 686.34 345.53 692.52 345.53 683.92"/><polygon class="cls-3" points="345.53 668.04 356.3 661.85 356.3 670.45 345.53 676.63 345.53 668.04"/><polygon class="cls-3" points="345.53 652.15 356.3 645.96 356.3 654.56 345.53 660.75 345.53 652.15"/><polygon class="cls-3" points="345.53 636.26 356.3 630.07 356.3 638.67 345.53 644.86 345.53 636.26"/><polygon class="cls-3" points="345.53 620.37 356.3 614.18 356.3 622.78 345.53 628.97 345.53 620.37"/><polygon class="cls-3" points="375.74 586.86 386.52 580.67 386.52 589.27 375.74 595.46 375.74 586.86"/><polygon class="cls-3" points="375.74 570.97 386.52 564.78 386.52 573.38 375.74 579.57 375.74 570.97"/><polygon class="cls-3" points="375.74 555.08 386.52 548.89 386.52 557.5 375.74 563.68 375.74 555.08"/><polygon class="cls-3" points="375.74 539.2 386.52 533.01 386.52 541.61 375.74 547.79 375.74 539.2"/><polygon class="cls-3" points="375.74 523.31 386.52 517.12 386.52 525.72 375.74 531.91 375.74 523.31"/><polygon class="cls-3" points="375.74 507.42 386.52 501.23 386.52 509.83 375.74 516.02 375.74 507.42"/><polygon class="cls-3" points="375.74 491.53 386.52 485.34 386.52 493.94 375.74 500.13 375.74 491.53"/><polygon class="cls-3" points="360.55 595.4 371.32 589.21 371.32 597.81 360.55 604 360.55 595.4"/><polygon class="cls-3" points="360.55 579.51 371.32 573.32 371.32 581.92 360.55 588.11 360.55 579.51"/><polygon class="cls-3" points="360.55 563.62 371.32 557.43 371.32 566.03 360.55 572.22 360.55 563.62"/><polygon class="cls-3" points="360.55 547.73 371.32 541.54 371.32 550.14 360.55 556.33 360.55 547.73"/><polygon class="cls-3" points="360.55 531.85 371.32 525.66 371.32 534.25 360.55 540.44 360.55 531.85"/><polygon class="cls-3" points="360.55 515.96 371.32 509.77 371.32 518.37 360.55 524.55 360.55 515.96"/><polygon class="cls-3" points="360.55 500.07 371.32 493.88 371.32 502.48 360.55 508.67 360.55 500.07"/><polygon class="cls-3" points="345.53 604.16 356.3 597.97 356.3 606.57 345.53 612.76 345.53 604.16"/><polygon class="cls-3" points="345.53 588.27 356.3 582.08 356.3 590.68 345.53 596.87 345.53 588.27"/><polygon class="cls-3" points="345.53 572.38 356.3 566.19 356.3 574.79 345.53 580.98 345.53 572.38"/><polygon class="cls-3" points="345.53 556.5 356.3 550.31 356.3 558.9 345.53 565.09 345.53 556.5"/><polygon class="cls-3" points="345.53 540.61 356.3 534.42 356.3 543.02 345.53 549.21 345.53 540.61"/><polygon class="cls-3" points="345.53 524.72 356.3 518.53 356.3 527.13 345.53 533.32 345.53 524.72"/><polygon class="cls-3" points="345.53 508.83 356.3 502.64 356.3 511.24 345.53 517.43 345.53 508.83"/></g><polygon class="cls-4" points="482.54 469.71 483.31 469.43 778.11 638.73 486.31 807.39 193.54 638.57 482.54 469.71"/><line class="cls-5" x1="204.84" y1="645.77" x2="459.83" y2="792.83"/><polygon class="cls-6" points="484.26 883.46 193.81 716.44 195.08 639.46 486.31 807.39 484.26 883.46"/><polygon class="cls-7" points="778.16 638.55 486.36 807.21 484.26 883.46 778.16 713.91 778.16 638.55"/><polygon class="cls-8" points="233.07 557.54 553.81 374.01 553.81 468.14 232.73 651.31 233.07 557.54"/><polygon class="cls-8" points="497.12 403.55 738.61 543.39 738.61 635.15 497.12 495.72 497.12 403.55"/><g id="_Group_" data-name="&lt;Group&gt;"><g id="_Group_2" data-name="&lt;Group&gt;"><g id="_Group_3" data-name="&lt;Group&gt;"><g id="_Group_4" data-name="&lt;Group&gt;" class="cls-9"><g id="_Group_5" data-name="&lt;Group&gt;"><polygon id="_Path_" data-name="&lt;Path&gt;" class="cls-10" points="547.69 576.32 547.8 612.87 606.81 647.01 606.7 610.46 547.69 576.32"/></g><g id="_Group_6" data-name="&lt;Group&gt;"><polygon id="_Path_2" data-name="&lt;Path&gt;" class="cls-11" points="606.7 610.46 606.81 647.01 664.95 613.23 664.83 576.67 606.7 610.46"/></g><g id="_Group_7" data-name="&lt;Group&gt;"><polygon id="_Path_3" data-name="&lt;Path&gt;" class="cls-12" points="547.69 576.32 606.7 610.46 664.83 576.67 605.82 542.54 547.69 576.32"/></g></g></g></g><g id="_Group_8" data-name="&lt;Group&gt;"><g id="_Group_9" data-name="&lt;Group&gt;"><g id="_Group_10" data-name="&lt;Group&gt;" class="cls-9"><g id="_Group_11" data-name="&lt;Group&gt;"><polygon id="_Path_4" data-name="&lt;Path&gt;" class="cls-10" points="554.81 568.03 554.87 576.3 606.14 606.09 606.08 597.82 554.81 568.03"/></g><g id="_Group_12" data-name="&lt;Group&gt;"><polygon id="_Path_5" data-name="&lt;Path&gt;" class="cls-11" points="606.08 597.82 606.14 606.09 657.75 576.3 657.68 568.03 606.08 597.82"/></g><g id="_Group_13" data-name="&lt;Group&gt;"><polygon id="_Path_6" data-name="&lt;Path&gt;" class="cls-12" points="554.81 568.03 606.08 597.82 657.68 568.03 606.41 538.23 554.81 568.03"/></g></g></g><g id="_Group_14" data-name="&lt;Group&gt;"><g id="_Group_15" data-name="&lt;Group&gt;" class="cls-9"><g id="_Group_16" data-name="&lt;Group&gt;"><polygon id="_Path_7" data-name="&lt;Path&gt;" class="cls-13" points="556.84 552.64 556.88 567.85 606.21 596 606.15 579.27 556.84 552.64"/></g><g id="_Group_17" data-name="&lt;Group&gt;"><polygon id="_Path_8" data-name="&lt;Path&gt;" points="606.15 579.27 606.21 596 655.64 567.92 655.58 551.18 606.15 579.27"/></g><g id="_Group_18" data-name="&lt;Group&gt;"><polygon id="_Path_9" data-name="&lt;Path&gt;" class="cls-14" points="560.96 550.39 605.94 576.75 650.32 551.23 605.35 524.87 560.96 550.39"/></g></g></g></g><g id="_Group_19" data-name="&lt;Group&gt;"><g id="_Group_20" data-name="&lt;Group&gt;"><g id="_Group_21" data-name="&lt;Group&gt;" class="cls-9"><g id="_Group_22" data-name="&lt;Group&gt;"><polygon id="_Path_10" data-name="&lt;Path&gt;" class="cls-10" points="554.81 547.23 554.87 555.51 606.14 585.3 606.08 577.03 554.81 547.23"/></g><g id="_Group_23" data-name="&lt;Group&gt;"><polygon id="_Path_11" data-name="&lt;Path&gt;" class="cls-11" points="606.08 577.03 606.14 585.3 657.75 555.51 657.68 547.23 606.08 577.03"/></g><g id="_Group_24" data-name="&lt;Group&gt;"><polygon id="_Path_12" data-name="&lt;Path&gt;" class="cls-12" points="554.81 547.23 606.08 577.03 657.68 547.23 606.41 517.44 554.81 547.23"/></g></g></g><g id="_Group_25" data-name="&lt;Group&gt;"><g id="_Group_26" data-name="&lt;Group&gt;" class="cls-9"><g id="_Group_27" data-name="&lt;Group&gt;"><polygon id="_Path_13" data-name="&lt;Path&gt;" class="cls-13" points="556.84 529.95 556.91 546.68 606 575.42 605.94 558.69 556.84 529.95"/></g><g id="_Group_28" data-name="&lt;Group&gt;"><polygon id="_Path_14" data-name="&lt;Path&gt;" points="605.94 558.69 606 575.42 655.68 546.84 655.65 528.05 605.94 558.69"/></g><g id="_Group_29" data-name="&lt;Group&gt;"><polygon id="_Path_15" data-name="&lt;Path&gt;" class="cls-14" points="560.96 529.59 605.94 555.95 650.32 530.43 605.35 504.07 560.96 529.59"/></g></g></g></g><g id="_Group_30" data-name="&lt;Group&gt;"><g id="_Group_31" data-name="&lt;Group&gt;"><g id="_Group_32" data-name="&lt;Group&gt;" class="cls-9"><g id="_Group_33" data-name="&lt;Group&gt;"><polygon id="_Path_16" data-name="&lt;Path&gt;" class="cls-10" points="554.81 526.16 554.87 534.43 606.14 564.23 606.08 555.95 554.81 526.16"/></g><g id="_Group_34" data-name="&lt;Group&gt;"><polygon id="_Path_17" data-name="&lt;Path&gt;" class="cls-11" points="606.08 555.95 606.14 564.23 657.75 534.43 657.68 526.16 606.08 555.95"/></g><g id="_Group_35" data-name="&lt;Group&gt;"><polygon id="_Path_18" data-name="&lt;Path&gt;" class="cls-12" points="554.81 526.16 606.08 555.95 657.68 526.16 606.41 496.36 554.81 526.16"/></g></g></g><g id="_Group_36" data-name="&lt;Group&gt;"><g id="_Group_37" data-name="&lt;Group&gt;" class="cls-9"><g id="_Group_38" data-name="&lt;Group&gt;"><polygon id="_Path_19" data-name="&lt;Path&gt;" class="cls-13" points="556.85 509.07 556.91 525.81 606 554.35 605.94 537.62 556.85 509.07"/></g><g id="_Group_39" data-name="&lt;Group&gt;"><polygon id="_Path_20" data-name="&lt;Path&gt;" points="605.94 537.62 606 554.35 655.58 526.09 655.51 509.36 605.94 537.62"/></g><g id="_Group_40" data-name="&lt;Group&gt;"><polygon id="_Path_21" data-name="&lt;Path&gt;" class="cls-14" points="560.96 508.52 605.94 534.88 650.32 509.36 605.35 483 560.96 508.52"/></g></g></g></g><g id="_Group_41" data-name="&lt;Group&gt;"><g id="_Group_42" data-name="&lt;Group&gt;"><g id="_Group_43" data-name="&lt;Group&gt;" class="cls-9"><g id="_Group_44" data-name="&lt;Group&gt;"><polygon id="_Path_22" data-name="&lt;Path&gt;" class="cls-10" points="554.81 497.5 554.87 514.2 606.14 543.99 606.08 527.29 554.81 497.5"/></g><g id="_Group_45" data-name="&lt;Group&gt;"><polygon id="_Path_23" data-name="&lt;Path&gt;" class="cls-11" points="606.08 527.29 606.14 543.99 657.75 514.2 657.68 497.5 606.08 527.29"/></g><g id="_Group_46" data-name="&lt;Group&gt;"><polygon id="_Path_24" data-name="&lt;Path&gt;" class="cls-12" points="554.81 497.5 606.08 527.29 657.68 497.5 606.41 467.7 554.81 497.5"/></g></g></g><g id="_Group_47" data-name="&lt;Group&gt;"><g id="_Group_48" data-name="&lt;Group&gt;" class="cls-9"><g id="_Group_49" data-name="&lt;Group&gt;"><polygon id="_Path_25" data-name="&lt;Path&gt;" class="cls-13" points="556.81 480.39 556.87 497.12 606.21 526.11 606.15 509.38 556.81 480.39"/></g><g id="_Group_50" data-name="&lt;Group&gt;"><polygon id="_Path_26" data-name="&lt;Path&gt;" points="606.15 509.38 606.21 526.11 655.58 497.71 655.51 480.98 606.15 509.38"/></g><g id="_Group_51" data-name="&lt;Group&gt;"><polygon id="_Path_27" data-name="&lt;Path&gt;" class="cls-14" points="560.96 479.85 605.94 506.22 650.32 480.7 605.35 454.34 560.96 479.85"/></g></g></g></g><g id="_Group_52" data-name="&lt;Group&gt;"><g id="_Group_53" data-name="&lt;Group&gt;"><g id="_Group_54" data-name="&lt;Group&gt;"><g id="_Group_55" data-name="&lt;Group&gt;" class="cls-9"><g id="_Group_56" data-name="&lt;Group&gt;"><polygon id="_Path_28" data-name="&lt;Path&gt;" class="cls-10" points="555.23 477.41 555.29 485.68 606.56 515.47 606.5 507.2 555.23 477.41"/></g><g id="_Group_57" data-name="&lt;Group&gt;"><polygon id="_Path_29" data-name="&lt;Path&gt;" class="cls-11" points="606.5 507.2 606.56 515.47 658.17 485.68 658.1 477.41 606.5 507.2"/></g><g id="_Group_58" data-name="&lt;Group&gt;"><polygon id="_Path_30" data-name="&lt;Path&gt;" class="cls-12" points="555.23 477.41 606.5 507.2 658.1 477.41 606.83 447.61 555.23 477.41"/></g></g></g><g id="_Group_59" data-name="&lt;Group&gt;"><g id="_Group_60" data-name="&lt;Group&gt;" class="cls-9"><g id="_Group_61" data-name="&lt;Group&gt;"><polygon id="_Path_31" data-name="&lt;Path&gt;" class="cls-13" points="557.02 460.47 557.08 477.21 606.42 505.81 606.36 489.08 557.02 460.47"/></g><g id="_Group_62" data-name="&lt;Group&gt;"><polygon id="_Path_32" data-name="&lt;Path&gt;" points="606.36 489.08 606.42 505.81 655.64 477.56 655.58 460.83 606.36 489.08"/></g><g id="_Group_63" data-name="&lt;Group&gt;"><polygon id="_Path_33" data-name="&lt;Path&gt;" class="cls-14" points="561.39 459.76 606.36 486.13 650.74 460.61 605.77 434.25 561.39 459.76"/></g></g></g></g><g id="_Group_64" data-name="&lt;Group&gt;"><g id="_Group_65" data-name="&lt;Group&gt;"><g id="_Group_66" data-name="&lt;Group&gt;" class="cls-9"><g id="_Group_67" data-name="&lt;Group&gt;"><polygon id="_Path_34" data-name="&lt;Path&gt;" class="cls-10" points="555.23 456.61 555.29 464.88 606.56 494.68 606.5 486.41 555.23 456.61"/></g><g id="_Group_68" data-name="&lt;Group&gt;"><polygon id="_Path_35" data-name="&lt;Path&gt;" class="cls-11" points="606.5 486.41 606.56 494.68 658.17 464.88 658.1 456.61 606.5 486.41"/></g><g id="_Group_69" data-name="&lt;Group&gt;"><polygon id="_Path_36" data-name="&lt;Path&gt;" class="cls-12" points="555.23 456.61 606.5 486.41 658.1 456.61 606.83 426.82 555.23 456.61"/></g></g></g><g id="_Group_70" data-name="&lt;Group&gt;"><g id="_Group_71" data-name="&lt;Group&gt;" class="cls-9"><g id="_Group_72" data-name="&lt;Group&gt;"><polygon id="_Path_37" data-name="&lt;Path&gt;" class="cls-13" points="557.12 439.64 557.19 456.37 606.63 485.23 606.57 468.49 557.12 439.64"/></g><g id="_Group_73" data-name="&lt;Group&gt;"><polygon id="_Path_38" data-name="&lt;Path&gt;" points="606.57 468.49 606.63 485.23 655.78 456.98 655.72 440.24 606.57 468.49"/></g><g id="_Group_74" data-name="&lt;Group&gt;"><polygon id="_Path_39" data-name="&lt;Path&gt;" class="cls-14" points="561.39 438.97 606.36 465.33 650.74 439.81 605.77 413.45 561.39 438.97"/></g></g></g></g><g id="_Group_75" data-name="&lt;Group&gt;"><g id="_Group_76" data-name="&lt;Group&gt;"><g id="_Group_77" data-name="&lt;Group&gt;" class="cls-9"><g id="_Group_78" data-name="&lt;Group&gt;"><polygon id="_Path_40" data-name="&lt;Path&gt;" class="cls-10" points="555.23 435.54 555.29 443.81 606.56 473.6 606.5 465.33 555.23 435.54"/></g><g id="_Group_79" data-name="&lt;Group&gt;"><polygon id="_Path_41" data-name="&lt;Path&gt;" class="cls-11" points="606.5 465.33 606.56 473.6 658.17 443.81 658.1 435.54 606.5 465.33"/></g><g id="_Group_80" data-name="&lt;Group&gt;"><polygon id="_Path_42" data-name="&lt;Path&gt;" class="cls-12" points="555.23 435.54 606.5 465.33 658.1 435.54 606.83 405.74 555.23 435.54"/></g></g></g><g id="_Group_81" data-name="&lt;Group&gt;"><g id="_Group_82" data-name="&lt;Group&gt;" class="cls-9"><g id="_Group_83" data-name="&lt;Group&gt;"><polygon id="_Path_43" data-name="&lt;Path&gt;" class="cls-13" points="556.88 418.46 556.94 435.2 606.63 464.15 606.57 447.42 556.88 418.46"/></g><g id="_Group_84" data-name="&lt;Group&gt;"><polygon id="_Path_44" data-name="&lt;Path&gt;" points="606.57 447.42 606.63 464.15 655.64 435.9 655.58 419.17 606.57 447.42"/></g><g id="_Group_85" data-name="&lt;Group&gt;"><polygon id="_Path_45" data-name="&lt;Path&gt;" class="cls-14" points="561.39 417.9 606.36 444.26 650.74 418.74 605.77 392.38 561.39 417.9"/></g></g></g></g><g id="_Group_86" data-name="&lt;Group&gt;"><g id="_Group_87" data-name="&lt;Group&gt;"><g id="_Group_88" data-name="&lt;Group&gt;" class="cls-9"><g id="_Group_89" data-name="&lt;Group&gt;"><polygon id="_Path_46" data-name="&lt;Path&gt;" class="cls-10" points="555.23 406.88 555.29 423.58 606.56 453.37 606.5 436.67 555.23 406.88"/></g><g id="_Group_90" data-name="&lt;Group&gt;"><polygon id="_Path_47" data-name="&lt;Path&gt;" class="cls-11" points="606.5 436.67 606.56 453.37 658.17 423.58 658.1 406.88 606.5 436.67"/></g><g id="_Group_91" data-name="&lt;Group&gt;"><polygon id="_Path_48" data-name="&lt;Path&gt;" class="cls-12" points="555.23 406.88 606.5 436.67 658.1 406.88 606.83 377.08 555.23 406.88"/></g></g></g><g id="_Group_92" data-name="&lt;Group&gt;"><g id="_Group_93" data-name="&lt;Group&gt;" class="cls-9"><g id="_Group_94" data-name="&lt;Group&gt;"><polygon id="_Path_49" data-name="&lt;Path&gt;" class="cls-13" points="556.88 389.73 556.94 406.46 606.63 435.49 606.57 418.75 556.88 389.73"/></g><g id="_Group_95" data-name="&lt;Group&gt;"><polygon id="_Path_50" data-name="&lt;Path&gt;" points="606.57 418.75 606.63 435.49 655.71 407.1 655.65 390.37 606.57 418.75"/></g><g id="_Group_96" data-name="&lt;Group&gt;"><polygon id="_Path_51" data-name="&lt;Path&gt;" class="cls-14" points="561.39 389.24 606.36 415.6 650.74 390.08 605.77 363.72 561.39 389.24"/></g></g></g></g></g><g id="_Group_97" data-name="&lt;Group&gt;"><g id="_Group_98" data-name="&lt;Group&gt;"><g id="_Group_99" data-name="&lt;Group&gt;"><g id="_Group_100" data-name="&lt;Group&gt;" class="cls-9"><g id="_Group_101" data-name="&lt;Group&gt;"><polygon id="_Path_52" data-name="&lt;Path&gt;" class="cls-10" points="555.23 385.94 555.29 394.21 606.56 424.01 606.5 415.74 555.23 385.94"/></g><g id="_Group_102" data-name="&lt;Group&gt;"><polygon id="_Path_53" data-name="&lt;Path&gt;" class="cls-11" points="606.5 415.74 606.56 424.01 658.17 394.21 658.1 385.94 606.5 415.74"/></g><g id="_Group_103" data-name="&lt;Group&gt;"><polygon id="_Path_54" data-name="&lt;Path&gt;" class="cls-12" points="555.23 385.94 606.5 415.74 658.1 385.94 606.83 356.15 555.23 385.94"/></g></g></g><g id="_Group_104" data-name="&lt;Group&gt;"><g id="_Group_105" data-name="&lt;Group&gt;" class="cls-9"><g id="_Group_106" data-name="&lt;Group&gt;"><polygon id="_Path_55" data-name="&lt;Path&gt;" class="cls-13" points="556.88 368.94 556.94 385.67 606.63 414.55 606.57 397.82 556.88 368.94"/></g><g id="_Group_107" data-name="&lt;Group&gt;"><polygon id="_Path_56" data-name="&lt;Path&gt;" points="606.57 397.82 606.63 414.55 655.71 386.23 655.65 369.5 606.57 397.82"/></g><g id="_Group_108" data-name="&lt;Group&gt;"><polygon id="_Path_57" data-name="&lt;Path&gt;" class="cls-14" points="561.39 368.3 606.36 394.66 650.74 369.14 605.77 342.78 561.39 368.3"/></g></g></g></g><g id="_Group_109" data-name="&lt;Group&gt;"><g id="_Group_110" data-name="&lt;Group&gt;"><g id="_Group_111" data-name="&lt;Group&gt;" class="cls-9"><g id="_Group_112" data-name="&lt;Group&gt;"><polygon id="_Path_58" data-name="&lt;Path&gt;" class="cls-10" points="555.23 365.15 555.29 373.42 606.56 403.22 606.5 394.94 555.23 365.15"/></g><g id="_Group_113" data-name="&lt;Group&gt;"><polygon id="_Path_59" data-name="&lt;Path&gt;" class="cls-11" points="606.5 394.94 606.56 403.22 658.17 373.42 658.1 365.15 606.5 394.94"/></g><g id="_Group_114" data-name="&lt;Group&gt;"><polygon id="_Path_60" data-name="&lt;Path&gt;" class="cls-12" points="555.23 365.15 606.5 394.94 658.1 365.15 606.83 335.35 555.23 365.15"/></g></g></g><g id="_Group_115" data-name="&lt;Group&gt;"><g id="_Group_116" data-name="&lt;Group&gt;" class="cls-9"><g id="_Group_117" data-name="&lt;Group&gt;"><polygon id="_Path_61" data-name="&lt;Path&gt;" class="cls-13" points="556.81 348.04 556.87 364.77 606.63 393.76 606.57 377.03 556.81 348.04"/></g><g id="_Group_118" data-name="&lt;Group&gt;"><polygon id="_Path_62" data-name="&lt;Path&gt;" points="606.57 377.03 606.63 393.76 655.71 365.23 655.65 348.5 606.57 377.03"/></g><g id="_Group_119" data-name="&lt;Group&gt;"><polygon id="_Path_63" data-name="&lt;Path&gt;" class="cls-14" points="561.39 347.51 606.36 373.87 650.74 348.35 605.77 321.99 561.39 347.51"/></g></g></g></g><g id="_Group_120" data-name="&lt;Group&gt;"><g id="_Group_121" data-name="&lt;Group&gt;"><g id="_Group_122" data-name="&lt;Group&gt;" class="cls-9"><g id="_Group_123" data-name="&lt;Group&gt;"><polygon id="_Path_64" data-name="&lt;Path&gt;" class="cls-10" points="555.23 344.07 555.29 352.35 606.56 382.14 606.5 373.87 555.23 344.07"/></g><g id="_Group_124" data-name="&lt;Group&gt;"><polygon id="_Path_65" data-name="&lt;Path&gt;" class="cls-11" points="606.5 373.87 606.56 382.14 658.17 352.35 658.1 344.07 606.5 373.87"/></g><g id="_Group_125" data-name="&lt;Group&gt;"><polygon id="_Path_66" data-name="&lt;Path&gt;" class="cls-12" points="555.23 344.07 606.5 373.87 658.1 344.07 606.83 314.28 555.23 344.07"/></g></g></g><g id="_Group_126" data-name="&lt;Group&gt;"><g id="_Group_127" data-name="&lt;Group&gt;" class="cls-9"><g id="_Group_128" data-name="&lt;Group&gt;"><polygon id="_Path_67" data-name="&lt;Path&gt;" class="cls-13" points="557.02 327.09 557.09 343.82 606.63 372.68 606.57 355.95 557.02 327.09"/></g><g id="_Group_129" data-name="&lt;Group&gt;"><polygon id="_Path_68" data-name="&lt;Path&gt;" points="606.57 355.95 606.63 372.68 655.71 344.22 655.65 327.49 606.57 355.95"/></g><g id="_Group_130" data-name="&lt;Group&gt;"><polygon id="_Path_69" data-name="&lt;Path&gt;" class="cls-14" points="561.39 326.43 606.36 352.79 650.74 327.27 605.77 300.91 561.39 326.43"/></g></g></g></g><g id="_Group_131" data-name="&lt;Group&gt;"><g id="_Group_132" data-name="&lt;Group&gt;"><g id="_Group_133" data-name="&lt;Group&gt;" class="cls-9"><g id="_Group_134" data-name="&lt;Group&gt;"><polygon id="_Path_70" data-name="&lt;Path&gt;" class="cls-10" points="555.23 315.41 555.29 332.12 606.56 361.91 606.5 345.2 555.23 315.41"/></g><g id="_Group_135" data-name="&lt;Group&gt;"><polygon id="_Path_71" data-name="&lt;Path&gt;" class="cls-11" points="606.5 345.2 606.56 361.91 658.17 332.12 658.1 315.41 606.5 345.2"/></g><g id="_Group_136" data-name="&lt;Group&gt;"><polygon id="_Path_72" data-name="&lt;Path&gt;" class="cls-15" points="555.23 315.41 606.5 345.2 658.1 315.41 606.83 285.62 555.23 315.41"/></g></g></g></g></g><g id="_Group_137" data-name="&lt;Group&gt;"><g id="_Group_138" data-name="&lt;Group&gt;" class="cls-9"><g id="_Group_139" data-name="&lt;Group&gt;"><polygon id="_Path_73" data-name="&lt;Path&gt;" class="cls-16" points="608.48 285.08 608.49 289.2 650.8 313.8 650.79 309.68 608.48 285.08"/></g><g id="_Group_140" data-name="&lt;Group&gt;"><polygon id="_Path_74" data-name="&lt;Path&gt;" class="cls-16" points="564.33 310.57 564.34 314.69 608.49 289.2 608.48 285.08 564.33 310.57"/></g><g id="_Group_141" data-name="&lt;Group&gt;"><polygon id="_Path_75" data-name="&lt;Path&gt;" class="cls-16" points="606.64 337.84 606.65 341.97 655.44 313.8 655.43 309.68 606.64 337.84"/></g><g id="_Group_142" data-name="&lt;Group&gt;"><polygon id="_Path_76" data-name="&lt;Path&gt;" class="cls-16" points="559.7 310.57 559.71 314.69 606.65 341.97 606.64 337.84 559.7 310.57"/></g><g id="_Group_143" data-name="&lt;Group&gt;"><path id="_Compound_Path_" data-name="&lt;Compound Path&gt;" d="M655.43,309.67l-48.79,28.17L559.7,310.57l48.79-28.17Zm-48.78,25.49,44.14-25.49-42.31-24.59-44.15,25.49,42.32,24.59Z"/></g></g></g><g id="_Group_144" data-name="&lt;Group&gt;"><g id="_Group_145" data-name="&lt;Group&gt;"><g id="_Clip_Group_" data-name="&lt;Clip Group&gt;"><path id="_Clipping_Path_2" data-name="&lt;Clipping Path&gt;" class="cls-1" d="M621.42,645.79l.18-.1a2.17,2.17,0,0,1-1.91,0l.18.1A1.79,1.79,0,0,0,621.42,645.79Z"/><g class="cls-17"><g id="_Group_146" data-name="&lt;Group&gt;" class="cls-9"><g id="_Group_147" data-name="&lt;Group&gt;"><path id="_Path_77" data-name="&lt;Path&gt;" class="cls-1" d="M621.42,645.79l.18-.1a2.17,2.17,0,0,1-1.91,0l.18.1a1.79,1.79,0,0,0,1.55,0Z"/></g></g></g></g></g></g><g id="_Group_148" data-name="&lt;Group&gt;"><g id="_Group_149" data-name="&lt;Group&gt;"><g id="_Group_150" data-name="&lt;Group&gt;"><g id="_Group_151" data-name="&lt;Group&gt;" class="cls-9"><g id="_Group_152" data-name="&lt;Group&gt;"><path id="_Path_78" data-name="&lt;Path&gt;" class="cls-1" d="M658.4,622.44l.18-.1a2.17,2.17,0,0,1-1.91,0l.19.1a1.71,1.71,0,0,0,1.54,0Z"/></g></g></g></g></g></g><line class="cls-4" x1="490.45" y1="471.11" x2="374.66" y2="532.18"/><polygon class="cls-6" points="374.66 532.18 491.93 598.77 491.93 641.41 374.36 573.72 374.66 532.18"/><polygon class="cls-18" points="376.9 250.83 320.9 283.4 376.89 315.56 432.88 283.16 376.9 250.83"/><polygon class="cls-18" points="376.91 650.89 316.64 616.1 316.64 612.54 376.91 647.32 376.91 650.89"/><polygon class="cls-19" points="376.91 676.41 316.64 641.63 316.64 615.25 376.91 650.04 376.91 676.41"/><polygon class="cls-18" points="437.18 616.08 376.91 650.89 376.91 647.32 437.18 612.51 437.18 616.08"/><polygon points="437.18 641.6 376.91 676.41 376.91 650.04 437.18 615.23 437.18 641.6"/><polygon class="cls-18" points="376.91 577.74 316.64 612.54 376.89 647.34 437.18 612.51 376.91 577.74"/><polygon class="cls-19" points="376.89 645.13 320.9 612.97 320.9 283.4 376.89 315.56 376.89 645.13"/><polygon points="432.88 612.73 376.89 645.13 376.89 315.56 432.88 283.16 432.88 612.73"/><polygon class="cls-20" points="336.27 334.97 323.33 327.54 323.33 337.86 336.27 345.29 336.27 334.97"/><polygon class="cls-20" points="336.27 316.57 323.33 309.14 323.33 319.47 336.27 326.9 336.27 316.57"/><polygon class="cls-20" points="354.51 345.22 341.57 337.79 341.57 348.12 354.51 355.55 354.51 345.22"/><polygon class="cls-20" points="354.51 326.83 341.57 319.4 341.57 329.72 354.51 337.15 354.51 326.83"/><polygon class="cls-20" points="372.55 355.74 359.61 348.31 359.61 358.63 372.55 366.07 372.55 355.74"/><polygon class="cls-20" points="372.55 337.35 359.61 329.92 359.61 340.24 372.55 347.67 372.55 337.35"/><polygon class="cls-20" points="336.37 390.29 323.44 382.86 323.44 393.19 336.37 400.62 336.37 390.29"/><polygon class="cls-20" points="336.37 371.9 323.44 364.47 323.44 374.8 336.37 382.23 336.37 371.9"/><polygon class="cls-20" points="354.62 400.55 341.68 393.12 341.68 403.44 354.62 410.87 354.62 400.55"/><polygon class="cls-20" points="354.62 382.15 341.68 374.72 341.68 385.05 354.62 392.48 354.62 382.15"/><polygon class="cls-20" points="372.65 411.07 359.71 403.63 359.71 413.96 372.65 421.39 372.65 411.07"/><polygon class="cls-20" points="372.65 392.67 359.71 385.24 359.71 395.57 372.65 403 372.65 392.67"/><polygon class="cls-20" points="336.27 448.96 323.33 441.53 323.33 451.85 336.27 459.29 336.27 448.96"/><polygon class="cls-20" points="336.27 430.57 323.33 423.14 323.33 433.46 336.27 440.89 336.27 430.57"/><polygon class="cls-20" points="354.51 459.21 341.57 451.78 341.57 462.11 354.51 469.54 354.51 459.21"/><polygon class="cls-20" points="354.51 440.82 341.57 433.39 341.57 443.71 354.51 451.15 354.51 440.82"/><polygon class="cls-20" points="372.55 469.73 359.61 462.3 359.61 472.63 372.55 480.06 372.55 469.73"/><polygon class="cls-20" points="372.55 451.34 359.61 443.91 359.61 454.24 372.55 461.67 372.55 451.34"/><polygon class="cls-20" points="336.37 506.99 323.44 499.56 323.44 509.89 336.37 517.32 336.37 506.99"/><polygon class="cls-20" points="336.37 488.6 323.44 481.17 323.44 491.49 336.37 498.93 336.37 488.6"/><polygon class="cls-20" points="354.62 517.25 341.68 509.81 341.68 520.14 354.62 527.57 354.62 517.25"/><polygon class="cls-20" points="354.62 498.85 341.68 491.42 341.68 501.75 354.62 509.18 354.62 498.85"/><polygon class="cls-20" points="372.65 527.76 359.71 520.33 359.71 530.66 372.65 538.09 372.65 527.76"/><polygon class="cls-20" points="372.65 509.37 359.71 501.94 359.71 512.27 372.65 519.7 372.65 509.37"/><polygon class="cls-20" points="336.27 564.23 323.33 556.8 323.33 567.12 336.27 574.56 336.27 564.23"/><polygon class="cls-20" points="336.27 545.84 323.33 538.41 323.33 548.73 336.27 556.16 336.27 545.84"/><polygon class="cls-20" points="354.51 574.48 341.57 567.05 341.57 577.38 354.51 584.81 354.51 574.48"/><polygon class="cls-20" points="354.51 556.09 341.57 548.66 341.57 558.98 354.51 566.42 354.51 556.09"/><polygon class="cls-20" points="372.55 585 359.61 577.57 359.61 587.9 372.55 595.33 372.55 585"/><polygon class="cls-20" points="372.55 566.61 359.61 559.18 359.61 569.5 372.55 576.94 372.55 566.61"/><polygon class="cls-20" points="416.61 335.52 429.55 328.09 429.55 338.41 416.61 345.85 416.61 335.52"/><polygon class="cls-20" points="416.61 317.13 429.55 309.69 429.55 320.02 416.61 327.45 416.61 317.13"/><polygon class="cls-20" points="398.37 345.77 411.3 338.34 411.3 348.67 398.37 356.1 398.37 345.77"/><polygon class="cls-20" points="398.37 327.38 411.3 319.95 411.3 330.27 398.37 337.71 398.37 327.38"/><polygon class="cls-20" points="380.33 356.29 393.27 348.86 393.27 359.19 380.33 366.62 380.33 356.29"/><polygon class="cls-20" points="380.33 337.9 393.27 330.47 393.27 340.79 380.33 348.23 380.33 337.9"/><polygon class="cls-20" points="416.5 390.85 429.44 383.41 429.44 393.74 416.5 401.17 416.5 390.85"/><polygon class="cls-20" points="416.5 372.45 429.44 365.02 429.44 375.35 416.5 382.78 416.5 372.45"/><polygon class="cls-20" points="398.26 401.1 411.2 393.67 411.2 403.99 398.26 411.42 398.26 401.1"/><polygon class="cls-20" points="398.26 382.7 411.2 375.27 411.2 385.6 398.26 393.03 398.26 382.7"/><polygon class="cls-20" points="380.23 411.62 393.16 404.19 393.16 414.51 380.23 421.94 380.23 411.62"/><polygon class="cls-20" points="380.23 393.23 393.16 385.79 393.16 396.12 380.23 403.55 380.23 393.23"/><polygon class="cls-20" points="416.61 449.51 429.55 442.08 429.55 452.41 416.61 459.84 416.61 449.51"/><polygon class="cls-20" points="416.61 431.12 429.55 423.69 429.55 434.01 416.61 441.44 416.61 431.12"/><polygon class="cls-20" points="398.37 459.76 411.3 452.33 411.3 462.66 398.37 470.09 398.37 459.76"/><polygon class="cls-20" points="398.37 441.37 411.3 433.94 411.3 444.27 398.37 451.7 398.37 441.37"/><polygon class="cls-20" points="380.33 470.29 393.27 462.85 393.27 473.18 380.33 480.61 380.33 470.29"/><polygon class="cls-20" points="380.33 451.89 393.27 444.46 393.27 454.79 380.33 462.22 380.33 451.89"/><polygon class="cls-20" points="416.5 507.54 429.44 500.11 429.44 510.44 416.5 517.87 416.5 507.54"/><polygon class="cls-20" points="416.5 489.15 429.44 481.72 429.44 492.05 416.5 499.48 416.5 489.15"/><polygon class="cls-20" points="398.26 517.8 411.2 510.37 411.2 520.69 398.26 528.12 398.26 517.8"/><polygon class="cls-20" points="398.26 499.4 411.2 491.97 411.2 502.3 398.26 509.73 398.26 499.4"/><polygon class="cls-20" points="380.23 528.32 393.16 520.88 393.16 531.21 380.23 538.64 380.23 528.32"/><polygon class="cls-20" points="380.23 509.92 393.16 502.49 393.16 512.82 380.23 520.25 380.23 509.92"/><polygon class="cls-20" points="416.61 564.78 429.55 557.35 429.55 567.68 416.61 575.11 416.61 564.78"/><polygon class="cls-20" points="416.61 546.39 429.55 538.96 429.55 549.28 416.61 556.72 416.61 546.39"/><polygon class="cls-20" points="398.37 575.03 411.3 567.6 411.3 577.93 398.37 585.36 398.37 575.03"/><polygon class="cls-20" points="398.37 556.64 411.3 549.21 411.3 559.54 398.37 566.97 398.37 556.64"/><polygon class="cls-20" points="380.33 585.55 393.27 578.12 393.27 588.45 380.33 595.88 380.33 585.55"/><polygon class="cls-20" points="380.33 567.16 393.27 559.73 393.27 570.06 380.33 577.49 380.33 567.16"/><polygon class="cls-21" points="320.9 401.25 320.9 409.94 377.07 439.09 377.07 430.39 320.9 401.25"/><polygon class="cls-21" points="431.78 401.96 377.06 430.36 377.06 439.06 431.78 410.66 431.78 401.96"/><polygon class="cls-21" points="320.9 347.67 320.9 356.37 377.07 385.52 377.07 376.82 320.9 347.67"/><polygon class="cls-21" points="431.78 348.39 377.06 376.78 377.06 385.48 431.78 357.08 431.78 348.39"/><polygon class="cls-21" points="320.9 464.7 320.9 473.4 377.07 502.55 377.07 493.85 320.9 464.7"/><polygon class="cls-21" points="431.78 465.41 377.06 493.81 377.06 502.51 431.78 474.11 431.78 465.41"/><polygon class="cls-21" points="320.9 518.27 320.9 526.97 377.07 556.12 377.07 547.42 320.9 518.27"/><polygon class="cls-21" points="431.78 518.99 377.06 547.38 377.06 556.08 431.78 527.68 431.78 518.99"/><polygon class="cls-21" points="320.9 581.73 320.9 590.43 377.07 619.58 377.07 610.88 320.9 581.73"/><polygon class="cls-21" points="431.78 582.44 377.06 610.84 377.06 619.54 431.78 591.14 431.78 582.44"/><g id="_Group_153" data-name="&lt;Group&gt;"><polygon id="_Path_79" data-name="&lt;Path&gt;" class="cls-4" points="585.09 173.4 496.9 224.65 408.12 173.4 496.84 120.92 585.09 173.4"/></g><polygon class="cls-22" points="524.67 535.5 524.67 522.05 497.09 537.45 497.09 550.55 524.67 535.5"/><polygon class="cls-6" points="497.03 669.6 410.3 610.07 410.3 174.08 496.91 225.15 497.03 669.6"/><polygon class="cls-7" points="496.91 225.15 582.94 174 582.94 610.17 497.03 669.6 496.91 225.15"/><line class="cls-23" x1="439.29" y1="223.52" x2="439.29" y2="618.84"/><line class="cls-24" x1="468.04" y1="239.58" x2="468.04" y2="639.64"/><line class="cls-23" x1="554.15" y1="222.27" x2="554.15" y2="618.84"/><line class="cls-23" x1="525.39" y1="239.58" x2="525.39" y2="639.64"/><line class="cls-25" x1="496.61" y1="255.19" x2="496.61" y2="659.32"/><g id="_Group_154" data-name="&lt;Group&gt;" class="cls-9"><g id="_Group_155" data-name="&lt;Group&gt;"><polygon id="_Path_80" data-name="&lt;Path&gt;" class="cls-26" points="587.24 202.34 585.5 201.29 495.77 253.6 496.86 255.39 587.24 202.34"/></g><g id="_Group_156" data-name="&lt;Group&gt;"><polygon id="_Path_81" data-name="&lt;Path&gt;" class="cls-27" points="495.5 256.02 496.91 257.61 587.24 204.65 587.24 202.34 495.5 256.02"/></g></g><g id="_Group_157" data-name="&lt;Group&gt;" class="cls-9"><g id="_Group_158" data-name="&lt;Group&gt;"><polygon id="_Path_82" data-name="&lt;Path&gt;" class="cls-26" points="405.98 204.21 407.92 203.27 498.24 253.34 496.87 255.19 405.98 204.21"/></g><g id="_Group_159" data-name="&lt;Group&gt;"><polygon id="_Path_83" data-name="&lt;Path&gt;" class="cls-27" points="496.84 255.19 496.91 257.61 406.05 206.02 406 204.19 496.84 255.19"/></g></g><polygon id="_Path_84" data-name="&lt;Path&gt;" class="cls-26" points="582.81 202.94 582.84 199.49 586.15 201.69 582.81 202.94"/><polygon id="_Path_85" data-name="&lt;Path&gt;" class="cls-26" points="410.53 204.96 410.51 201.92 407.13 203.65 410.53 204.96"/><polygon id="_Path_86" data-name="&lt;Path&gt;" class="cls-28" points="582.81 302.47 582.84 299.02 586.15 301.22 582.81 302.47"/><g id="_Group_160" data-name="&lt;Group&gt;" class="cls-9"><g id="_Group_161" data-name="&lt;Group&gt;"><polygon id="_Path_87" data-name="&lt;Path&gt;" class="cls-26" points="587.24 500.94 585.5 499.89 495.77 552.21 496.86 554 587.24 500.94"/></g><g id="_Group_162" data-name="&lt;Group&gt;"><polygon id="_Path_88" data-name="&lt;Path&gt;" class="cls-27" points="495.5 554.63 496.91 556.21 587.24 503.25 587.24 500.94 495.5 554.63"/></g></g><g id="_Group_163" data-name="&lt;Group&gt;" class="cls-9"><g id="_Group_164" data-name="&lt;Group&gt;"><polygon id="_Path_89" data-name="&lt;Path&gt;" class="cls-26" points="405.98 502.81 407.92 501.87 498.24 551.94 496.87 553.79 405.98 502.81"/></g><g id="_Group_165" data-name="&lt;Group&gt;"><polygon id="_Path_90" data-name="&lt;Path&gt;" class="cls-27" points="496.84 553.79 496.91 556.21 406.05 504.62 406 502.8 496.84 553.79"/></g></g><polygon id="_Path_91" data-name="&lt;Path&gt;" class="cls-26" points="582.81 501.54 582.84 498.09 586.15 500.29 582.81 501.54"/><polygon id="_Path_92" data-name="&lt;Path&gt;" class="cls-26" points="410.53 503.56 410.51 500.52 407.13 502.25 410.53 503.56"/><g id="_Group_166" data-name="&lt;Group&gt;" class="cls-9"><g id="_Group_167" data-name="&lt;Group&gt;"><polygon id="_Path_93" data-name="&lt;Path&gt;" class="cls-26" points="586.15 170.52 584.32 169.52 495.77 221.15 496.86 222.94 586.15 170.52"/></g><g id="_Group_168" data-name="&lt;Group&gt;"><polygon id="_Path_94" data-name="&lt;Path&gt;" class="cls-27" points="495.5 223.57 496.91 225.15 587.24 172.19 586.15 170.52 495.5 223.57"/></g></g><g id="_Group_169" data-name="&lt;Group&gt;" class="cls-9"><g id="_Group_170" data-name="&lt;Group&gt;"><polygon id="_Path_95" data-name="&lt;Path&gt;" class="cls-26" points="405.98 171.75 407.92 170.81 498.24 220.88 496.87 222.73 405.98 171.75"/></g><g id="_Group_171" data-name="&lt;Group&gt;"><polygon id="_Path_96" data-name="&lt;Path&gt;" class="cls-27" points="496.84 222.73 496.91 225.15 406.05 173.56 406 171.74 496.84 222.73"/></g></g><line id="_Path_97" data-name="&lt;Path&gt;" class="cls-28" x1="582.84" y1="167.03" x2="586.15" y2="169.23"/><g id="_Group_172" data-name="&lt;Group&gt;"><polygon id="_Path_98" data-name="&lt;Path&gt;" class="cls-26" points="584.32 169.52 581.42 171.21 496.84 120.92 496.8 118.86 584.32 169.52"/></g><g id="_Group_173" data-name="&lt;Group&gt;"><polygon id="_Path_99" data-name="&lt;Path&gt;" class="cls-26" points="407.92 170.81 410.2 172.16 497.24 120.71 497.05 118.86 407.92 170.81"/></g><g id="_Group_174" data-name="&lt;Group&gt;" class="cls-9"><g id="_Group_175" data-name="&lt;Group&gt;"><polygon id="_Path_100" data-name="&lt;Path&gt;" class="cls-26" points="587.24 219.65 585.5 218.6 495.77 270.92 496.86 272.7 587.24 219.65"/></g><g id="_Group_176" data-name="&lt;Group&gt;"><polygon id="_Path_101" data-name="&lt;Path&gt;" class="cls-27" points="495.5 273.33 496.91 274.92 587.24 221.96 587.24 219.65 495.5 273.33"/></g></g><g id="_Group_177" data-name="&lt;Group&gt;" class="cls-9"><g id="_Group_178" data-name="&lt;Group&gt;"><polygon id="_Path_102" data-name="&lt;Path&gt;" class="cls-26" points="405.98 221.52 407.92 220.58 498.24 270.65 496.87 272.5 405.98 221.52"/></g><g id="_Group_179" data-name="&lt;Group&gt;"><polygon id="_Path_103" data-name="&lt;Path&gt;" class="cls-27" points="496.84 272.5 496.91 274.92 406.05 223.33 406 221.5 496.84 272.5"/></g></g><polygon id="_Path_104" data-name="&lt;Path&gt;" class="cls-26" points="582.81 220.25 582.84 216.8 586.15 219 582.81 220.25"/><polygon id="_Path_105" data-name="&lt;Path&gt;" class="cls-26" points="410.53 222.27 410.51 219.23 407.13 220.96 410.53 222.27"/><g id="_Group_180" data-name="&lt;Group&gt;" class="cls-9"><g id="_Group_181" data-name="&lt;Group&gt;"><polygon id="_Path_106" data-name="&lt;Path&gt;" class="cls-26" points="587.24 236.96 585.5 235.91 495.77 288.23 496.86 290.01 587.24 236.96"/></g><g id="_Group_182" data-name="&lt;Group&gt;"><polygon id="_Path_107" data-name="&lt;Path&gt;" class="cls-27" points="495.5 290.64 496.91 292.23 587.24 239.27 587.24 236.96 495.5 290.64"/></g></g><g id="_Group_183" data-name="&lt;Group&gt;" class="cls-9"><g id="_Group_184" data-name="&lt;Group&gt;"><polygon id="_Path_108" data-name="&lt;Path&gt;" class="cls-26" points="405.98 238.83 407.92 237.89 498.24 287.96 496.87 289.81 405.98 238.83"/></g><g id="_Group_185" data-name="&lt;Group&gt;"><polygon id="_Path_109" data-name="&lt;Path&gt;" class="cls-27" points="496.84 289.81 496.91 292.23 406.05 240.64 406 238.81 496.84 289.81"/></g></g><polygon id="_Path_110" data-name="&lt;Path&gt;" class="cls-26" points="582.81 237.56 582.84 234.11 586.15 236.31 582.81 237.56"/><polygon id="_Path_111" data-name="&lt;Path&gt;" class="cls-26" points="410.53 239.58 410.51 236.54 407.13 238.27 410.53 239.58"/><g id="_Group_186" data-name="&lt;Group&gt;" class="cls-9"><g id="_Group_187" data-name="&lt;Group&gt;"><polygon id="_Path_112" data-name="&lt;Path&gt;" class="cls-26" points="587.24 254.27 585.5 253.22 495.77 305.54 496.86 307.32 587.24 254.27"/></g><g id="_Group_188" data-name="&lt;Group&gt;"><polygon id="_Path_113" data-name="&lt;Path&gt;" class="cls-27" points="495.5 307.96 496.91 309.54 587.24 256.58 587.24 254.27 495.5 307.96"/></g></g><g id="_Group_189" data-name="&lt;Group&gt;" class="cls-9"><g id="_Group_190" data-name="&lt;Group&gt;"><polygon id="_Path_114" data-name="&lt;Path&gt;" class="cls-26" points="405.98 256.14 407.92 255.2 498.24 305.27 496.87 307.12 405.98 256.14"/></g><g id="_Group_191" data-name="&lt;Group&gt;"><polygon id="_Path_115" data-name="&lt;Path&gt;" class="cls-27" points="496.84 307.12 496.91 309.54 406.05 257.95 406 256.12 496.84 307.12"/></g></g><polygon id="_Path_116" data-name="&lt;Path&gt;" class="cls-26" points="582.81 254.87 582.84 251.42 586.15 253.62 582.81 254.87"/><polygon id="_Path_117" data-name="&lt;Path&gt;" class="cls-26" points="410.53 256.89 410.51 253.85 407.13 255.58 410.53 256.89"/><g id="_Group_192" data-name="&lt;Group&gt;" class="cls-9"><g id="_Group_193" data-name="&lt;Group&gt;"><polygon id="_Path_118" data-name="&lt;Path&gt;" class="cls-26" points="587.24 271.58 585.5 270.53 495.77 322.85 496.86 324.63 587.24 271.58"/></g><g id="_Group_194" data-name="&lt;Group&gt;"><polygon id="_Path_119" data-name="&lt;Path&gt;" class="cls-27" points="495.5 325.27 496.91 326.85 587.24 273.89 587.24 271.58 495.5 325.27"/></g></g><g id="_Group_195" data-name="&lt;Group&gt;" class="cls-9"><g id="_Group_196" data-name="&lt;Group&gt;"><polygon id="_Path_120" data-name="&lt;Path&gt;" class="cls-26" points="405.98 273.45 407.92 272.51 498.24 322.58 496.87 324.43 405.98 273.45"/></g><g id="_Group_197" data-name="&lt;Group&gt;"><polygon id="_Path_121" data-name="&lt;Path&gt;" class="cls-27" points="496.84 324.43 496.91 326.85 406.05 275.26 406 273.43 496.84 324.43"/></g></g><polygon id="_Path_122" data-name="&lt;Path&gt;" class="cls-26" points="582.81 272.18 582.84 268.73 586.15 270.93 582.81 272.18"/><polygon id="_Path_123" data-name="&lt;Path&gt;" class="cls-26" points="410.53 274.2 410.51 271.16 407.13 272.89 410.53 274.2"/><g id="_Group_198" data-name="&lt;Group&gt;" class="cls-9"><g id="_Group_199" data-name="&lt;Group&gt;"><polygon id="_Path_124" data-name="&lt;Path&gt;" class="cls-26" points="587.24 288.89 585.5 287.84 495.77 340.16 496.86 341.94 587.24 288.89"/></g><g id="_Group_200" data-name="&lt;Group&gt;"><polygon id="_Path_125" data-name="&lt;Path&gt;" class="cls-27" points="495.5 342.58 496.91 344.16 587.24 291.2 587.24 288.89 495.5 342.58"/></g></g><g id="_Group_201" data-name="&lt;Group&gt;" class="cls-9"><g id="_Group_202" data-name="&lt;Group&gt;"><polygon id="_Path_126" data-name="&lt;Path&gt;" class="cls-26" points="405.98 290.76 407.92 289.82 498.24 339.89 496.87 341.74 405.98 290.76"/></g><g id="_Group_203" data-name="&lt;Group&gt;"><polygon id="_Path_127" data-name="&lt;Path&gt;" class="cls-27" points="496.84 341.74 496.91 344.16 406.05 292.57 406 290.74 496.84 341.74"/></g></g><polygon id="_Path_128" data-name="&lt;Path&gt;" class="cls-26" points="582.81 289.49 582.84 286.04 586.15 288.24 582.81 289.49"/><polygon id="_Path_129" data-name="&lt;Path&gt;" class="cls-26" points="410.53 291.51 410.51 288.47 407.13 290.2 410.53 291.51"/><g id="_Group_204" data-name="&lt;Group&gt;" class="cls-9"><g id="_Group_205" data-name="&lt;Group&gt;"><polygon id="_Path_130" data-name="&lt;Path&gt;" class="cls-26" points="587.24 306.2 585.5 305.15 495.77 357.47 496.86 359.25 587.24 306.2"/></g><g id="_Group_206" data-name="&lt;Group&gt;"><polygon id="_Path_131" data-name="&lt;Path&gt;" class="cls-27" points="495.5 359.89 496.91 361.47 587.24 308.51 587.24 306.2 495.5 359.89"/></g></g><g id="_Group_207" data-name="&lt;Group&gt;" class="cls-9"><g id="_Group_208" data-name="&lt;Group&gt;"><polygon id="_Path_132" data-name="&lt;Path&gt;" class="cls-26" points="405.98 308.07 407.92 307.13 498.24 357.2 496.87 359.05 405.98 308.07"/></g><g id="_Group_209" data-name="&lt;Group&gt;"><polygon id="_Path_133" data-name="&lt;Path&gt;" class="cls-27" points="496.84 359.05 496.91 361.47 406.05 309.88 406 308.05 496.84 359.05"/></g></g><polygon id="_Path_134" data-name="&lt;Path&gt;" class="cls-26" points="582.81 306.8 582.84 303.35 586.15 305.55 582.81 306.8"/><polygon id="_Path_135" data-name="&lt;Path&gt;" class="cls-26" points="410.53 308.82 410.51 305.78 407.13 307.51 410.53 308.82"/><g id="_Group_210" data-name="&lt;Group&gt;" class="cls-9"><g id="_Group_211" data-name="&lt;Group&gt;"><polygon id="_Path_136" data-name="&lt;Path&gt;" class="cls-26" points="587.24 323.51 585.5 322.46 495.77 374.78 496.86 376.56 587.24 323.51"/></g><g id="_Group_212" data-name="&lt;Group&gt;"><polygon id="_Path_137" data-name="&lt;Path&gt;" class="cls-27" points="495.5 377.2 496.91 378.78 587.24 325.82 587.24 323.51 495.5 377.2"/></g></g><g id="_Group_213" data-name="&lt;Group&gt;" class="cls-9"><g id="_Group_214" data-name="&lt;Group&gt;"><polygon id="_Path_138" data-name="&lt;Path&gt;" class="cls-26" points="405.98 325.38 407.92 324.44 498.24 374.51 496.87 376.36 405.98 325.38"/></g><g id="_Group_215" data-name="&lt;Group&gt;"><polygon id="_Path_139" data-name="&lt;Path&gt;" class="cls-27" points="496.84 376.36 496.91 378.78 406.05 327.19 406 325.37 496.84 376.36"/></g></g><polygon id="_Path_140" data-name="&lt;Path&gt;" class="cls-26" points="582.81 324.11 582.84 320.66 586.15 322.86 582.81 324.11"/><polygon id="_Path_141" data-name="&lt;Path&gt;" class="cls-26" points="410.53 326.13 410.51 323.09 407.13 324.82 410.53 326.13"/><g id="_Group_216" data-name="&lt;Group&gt;" class="cls-9"><g id="_Group_217" data-name="&lt;Group&gt;"><polygon id="_Path_142" data-name="&lt;Path&gt;" class="cls-26" points="587.24 340.82 585.5 339.77 495.77 392.09 496.86 393.88 587.24 340.82"/></g><g id="_Group_218" data-name="&lt;Group&gt;"><polygon id="_Path_143" data-name="&lt;Path&gt;" class="cls-27" points="495.5 394.51 496.91 396.09 587.24 343.13 587.24 340.82 495.5 394.51"/></g></g><g id="_Group_219" data-name="&lt;Group&gt;" class="cls-9"><g id="_Group_220" data-name="&lt;Group&gt;"><polygon id="_Path_144" data-name="&lt;Path&gt;" class="cls-26" points="405.98 342.69 407.92 341.75 498.24 391.82 496.87 393.67 405.98 342.69"/></g><g id="_Group_221" data-name="&lt;Group&gt;"><polygon id="_Path_145" data-name="&lt;Path&gt;" class="cls-27" points="496.84 393.67 496.91 396.09 406.05 344.5 406 342.68 496.84 393.67"/></g></g><polygon id="_Path_146" data-name="&lt;Path&gt;" class="cls-26" points="582.81 341.42 582.84 337.97 586.15 340.17 582.81 341.42"/><polygon id="_Path_147" data-name="&lt;Path&gt;" class="cls-26" points="410.53 343.44 410.51 340.4 407.13 342.13 410.53 343.44"/><g id="_Group_222" data-name="&lt;Group&gt;" class="cls-9"><g id="_Group_223" data-name="&lt;Group&gt;"><polygon id="_Path_148" data-name="&lt;Path&gt;" class="cls-26" points="587.24 358.13 585.5 357.08 495.77 409.4 496.86 411.19 587.24 358.13"/></g><g id="_Group_224" data-name="&lt;Group&gt;"><polygon id="_Path_149" data-name="&lt;Path&gt;" class="cls-27" points="495.5 411.82 496.91 413.4 587.24 360.44 587.24 358.13 495.5 411.82"/></g></g><g id="_Group_225" data-name="&lt;Group&gt;" class="cls-9"><g id="_Group_226" data-name="&lt;Group&gt;"><polygon id="_Path_150" data-name="&lt;Path&gt;" class="cls-26" points="405.98 360 407.92 359.06 498.24 409.13 496.87 410.98 405.98 360"/></g><g id="_Group_227" data-name="&lt;Group&gt;"><polygon id="_Path_151" data-name="&lt;Path&gt;" class="cls-27" points="496.84 410.98 496.91 413.4 406.05 361.81 406 359.99 496.84 410.98"/></g></g><polygon id="_Path_152" data-name="&lt;Path&gt;" class="cls-26" points="582.81 358.73 582.84 355.28 586.15 357.48 582.81 358.73"/><polygon id="_Path_153" data-name="&lt;Path&gt;" class="cls-26" points="410.53 360.75 410.51 357.71 407.13 359.45 410.53 360.75"/><g id="_Group_228" data-name="&lt;Group&gt;" class="cls-9"><g id="_Group_229" data-name="&lt;Group&gt;"><polygon id="_Path_154" data-name="&lt;Path&gt;" class="cls-26" points="587.24 375.44 585.5 374.39 495.77 426.71 496.86 428.5 587.24 375.44"/></g><g id="_Group_230" data-name="&lt;Group&gt;"><polygon id="_Path_155" data-name="&lt;Path&gt;" class="cls-27" points="495.5 429.13 496.91 430.71 587.24 377.75 587.24 375.44 495.5 429.13"/></g></g><g id="_Group_231" data-name="&lt;Group&gt;" class="cls-9"><g id="_Group_232" data-name="&lt;Group&gt;"><polygon id="_Path_156" data-name="&lt;Path&gt;" class="cls-26" points="405.98 377.31 407.92 376.37 498.24 426.44 496.87 428.29 405.98 377.31"/></g><g id="_Group_233" data-name="&lt;Group&gt;"><polygon id="_Path_157" data-name="&lt;Path&gt;" class="cls-27" points="496.84 428.29 496.91 430.71 406.05 379.12 406 377.3 496.84 428.29"/></g></g><polygon id="_Path_158" data-name="&lt;Path&gt;" class="cls-26" points="582.81 376.04 582.84 372.59 586.15 374.79 582.81 376.04"/><polygon id="_Path_159" data-name="&lt;Path&gt;" class="cls-26" points="410.53 378.06 410.51 375.02 407.13 376.76 410.53 378.06"/><g id="_Group_234" data-name="&lt;Group&gt;" class="cls-9"><g id="_Group_235" data-name="&lt;Group&gt;"><polygon id="_Path_160" data-name="&lt;Path&gt;" class="cls-26" points="587.24 392.75 585.5 391.7 495.77 444.02 496.86 445.81 587.24 392.75"/></g><g id="_Group_236" data-name="&lt;Group&gt;"><polygon id="_Path_161" data-name="&lt;Path&gt;" class="cls-27" points="495.5 446.44 496.91 448.02 587.24 395.06 587.24 392.75 495.5 446.44"/></g></g><g id="_Group_237" data-name="&lt;Group&gt;" class="cls-9"><g id="_Group_238" data-name="&lt;Group&gt;"><polygon id="_Path_162" data-name="&lt;Path&gt;" class="cls-26" points="405.98 394.62 407.92 393.68 498.24 443.75 496.87 445.6 405.98 394.62"/></g><g id="_Group_239" data-name="&lt;Group&gt;"><polygon id="_Path_163" data-name="&lt;Path&gt;" class="cls-27" points="496.84 445.6 496.91 448.02 406.05 396.43 406 394.61 496.84 445.6"/></g></g><polygon id="_Path_164" data-name="&lt;Path&gt;" class="cls-26" points="582.81 393.35 582.84 389.9 586.15 392.1 582.81 393.35"/><polygon id="_Path_165" data-name="&lt;Path&gt;" class="cls-26" points="410.53 395.37 410.51 392.33 407.13 394.07 410.53 395.37"/><g id="_Group_240" data-name="&lt;Group&gt;" class="cls-9"><g id="_Group_241" data-name="&lt;Group&gt;"><polygon id="_Path_166" data-name="&lt;Path&gt;" class="cls-26" points="587.24 410.06 585.5 409.01 495.77 461.33 496.86 463.12 587.24 410.06"/></g><g id="_Group_242" data-name="&lt;Group&gt;"><polygon id="_Path_167" data-name="&lt;Path&gt;" class="cls-27" points="495.5 463.75 496.91 465.33 587.24 412.37 587.24 410.06 495.5 463.75"/></g></g><g id="_Group_243" data-name="&lt;Group&gt;" class="cls-9"><g id="_Group_244" data-name="&lt;Group&gt;"><polygon id="_Path_168" data-name="&lt;Path&gt;" class="cls-26" points="405.98 411.93 407.92 410.99 498.24 461.06 496.87 462.91 405.98 411.93"/></g><g id="_Group_245" data-name="&lt;Group&gt;"><polygon id="_Path_169" data-name="&lt;Path&gt;" class="cls-27" points="496.84 462.91 496.91 465.33 406.05 413.74 406 411.92 496.84 462.91"/></g></g><polygon id="_Path_170" data-name="&lt;Path&gt;" class="cls-26" points="582.81 410.66 582.84 407.21 586.15 409.41 582.81 410.66"/><polygon id="_Path_171" data-name="&lt;Path&gt;" class="cls-26" points="410.53 412.68 410.51 409.64 407.13 411.38 410.53 412.68"/><g id="_Group_246" data-name="&lt;Group&gt;" class="cls-9"><g id="_Group_247" data-name="&lt;Group&gt;"><polygon id="_Path_172" data-name="&lt;Path&gt;" class="cls-26" points="587.24 427.37 585.5 426.32 495.77 478.64 496.86 480.43 587.24 427.37"/></g><g id="_Group_248" data-name="&lt;Group&gt;"><polygon id="_Path_173" data-name="&lt;Path&gt;" class="cls-27" points="495.5 481.06 496.91 482.64 587.24 429.68 587.24 427.37 495.5 481.06"/></g></g><g id="_Group_249" data-name="&lt;Group&gt;" class="cls-9"><g id="_Group_250" data-name="&lt;Group&gt;"><polygon id="_Path_174" data-name="&lt;Path&gt;" class="cls-26" points="405.98 429.24 407.92 428.3 498.24 478.37 496.87 480.22 405.98 429.24"/></g><g id="_Group_251" data-name="&lt;Group&gt;"><polygon id="_Path_175" data-name="&lt;Path&gt;" class="cls-27" points="496.84 480.22 496.91 482.64 406.05 431.05 406 429.23 496.84 480.22"/></g></g><polygon id="_Path_176" data-name="&lt;Path&gt;" class="cls-26" points="582.81 427.97 582.84 424.52 586.15 426.72 582.81 427.97"/><polygon id="_Path_177" data-name="&lt;Path&gt;" class="cls-26" points="410.53 429.99 410.51 426.95 407.13 428.69 410.53 429.99"/><g id="_Group_252" data-name="&lt;Group&gt;" class="cls-9"><g id="_Group_253" data-name="&lt;Group&gt;"><polygon id="_Path_178" data-name="&lt;Path&gt;" class="cls-26" points="587.24 444.68 585.5 443.63 495.77 495.95 496.86 497.74 587.24 444.68"/></g><g id="_Group_254" data-name="&lt;Group&gt;"><polygon id="_Path_179" data-name="&lt;Path&gt;" class="cls-27" points="495.5 498.37 496.91 499.95 587.24 446.99 587.24 444.68 495.5 498.37"/></g></g><g id="_Group_255" data-name="&lt;Group&gt;" class="cls-9"><g id="_Group_256" data-name="&lt;Group&gt;"><polygon id="_Path_180" data-name="&lt;Path&gt;" class="cls-26" points="405.98 446.55 407.92 445.61 498.24 495.68 496.87 497.53 405.98 446.55"/></g><g id="_Group_257" data-name="&lt;Group&gt;"><polygon id="_Path_181" data-name="&lt;Path&gt;" class="cls-27" points="496.84 497.53 496.91 499.95 406.05 448.36 406 446.54 496.84 497.53"/></g></g><polygon id="_Path_182" data-name="&lt;Path&gt;" class="cls-26" points="582.81 445.28 582.84 441.83 586.15 444.03 582.81 445.28"/><polygon id="_Path_183" data-name="&lt;Path&gt;" class="cls-26" points="410.53 447.31 410.51 444.26 407.13 446 410.53 447.31"/><g id="_Group_258" data-name="&lt;Group&gt;" class="cls-9"><g id="_Group_259" data-name="&lt;Group&gt;"><polygon id="_Path_184" data-name="&lt;Path&gt;" class="cls-26" points="587.24 461.99 585.5 460.94 495.77 513.26 496.86 515.05 587.24 461.99"/></g><g id="_Group_260" data-name="&lt;Group&gt;"><polygon id="_Path_185" data-name="&lt;Path&gt;" class="cls-27" points="495.5 515.68 496.91 517.26 587.24 464.31 587.24 461.99 495.5 515.68"/></g></g><g id="_Group_261" data-name="&lt;Group&gt;" class="cls-9"><g id="_Group_262" data-name="&lt;Group&gt;"><polygon id="_Path_186" data-name="&lt;Path&gt;" class="cls-26" points="405.98 463.86 407.92 462.92 498.24 512.99 496.87 514.84 405.98 463.86"/></g><g id="_Group_263" data-name="&lt;Group&gt;"><polygon id="_Path_187" data-name="&lt;Path&gt;" class="cls-27" points="496.84 514.84 496.91 517.26 406.05 465.67 406 463.85 496.84 514.84"/></g></g><polygon id="_Path_188" data-name="&lt;Path&gt;" class="cls-26" points="582.81 462.59 582.84 459.14 586.15 461.34 582.81 462.59"/><polygon id="_Path_189" data-name="&lt;Path&gt;" class="cls-26" points="410.53 464.62 410.51 461.57 407.13 463.31 410.53 464.62"/><g id="_Group_264" data-name="&lt;Group&gt;" class="cls-9"><g id="_Group_265" data-name="&lt;Group&gt;"><polygon id="_Path_190" data-name="&lt;Path&gt;" class="cls-26" points="587.24 479.3 585.5 478.25 495.77 530.57 496.86 532.36 587.24 479.3"/></g><g id="_Group_266" data-name="&lt;Group&gt;"><polygon id="_Path_191" data-name="&lt;Path&gt;" class="cls-27" points="495.5 532.99 496.91 534.57 587.24 481.62 587.24 479.3 495.5 532.99"/></g></g><g id="_Group_267" data-name="&lt;Group&gt;" class="cls-9"><g id="_Group_268" data-name="&lt;Group&gt;"><polygon id="_Path_192" data-name="&lt;Path&gt;" class="cls-26" points="405.98 481.17 407.92 480.23 498.24 530.3 496.87 532.15 405.98 481.17"/></g><g id="_Group_269" data-name="&lt;Group&gt;"><polygon id="_Path_193" data-name="&lt;Path&gt;" class="cls-27" points="496.84 532.15 496.91 534.57 406.05 482.98 406 481.16 496.84 532.15"/></g></g><polygon id="_Path_194" data-name="&lt;Path&gt;" class="cls-26" points="582.81 479.9 582.84 476.45 586.15 478.65 582.81 479.9"/><polygon id="_Path_195" data-name="&lt;Path&gt;" class="cls-26" points="410.53 481.93 410.51 478.88 407.13 480.62 410.53 481.93"/><g id="_Group_270" data-name="&lt;Group&gt;" class="cls-9"><g id="_Group_271" data-name="&lt;Group&gt;"><polygon id="_Path_196" data-name="&lt;Path&gt;" class="cls-26" points="587.24 522.94 585.5 521.89 495.77 574.21 496.86 576 587.24 522.94"/></g><g id="_Group_272" data-name="&lt;Group&gt;"><polygon id="_Path_197" data-name="&lt;Path&gt;" class="cls-27" points="495.5 576.63 496.91 578.21 587.24 525.25 587.24 522.94 495.5 576.63"/></g></g><g id="_Group_273" data-name="&lt;Group&gt;" class="cls-9"><g id="_Group_274" data-name="&lt;Group&gt;"><polygon id="_Path_198" data-name="&lt;Path&gt;" class="cls-26" points="405.98 524.81 407.92 523.87 498.24 573.94 496.87 575.79 405.98 524.81"/></g><g id="_Group_275" data-name="&lt;Group&gt;"><polygon id="_Path_199" data-name="&lt;Path&gt;" class="cls-27" points="496.84 575.79 496.91 578.21 406.05 526.62 406 524.79 496.84 575.79"/></g></g><polygon id="_Path_200" data-name="&lt;Path&gt;" class="cls-26" points="582.81 523.54 582.84 520.09 586.15 522.29 582.81 523.54"/><polygon id="_Path_201" data-name="&lt;Path&gt;" class="cls-26" points="410.53 525.56 410.51 522.52 407.13 524.25 410.53 525.56"/><g id="_Group_276" data-name="&lt;Group&gt;" class="cls-9"><g id="_Group_277" data-name="&lt;Group&gt;"><polygon id="_Path_202" data-name="&lt;Path&gt;" class="cls-26" points="587.24 544.94 585.5 543.89 495.77 596.21 496.86 598 587.24 544.94"/></g><g id="_Group_278" data-name="&lt;Group&gt;"><polygon id="_Path_203" data-name="&lt;Path&gt;" class="cls-27" points="495.5 598.63 496.91 600.21 587.24 547.25 587.24 544.94 495.5 598.63"/></g></g><g id="_Group_279" data-name="&lt;Group&gt;" class="cls-9"><g id="_Group_280" data-name="&lt;Group&gt;"><polygon id="_Path_204" data-name="&lt;Path&gt;" class="cls-26" points="405.98 546.81 407.92 545.87 498.24 595.94 496.87 597.79 405.98 546.81"/></g><g id="_Group_281" data-name="&lt;Group&gt;"><polygon id="_Path_205" data-name="&lt;Path&gt;" class="cls-27" points="496.84 597.79 496.91 600.21 406.05 548.62 406 546.79 496.84 597.79"/></g></g><polygon id="_Path_206" data-name="&lt;Path&gt;" class="cls-26" points="582.81 545.54 582.84 542.09 586.15 544.29 582.81 545.54"/><polygon id="_Path_207" data-name="&lt;Path&gt;" class="cls-26" points="410.53 547.56 410.51 544.52 407.13 546.25 410.53 547.56"/><g id="_Group_282" data-name="&lt;Group&gt;" class="cls-9"><g id="_Group_283" data-name="&lt;Group&gt;"><polygon id="_Path_208" data-name="&lt;Path&gt;" class="cls-26" points="587.24 566.94 585.5 565.89 495.77 618.21 496.86 620 587.24 566.94"/></g><g id="_Group_284" data-name="&lt;Group&gt;"><polygon id="_Path_209" data-name="&lt;Path&gt;" class="cls-27" points="495.5 620.63 496.91 622.21 587.24 569.25 587.24 566.94 495.5 620.63"/></g></g><g id="_Group_285" data-name="&lt;Group&gt;" class="cls-9"><g id="_Group_286" data-name="&lt;Group&gt;"><polygon id="_Path_210" data-name="&lt;Path&gt;" class="cls-26" points="405.98 568.81 407.92 567.87 498.24 617.94 496.87 619.79 405.98 568.81"/></g><g id="_Group_287" data-name="&lt;Group&gt;"><polygon id="_Path_211" data-name="&lt;Path&gt;" class="cls-27" points="496.84 619.79 496.91 622.21 406.05 570.62 406 568.79 496.84 619.79"/></g></g><polygon id="_Path_212" data-name="&lt;Path&gt;" class="cls-26" points="582.81 567.54 582.84 564.09 586.15 566.29 582.81 567.54"/><polygon id="_Path_213" data-name="&lt;Path&gt;" class="cls-26" points="410.53 569.56 410.51 566.52 407.13 568.25 410.53 569.56"/><g id="_Group_288" data-name="&lt;Group&gt;" class="cls-9"><g id="_Group_289" data-name="&lt;Group&gt;"><polygon id="_Path_214" data-name="&lt;Path&gt;" class="cls-26" points="587.24 588.94 585.5 587.89 495.77 640.21 496.86 642 587.24 588.94"/></g><g id="_Group_290" data-name="&lt;Group&gt;"><polygon id="_Path_215" data-name="&lt;Path&gt;" class="cls-27" points="495.5 642.63 496.91 644.21 587.24 591.25 587.24 588.94 495.5 642.63"/></g></g><g id="_Group_291" data-name="&lt;Group&gt;" class="cls-9"><g id="_Group_292" data-name="&lt;Group&gt;"><polygon id="_Path_216" data-name="&lt;Path&gt;" class="cls-26" points="405.98 590.81 407.92 589.87 498.24 639.94 496.87 641.79 405.98 590.81"/></g><g id="_Group_293" data-name="&lt;Group&gt;"><polygon id="_Path_217" data-name="&lt;Path&gt;" class="cls-27" points="496.84 641.79 496.91 644.21 406.05 592.62 406 590.79 496.84 641.79"/></g></g><polygon id="_Path_218" data-name="&lt;Path&gt;" class="cls-26" points="582.81 589.54 582.84 586.09 586.15 588.29 582.81 589.54"/><polygon id="_Path_219" data-name="&lt;Path&gt;" class="cls-26" points="410.53 591.56 410.51 588.52 407.13 590.25 410.53 591.56"/><polygon class="cls-4" points="425.49 146.15 496.43 186.79 567.91 145.63 495.89 109.02 425.49 146.15"/><polygon class="cls-6" points="425.49 146.15 496.79 186.64 496.79 212.56 425.31 171.4 425.49 146.15"/><polygon class="cls-7" points="496.61 212.04 567.91 171.55 567.91 145.63 496.43 186.79 496.61 212.04"/><g id="_Group_294" data-name="&lt;Group&gt;" class="cls-9"><g id="_Group_295" data-name="&lt;Group&gt;"><polygon id="_Path_220" data-name="&lt;Path&gt;" class="cls-26" points="570.27 144.94 568.77 144.12 496.22 186.42 497.11 187.88 570.27 144.94"/></g><g id="_Group_296" data-name="&lt;Group&gt;"><polygon id="_Path_221" data-name="&lt;Path&gt;" class="cls-27" points="496 188.4 497.15 189.7 571.16 146.31 570.27 144.94 496 188.4"/></g></g><g id="_Group_297" data-name="&lt;Group&gt;" class="cls-9"><g id="_Group_298" data-name="&lt;Group&gt;"><polygon id="_Path_222" data-name="&lt;Path&gt;" class="cls-26" points="422.65 145.94 424.24 145.18 498.24 186.2 497.12 187.72 422.65 145.94"/></g><g id="_Group_299" data-name="&lt;Group&gt;"><polygon id="_Path_223" data-name="&lt;Path&gt;" class="cls-27" points="497.09 187.72 497.15 189.7 422.71 147.43 422.67 145.93 497.09 187.72"/></g></g><g id="_Group_300" data-name="&lt;Group&gt;"><polygon id="_Path_224" data-name="&lt;Path&gt;" class="cls-26" points="568.77 144.12 566.4 145.5 497.15 107.48 497.21 105.04 568.77 144.12"/></g><g id="_Group_301" data-name="&lt;Group&gt;"><polygon id="_Path_225" data-name="&lt;Path&gt;" class="cls-26" points="424.24 145.18 426.11 146.28 497.15 107.48 497.21 105.04 424.24 145.18"/></g><polygon class="cls-4" points="443.44 122.92 498 154.17 552.98 122.52 497.58 94.36 443.44 122.92"/><polygon class="cls-6" points="443.44 122.92 498.28 154.06 498.28 174 443.3 142.34 443.44 122.92"/><polygon class="cls-7" points="498.14 173.59 552.98 142.46 552.98 122.52 498 154.17 498.14 173.59"/><g id="_Group_302" data-name="&lt;Group&gt;" class="cls-9"><g id="_Group_303" data-name="&lt;Group&gt;"><polygon id="_Path_226" data-name="&lt;Path&gt;" class="cls-26" points="553.1 121.56 551.98 120.91 497.73 154.29 498.39 155.44 553.1 121.56"/></g><g id="_Group_304" data-name="&lt;Group&gt;"><polygon id="_Path_227" data-name="&lt;Path&gt;" class="cls-27" points="497.56 155.85 498.42 156.88 553.76 122.64 553.1 121.56 497.56 155.85"/></g></g><g id="_Group_305" data-name="&lt;Group&gt;" class="cls-9"><g id="_Group_306" data-name="&lt;Group&gt;"><polygon id="_Path_228" data-name="&lt;Path&gt;" class="cls-26" points="442.71 122.36 443.9 121.75 499.24 154.11 498.4 155.31 442.71 122.36"/></g><g id="_Group_307" data-name="&lt;Group&gt;"><polygon id="_Path_229" data-name="&lt;Path&gt;" class="cls-27" points="498.38 155.31 498.42 156.88 442.76 123.53 442.72 122.35 498.38 155.31"/></g></g><g id="_Group_308" data-name="&lt;Group&gt;"><polygon id="_Path_230" data-name="&lt;Path&gt;" class="cls-26" points="551.98 120.91 550.2 122.01 498.42 92 498.47 90.03 551.98 120.91"/></g><g id="_Group_309" data-name="&lt;Group&gt;"><polygon id="_Path_231" data-name="&lt;Path&gt;" class="cls-26" points="443.9 121.75 445.3 122.62 498.42 92 498.47 90.03 443.9 121.75"/></g><polygon class="cls-4" points="458.09 101.78 498.06 124.67 538.33 101.48 497.75 80.86 458.09 101.78"/><polygon class="cls-6" points="457.93 101.78 498.1 124.58 498.1 139.19 457.83 116 457.93 101.78"/><polygon class="cls-7" points="498 138.89 538.17 116.08 538.17 101.48 497.9 124.67 498 138.89"/><g id="_Group_310" data-name="&lt;Group&gt;" class="cls-9"><g id="_Group_311" data-name="&lt;Group&gt;"><polygon id="_Path_232" data-name="&lt;Path&gt;" class="cls-26" points="537.98 100.11 537.17 99.64 497.8 123.86 498.28 124.69 537.98 100.11"/></g><g id="_Group_312" data-name="&lt;Group&gt;"><polygon id="_Path_233" data-name="&lt;Path&gt;" class="cls-27" points="497.68 124.99 498.3 125.73 538.17 101.48 537.98 100.11 497.68 124.99"/></g></g><g id="_Group_313" data-name="&lt;Group&gt;" class="cls-9"><g id="_Group_314" data-name="&lt;Group&gt;"><polygon id="_Path_234" data-name="&lt;Path&gt;" class="cls-26" points="457.88 100.68 458.74 100.24 498.9 123.73 498.29 124.6 457.88 100.68"/></g><g id="_Group_315" data-name="&lt;Group&gt;"><polygon id="_Path_235" data-name="&lt;Path&gt;" class="cls-27" points="498.27 124.6 498.3 125.73 457.91 101.53 457.89 100.68 498.27 124.6"/></g></g><g id="_Group_316" data-name="&lt;Group&gt;"><polygon id="_Path_236" data-name="&lt;Path&gt;" class="cls-26" points="537.17 99.64 535.88 100.43 497.41 81.23 497.41 79.84 537.17 99.64"/></g><g id="_Group_317" data-name="&lt;Group&gt;"><polygon id="_Path_237" data-name="&lt;Path&gt;" class="cls-26" points="458.74 100.24 459.76 100.88 497.41 81.23 497.41 79.84 458.74 100.24"/></g><polygon class="cls-29" points="487.64 649.02 487.64 651.57 487.64 652.38 487.64 676.36 544.29 709.06 544.29 685.07 544.29 684.27 544.29 681.72 487.64 649.02"/><polygon class="cls-30" points="544.29 681.72 544.29 684.27 544.29 685.07 544.29 709.06 600.93 676.34 600.93 652.36 600.93 651.55 600.93 649 544.29 681.72"/><polygon class="cls-31" points="544.29 616.32 487.64 649.02 544.27 681.74 600.93 649 544.29 616.32"/><polygon class="cls-32" points="590.54 517.18 590.54 517.18 590.54 649.06 590.54 649.06 590.54 517.18"/><polygon class="cls-31" points="544.3 487.31 497.36 514.61 544.29 541.57 591.22 514.41 544.3 487.31"/><polyline class="cls-29" points="497.36 648.41 497.36 514.61 544.29 541.57 544.29 675.37"/><polyline class="cls-30" points="544.28 675.38 544.28 541.57 591.21 514.42 591.21 648.22"/><polygon class="cls-30" points="544.29 538.34 505 515.66 505 487.34 544.29 510.02 544.29 538.34"/><polygon class="cls-29" points="545.73 538.34 506.44 515.66 506.44 487.34 545.73 510.02 545.73 538.34"/><polygon class="cls-29" points="583.58 515.65 544.29 538.34 544.29 510.02 583.58 487.34 583.58 515.65"/><polygon class="cls-30" points="583.58 515.65 544.29 538.34 544.29 510.02 583.58 487.34 583.58 515.65"/><polygon class="cls-31" points="544.29 460.52 505 487.34 544.29 510.02 583.58 487.34 544.29 460.52"/><polygon class="cls-30" points="544.29 508.21 513.64 490.52 513.64 468.79 544.29 486.48 544.29 508.21"/><polygon class="cls-29" points="544.29 508.21 513.64 490.52 513.64 468.79 544.29 486.48 544.29 508.21"/><polygon class="cls-29" points="574.93 490.52 544.29 508.21 544.29 486.48 574.93 468.78 574.93 490.52"/><polygon class="cls-30" points="574.93 490.52 544.29 508.21 544.29 486.48 574.93 468.78 574.93 490.52"/><polyline class="cls-33" points="544.29 451.09 513.64 468.79 544.29 486.48 574.93 468.78 544.29 451.09"/><polyline class="cls-32" points="590.88 647.46 590.88 515.57 590.88 515.57 590.88 647.46"/><polyline class="cls-34" points="504.3 651.45 504.3 519.56 510.91 523.35 510.91 655.24"/><polyline class="cls-35" points="537.34 670.42 537.34 538.54 530.74 534.74 530.74 666.63"/><polyline class="cls-35" points="524.13 662.83 524.13 530.95 517.52 527.15 517.52 659.04"/><polygon class="cls-36" points="504.3 519.96 504.32 651.33 510.91 655.67 510.91 523.66 504.3 519.96"/><polygon class="cls-36" points="517.52 527.15 517.54 658.52 524.13 662.86 524.13 530.85 517.52 527.15"/><polygon class="cls-36" points="530.74 534.69 530.75 666.06 537.34 670.4 537.34 538.39 530.74 534.69"/><polygon class="cls-36" points="584.32 519.75 584.3 651.12 577.72 655.46 577.72 523.44 584.32 519.75"/><polygon class="cls-36" points="571.11 526.94 571.09 658.31 564.5 662.65 564.5 530.63 571.11 526.94"/><polygon class="cls-36" points="557.89 534.97 557.87 666.34 551.28 670.68 551.28 538.67 557.89 534.97"/><polygon class="cls-29" points="376.89 643.94 376.89 647.11 376.89 648.11 376.89 703.37 447.25 743.98 447.25 688.72 447.25 687.72 447.25 684.56 376.89 643.94"/><polygon class="cls-30" points="447.25 684.56 447.25 687.72 447.25 688.72 447.25 743.98 517.61 703.34 517.61 673.55 517.61 672.55 517.61 643.92 447.25 684.56"/><polygon class="cls-31" points="447.26 603.32 376.89 643.94 447.23 684.58 517.61 643.92 447.26 603.32"/><polygon class="cls-31" points="447.25 447.01 389.78 480.44 447.24 513.44 504.69 480.19 447.25 447.01"/><polygon class="cls-29" points="447.24 677.27 389.78 644.26 389.78 480.44 447.24 513.44 447.24 677.27"/><polygon class="cls-37" points="389.79 521.53 389.97 529.79 447.92 558.45 447.92 549.96 389.79 521.53"/><polygon class="cls-30" points="504.69 644.02 447.23 677.27 447.23 513.45 504.69 480.2 504.69 644.02"/><polygon class="cls-30" points="447.24 509.49 399.13 481.72 399.13 447.05 447.24 474.82 447.24 509.49"/><polygon class="cls-29" points="447.24 509.49 399.13 481.72 399.13 447.05 447.24 474.82 447.24 509.49"/><polygon class="cls-29" points="495.34 481.71 447.24 509.49 447.24 474.82 495.34 447.04 495.34 481.71"/><polygon class="cls-30" points="495.34 481.71 447.24 509.49 447.24 474.82 495.34 447.04 495.34 481.71"/><polygon class="cls-31" points="447.24 414.21 399.13 447.05 447.24 474.82 495.34 447.04 447.24 414.21"/><polygon class="cls-30" points="447.24 472.61 409.71 450.94 409.71 424.33 447.24 445.99 447.24 472.61"/><polygon class="cls-29" points="447.24 472.61 409.71 450.94 409.71 424.33 447.24 445.99 447.24 472.61"/><polygon class="cls-29" points="484.76 450.94 447.24 472.61 447.24 445.99 484.76 424.32 484.76 450.94"/><polygon class="cls-30" points="484.76 450.94 447.24 472.61 447.24 445.99 484.76 424.32 484.76 450.94"/><polygon class="cls-33" points="447.24 402.66 409.71 424.33 447.24 445.99 484.76 424.32 447.24 402.66"/><polygon class="cls-37" points="504.67 521.89 447.25 549.6 447.25 558.08 504.67 530.38 504.67 521.89"/><polygon class="cls-37" points="389.77 492.87 389.77 501.35 447.27 529.79 447.27 521.3 389.77 492.87"/><polygon class="cls-37" points="504.69 493.56 447.26 521.26 447.26 529.75 504.69 502.05 504.69 493.56"/><polygon class="cls-37" points="389.84 577.85 389.84 586.33 447.34 614.77 447.34 606.28 389.84 577.85"/><polygon class="cls-37" points="504.75 578.54 447.32 606.25 447.32 614.73 504.75 587.02 504.75 578.54"/><polygon class="cls-37" points="389.79 549.14 389.79 557.63 447.29 586.07 447.29 577.58 389.79 549.14"/><polygon class="cls-37" points="504.71 549.84 447.28 577.54 447.28 586.03 504.71 558.32 504.71 549.84"/><polygon class="cls-37" points="389.77 632.84 389.77 641.33 447.27 669.77 447.27 661.28 389.77 632.84"/><polygon class="cls-37" points="504.69 633.54 447.26 661.24 447.26 669.73 504.69 642.02 504.69 633.54"/><polygon class="cls-37" points="390.42 605.5 390.42 613.99 447.92 642.43 447.92 633.94 390.42 605.5"/><polygon class="cls-37" points="505.34 606.2 447.91 633.9 447.91 642.39 505.34 614.68 505.34 606.2"/><polygon class="cls-8" points="233.07 557.54 473.91 696.58 474.56 785.72 233.07 650.16 233.07 557.54"/><polygon class="cls-8" points="631.87 604.78 738.39 543.39 738.61 635.15 631.87 697.45 631.87 604.78"/><polygon class="cls-38" points="620.79 702.78 626.79 705.78 634.25 699.68 628.38 696.58 620.79 702.78"/><polygon class="cls-38" points="620.8 702.78 618.96 607.86 627.37 603.53 629.2 695.91 620.8 702.78"/><polygon class="cls-30" points="626.8 705.78 624.96 610.86 633.37 606.53 635.2 698.91 626.8 705.78"/><polygon class="cls-39" points="618.96 607.86 624.96 610.86 633.37 606.53 627.37 603.53 618.96 607.86"/><polygon class="cls-40" points="589.5 635.05 621.38 616.72 621.38 621.72 589.71 639.76 589.5 635.05"/><polygon class="cls-40" points="589.5 645.05 621.38 626.72 621.38 631.72 589.71 649.76 589.5 645.05"/><polygon class="cls-40" points="589.5 655.05 621.38 636.72 621.38 641.72 589.71 659.76 589.5 655.05"/><polygon class="cls-40" points="589.83 664.89 621.71 646.57 621.71 651.56 590.04 669.6 589.83 664.89"/><polygon class="cls-40" points="590.12 674.55 622 656.22 622 661.22 590.33 679.26 590.12 674.55"/><polygon class="cls-40" points="590.5 685.05 622.38 666.72 622.38 671.72 590.71 689.76 590.5 685.05"/><polygon class="cls-40" points="590.5 695.05 622.38 676.72 622.38 681.72 590.71 699.76 590.5 695.05"/><polygon class="cls-40" points="590.96 704.59 622.84 686.26 622.84 691.26 591.16 709.3 590.96 704.59"/><polygon class="cls-40" points="590.96 714.84 622.84 696.51 622.84 701.51 591.16 719.55 590.96 714.84"/><polygon class="cls-38" points="576.91 726.08 582.91 729.08 590.38 722.98 584.5 719.88 576.91 726.08"/><polygon class="cls-38" points="576.93 726.08 575.09 631.16 583.5 626.84 585.32 719.21 576.93 726.08"/><polygon class="cls-30" points="582.93 729.08 581.09 634.16 589.5 629.84 591.32 722.21 582.93 729.08"/><polygon class="cls-39" points="575.09 631.16 581.09 634.16 589.5 629.84 583.5 626.84 575.09 631.16"/><polygon class="cls-8" points="473.91 696.58 578.83 636.64 580.83 724.83 474.56 785.72 473.91 696.58"/></svg>