<svg xmlns="http://www.w3.org/2000/svg" xmlns:xlink="http://www.w3.org/1999/xlink" viewBox="0 0 1000 1000"><defs><style>.cls-1{fill:none;}.cls-2{isolation:isolate;}.cls-3{fill:#2e797f;}.cls-4{fill:#3c4379;}.cls-5{fill:#262c4f;}.cls-6{fill:#d8d4d4;opacity:0;}.cls-7{fill:#bcc3de;}.cls-8{fill:#2b2b2d;}.cls-9{fill:#97afdb;}.cls-10{fill:#222744;}.cls-11{fill:#374270;}.cls-12{fill:#5c5c5c;}.cls-13{fill:#939393;}.cls-14{fill:#374258;}.cls-15{fill:#46607f;}.cls-16,.cls-19{fill:#231e1f;}.cls-17{fill:url(#linear-gradient);}.cls-18{fill:url(#linear-gradient-2);}.cls-19{opacity:0.5;mix-blend-mode:multiply;}.cls-20{fill:#cdcdcd;}.cls-21{clip-path:url(#clip-path);}.cls-22{fill:#828282;}.cls-23{fill:#898989;}.cls-24{fill:#8f8f8f;}.cls-25{fill:#969696;}.cls-26{fill:#9c9c9c;}.cls-27{fill:#a3a3a3;}.cls-28{fill:#7b7b7b;}.cls-29{fill:#757575;}.cls-30{fill:#6e6e6e;}.cls-31{fill:#686868;}.cls-32{fill:#616161;}.cls-33{fill:#ed1c24;}.cls-34{fill:#b61f24;}.cls-35{clip-path:url(#clip-path-2);}.cls-36{fill:#6c0d0f;}.cls-37{fill:#741012;}.cls-38{fill:#7a1214;}.cls-39{fill:#7f1416;}.cls-40{fill:#851619;}.cls-41{fill:#8c181b;}.cls-42{fill:#660e0d;}.cls-43{fill:#5f0c0c;}.cls-44{fill:#580e0e;}.cls-45{fill:#4f1211;}.cls-46{fill:#471212;}.cls-47{clip-path:url(#clip-path-3);}.cls-48{fill:#1ebaed;}.cls-49{fill:#0394be;}.cls-50{clip-path:url(#clip-path-4);}.cls-51{fill:#025a75;}.cls-52{fill:#085f7c;}.cls-53{fill:#066481;}.cls-54{fill:#086988;}.cls-55{fill:#056f8e;}.cls-56{fill:#007495;}.cls-57{fill:#02546f;}.cls-58{fill:#044f68;}.cls-59{fill:#034960;}.cls-60{fill:#02435a;}.cls-61{fill:#013b51;}.cls-62{clip-path:url(#clip-path-5);}.cls-63{fill:#fcee21;}.cls-64{fill:#dccc24;}.cls-65{clip-path:url(#clip-path-6);}.cls-66{fill:#868132;}.cls-67{fill:#8e8633;}.cls-68{fill:#948d34;}.cls-69{fill:#9b9334;}.cls-70{fill:#a29a35;}.cls-71{fill:#a9a035;}.cls-72{fill:#7f7a31;}.cls-73{fill:#7a752f;}.cls-74{fill:#746f2d;}.cls-75{fill:#6c682b;}.cls-76{fill:#656129;}.cls-77{clip-path:url(#clip-path-7);}.cls-78{clip-path:url(#clip-path-8);}.cls-79{clip-path:url(#clip-path-9);}.cls-80{clip-path:url(#clip-path-10);}.cls-81{clip-path:url(#clip-path-11);}.cls-82{clip-path:url(#clip-path-12);}.cls-83{clip-path:url(#clip-path-13);}.cls-84{fill:#b51f24;}.cls-85{clip-path:url(#clip-path-14);}.cls-86{fill:#945f25;}.cls-87{fill:#231f20;}</style><linearGradient id="linear-gradient" x1="657.56" y1="502.34" x2="717.19" y2="502.34" gradientUnits="userSpaceOnUse"><stop offset="0" stop-color="#11181a"/><stop offset="0.53" stop-color="#242c2e"/><stop offset="1" stop-color="#30383b"/></linearGradient><linearGradient id="linear-gradient-2" x1="3031.78" y1="496.27" x2="2988.27" y2="478.84" gradientTransform="translate(-2304.33)" xlink:href="#linear-gradient"/><clipPath id="clip-path"><path id="_Clipping_Path_" data-name="&lt;Clipping Path&gt;" class="cls-1" d="M675.92,486.73l.09.3a1.52,1.52,0,0,1-.57,1.5,2.83,2.83,0,0,1-3.08.45,1.37,1.37,0,0,1-.63-.77l-.08-.3a1.37,1.37,0,0,0,.63.77,2.83,2.83,0,0,0,3.08-.45A1.49,1.49,0,0,0,675.92,486.73Z"/></clipPath><clipPath id="clip-path-2"><path id="_Clipping_Path_2" data-name="&lt;Clipping Path&gt;" class="cls-1" d="M675.33,486.39l.07.24a1.26,1.26,0,0,1-.43,1.26,2.31,2.31,0,0,1-2.54.42,1.11,1.11,0,0,1-.55-.65l-.07-.24a1.11,1.11,0,0,0,.55.65,2.33,2.33,0,0,0,2.54-.43A1.24,1.24,0,0,0,675.33,486.39Z"/></clipPath><clipPath id="clip-path-3"><path id="_Clipping_Path_3" data-name="&lt;Clipping Path&gt;" class="cls-1" d="M680.08,489.21l.08.3a1.51,1.51,0,0,1-.57,1.49,2.82,2.82,0,0,1-3.07.45,1.26,1.26,0,0,1-.63-.77l-.09-.3a1.34,1.34,0,0,0,.63.77,2.83,2.83,0,0,0,3.08-.45A1.51,1.51,0,0,0,680.08,489.21Z"/></clipPath><clipPath id="clip-path-4"><path id="_Clipping_Path_4" data-name="&lt;Clipping Path&gt;" class="cls-1" d="M679.48,488.86l.07.25a1.25,1.25,0,0,1-.43,1.25,2.3,2.3,0,0,1-2.54.42,1.13,1.13,0,0,1-.55-.64l-.07-.25a1.11,1.11,0,0,0,.55.65,2.29,2.29,0,0,0,2.54-.43A1.24,1.24,0,0,0,679.48,488.86Z"/></clipPath><clipPath id="clip-path-5"><path id="_Clipping_Path_5" data-name="&lt;Clipping Path&gt;" class="cls-1" d="M684.57,491.79l.09.3a1.51,1.51,0,0,1-.57,1.49A2.83,2.83,0,0,1,681,494a1.34,1.34,0,0,1-.63-.77l-.08-.3a1.26,1.26,0,0,0,.63.77,2.83,2.83,0,0,0,3.08-.45A1.5,1.5,0,0,0,684.57,491.79Z"/></clipPath><clipPath id="clip-path-6"><path id="_Clipping_Path_6" data-name="&lt;Clipping Path&gt;" class="cls-1" d="M684,491.44l.07.25a1.25,1.25,0,0,1-.43,1.25,2.31,2.31,0,0,1-2.54.42,1.13,1.13,0,0,1-.55-.64l-.07-.25a1.11,1.11,0,0,0,.55.65,2.29,2.29,0,0,0,2.54-.43A1.24,1.24,0,0,0,684,491.44Z"/></clipPath><clipPath id="clip-path-7"><path id="_Clipping_Path_7" data-name="&lt;Clipping Path&gt;" class="cls-1" d="M671.85,491l.08.3a1.5,1.5,0,0,1-.56,1.49,2.83,2.83,0,0,1-3.08.45,1.24,1.24,0,0,1-.63-.77l-.08-.3a1.24,1.24,0,0,0,.63.77,2.82,2.82,0,0,0,3.07-.45A1.5,1.5,0,0,0,671.85,491Z"/></clipPath><clipPath id="clip-path-8"><path id="_Clipping_Path_8" data-name="&lt;Clipping Path&gt;" class="cls-1" d="M671.26,490.65l.07.25a1.29,1.29,0,0,1-.43,1.25,2.32,2.32,0,0,1-2.55.42,1.07,1.07,0,0,1-.54-.64l-.08-.25a1.11,1.11,0,0,0,.55.65,2.3,2.3,0,0,0,2.54-.42A1.29,1.29,0,0,0,671.26,490.65Z"/></clipPath><clipPath id="clip-path-9"><path id="_Clipping_Path_9" data-name="&lt;Clipping Path&gt;" class="cls-1" d="M676,493.47l.08.3a1.49,1.49,0,0,1-.56,1.49,2.83,2.83,0,0,1-3.08.45,1.24,1.24,0,0,1-.63-.77l-.08-.3a1.24,1.24,0,0,0,.63.77,2.83,2.83,0,0,0,3.08-.45A1.51,1.51,0,0,0,676,493.47Z"/></clipPath><clipPath id="clip-path-10"><path id="_Clipping_Path_10" data-name="&lt;Clipping Path&gt;" class="cls-1" d="M675.41,493.13l.07.24a1.28,1.28,0,0,1-.43,1.25,2.33,2.33,0,0,1-2.54.43,1.08,1.08,0,0,1-.55-.65l-.07-.24a1.07,1.07,0,0,0,.54.64,2.32,2.32,0,0,0,2.55-.42A1.29,1.29,0,0,0,675.41,493.13Z"/></clipPath><clipPath id="clip-path-11"><path id="_Clipping_Path_11" data-name="&lt;Clipping Path&gt;" class="cls-1" d="M680.5,496.05l.08.3a1.51,1.51,0,0,1-.56,1.49,2.83,2.83,0,0,1-3.08.45,1.24,1.24,0,0,1-.63-.77l-.09-.3a1.31,1.31,0,0,0,.63.77,2.83,2.83,0,0,0,3.08-.45A1.5,1.5,0,0,0,680.5,496.05Z"/></clipPath><clipPath id="clip-path-12"><path id="_Clipping_Path_12" data-name="&lt;Clipping Path&gt;" class="cls-1" d="M679.9,495.71l.08.24a1.27,1.27,0,0,1-.44,1.25,2.33,2.33,0,0,1-2.54.43,1.11,1.11,0,0,1-.55-.65l-.07-.24a1.13,1.13,0,0,0,.55.64,2.3,2.3,0,0,0,2.54-.42A1.25,1.25,0,0,0,679.9,495.71Z"/></clipPath><clipPath id="clip-path-13"><path id="_Clipping_Path_13" data-name="&lt;Clipping Path&gt;" class="cls-1" d="M693.17,500.53l.08.27a1.4,1.4,0,0,1-.52,1.38,2.61,2.61,0,0,1-2.83.41,1.18,1.18,0,0,1-.57-.71l-.08-.27a1.21,1.21,0,0,0,.58.7,2.6,2.6,0,0,0,2.83-.41A1.39,1.39,0,0,0,693.17,500.53Z"/></clipPath><clipPath id="clip-path-14"><path id="_Clipping_Path_14" data-name="&lt;Clipping Path&gt;" class="cls-1" d="M719.29,521.53l0,0,2.36,1.37,0,0Z"/></clipPath></defs><title>25.9</title><g class="cls-2"><g id="Layer_1" data-name="Layer 1"><polygon class="cls-3" points="512.44 396.3 513.43 395.93 893.5 614.21 517.29 831.66 139.83 614 512.44 396.3"/><polygon class="cls-4" points="514.65 929.73 140.18 714.4 140.18 614.08 517.29 831.66 514.65 929.73"/><polygon class="cls-5" points="892.92 613.98 516.71 831.42 514 929.73 892.92 711.14 892.92 613.98"/><polygon class="cls-6" points="513.43 395.93 513.43 81.66 140.18 299.81 140.18 614.08 513.43 395.93"/><polygon class="cls-6" points="513.43 395.49 513.43 81.66 886.45 291.22 893.5 614.21 513.43 395.49"/><polygon class="cls-4" points="517.44 414.59 514.91 98.84 870.97 306.95 874.01 624.74 517.44 414.59"/><polyline class="cls-7" points="161.69 305.6 516.42 100.59 869.95 307.22 874.01 625.48 893.89 614.21 886.95 296.74 513.81 81.66 140.57 299.81 140.57 614.08 162.07 626.73"/><polygon class="cls-5" points="518.57 416.34 516.04 100.59 161.69 305.6 161.69 626.73 518.57 416.34"/><path class="cls-8" d="M575.87,427.09V438a9.44,9.44,0,0,1-3.2,7.1,10.44,10.44,0,0,0-3.53,7.81h0v.57a6.4,6.4,0,0,0,2.89,3,16.72,16.72,0,0,0,15.18,0,6.3,6.3,0,0,0,2.84-3v-.61h0a10.44,10.44,0,0,0-3.53-7.81,9.44,9.44,0,0,1-3.2-7.1V427.09"/><path class="cls-9" d="M587.21,456.52a16.72,16.72,0,0,1-15.18,0,6.4,6.4,0,0,1-2.89-3v15a6.4,6.4,0,0,0,2.89,3,16.72,16.72,0,0,0,15.18,0,6.3,6.3,0,0,0,2.84-3v-15A6.3,6.3,0,0,1,587.21,456.52Z"/><path class="cls-8" d="M587.21,471.48a16.72,16.72,0,0,1-15.18,0,6.4,6.4,0,0,1-2.89-3v9.24h0c0,1.55,1,3.1,3.08,4.29A16.33,16.33,0,0,0,587,482c2-1.19,3-2.74,3-4.29v-9.2A6.3,6.3,0,0,1,587.21,471.48Z"/><polygon class="cls-10" points="506.76 419.44 459.46 391.95 459.63 446.69 506.76 419.44"/><polygon class="cls-11" points="540.6 439.08 574.61 419.44 540.83 399.8 493.47 372.32 459.46 391.95 506.76 419.44 459.63 446.69 277.89 551.59 230.6 524.11 196.53 543.75 243.88 571.23 277.67 590.87 311.73 571.23 540.6 439.08"/><polygon class="cls-4" points="196.53 543.75 196.76 609.14 244.05 636.62 277.89 656.26 277.67 590.87 243.88 571.23 196.53 543.75"/><polygon class="cls-5" points="275.1 590.87 275.33 656.26 309.34 636.62 538.2 504.53 573.88 482.63 574.61 419.44 538.03 439.08 309.17 571.23 275.1 590.87"/><path class="cls-12" d="M380.53,648.11h-.27a7.52,7.52,0,0,0-3.56-3.82c-5.1-2.95-13.37-2.95-18.47,0a7.44,7.44,0,0,0-3.6,3.92h-.23v1.41c0,1.93,1.28,3.86,3.83,5.33,5.1,2.94,13.37,2.94,18.47,0,2.55-1.47,3.83-3.4,3.83-5.33h0Z"/><path class="cls-13" d="M376.7,653.32c-5.1,2.95-13.37,2.95-18.47,0s-5.1-7.72,0-10.66,13.37-2.94,18.47,0S381.8,650.38,376.7,653.32Z"/><path class="cls-12" d="M370,604.91H364.9V647.5a1.25,1.25,0,0,0,.75,1,4,4,0,0,0,3.63,0,1.27,1.27,0,0,0,.75-1h0Z"/><path class="cls-14" d="M381.57,599.61h0l-1.12-3.72h0c.77,2.39-.43,5-3.64,6.8-5.16,3-13.53,3-18.69,0-3.14-1.82-4.36-4.32-3.67-6.67h0l-1.12,3.72v0c-.7,2.53.63,5.21,4,7.16,5.6,3.23,14.67,3.23,20.26,0C381,604.92,382.35,602.18,381.57,599.61Z"/><path class="cls-15" d="M376.81,602.68c-5.16,3-13.53,3-18.69,0s-5.16-7.81,0-10.79,13.53-3,18.69,0S382,599.7,376.81,602.68Z"/><path class="cls-12" d="M448,608.77h-.27a7.49,7.49,0,0,0-3.56-3.83c-5.1-2.94-13.37-2.94-18.47,0a7.43,7.43,0,0,0-3.59,3.93h-.24v1.4c0,1.93,1.28,3.86,3.83,5.34,5.1,2.94,13.37,2.94,18.47,0,2.55-1.48,3.83-3.41,3.83-5.34h0Z"/><path class="cls-13" d="M444.13,614c-5.1,3-13.37,3-18.47,0s-5.1-7.72,0-10.66,13.37-3,18.47,0S449.23,611,444.13,614Z"/><path class="cls-12" d="M437.46,565.58h-5.13v42.59a1.26,1.26,0,0,0,.76,1,4,4,0,0,0,3.62,0,1.26,1.26,0,0,0,.75-1h0Z"/><path class="cls-14" d="M449,560.28h0l-1.12-3.73h0c.77,2.4-.43,5-3.64,6.81-5.16,3-13.53,3-18.69,0-3.14-1.82-4.36-4.32-3.67-6.68h0l-1.12,3.73h0c-.7,2.53.63,5.21,4,7.16,5.6,3.24,14.67,3.24,20.26,0C448.47,565.59,449.78,562.85,449,560.28Z"/><path class="cls-15" d="M444.24,563.35c-5.16,3-13.53,3-18.69,0s-5.16-7.81,0-10.79,13.53-3,18.69,0S449.4,560.37,444.24,563.35Z"/><path class="cls-12" d="M519.16,575h-.27a7.51,7.51,0,0,0-3.55-3.83c-5.11-2.94-13.37-2.94-18.48,0a7.47,7.47,0,0,0-3.59,3.93H493v1.4c0,1.93,1.28,3.86,3.82,5.34,5.11,2.94,13.37,2.94,18.48,0,2.54-1.48,3.82-3.41,3.82-5.34h0Z"/><path class="cls-13" d="M515.34,580.24c-5.11,2.94-13.37,2.94-18.48,0s-5.09-7.72,0-10.66,13.37-3,18.48,0S520.43,577.29,515.34,580.24Z"/><path class="cls-12" d="M508.66,531.83h-5.12v42.59a1.26,1.26,0,0,0,.75,1,4,4,0,0,0,3.62,0,1.26,1.26,0,0,0,.75-1h0Z"/><path class="cls-14" d="M520.2,526.53h0l-1.13-3.73h0c.77,2.4-.43,5-3.64,6.81-5.16,3-13.52,3-18.68,0-3.15-1.82-4.37-4.32-3.67-6.68h0L492,526.65h0c-.7,2.53.62,5.21,4,7.16,5.6,3.24,14.66,3.24,20.26,0C519.67,531.84,521,529.1,520.2,526.53Z"/><path class="cls-15" d="M515.44,529.6c-5.16,3-13.52,3-18.68,0s-5.16-7.81,0-10.79,13.52-3,18.68,0S520.6,526.62,515.44,529.6Z"/><path class="cls-12" d="M582.2,539.93h-.27a7.51,7.51,0,0,0-3.56-3.82c-5.1-2.94-13.37-2.94-18.47,0a7.43,7.43,0,0,0-3.59,3.93h-.24v1.4c0,1.93,1.28,3.86,3.83,5.34,5.1,2.94,13.37,2.94,18.47,0,2.55-1.48,3.83-3.41,3.83-5.34h0Z"/><path class="cls-13" d="M578.37,545.15c-5.1,2.94-13.37,2.94-18.47,0s-5.1-7.72,0-10.66,13.37-3,18.47,0S583.47,542.2,578.37,545.15Z"/><path class="cls-12" d="M571.7,496.74h-5.13v42.58a1.27,1.27,0,0,0,.76,1,4,4,0,0,0,3.62,0,1.28,1.28,0,0,0,.75-1h0Z"/><path class="cls-14" d="M583.24,491.44h0l-1.12-3.73h0c.77,2.39-.43,5-3.64,6.8-5.16,3-13.53,3-18.69,0-3.14-1.81-4.36-4.32-3.67-6.67h0L555,491.56h0c-.7,2.53.63,5.21,4,7.16,5.6,3.23,14.67,3.23,20.27,0C582.71,496.75,584,494,583.24,491.44Z"/><path class="cls-15" d="M578.48,494.5c-5.16,3-13.53,3-18.69,0s-5.16-7.81,0-10.78,13.53-3,18.69,0S583.64,491.53,578.48,494.5Z"/><g id="_Group_" data-name="&lt;Group&gt;"><path id="_Path_" data-name="&lt;Path&gt;" class="cls-4" d="M725.18,549.67h0a3.67,3.67,0,0,0,0-.46v-.1a3.17,3.17,0,0,0,0-.44L723.25,521l-46-23.18,1.63,24a3.17,3.17,0,0,1,0,.44v.1a3.67,3.67,0,0,1,0,.46s0,0,0,.08l-.06.31,0,.16c0,.06,0,.12,0,.19a1.54,1.54,0,0,1-.05.17c0,.05,0,.1,0,.15s-.05.14-.07.2a.56.56,0,0,0,0,.12l-.11.27s0,0,0,0l-.15.31a.36.36,0,0,1,0,.09l-.12.22a.47.47,0,0,1,0,.1,2.39,2.39,0,0,1-.13.21l-.06.1a2.22,2.22,0,0,1-.15.23l0,.06-.22.3-.25.3,0,0c-.09.11-.19.21-.28.31l-.21.2-17.21,15.71-.11.1-.15.17,0,0h0c-.06.06-.11.13-.16.19a.86.86,0,0,1-.07.1l0,0,0,0a1,1,0,0,0-.11.17l-.08.13v0h0l-.1.17a1.19,1.19,0,0,1-.08.16V544l-.06.11-.07.18a.64.64,0,0,0,0,.07l0,0,0,.08-.06.2s0,0,0,.07l0,.06a.29.29,0,0,0,0,.09c0,.09,0,.18-.05.26v0h0a2.53,2.53,0,0,0,0,.38v1.18a1.37,1.37,0,0,0,.57,1.26l46.34,26.93a1.38,1.38,0,0,1-.57-1.26V572.5a2.53,2.53,0,0,1,0-.38v0c0-.12,0-.23.07-.35v-.06a3.58,3.58,0,0,1,.11-.35l0,0a2.39,2.39,0,0,1,.15-.37v0a2.64,2.64,0,0,1,.2-.37v0a4,4,0,0,1,.22-.34l0,0a3.5,3.5,0,0,1,.24-.3l0-.05a2.23,2.23,0,0,1,.26-.27L723,553.81l.17-.16a.08.08,0,0,1,0,0c.09-.1.19-.2.28-.31l0,0h0l.25-.3h0l.21-.28v0a.43.43,0,0,0,0-.07l.13-.18,0,0,.06-.1a.57.57,0,0,0,.08-.13.56.56,0,0,0,.05-.08l0-.1.05-.08.07-.15a.59.59,0,0,0,0-.08l0,0,.12-.27h0s0,0,0-.06l.09-.21V551l0-.12,0-.13,0-.07c0-.05,0-.1,0-.15l0-.1a.64.64,0,0,1,0-.07c0-.07,0-.13.05-.2s0-.06,0-.09a.13.13,0,0,0,0-.06l.06-.31A.15.15,0,0,1,725.18,549.67Z"/><path id="_Path_2" data-name="&lt;Path&gt;" class="cls-16" d="M720.32,498.81v0L674,471.86s0,0,0,.05c0,.19-.06.37-.09.56l0,.12a4.21,4.21,0,0,1-.12.48h0c0,.15-.08.3-.13.45l-.06.16-.09.26c0,.06-.05.12-.08.19l-.09.22-.09.19-.09.21a1.74,1.74,0,0,1-.1.19,1.24,1.24,0,0,1-.1.2c0,.07-.07.13-.1.19s-.07.14-.11.2l-.11.18-.12.21a1.63,1.63,0,0,0-.11.17l-.15.22a.91.91,0,0,0-.11.16l-.18.24-.11.14-.3.37,0,0-.45.49-.15.15,46.33,26.93.11-.1,0-.05c.16-.16.31-.32.46-.49h0l0,0,.3-.37,0,0,.07-.09.18-.25.06-.08,0-.07.15-.22.07-.11,0-.06.12-.21.08-.12,0-.06.11-.2.07-.13,0-.06.1-.2a.61.61,0,0,0,.07-.14l0-.05.09-.21a.61.61,0,0,0,.07-.14s0,0,0-.05l.09-.22.06-.15,0,0,.09-.26a1.21,1.21,0,0,1,0-.14v0c0-.14.09-.29.13-.44h0c0-.16.08-.32.12-.48a.43.43,0,0,1,0,0,.2.2,0,0,0,0-.07,5.48,5.48,0,0,0,.1-.56Z"/><path id="_Path_3" data-name="&lt;Path&gt;" class="cls-17" d="M670.86,477.9,659.27,489l-.06.06-.27.29,0,0a.1.1,0,0,0,0,.05l-.14.16-.17.23h0l-.14.21-.13.21v0l0,0a1.09,1.09,0,0,0-.08.15,2.12,2.12,0,0,0-.11.21.3.3,0,0,1,0,.08l0,0,0,.09-.09.22s0,.09,0,.13v.05l0,.06c0,.08,0,.17-.08.25s0,.08,0,.12a.24.24,0,0,0,0,.08l0,.09-.06.36h0a3.87,3.87,0,0,0,0,.48l0,6.86a1.74,1.74,0,0,0,.73,1.6l45.61,25.33c-.45-.26,0,.78,0,0l0-6.86a3.87,3.87,0,0,1,0-.48,3.58,3.58,0,0,1,.09-.45.24.24,0,0,1,0-.08,3,3,0,0,1,.12-.43l0-.05.18-.44,0-.05c.07-.15.15-.3.23-.44l0,0c.08-.15.18-.3.28-.45h0a4.08,4.08,0,0,1,.31-.39.1.1,0,0,1,0-.05c.11-.13.23-.26.35-.38l11.58-11.08Z"/><g id="_Group_2" data-name="&lt;Group&gt;"><polygon id="_Path_4" data-name="&lt;Path&gt;" class="cls-16" points="720.32 498.74 673.98 471.81 678.83 428.02 725.16 454.95 720.32 498.74"/></g><polyline id="_Path_5" data-name="&lt;Path&gt;" class="cls-18" points="673.98 471.86 675.87 470.81 717.35 494.64 717.12 496.93"/><g id="_Group_3" data-name="&lt;Group&gt;"><g id="_Group_4" data-name="&lt;Group&gt;"><g id="_Group_5" data-name="&lt;Group&gt;"><path id="_Compound_Path_" data-name="&lt;Compound Path&gt;" class="cls-19" d="M676.18,487.45v-.06a.2.2,0,0,1,0-.07s0-.05,0-.08l-.09-.31a.08.08,0,0,1,0,0,1.32,1.32,0,0,0-.65-.82,2.87,2.87,0,0,0-3.14.46,1.51,1.51,0,0,0-.57,1.53h0l.09.31a1.27,1.27,0,0,0,.64.78l.2.1.07,0,.15,0,.07,0,.17,0h.06l.24,0H674l.13,0,.07,0h0l.11,0,.09,0h0l.1,0,.08,0h0l.11,0,.08,0h0l.13-.07s0,0,.06,0h0a1.48,1.48,0,0,0,.21-.13h0l0,0,.25-.19,0,0h0c.06-.06.12-.11.17-.17l0-.06a.52.52,0,0,0,.1-.11.43.43,0,0,1,0-.07.75.75,0,0,0,.07-.12l0-.06,0,0a.78.78,0,0,0,.05-.14h0c0-.05,0-.1,0-.14v0a.52.52,0,0,0,0-.11.2.2,0,0,0,0-.07,0,0,0,0,0,0,0,.22.22,0,0,0,0-.08v-.11Zm-.53.84h0l0,0Zm.14-.17h0l0,0Zm.23-.42h0s0,0,0,0,0,0,0,0Zm.08-.58v0h0Zm0,.21h0v0Z"/><g id="_Group_6" data-name="&lt;Group&gt;"><g id="_Group_7" data-name="&lt;Group&gt;" class="cls-2"><g id="_Group_8" data-name="&lt;Group&gt;"><path id="_Path_6" data-name="&lt;Path&gt;" class="cls-20" d="M675.29,486a1.32,1.32,0,0,1,.07,2.26,2.83,2.83,0,0,1-3.08.45,1.32,1.32,0,0,1-.06-2.27A2.79,2.79,0,0,1,675.29,486Z"/></g><g id="_Clip_Group_2" data-name="&lt;Clip Group&gt;" class="cls-2"><g class="cls-21"><g id="_Group_9" data-name="&lt;Group&gt;" class="cls-2"><path id="_Path_7" data-name="&lt;Path&gt;" class="cls-22" d="M675.92,486.73l.09.3a.19.19,0,0,0,0,.08l-.09-.3a.31.31,0,0,0,0-.08"/><path id="_Path_8" data-name="&lt;Path&gt;" class="cls-23" d="M675.94,486.81l.09.3c0,.06,0,.11,0,.16L676,487a1,1,0,0,0,0-.16"/><path id="_Path_9" data-name="&lt;Path&gt;" class="cls-24" d="M676,487l.09.3a.91.91,0,0,1,0,.17l-.08-.3a.48.48,0,0,0,0-.17"/><path id="_Path_10" data-name="&lt;Path&gt;" class="cls-25" d="M676,487.14l.08.3a.76.76,0,0,1,0,.21l-.08-.3,0-.21"/><path id="_Path_11" data-name="&lt;Path&gt;" class="cls-26" d="M675.93,487.35l.08.3a1.9,1.9,0,0,1-.1.28l-.09-.3a2,2,0,0,0,.11-.28"/><path id="_Path_12" data-name="&lt;Path&gt;" class="cls-27" d="M675.82,487.63l.09.3a2.1,2.1,0,0,1-.47.6l0,0-.08-.31h0a2.05,2.05,0,0,0,.46-.6"/><path id="_Path_13" data-name="&lt;Path&gt;" class="cls-26" d="M675.34,488.24l.08.31a2.92,2.92,0,0,1-.28.21l-.09-.3a2,2,0,0,0,.29-.22"/><path id="_Path_14" data-name="&lt;Path&gt;" class="cls-25" d="M675.05,488.46l.09.3-.23.14-.09-.3.23-.14"/><path id="_Path_15" data-name="&lt;Path&gt;" class="cls-24" d="M674.82,488.6l.09.3-.21.1-.08-.3.2-.1"/><path id="_Path_16" data-name="&lt;Path&gt;" class="cls-23" d="M674.62,488.7l.08.3-.21.08-.08-.3.21-.08"/><path id="_Path_17" data-name="&lt;Path&gt;" class="cls-22" d="M674.41,488.78l.08.3-.2.06-.08-.3.2-.06"/><path id="_Path_18" data-name="&lt;Path&gt;" class="cls-28" d="M674.21,488.84l.08.3-.21.05-.08-.3.21-.05"/><path id="_Path_19" data-name="&lt;Path&gt;" class="cls-29" d="M674,488.89l.08.3-.22,0-.08-.3.22,0"/><path id="_Path_20" data-name="&lt;Path&gt;" class="cls-30" d="M673.78,488.93l.08.3-.25,0-.08-.3.25,0"/><path id="_Path_21" data-name="&lt;Path&gt;" class="cls-31" d="M673.53,489l.08.3h-.3l-.08-.3h.3"/><path id="_Path_22" data-name="&lt;Path&gt;" class="cls-32" d="M673.23,489l.08.3a2.18,2.18,0,0,1-.95-.27,1.37,1.37,0,0,1-.63-.77l-.08-.3a1.37,1.37,0,0,0,.63.77,2.32,2.32,0,0,0,1,.27"/></g></g></g></g></g><g id="_Group_10" data-name="&lt;Group&gt;"><g id="_Group_11" data-name="&lt;Group&gt;" class="cls-2"><g id="_Group_12" data-name="&lt;Group&gt;"><path id="_Path_23" data-name="&lt;Path&gt;" class="cls-33" d="M674.79,485.74a1.12,1.12,0,0,1,.11,1.9,2.33,2.33,0,0,1-2.54.43,1.11,1.11,0,0,1-.12-1.9A2.34,2.34,0,0,1,674.79,485.74Z"/></g><g id="_Group_13" data-name="&lt;Group&gt;"><path id="_Path_24" data-name="&lt;Path&gt;" class="cls-34" d="M674.66,485.79a1,1,0,0,1,.11,1.77,2.15,2.15,0,0,1-2.37.4,1,1,0,0,1-.1-1.77A2.16,2.16,0,0,1,674.66,485.79Z"/></g><g id="_Clip_Group_3" data-name="&lt;Clip Group&gt;" class="cls-2"><g class="cls-35"><g id="_Group_14" data-name="&lt;Group&gt;" class="cls-2"><path id="_Path_25" data-name="&lt;Path&gt;" class="cls-36" d="M675.33,486.39l.07.24s0,0,0,.06l-.07-.24s0,0,0-.06"/><path id="_Path_26" data-name="&lt;Path&gt;" class="cls-37" d="M675.35,486.45l.07.24s0,.09,0,.13l-.07-.24s0-.09,0-.13"/><path id="_Path_27" data-name="&lt;Path&gt;" class="cls-38" d="M675.37,486.58l.07.24V487l-.07-.24v-.15"/><path id="_Path_28" data-name="&lt;Path&gt;" class="cls-39" d="M675.37,486.73l.07.24a1.1,1.1,0,0,1,0,.18l-.08-.24a.57.57,0,0,0,0-.18"/><path id="_Path_29" data-name="&lt;Path&gt;" class="cls-40" d="M675.34,486.91l.08.24a1.61,1.61,0,0,1-.09.26l-.08-.25a.84.84,0,0,0,.09-.25"/><path id="_Path_30" data-name="&lt;Path&gt;" class="cls-41" d="M675.25,487.16l.08.25a1.72,1.72,0,0,1-.34.45l-.07-.24a1.41,1.41,0,0,0,.33-.46"/><path id="_Path_31" data-name="&lt;Path&gt;" class="cls-40" d="M674.92,487.62l.07.24,0,0a1.92,1.92,0,0,1-.22.18l-.08-.24a2.11,2.11,0,0,0,.23-.19l0,0"/><path id="_Path_32" data-name="&lt;Path&gt;" class="cls-39" d="M674.67,487.83l.08.24a1,1,0,0,1-.19.12l-.07-.24.18-.12"/><path id="_Path_33" data-name="&lt;Path&gt;" class="cls-38" d="M674.49,488l.07.24a.76.76,0,0,1-.18.09l-.07-.24.18-.09"/><path id="_Path_34" data-name="&lt;Path&gt;" class="cls-37" d="M674.31,488l.07.24-.16.08-.07-.25.16-.07"/><path id="_Path_35" data-name="&lt;Path&gt;" class="cls-36" d="M674.15,488.11l.07.25-.17.05-.07-.24.17-.06"/><path id="_Path_36" data-name="&lt;Path&gt;" class="cls-42" d="M674,488.17l.07.24-.18,0-.07-.24.18-.05"/><path id="_Path_37" data-name="&lt;Path&gt;" class="cls-43" d="M673.8,488.22l.07.24-.18,0-.07-.25.18,0"/><path id="_Path_38" data-name="&lt;Path&gt;" class="cls-44" d="M673.62,488.25l.07.25-.21,0-.07-.24.21,0"/><path id="_Path_39" data-name="&lt;Path&gt;" class="cls-45" d="M673.41,488.28l.07.24h-.25l-.07-.24h.25"/><path id="_Path_40" data-name="&lt;Path&gt;" class="cls-46" d="M673.16,488.28l.07.24a1.79,1.79,0,0,1-.8-.21,1.11,1.11,0,0,1-.55-.65l-.07-.24a1.11,1.11,0,0,0,.55.65,1.76,1.76,0,0,0,.8.21"/></g></g></g></g></g></g><g id="_Group_15" data-name="&lt;Group&gt;"><path id="_Compound_Path_2" data-name="&lt;Compound Path&gt;" class="cls-19" d="M680.34,489.92a.13.13,0,0,1,0-.06.15.15,0,0,1,0-.07s0-.05,0-.08l-.08-.3v0a1.29,1.29,0,0,0-.65-.82,2.88,2.88,0,0,0-3.14.46,1.54,1.54,0,0,0-.57,1.54h0l.09.3a1.32,1.32,0,0,0,.64.79l.2.1.07,0,.15.05.07,0,.17,0h.07a.85.85,0,0,0,.23,0h.59l.13,0h.1l.11,0h.1l.1,0,.09,0h0l.1,0,.08,0h0l.14-.06.06,0h0l.22-.12h0l0,0,.25-.19h0l0,0c.06-.06.12-.11.17-.17l.05-.05.09-.12a.43.43,0,0,0,0-.07,1,1,0,0,0,.08-.11l0-.07,0,0a.69.69,0,0,0,0-.13h0c0-.05,0-.09,0-.14v0s0-.07,0-.11,0-.05,0-.07v-.21Zm-.54.84h0l0,0Zm.15-.17h0l0,0Zm.22-.42h0v0Zm.08-.58v0h0Zm0,.21h0v0Z"/><g id="_Group_16" data-name="&lt;Group&gt;"><g id="_Group_17" data-name="&lt;Group&gt;" class="cls-2"><g id="_Group_18" data-name="&lt;Group&gt;"><path id="_Path_41" data-name="&lt;Path&gt;" class="cls-20" d="M679.45,488.44a1.32,1.32,0,0,1,.06,2.26,2.83,2.83,0,0,1-3.08.45,1.32,1.32,0,0,1-.06-2.26A2.83,2.83,0,0,1,679.45,488.44Z"/></g><g id="_Clip_Group_4" data-name="&lt;Clip Group&gt;" class="cls-2"><g class="cls-47"><g id="_Group_19" data-name="&lt;Group&gt;" class="cls-2"><path id="_Path_42" data-name="&lt;Path&gt;" class="cls-22" d="M680.08,489.21l.08.3s0,.05,0,.08l-.08-.3a.31.31,0,0,1,0-.08"/><path id="_Path_43" data-name="&lt;Path&gt;" class="cls-23" d="M680.1,489.29l.08.3c0,.05,0,.1,0,.15l-.09-.3a.76.76,0,0,0,0-.15"/><path id="_Path_44" data-name="&lt;Path&gt;" class="cls-24" d="M680.11,489.44l.09.3a1.09,1.09,0,0,1,0,.18l-.08-.3a.54.54,0,0,0,0-.18"/><path id="_Path_45" data-name="&lt;Path&gt;" class="cls-25" d="M680.11,489.62l.08.3a.75.75,0,0,1,0,.2l-.08-.3a1.62,1.62,0,0,0,0-.2"/><path id="_Path_46" data-name="&lt;Path&gt;" class="cls-26" d="M680.08,489.82l.08.3a1.57,1.57,0,0,1-.1.28l-.08-.3c0-.09.07-.19.1-.28"/><path id="_Path_47" data-name="&lt;Path&gt;" class="cls-27" d="M680,490.1l.08.3a2,2,0,0,1-.47.6l0,0-.08-.3,0,0a2,2,0,0,0,.47-.6"/><path id="_Path_48" data-name="&lt;Path&gt;" class="cls-26" d="M679.49,490.72l.08.3-.28.22-.09-.3a2.21,2.21,0,0,0,.29-.22"/><path id="_Path_49" data-name="&lt;Path&gt;" class="cls-25" d="M679.2,490.94l.09.3-.23.13-.08-.3.22-.13"/><path id="_Path_50" data-name="&lt;Path&gt;" class="cls-24" d="M679,491.07l.08.3-.21.1-.08-.3.21-.1"/><path id="_Path_51" data-name="&lt;Path&gt;" class="cls-23" d="M678.77,491.17l.08.3-.2.08-.09-.3.21-.08"/><path id="_Path_52" data-name="&lt;Path&gt;" class="cls-22" d="M678.56,491.25l.09.3-.21.07-.08-.31a1.17,1.17,0,0,0,.2-.06"/><path id="_Path_53" data-name="&lt;Path&gt;" class="cls-28" d="M678.36,491.31l.08.31-.21.05-.08-.31.21-.05"/><path id="_Path_54" data-name="&lt;Path&gt;" class="cls-29" d="M678.15,491.36l.08.31-.22,0-.08-.3.22,0"/><path id="_Path_55" data-name="&lt;Path&gt;" class="cls-30" d="M677.93,491.4l.08.3-.25,0-.08-.3.25,0"/><path id="_Path_56" data-name="&lt;Path&gt;" class="cls-31" d="M677.68,491.42l.08.3h-.29l-.09-.3h.3"/><path id="_Path_57" data-name="&lt;Path&gt;" class="cls-32" d="M677.38,491.42l.09.3a2.1,2.1,0,0,1-1-.27,1.26,1.26,0,0,1-.63-.77l-.09-.3a1.34,1.34,0,0,0,.63.77,2.18,2.18,0,0,0,1,.27"/></g></g></g></g></g><g id="_Group_20" data-name="&lt;Group&gt;"><g id="_Group_21" data-name="&lt;Group&gt;" class="cls-2"><g id="_Group_22" data-name="&lt;Group&gt;"><path id="_Path_58" data-name="&lt;Path&gt;" class="cls-48" d="M678.94,488.22a1.11,1.11,0,0,1,.11,1.89,2.29,2.29,0,0,1-2.54.43,1.12,1.12,0,0,1-.12-1.9A2.32,2.32,0,0,1,678.94,488.22Z"/></g><g id="_Group_23" data-name="&lt;Group&gt;"><path id="_Path_59" data-name="&lt;Path&gt;" class="cls-49" d="M678.81,488.27a1,1,0,0,1,.11,1.76,2.14,2.14,0,0,1-2.36.4,1,1,0,0,1-.11-1.77A2.13,2.13,0,0,1,678.81,488.27Z"/></g><g id="_Clip_Group_5" data-name="&lt;Clip Group&gt;" class="cls-2"><g class="cls-50"><g id="_Group_24" data-name="&lt;Group&gt;" class="cls-2"><path id="_Path_60" data-name="&lt;Path&gt;" class="cls-51" d="M679.48,488.86l.07.25a.08.08,0,0,1,0,.05l-.07-.24,0-.06"/><path id="_Path_61" data-name="&lt;Path&gt;" class="cls-52" d="M679.5,488.92l.07.24a.68.68,0,0,1,0,.14l-.07-.25a.59.59,0,0,0,0-.13"/><path id="_Path_62" data-name="&lt;Path&gt;" class="cls-53" d="M679.52,489.05l.07.25a.75.75,0,0,1,0,.15l-.07-.25v-.15"/><path id="_Path_63" data-name="&lt;Path&gt;" class="cls-54" d="M679.52,489.2l.07.25a1.11,1.11,0,0,1,0,.17l-.07-.24a1.1,1.1,0,0,0,0-.18"/><path id="_Path_64" data-name="&lt;Path&gt;" class="cls-55" d="M679.5,489.38l.07.24a1.34,1.34,0,0,1-.09.26l-.07-.25a1.25,1.25,0,0,0,.09-.25"/><path id="_Path_65" data-name="&lt;Path&gt;" class="cls-56" d="M679.41,489.63l.07.25a2,2,0,0,1-.33.46l-.08-.25a1.61,1.61,0,0,0,.34-.46"/><path id="_Path_66" data-name="&lt;Path&gt;" class="cls-55" d="M679.07,490.09l.08.25,0,0-.22.19-.07-.25.22-.19,0,0"/><path id="_Path_67" data-name="&lt;Path&gt;" class="cls-54" d="M678.83,490.3l.07.25-.19.12-.07-.25a1,1,0,0,0,.19-.12"/><path id="_Path_68" data-name="&lt;Path&gt;" class="cls-53" d="M678.64,490.42l.07.25-.17.09-.08-.25.18-.09"/><path id="_Path_69" data-name="&lt;Path&gt;" class="cls-52" d="M678.46,490.51l.08.25-.17.07-.07-.24.16-.08"/><path id="_Path_70" data-name="&lt;Path&gt;" class="cls-51" d="M678.3,490.59l.07.24-.17.06-.07-.25.17-.05"/><path id="_Path_71" data-name="&lt;Path&gt;" class="cls-57" d="M678.13,490.64l.07.25-.17,0-.07-.24.17-.05"/><path id="_Path_72" data-name="&lt;Path&gt;" class="cls-58" d="M678,490.69l.07.24-.19,0-.07-.24.19,0"/><path id="_Path_73" data-name="&lt;Path&gt;" class="cls-59" d="M677.77,490.73l.07.24-.21,0-.07-.24.21,0"/><path id="_Path_74" data-name="&lt;Path&gt;" class="cls-60" d="M677.56,490.75l.07.24h-.24l-.08-.25h.25"/><path id="_Path_75" data-name="&lt;Path&gt;" class="cls-61" d="M677.31,490.75l.08.25a2,2,0,0,1-.81-.22,1.13,1.13,0,0,1-.55-.64l-.07-.25a1.11,1.11,0,0,0,.55.65,1.79,1.79,0,0,0,.8.21"/></g></g></g></g></g></g><g id="_Group_25" data-name="&lt;Group&gt;"><path id="_Compound_Path_3" data-name="&lt;Compound Path&gt;" class="cls-19" d="M684.83,492.5a.13.13,0,0,0,0-.06v-.07a.19.19,0,0,1,0-.08l-.09-.3a0,0,0,0,1,0,0,1.32,1.32,0,0,0-.65-.82,2.87,2.87,0,0,0-3.14.46,1.52,1.52,0,0,0-.57,1.54h0l.09.3a1.28,1.28,0,0,0,.64.79l.2.1.06,0,.16.05.07,0,.17,0h.06a1,1,0,0,0,.24,0h.59l.13,0h.09l.11,0h.11l.1,0,.08,0h0l.11,0,.08,0h0l.13-.06.06,0h0l.21-.12h0l0,0,.25-.19h0l0,0c.06-.06.12-.11.17-.17l0,0,.1-.12a.43.43,0,0,0,0-.07.41.41,0,0,0,.07-.11.43.43,0,0,0,0-.07v0a.38.38,0,0,0,.06-.13h0a.78.78,0,0,0,0-.14v0a.43.43,0,0,0,0-.11.17.17,0,0,0,0-.07v0a.22.22,0,0,0,0-.08v-.11Zm-.53.84h0l0,0Zm.14-.17h0l0,0Zm.23-.42h0l0,0,0,0Zm.08-.58v0h0Zm0,.21h0v0Z"/><g id="_Group_26" data-name="&lt;Group&gt;"><g id="_Group_27" data-name="&lt;Group&gt;" class="cls-2"><g id="_Group_28" data-name="&lt;Group&gt;"><path id="_Path_76" data-name="&lt;Path&gt;" class="cls-20" d="M683.94,491a1.32,1.32,0,0,1,.07,2.26,2.83,2.83,0,0,1-3.08.45,1.31,1.31,0,0,1-.06-2.26A2.82,2.82,0,0,1,683.94,491Z"/></g><g id="_Clip_Group_6" data-name="&lt;Clip Group&gt;" class="cls-2"><g class="cls-62"><g id="_Group_29" data-name="&lt;Group&gt;" class="cls-2"><path id="_Path_77" data-name="&lt;Path&gt;" class="cls-22" d="M684.57,491.79l.09.3a.31.31,0,0,0,0,.08l-.09-.3a.19.19,0,0,0,0-.08"/><path id="_Path_78" data-name="&lt;Path&gt;" class="cls-23" d="M684.59,491.87l.09.3a.76.76,0,0,1,0,.15l-.08-.3a.77.77,0,0,0,0-.15"/><path id="_Path_79" data-name="&lt;Path&gt;" class="cls-24" d="M684.61,492l.08.3a.54.54,0,0,1,0,.18l-.08-.3a1.08,1.08,0,0,0,0-.18"/><path id="_Path_80" data-name="&lt;Path&gt;" class="cls-25" d="M684.61,492.2l.08.3a1.62,1.62,0,0,1,0,.2l-.08-.3,0-.2"/><path id="_Path_81" data-name="&lt;Path&gt;" class="cls-26" d="M684.58,492.4l.08.3c0,.09-.06.19-.1.28l-.09-.3a1.62,1.62,0,0,0,.11-.28"/><path id="_Path_82" data-name="&lt;Path&gt;" class="cls-27" d="M684.47,492.68l.09.3a2,2,0,0,1-.47.6l0,0-.08-.3,0,0a1.93,1.93,0,0,0,.46-.6"/><path id="_Path_83" data-name="&lt;Path&gt;" class="cls-26" d="M684,493.3l.08.3a2.21,2.21,0,0,1-.29.22l-.08-.3a3.15,3.15,0,0,0,.29-.22"/><path id="_Path_84" data-name="&lt;Path&gt;" class="cls-25" d="M683.7,493.52l.08.3-.22.13-.09-.3a1.71,1.71,0,0,0,.23-.13"/><path id="_Path_85" data-name="&lt;Path&gt;" class="cls-24" d="M683.47,493.65l.09.3-.21.1-.09-.3a1,1,0,0,0,.21-.1"/><path id="_Path_86" data-name="&lt;Path&gt;" class="cls-23" d="M683.26,493.75l.09.3-.21.08-.08-.3.2-.08"/><path id="_Path_87" data-name="&lt;Path&gt;" class="cls-22" d="M683.06,493.83l.08.3-.2.07-.08-.31a1.52,1.52,0,0,0,.2-.06"/><path id="_Path_88" data-name="&lt;Path&gt;" class="cls-28" d="M682.86,493.89l.08.31-.21.05-.08-.31.21-.05"/><path id="_Path_89" data-name="&lt;Path&gt;" class="cls-29" d="M682.65,493.94l.08.31-.22,0-.09-.3.23,0"/><path id="_Path_90" data-name="&lt;Path&gt;" class="cls-30" d="M682.42,494l.09.3-.25,0-.08-.3.24,0"/><path id="_Path_91" data-name="&lt;Path&gt;" class="cls-31" d="M682.18,494l.08.3H682l-.08-.3h.3"/><path id="_Path_92" data-name="&lt;Path&gt;" class="cls-32" d="M681.88,494l.08.3a2.18,2.18,0,0,1-1-.27,1.34,1.34,0,0,1-.63-.77l-.08-.3a1.26,1.26,0,0,0,.63.77,2.14,2.14,0,0,0,1,.27"/></g></g></g></g></g><g id="_Group_30" data-name="&lt;Group&gt;"><g id="_Group_31" data-name="&lt;Group&gt;" class="cls-2"><g id="_Group_32" data-name="&lt;Group&gt;"><path id="_Path_93" data-name="&lt;Path&gt;" class="cls-63" d="M683.43,490.8a1.11,1.11,0,0,1,.12,1.89,2.29,2.29,0,0,1-2.54.43,1.11,1.11,0,0,1-.12-1.9A2.31,2.31,0,0,1,683.43,490.8Z"/></g><g id="_Group_33" data-name="&lt;Group&gt;"><path id="_Path_94" data-name="&lt;Path&gt;" class="cls-64" d="M683.31,490.85a1,1,0,0,1,.11,1.76,2.15,2.15,0,0,1-2.37.4,1,1,0,0,1-.1-1.77A2.13,2.13,0,0,1,683.31,490.85Z"/></g><g id="_Clip_Group_7" data-name="&lt;Clip Group&gt;" class="cls-2"><g class="cls-65"><g id="_Group_34" data-name="&lt;Group&gt;" class="cls-2"><path id="_Path_95" data-name="&lt;Path&gt;" class="cls-66" d="M684,491.44l.07.25s0,0,0,.05l-.07-.24s0,0,0-.06"/><path id="_Path_96" data-name="&lt;Path&gt;" class="cls-67" d="M684,491.5l.07.24c0,.05,0,.09,0,.14l-.07-.25s0-.09,0-.13"/><path id="_Path_97" data-name="&lt;Path&gt;" class="cls-68" d="M684,491.63l.07.25V492l-.07-.25v-.15"/><path id="_Path_98" data-name="&lt;Path&gt;" class="cls-69" d="M684,491.78l.07.25a.55.55,0,0,1,0,.17L684,492a.57.57,0,0,0,0-.18"/><path id="_Path_99" data-name="&lt;Path&gt;" class="cls-70" d="M684,492l.07.24a1.29,1.29,0,0,1-.08.26l-.08-.25A1.25,1.25,0,0,0,684,492"/><path id="_Path_100" data-name="&lt;Path&gt;" class="cls-71" d="M683.9,492.21l.08.25a1.76,1.76,0,0,1-.34.46l-.07-.25a1.41,1.41,0,0,0,.33-.46"/><path id="_Path_101" data-name="&lt;Path&gt;" class="cls-70" d="M683.57,492.67l.07.25,0,0a2.11,2.11,0,0,1-.23.19l-.07-.25a2.11,2.11,0,0,0,.23-.19l0,0"/><path id="_Path_102" data-name="&lt;Path&gt;" class="cls-69" d="M683.32,492.88l.07.25-.18.12-.07-.25a.94.94,0,0,0,.18-.12"/><path id="_Path_103" data-name="&lt;Path&gt;" class="cls-68" d="M683.14,493l.07.25-.18.09-.07-.25a.76.76,0,0,0,.18-.09"/><path id="_Path_104" data-name="&lt;Path&gt;" class="cls-67" d="M683,493.09l.07.25-.16.07-.07-.24.16-.08"/><path id="_Path_105" data-name="&lt;Path&gt;" class="cls-66" d="M682.8,493.17l.07.24-.17.06-.07-.25.17-.05"/><path id="_Path_106" data-name="&lt;Path&gt;" class="cls-72" d="M682.63,493.22l.07.25-.18,0-.07-.24.18,0"/><path id="_Path_107" data-name="&lt;Path&gt;" class="cls-73" d="M682.45,493.27l.07.24-.18,0-.07-.24.18,0"/><path id="_Path_108" data-name="&lt;Path&gt;" class="cls-74" d="M682.27,493.31l.07.24-.21,0-.07-.24.21,0"/><path id="_Path_109" data-name="&lt;Path&gt;" class="cls-75" d="M682.06,493.33l.07.24h-.25l-.07-.25h.25"/><path id="_Path_110" data-name="&lt;Path&gt;" class="cls-76" d="M681.81,493.33l.07.25a1.9,1.9,0,0,1-.8-.22,1.13,1.13,0,0,1-.55-.64l-.07-.25a1.11,1.11,0,0,0,.55.65,1.76,1.76,0,0,0,.8.21"/></g></g></g></g></g></g></g><g id="_Group_35" data-name="&lt;Group&gt;"><g id="_Group_36" data-name="&lt;Group&gt;"><path id="_Compound_Path_4" data-name="&lt;Compound Path&gt;" class="cls-19" d="M672.11,491.71s0,0,0-.06,0,0,0-.06a.29.29,0,0,0,0-.09l-.08-.3v0a1.28,1.28,0,0,0-.65-.83,2.88,2.88,0,0,0-3.14.46,1.54,1.54,0,0,0-.57,1.54h0l.08.3a1.32,1.32,0,0,0,.64.79l.2.1.07,0,.15.05.08,0,.17,0h.06a.85.85,0,0,0,.23,0h.6l.12,0h.1l.11,0,.08,0h0l.1,0,.09,0h0l.1,0,.08,0h0l.14-.06.06,0h0l.21-.12h0l0,0a2.48,2.48,0,0,0,.26-.19h0v0c.06-.06.12-.11.17-.17l.05-.05.09-.12.05-.06.07-.12,0-.07,0,0,.06-.13h0a.74.74,0,0,0,0-.14v0s0-.07,0-.11,0-.05,0-.07v-.21Zm-.53.85h0l0,0Zm.14-.18h0v0Zm.22-.41h0v0l0,0Zm.08-.59v0h0Zm0,.21h0v0Z"/><g id="_Group_37" data-name="&lt;Group&gt;"><g id="_Group_38" data-name="&lt;Group&gt;" class="cls-2"><g id="_Group_39" data-name="&lt;Group&gt;"><path id="_Path_111" data-name="&lt;Path&gt;" class="cls-20" d="M671.22,490.23a1.31,1.31,0,0,1,.06,2.26,2.82,2.82,0,0,1-3.07.45,1.32,1.32,0,0,1-.07-2.26A2.83,2.83,0,0,1,671.22,490.23Z"/></g><g id="_Clip_Group_8" data-name="&lt;Clip Group&gt;" class="cls-2"><g class="cls-77"><g id="_Group_40" data-name="&lt;Group&gt;" class="cls-2"><path id="_Path_112" data-name="&lt;Path&gt;" class="cls-22" d="M671.85,491l.08.3s0,.05,0,.08l-.08-.3s0-.06,0-.08"/><path id="_Path_113" data-name="&lt;Path&gt;" class="cls-23" d="M671.87,491.08l.08.3a.77.77,0,0,1,0,.15l-.08-.3c0-.05,0-.1,0-.15"/><path id="_Path_114" data-name="&lt;Path&gt;" class="cls-24" d="M671.89,491.23l.08.3v.18l-.09-.3a1.09,1.09,0,0,0,0-.18"/><path id="_Path_115" data-name="&lt;Path&gt;" class="cls-25" d="M671.88,491.41l.09.3a1.77,1.77,0,0,1,0,.2l-.08-.3a.75.75,0,0,0,0-.2"/><path id="_Path_116" data-name="&lt;Path&gt;" class="cls-26" d="M671.85,491.61l.08.3a1.57,1.57,0,0,1-.1.28l-.08-.3a1.57,1.57,0,0,0,.1-.28"/><path id="_Path_117" data-name="&lt;Path&gt;" class="cls-27" d="M671.75,491.89l.08.3a1.93,1.93,0,0,1-.46.6l0,0-.09-.3,0,0a2,2,0,0,0,.47-.6"/><path id="_Path_118" data-name="&lt;Path&gt;" class="cls-26" d="M671.26,492.51l.09.3a3.15,3.15,0,0,1-.29.22l-.08-.3.28-.22"/><path id="_Path_119" data-name="&lt;Path&gt;" class="cls-25" d="M671,492.73l.08.3-.23.13-.08-.3.23-.13"/><path id="_Path_120" data-name="&lt;Path&gt;" class="cls-24" d="M670.75,492.86l.08.3-.21.1-.08-.3.21-.1"/><path id="_Path_121" data-name="&lt;Path&gt;" class="cls-23" d="M670.54,493l.08.3-.2.08-.08-.3.2-.08"/><path id="_Path_122" data-name="&lt;Path&gt;" class="cls-22" d="M670.34,493l.08.3-.21.07-.08-.3.21-.07"/><path id="_Path_123" data-name="&lt;Path&gt;" class="cls-28" d="M670.13,493.11l.08.3-.2,0-.09-.3.21-.05"/><path id="_Path_124" data-name="&lt;Path&gt;" class="cls-29" d="M669.92,493.16l.09.3-.23,0-.08-.3.22,0"/><path id="_Path_125" data-name="&lt;Path&gt;" class="cls-30" d="M669.7,493.19l.08.3-.24,0-.09-.3.25,0"/><path id="_Path_126" data-name="&lt;Path&gt;" class="cls-31" d="M669.45,493.21l.09.3h-.3l-.09-.3a1.5,1.5,0,0,0,.3,0"/><path id="_Path_127" data-name="&lt;Path&gt;" class="cls-32" d="M669.15,493.21l.09.3a2.1,2.1,0,0,1-1-.27,1.24,1.24,0,0,1-.63-.77l-.08-.3a1.24,1.24,0,0,0,.63.77,2.1,2.1,0,0,0,.94.27"/></g></g></g></g></g><g id="_Group_41" data-name="&lt;Group&gt;"><g id="_Group_42" data-name="&lt;Group&gt;" class="cls-2"><g id="_Group_43" data-name="&lt;Group&gt;"><path id="_Path_128" data-name="&lt;Path&gt;" class="cls-33" d="M670.71,490a1.12,1.12,0,0,1,.11,1.9,2.3,2.3,0,0,1-2.54.42,1.12,1.12,0,0,1-.11-1.9A2.3,2.3,0,0,1,670.71,490Z"/></g><g id="_Group_44" data-name="&lt;Group&gt;"><path id="_Path_129" data-name="&lt;Path&gt;" class="cls-34" d="M670.59,490.06a1,1,0,0,1,.1,1.76,2.14,2.14,0,0,1-2.36.4,1,1,0,0,1-.11-1.77A2.17,2.17,0,0,1,670.59,490.06Z"/></g><g id="_Clip_Group_9" data-name="&lt;Clip Group&gt;" class="cls-2"><g class="cls-78"><g id="_Group_45" data-name="&lt;Group&gt;" class="cls-2"><path id="_Path_130" data-name="&lt;Path&gt;" class="cls-36" d="M671.26,490.65l.07.25s0,0,0,.05l-.07-.24s0,0,0-.06"/><path id="_Path_131" data-name="&lt;Path&gt;" class="cls-37" d="M671.27,490.71l.07.24a.68.68,0,0,1,0,.14l-.07-.25a.59.59,0,0,0,0-.13"/><path id="_Path_132" data-name="&lt;Path&gt;" class="cls-38" d="M671.29,490.84l.07.25a.38.38,0,0,1,0,.15l-.07-.25a.38.38,0,0,0,0-.15"/><path id="_Path_133" data-name="&lt;Path&gt;" class="cls-39" d="M671.29,491l.07.25a1.11,1.11,0,0,1,0,.17l-.07-.24a1.1,1.1,0,0,0,0-.18"/><path id="_Path_134" data-name="&lt;Path&gt;" class="cls-40" d="M671.27,491.17l.07.24a1.34,1.34,0,0,1-.09.26l-.07-.24a1.61,1.61,0,0,0,.09-.26"/><path id="_Path_135" data-name="&lt;Path&gt;" class="cls-41" d="M671.18,491.43l.07.24a2,2,0,0,1-.33.46l-.07-.25a1.92,1.92,0,0,0,.33-.45"/><path id="_Path_136" data-name="&lt;Path&gt;" class="cls-40" d="M670.85,491.88l.07.25,0,0-.23.19-.07-.25a1.92,1.92,0,0,0,.22-.18l0,0"/><path id="_Path_137" data-name="&lt;Path&gt;" class="cls-39" d="M670.6,492.09l.07.25-.19.12-.07-.25a1,1,0,0,0,.19-.12"/><path id="_Path_138" data-name="&lt;Path&gt;" class="cls-38" d="M670.41,492.21l.07.25-.17.09-.07-.24.17-.1"/><path id="_Path_139" data-name="&lt;Path&gt;" class="cls-37" d="M670.24,492.31l.07.24-.17.07-.07-.24.17-.07"/><path id="_Path_140" data-name="&lt;Path&gt;" class="cls-36" d="M670.07,492.38l.07.24-.17.06-.07-.25.17-.05"/><path id="_Path_141" data-name="&lt;Path&gt;" class="cls-42" d="M669.9,492.43l.07.25-.17,0-.07-.24.17-.05"/><path id="_Path_142" data-name="&lt;Path&gt;" class="cls-43" d="M669.73,492.48l.07.24-.19,0-.07-.24.19,0"/><path id="_Path_143" data-name="&lt;Path&gt;" class="cls-44" d="M669.54,492.52l.07.24-.2,0-.07-.24.2,0"/><path id="_Path_144" data-name="&lt;Path&gt;" class="cls-45" d="M669.34,492.54l.07.24h-.25l-.07-.25h.25"/><path id="_Path_145" data-name="&lt;Path&gt;" class="cls-46" d="M669.09,492.54l.07.25a2,2,0,0,1-.81-.22,1.07,1.07,0,0,1-.54-.64l-.08-.25a1.11,1.11,0,0,0,.55.65,1.84,1.84,0,0,0,.81.21"/></g></g></g></g></g></g><g id="_Group_46" data-name="&lt;Group&gt;"><path id="_Compound_Path_5" data-name="&lt;Compound Path&gt;" class="cls-19" d="M676.26,494.19s0-.05,0-.07a.13.13,0,0,0,0-.06.19.19,0,0,0,0-.08l-.08-.31a.08.08,0,0,0,0,0,1.34,1.34,0,0,0-.65-.83,2.91,2.91,0,0,0-3.15.46,1.54,1.54,0,0,0-.57,1.54h0l.08.31a1.37,1.37,0,0,0,.64.78l.21.1.06,0,.15.06.08,0,.17,0h.06l.24,0h.59l.13,0h.09l.11,0,.08,0h0l.1,0,.09,0h0l.11-.05.08,0h0l.14-.06.06,0h0l.21-.13h0l.26-.2h0l0,0a1.29,1.29,0,0,0,.16-.17s0,0,.05-.05l.09-.12,0-.06.07-.12,0-.06,0,0,.06-.14h0a.83.83,0,0,0,0-.15v0s0-.08,0-.12,0,0,0-.07v-.2Zm-.53.84h0l0,0Zm.14-.18h0v0Zm.23-.41h0s0,0,0,0l0,0Zm.07-.58v0h0Zm0,.21h0v0Z"/><g id="_Group_47" data-name="&lt;Group&gt;"><g id="_Group_48" data-name="&lt;Group&gt;" class="cls-2"><g id="_Group_49" data-name="&lt;Group&gt;"><path id="_Path_146" data-name="&lt;Path&gt;" class="cls-20" d="M675.37,492.7a1.32,1.32,0,0,1,.07,2.26,2.83,2.83,0,0,1-3.08.45,1.32,1.32,0,0,1-.07-2.26A2.83,2.83,0,0,1,675.37,492.7Z"/></g><g id="_Clip_Group_10" data-name="&lt;Clip Group&gt;" class="cls-2"><g class="cls-79"><g id="_Group_50" data-name="&lt;Group&gt;" class="cls-2"><path id="_Path_147" data-name="&lt;Path&gt;" class="cls-22" d="M676,493.47l.08.3a.24.24,0,0,1,0,.08l-.08-.3,0-.08"/><path id="_Path_148" data-name="&lt;Path&gt;" class="cls-23" d="M676,493.55l.08.3a.78.78,0,0,1,0,.16l-.08-.3a.78.78,0,0,0,0-.16"/><path id="_Path_149" data-name="&lt;Path&gt;" class="cls-24" d="M676,493.71l.08.3v.17l-.08-.3v-.17"/><path id="_Path_150" data-name="&lt;Path&gt;" class="cls-25" d="M676,493.88l.08.3a1.18,1.18,0,0,1,0,.2l-.08-.3a1.42,1.42,0,0,0,0-.2"/><path id="_Path_151" data-name="&lt;Path&gt;" class="cls-26" d="M676,494.08l.08.3a.94.94,0,0,1-.1.28l-.08-.3a1.33,1.33,0,0,0,.1-.28"/><path id="_Path_152" data-name="&lt;Path&gt;" class="cls-27" d="M675.9,494.36l.08.3a1.82,1.82,0,0,1-.46.6l0,0-.08-.3,0,0a2,2,0,0,0,.46-.6"/><path id="_Path_153" data-name="&lt;Path&gt;" class="cls-26" d="M675.42,495l.08.3a3.15,3.15,0,0,1-.29.22l-.08-.3a3.15,3.15,0,0,0,.29-.22"/><path id="_Path_154" data-name="&lt;Path&gt;" class="cls-25" d="M675.13,495.2l.08.3-.23.14-.08-.3.23-.14"/><path id="_Path_155" data-name="&lt;Path&gt;" class="cls-24" d="M674.9,495.34l.08.3-.21.1-.08-.3.21-.1"/><path id="_Path_156" data-name="&lt;Path&gt;" class="cls-23" d="M674.69,495.44l.08.3-.2.08-.08-.31.2-.07"/><path id="_Path_157" data-name="&lt;Path&gt;" class="cls-22" d="M674.49,495.51l.08.31-.2.06-.09-.3.21-.07"/><path id="_Path_158" data-name="&lt;Path&gt;" class="cls-28" d="M674.28,495.58l.09.3-.21.05-.09-.3.21-.05"/><path id="_Path_159" data-name="&lt;Path&gt;" class="cls-29" d="M674.07,495.63l.09.3-.23,0-.08-.31a1.46,1.46,0,0,0,.22,0"/><path id="_Path_160" data-name="&lt;Path&gt;" class="cls-30" d="M673.85,495.66l.08.31-.24,0-.09-.3a1.9,1.9,0,0,0,.25,0"/><path id="_Path_161" data-name="&lt;Path&gt;" class="cls-31" d="M673.6,495.69l.09.3h-.3l-.08-.3h.29"/><path id="_Path_162" data-name="&lt;Path&gt;" class="cls-32" d="M673.31,495.68l.08.3a2.14,2.14,0,0,1-.95-.27,1.24,1.24,0,0,1-.63-.77l-.08-.3a1.24,1.24,0,0,0,.63.77,2.1,2.1,0,0,0,.95.27"/></g></g></g></g></g><g id="_Group_51" data-name="&lt;Group&gt;"><g id="_Group_52" data-name="&lt;Group&gt;" class="cls-2"><g id="_Group_53" data-name="&lt;Group&gt;"><path id="_Path_163" data-name="&lt;Path&gt;" class="cls-48" d="M674.86,492.48a1.12,1.12,0,0,1,.12,1.9,2.32,2.32,0,0,1-2.55.42,1.12,1.12,0,0,1-.11-1.9A2.31,2.31,0,0,1,674.86,492.48Z"/></g><g id="_Group_54" data-name="&lt;Group&gt;"><path id="_Path_164" data-name="&lt;Path&gt;" class="cls-49" d="M674.74,492.53a1,1,0,0,1,.11,1.77,2.17,2.17,0,0,1-2.37.39,1,1,0,0,1-.11-1.76A2.15,2.15,0,0,1,674.74,492.53Z"/></g><g id="_Clip_Group_11" data-name="&lt;Clip Group&gt;" class="cls-2"><g class="cls-80"><g id="_Group_55" data-name="&lt;Group&gt;" class="cls-2"><path id="_Path_165" data-name="&lt;Path&gt;" class="cls-51" d="M675.41,493.13l.07.24s0,0,0,.06l-.07-.25a.43.43,0,0,0,0-.05"/><path id="_Path_166" data-name="&lt;Path&gt;" class="cls-52" d="M675.42,493.18l.07.25a.59.59,0,0,1,0,.13l-.07-.24a.68.68,0,0,0,0-.14"/><path id="_Path_167" data-name="&lt;Path&gt;" class="cls-53" d="M675.44,493.32l.07.24a.76.76,0,0,1,0,.15l-.08-.24a.38.38,0,0,0,0-.15"/><path id="_Path_168" data-name="&lt;Path&gt;" class="cls-54" d="M675.44,493.47l.08.24,0,.17-.07-.24a1.11,1.11,0,0,0,0-.17"/><path id="_Path_169" data-name="&lt;Path&gt;" class="cls-55" d="M675.42,493.64l.07.24a1.14,1.14,0,0,1-.09.26l-.07-.24a1.34,1.34,0,0,0,.09-.26"/><path id="_Path_170" data-name="&lt;Path&gt;" class="cls-56" d="M675.33,493.9l.07.24a1.52,1.52,0,0,1-.33.46l-.07-.24a1.71,1.71,0,0,0,.33-.46"/><path id="_Path_171" data-name="&lt;Path&gt;" class="cls-55" d="M675,494.36l.07.24,0,0a2.11,2.11,0,0,1-.23.19l-.07-.24a2.11,2.11,0,0,0,.23-.19l0,0"/><path id="_Path_172" data-name="&lt;Path&gt;" class="cls-54" d="M674.75,494.57l.07.24-.19.12-.07-.24.19-.12"/><path id="_Path_173" data-name="&lt;Path&gt;" class="cls-53" d="M674.56,494.69l.07.24-.17.09-.07-.24.17-.09"/><path id="_Path_174" data-name="&lt;Path&gt;" class="cls-52" d="M674.39,494.78l.07.24-.17.07-.07-.24.17-.07"/><path id="_Path_175" data-name="&lt;Path&gt;" class="cls-51" d="M674.22,494.85l.07.24-.17.06-.07-.24.17-.06"/><path id="_Path_176" data-name="&lt;Path&gt;" class="cls-57" d="M674.05,494.91l.07.24-.17.05-.07-.25.17,0"/><path id="_Path_177" data-name="&lt;Path&gt;" class="cls-58" d="M673.88,495l.07.25-.19,0-.07-.24.19,0"/><path id="_Path_178" data-name="&lt;Path&gt;" class="cls-59" d="M673.69,495l.07.24-.2,0-.07-.25.2,0"/><path id="_Path_179" data-name="&lt;Path&gt;" class="cls-60" d="M673.49,495l.07.25h-.25l-.07-.24h.25"/><path id="_Path_180" data-name="&lt;Path&gt;" class="cls-61" d="M673.24,495l.07.24a1.76,1.76,0,0,1-.8-.21,1.08,1.08,0,0,1-.55-.65l-.07-.24a1.07,1.07,0,0,0,.54.64,2,2,0,0,0,.81.22"/></g></g></g></g></g></g><g id="_Group_56" data-name="&lt;Group&gt;"><path id="_Compound_Path_6" data-name="&lt;Compound Path&gt;" class="cls-19" d="M680.76,496.77a.2.2,0,0,1,0-.07.13.13,0,0,1,0-.06s0-.06,0-.08l-.08-.31v0a1.28,1.28,0,0,0-.65-.83,2.9,2.9,0,0,0-3.14.46,1.54,1.54,0,0,0-.57,1.54h0l.09.31a1.33,1.33,0,0,0,.64.78l.2.1.07,0,.15.06.08,0,.16,0h.07l.23,0h.6l.12,0h.1l.11,0,.08,0h0l.1,0,.09,0h0l.1-.05.08,0h0l.14-.06.06,0h0l.22-.13h0a1.69,1.69,0,0,0,.25-.2h0l0,0,.17-.16.05-.06.09-.12,0-.06.08-.12,0-.06,0,0,.06-.14h0a.83.83,0,0,0,0-.15v0s0-.08,0-.12,0,0,0-.07v-.2Zm-.53.84h0l0,0Zm.14-.18h0v0Zm.22-.41h0v0l0,0Zm.08-.58v0h0Zm0,.21h0v0Z"/><g id="_Group_57" data-name="&lt;Group&gt;"><g id="_Group_58" data-name="&lt;Group&gt;" class="cls-2"><g id="_Group_59" data-name="&lt;Group&gt;"><path id="_Path_181" data-name="&lt;Path&gt;" class="cls-20" d="M679.87,495.28a1.32,1.32,0,0,1,.06,2.26,2.83,2.83,0,0,1-3.08.45,1.32,1.32,0,0,1-.06-2.26A2.83,2.83,0,0,1,679.87,495.28Z"/></g><g id="_Clip_Group_12" data-name="&lt;Clip Group&gt;" class="cls-2"><g class="cls-81"><g id="_Group_60" data-name="&lt;Group&gt;" class="cls-2"><path id="_Path_182" data-name="&lt;Path&gt;" class="cls-22" d="M680.5,496.05l.08.3,0,.08-.08-.3a.24.24,0,0,1,0-.08"/><path id="_Path_183" data-name="&lt;Path&gt;" class="cls-23" d="M680.52,496.13l.08.3a.78.78,0,0,1,0,.16l-.08-.3c0-.06,0-.11,0-.16"/><path id="_Path_184" data-name="&lt;Path&gt;" class="cls-24" d="M680.54,496.29l.08.3v.17l-.09-.3a1,1,0,0,0,0-.17"/><path id="_Path_185" data-name="&lt;Path&gt;" class="cls-25" d="M680.53,496.46l.09.3a1.18,1.18,0,0,1,0,.2l-.08-.3a.69.69,0,0,0,0-.2"/><path id="_Path_186" data-name="&lt;Path&gt;" class="cls-26" d="M680.5,496.66l.08.3a1.33,1.33,0,0,1-.1.28l-.08-.3a1.33,1.33,0,0,0,.1-.28"/><path id="_Path_187" data-name="&lt;Path&gt;" class="cls-27" d="M680.4,496.94l.08.3a2,2,0,0,1-.46.6l0,0-.09-.3,0,0a1.86,1.86,0,0,0,.47-.6"/><path id="_Path_188" data-name="&lt;Path&gt;" class="cls-26" d="M679.91,497.56l.09.3a3.15,3.15,0,0,1-.29.22l-.08-.3.28-.22"/><path id="_Path_189" data-name="&lt;Path&gt;" class="cls-25" d="M679.63,497.78l.08.3-.23.14-.08-.3.23-.14"/><path id="_Path_190" data-name="&lt;Path&gt;" class="cls-24" d="M679.4,497.92l.08.3-.21.1-.08-.3.21-.1"/><path id="_Path_191" data-name="&lt;Path&gt;" class="cls-23" d="M679.19,498l.08.3-.2.08-.08-.31.2-.07"/><path id="_Path_192" data-name="&lt;Path&gt;" class="cls-22" d="M679,498.09l.08.31-.21.06-.08-.3.21-.07"/><path id="_Path_193" data-name="&lt;Path&gt;" class="cls-28" d="M678.78,498.16l.08.3-.21.05-.08-.3.21,0"/><path id="_Path_194" data-name="&lt;Path&gt;" class="cls-29" d="M678.57,498.21l.08.3-.22,0-.08-.31.22,0"/><path id="_Path_195" data-name="&lt;Path&gt;" class="cls-30" d="M678.35,498.24l.08.31-.25,0-.08-.3a2.13,2.13,0,0,0,.25,0"/><path id="_Path_196" data-name="&lt;Path&gt;" class="cls-31" d="M678.1,498.27l.08.3h-.29l-.09-.3h.3"/><path id="_Path_197" data-name="&lt;Path&gt;" class="cls-32" d="M677.8,498.26l.09.3a2.1,2.1,0,0,1-.95-.27,1.24,1.24,0,0,1-.63-.77l-.09-.3a1.31,1.31,0,0,0,.63.77,2.18,2.18,0,0,0,.95.27"/></g></g></g></g></g><g id="_Group_61" data-name="&lt;Group&gt;"><g id="_Group_62" data-name="&lt;Group&gt;" class="cls-2"><g id="_Group_63" data-name="&lt;Group&gt;"><path id="_Path_198" data-name="&lt;Path&gt;" class="cls-63" d="M679.36,495.06a1.12,1.12,0,0,1,.11,1.9,2.3,2.3,0,0,1-2.54.42,1.12,1.12,0,0,1-.12-1.9A2.32,2.32,0,0,1,679.36,495.06Z"/></g><g id="_Group_64" data-name="&lt;Group&gt;"><path id="_Path_199" data-name="&lt;Path&gt;" class="cls-64" d="M679.23,495.11a1,1,0,0,1,.11,1.77,2.15,2.15,0,0,1-2.36.39,1,1,0,0,1-.11-1.76A2.14,2.14,0,0,1,679.23,495.11Z"/></g><g id="_Clip_Group_13" data-name="&lt;Clip Group&gt;" class="cls-2"><g class="cls-82"><g id="_Group_65" data-name="&lt;Group&gt;" class="cls-2"><path id="_Path_200" data-name="&lt;Path&gt;" class="cls-66" d="M679.9,495.71l.08.24s0,0,0,.06l-.07-.25a.08.08,0,0,0,0-.05"/><path id="_Path_201" data-name="&lt;Path&gt;" class="cls-67" d="M679.92,495.76l.07.25a.59.59,0,0,1,0,.13l-.07-.24a.68.68,0,0,0,0-.14"/><path id="_Path_202" data-name="&lt;Path&gt;" class="cls-68" d="M679.94,495.9l.07.24a.38.38,0,0,1,0,.15l-.07-.24a.75.75,0,0,0,0-.15"/><path id="_Path_203" data-name="&lt;Path&gt;" class="cls-69" d="M679.94,496.05l.07.24a.88.88,0,0,1,0,.17l-.07-.24a1.11,1.11,0,0,0,0-.17"/><path id="_Path_204" data-name="&lt;Path&gt;" class="cls-70" d="M679.92,496.22l.07.24a1.14,1.14,0,0,1-.09.26l-.07-.24a1.34,1.34,0,0,0,.09-.26"/><path id="_Path_205" data-name="&lt;Path&gt;" class="cls-71" d="M679.83,496.48l.07.24a2,2,0,0,1-.33.46l-.07-.24a2,2,0,0,0,.33-.46"/><path id="_Path_206" data-name="&lt;Path&gt;" class="cls-70" d="M679.5,496.94l.07.24,0,0-.22.19-.07-.24.22-.19,0,0"/><path id="_Path_207" data-name="&lt;Path&gt;" class="cls-69" d="M679.25,497.15l.07.24-.19.12-.07-.24.19-.12"/><path id="_Path_208" data-name="&lt;Path&gt;" class="cls-68" d="M679.06,497.27l.07.24-.17.09-.07-.24.17-.09"/><path id="_Path_209" data-name="&lt;Path&gt;" class="cls-67" d="M678.89,497.36l.07.24-.17.07-.07-.24.17-.07"/><path id="_Path_210" data-name="&lt;Path&gt;" class="cls-66" d="M678.72,497.43l.07.24-.17.06-.07-.24.17-.06"/><path id="_Path_211" data-name="&lt;Path&gt;" class="cls-72" d="M678.55,497.49l.07.24-.17,0-.07-.25.17,0"/><path id="_Path_212" data-name="&lt;Path&gt;" class="cls-73" d="M678.38,497.53l.07.25-.19,0-.07-.24.19,0"/><path id="_Path_213" data-name="&lt;Path&gt;" class="cls-74" d="M678.19,497.57l.07.24-.2,0-.08-.25.21,0"/><path id="_Path_214" data-name="&lt;Path&gt;" class="cls-75" d="M678,497.59l.08.25h-.25l-.07-.24H678"/><path id="_Path_215" data-name="&lt;Path&gt;" class="cls-76" d="M677.74,497.6l.07.24a1.84,1.84,0,0,1-.81-.21,1.11,1.11,0,0,1-.55-.65l-.07-.24a1.13,1.13,0,0,0,.55.64,2,2,0,0,0,.81.22"/></g></g></g></g></g></g></g><g id="_Group_66" data-name="&lt;Group&gt;"><path id="_Compound_Path_7" data-name="&lt;Compound Path&gt;" class="cls-19" d="M693.41,501.19a.13.13,0,0,0,0-.06v-.06s0-.05,0-.08l-.08-.28s0,0,0,0a1.2,1.2,0,0,0-.6-.76,2.66,2.66,0,0,0-2.89.42,1.4,1.4,0,0,0-.52,1.41h0l.07.28a1.21,1.21,0,0,0,.59.72l.19.1.06,0,.14.05.07,0,.15,0h.06l.22,0h.54l.12,0h.08l.1,0,.08,0h0l.09,0,.08,0h0l.1,0,.07,0h0l.12-.06.06,0h0l.2-.12h0a1.3,1.3,0,0,0,.23-.18h0l0,0,.15-.15,0-.05.09-.11,0-.06a.41.41,0,0,0,.07-.11l0-.05v0l.06-.13h0a.65.65,0,0,0,0-.13v0a.36.36,0,0,0,0-.1s0,0,0-.06v-.09s0-.05,0-.08Zm-.49.77h0l0,0Zm.13-.16h0l0,0Zm.21-.38h0v0Zm.07-.54v0h0Zm0,.2h0v0Z"/><g id="_Group_67" data-name="&lt;Group&gt;"><g id="_Group_68" data-name="&lt;Group&gt;" class="cls-2"><g id="_Group_69" data-name="&lt;Group&gt;"><path id="_Path_216" data-name="&lt;Path&gt;" d="M692.6,499.82a1.22,1.22,0,0,1,.06,2.08,2.6,2.6,0,0,1-2.83.41,1.21,1.21,0,0,1-.06-2.08A2.61,2.61,0,0,1,692.6,499.82Z"/></g><g id="_Clip_Group_14" data-name="&lt;Clip Group&gt;" class="cls-2"><g class="cls-83"><g id="_Group_70" data-name="&lt;Group&gt;" class="cls-2"><path id="_Path_217" data-name="&lt;Path&gt;" d="M693.17,500.53l.08.27s0,.05,0,.08l-.08-.28a.19.19,0,0,0,0-.07"/><path id="_Path_218" data-name="&lt;Path&gt;" d="M693.19,500.6l.08.28a.61.61,0,0,1,0,.14l-.07-.27a.77.77,0,0,0,0-.15"/><path id="_Path_219" data-name="&lt;Path&gt;" d="M693.21,500.75l.07.27a.43.43,0,0,1,0,.16l-.07-.28v-.15"/><path id="_Path_220" data-name="&lt;Path&gt;" d="M693.21,500.9l.07.28a.68.68,0,0,1,0,.19l-.07-.28,0-.19"/><path id="_Path_221" data-name="&lt;Path&gt;" d="M693.18,501.09l.07.28a1.25,1.25,0,0,1-.09.25l-.08-.27a2.77,2.77,0,0,0,.1-.26"/><path id="_Path_222" data-name="&lt;Path&gt;" d="M693.08,501.35l.08.27a2,2,0,0,1-.43.56h0l-.07-.27,0,0a1.76,1.76,0,0,0,.42-.55"/><path id="_Path_223" data-name="&lt;Path&gt;" d="M692.64,501.92l.07.27-.26.2-.08-.27a2.69,2.69,0,0,0,.27-.2"/><path id="_Path_224" data-name="&lt;Path&gt;" d="M692.37,502.12l.08.27-.21.13-.08-.28.21-.12"/><path id="_Path_225" data-name="&lt;Path&gt;" d="M692.16,502.24l.08.28-.19.09-.08-.28.19-.09"/><path id="_Path_226" data-name="&lt;Path&gt;" d="M692,502.33l.08.28-.19.07-.07-.27.18-.08"/><path id="_Path_227" data-name="&lt;Path&gt;" d="M691.79,502.41l.07.27-.19.06-.07-.28.19,0"/><path id="_Path_228" data-name="&lt;Path&gt;" d="M691.6,502.46l.07.28-.19.05-.07-.28.19-.05"/><path id="_Path_229" data-name="&lt;Path&gt;" d="M691.41,502.51l.07.28-.2,0-.08-.28.21,0"/><path id="_Path_230" data-name="&lt;Path&gt;" d="M691.2,502.54l.08.28-.23,0-.08-.28.23,0"/><path id="_Path_231" data-name="&lt;Path&gt;" d="M691,502.56l.08.28h-.27l-.08-.28H691"/><path id="_Path_232" data-name="&lt;Path&gt;" d="M690.7,502.56l.08.28a2.14,2.14,0,0,1-.88-.25,1.18,1.18,0,0,1-.57-.71l-.08-.27a1.21,1.21,0,0,0,.58.7,1.92,1.92,0,0,0,.87.25"/></g></g></g></g></g><g id="_Group_71" data-name="&lt;Group&gt;"><path id="_Path_233" data-name="&lt;Path&gt;" d="M691.37,501.5h-.16a.61.61,0,0,1-.59-.48l-1.28-6.26a.6.6,0,1,1,1.18-.24v.07l1.27,6.18A.6.6,0,0,1,691.37,501.5Z"/></g><g id="_Group_72" data-name="&lt;Group&gt;"><path id="_Path_234" data-name="&lt;Path&gt;" d="M691.37,501.5l-1.27-6.19a.61.61,0,0,1,.43-.7l1.27,6.18A.6.6,0,0,1,691.37,501.5Z"/></g><circle id="_Path_235" data-name="&lt;Path&gt;" class="cls-84" cx="689.93" cy="494.67" r="2.55"/></g></g><g id="_Group_73" data-name="&lt;Group&gt;" class="cls-2"><g id="_Clip_Group_15" data-name="&lt;Clip Group&gt;" class="cls-2"><g class="cls-85"><g id="_Group_74" data-name="&lt;Group&gt;" class="cls-2"><path id="_Path_236" data-name="&lt;Path&gt;" class="cls-86" d="M722.83,525.07l-2.35-1.37a2.74,2.74,0,0,0-1.22-2.19l2.36,1.37a2.73,2.73,0,0,1,1.21,2.19"/></g></g></g><g id="_Group_75" data-name="&lt;Group&gt;" class="cls-2"><g id="_Group_76" data-name="&lt;Group&gt;" class="cls-2"><path id="_Path_237" data-name="&lt;Path&gt;" d="M719.67,522.7a4.59,4.59,0,0,0-.48.17"/><path id="_Path_238" data-name="&lt;Path&gt;" d="M721.15,522.68l-2.35-1.37.22.08,2.36,1.37-.23-.08"/></g></g><g id="_Group_77" data-name="&lt;Group&gt;" class="cls-2"><g id="_Group_78" data-name="&lt;Group&gt;" class="cls-2"><path id="_Path_239" data-name="&lt;Path&gt;" d="M722.49,454.46l-2.36-1.37.1,0,2.36,1.37-.1,0"/><path id="_Path_240" data-name="&lt;Path&gt;" d="M723,454.42l-2.35-1.37.16,0,2.36,1.37-.17,0"/><path id="_Path_241" data-name="&lt;Path&gt;" d="M723.15,454.44l-2.36-1.37.16,0,2.36,1.37-.16,0"/><path id="_Path_242" data-name="&lt;Path&gt;" d="M723.31,454.48,721,453.11l.15.05,2.35,1.37-.14,0"/><path id="_Path_243" data-name="&lt;Path&gt;" d="M723.45,454.53l-2.35-1.37.14.07,2.35,1.37-.14-.07"/><path id="_Path_244" data-name="&lt;Path&gt;" d="M723.59,454.6l-2.35-1.37h0l2.36,1.37h0"/></g></g><g id="_Group_79" data-name="&lt;Group&gt;"><path id="_Path_245" data-name="&lt;Path&gt;" class="cls-5" d="M721.12,439.55a2.88,2.88,0,0,1,.57-.26l35.16-11.89,6.61,8.08L748.59,548.94,705.13,574c-1.1.63-2,.12-2-1.15v-1.2a4.41,4.41,0,0,1,1.43-3l17.5-16a6.84,6.84,0,0,0,2.25-5.24l-1.66-24.37c-.23-2.08-1.73-3-3.65-2.2l-13.82,5.65c-1.25.51-2.18-.18-2.19-1.63v-7a5.61,5.61,0,0,1,1.73-3.78l11.78-11.28a10.81,10.81,0,0,0,3.18-6.13l4.93-41.39c0-1.21-4.36-2.45-4.36-2.45-1.09-.16-1.84-.54-1.83-1.88l.08-6.95A5.8,5.8,0,0,1,721.12,439.55Z"/></g></g><path id="_Path_246" data-name="&lt;Path&gt;" class="cls-87" d="M710.51,400.47l-34,13.71-.19.07,0,0a2.59,2.59,0,0,0-.33.17,1.58,1.58,0,0,0-.24.15l-.08.06-.15.11-.09.08-.14.12-.09.08-.07.06,0,0-.19.2,0,.06,0,0-.11.12-.07.09,0,0-.07.1-.07.09-.05.08-.06.09,0,.06-.1.16,0,0v0a1.59,1.59,0,0,0-.13.22l0,0,0,.07-.06.12,0,.1,0,.08,0,0c0,.08-.07.16-.1.23h0v0a1.59,1.59,0,0,0-.07.2l0,.05,0,.11,0,.1a.29.29,0,0,0,0,.09.65.65,0,0,0,0,.13.24.24,0,0,1,0,.08.25.25,0,0,1,0,.08c0,.07,0,.14,0,.2s0,.06,0,.08v0a2.93,2.93,0,0,0,0,.41l-.08,6.83a1.85,1.85,0,0,0,.76,1.72l46.34,26.93a1.85,1.85,0,0,1-.76-1.72l.08-6.83a2.93,2.93,0,0,1,0-.41s0-.08,0-.13,0-.13,0-.2l0-.16,0-.13.06-.19,0-.11c0-.08,0-.16.09-.25v0l.12-.28,0-.08.11-.22,0-.07.15-.27,0,0,.14-.22.06-.09.12-.17.07-.1a1.34,1.34,0,0,0,.11-.14l.11-.12a.39.39,0,0,1,.08-.1l.19-.2.11-.11.08-.08.15-.12.08-.08.16-.12.08-.05a1.58,1.58,0,0,1,.24-.15,2.59,2.59,0,0,1,.33-.17l.23-.09,34-13.71Z"/></g><g id="_Group_80" data-name="&lt;Group&gt;"><polygon id="_Path_247" data-name="&lt;Path&gt;" class="cls-12" points="716.24 491.83 679.01 470.2 682.9 435.02 720.13 456.66 716.24 491.83"/></g></g></g></svg>