<svg id="Layer_1" data-name="Layer 1" xmlns="http://www.w3.org/2000/svg" viewBox="0 0 200 200"><defs><style>.cls-1{fill:#76ff03;}</style></defs><title>icon</title><circle class="cls-1" cx="104.45" cy="96.11" r="86"/><path d="M92,126.67l-.39-5c-1.15-10.36,2.31-21.68,11.9-33.19,8.63-10.17,13.43-17.65,13.43-26.29,0-9.78-6.14-16.31-18.23-16.5-6.91,0-14.58,2.3-19.38,5.95l-4.6-12.09C81,35,92,31.89,102.15,31.89c22.06,0,32,13.62,32,28.2,0,13-7.29,22.45-16.5,33.39-8.45,10-11.52,18.41-10.94,28.2l.19,5H92Zm-1.19,22.85c0-6.45,4.36-11,10.47-11s10.29,4.54,10.29,11c0,6.11-4,10.82-10.47,10.82C95,160.34,90.79,155.63,90.79,149.52Z"/></svg>