<?xml version="1.0" encoding="utf-8"?>
<!-- Generator: Adobe Illustrator 22.0.1, SVG Export Plug-In . SVG Version: 6.00 Build 0)  -->
<svg version="1.1" id="Layer_1" xmlns="http://www.w3.org/2000/svg" xmlns:xlink="http://www.w3.org/1999/xlink" x="0px" y="0px"
	 viewBox="0 0 750 1334" style="enable-background:new 0 0 750 1334;" xml:space="preserve">
<style type="text/css">
	.st0{fill:#181818;}
	.st1{opacity:0.34;}
	.st2{fill:none;stroke:#FFE268;stroke-width:1.9107;stroke-miterlimit:10;}
	.st3{opacity:0.34;fill:none;stroke:#FFE268;stroke-width:1.9107;stroke-miterlimit:10;enable-background:new    ;}
	.st4{fill:none;stroke:#FFE268;stroke-width:1.949;stroke-miterlimit:10;}
	.st5{display:none;}
	.st6{display:inline;fill:#242121;}
	.st7{display:inline;fill:#FCD427;}
	.st8{display:inline;fill:#F7CF26;}
	.st9{display:inline;fill:#EAE9E9;}
	.st10{display:inline;fill:#929392;}
	.st11{display:inline;fill:#1A1A19;}
	.st12{display:inline;fill:#121212;}
	.st13{display:inline;fill:#FEE168;}
	.st14{display:inline;fill:#070707;}
	.st15{display:inline;fill:#858173;}
</style>
<rect x="0" y="0" class="st0" width="749.9" height="1334"/>
<g>
	<g class="st1">
		<path class="st2" d="M142.6,70.8c-3.5,0-6.3,2.9-6.3,6.4c0,3.5,2.9,6.4,6.3,6.4c3.5,0,6.3-2.9,6.3-6.4
			C149,73.6,146.2,70.8,142.6,70.8"/>
		<path class="st2" d="M124.6,136.2c0-5-4-9-8.9-9s-8.9,4-8.9,9c0,5,4,9,8.9,9S124.6,141.1,124.6,136.2"/>
		<polyline class="st2" points="120.7,128.2 136.7,112.2 209.6,112.2 250.1,71.3 250.1,19.9 154.3,19.9 		"/>
		<g>
			<path class="st2" d="M35.1,45c-4.9,0-8.9-4-8.9-9c0-5,4-9,8.9-9s8.9,4,8.9,9S40,45,35.1,45"/>
			<polyline class="st2" points="10.2,131.7 10.2,58.2 26.2,42 			"/>
		</g>
		<line class="st2" x1="11.8" y1="132.4" x2="86.1" y2="132.4"/>
		<polyline class="st2" points="39.2,132.9 39.2,97 61.5,74.4 136.9,74.4 		"/>
		<path class="st2" d="M153.9,19.6c0-5-4-9-8.9-9s-8.9,4-8.9,9c0,5,4,9,8.9,9C149.9,28.6,153.9,24.6,153.9,19.6"/>
	</g>
	<g class="st1">
		<path class="st2" d="M55.2,275c3.4,0,6.2-2.9,6.2-6.3s-2.8-6.3-6.2-6.3s-6.2,2.9-6.2,6.3C48.9,272.2,51.8,275,55.2,275"/>
	</g>
	<path class="st3" d="M142.3,203.6c4.9,0,8.9-4,8.9-9c0-5-4-9-8.9-9s-8.9,4-8.9,9S137.5,203.6,142.3,203.6"/>
	<polyline class="st3" points="166.2,289.4 166.2,215.7 150.2,199.6 	"/>
	<line class="st3" x1="149.8" y1="268.7" x2="61.4" y2="268.7"/>
	<polyline class="st3" points="129.9,240.9 87.8,240.9 79.7,230.7 23.9,230.7 23.9,296.8 	"/>
	<g class="st1">
		<path class="st2" d="M127.9,288.7c-5.6,0-10.1,4.6-10.1,10.2c0,5.6,4.6,10.2,10.1,10.2c5.6,0,10.1-4.6,10.1-10.2
			C138.1,293.3,133.6,288.7,127.9,288.7"/>
		<polyline class="st2" points="8.8,314.5 63.2,314.5 78.6,298.9 117.9,298.9 		"/>
	</g>
	<polyline class="st3" points="5.7,199.6 54.1,199.6 61.6,191.9 103.7,191.9 	"/>
	<path class="st3" d="M110.6,185.6c-3.5,0-6.3,2.9-6.3,6.4s2.9,6.4,6.3,6.4c3.5,0,6.3-2.9,6.3-6.4S114.2,185.6,110.6,185.6"/>
	<path class="st3" d="M63.2,165.9c3.4,0,6.2,2.9,6.2,6.3s-2.8,6.3-6.2,6.3"/>
	<path class="st3" d="M63.2,178.6c-3.4,0-6.2-2.9-6.2-6.3s2.8-6.3,6.2-6.3"/>
	<polyline class="st3" points="22.5,199.7 22.5,182.9 33.5,171.9 56,171.6 	"/>
	<path class="st3" d="M136.1,247.2c-3.4,0-6.2-2.9-6.2-6.3s2.8-6.3,6.2-6.3s6.2,2.9,6.2,6.3C142.4,244.5,139.6,247.2,136.1,247.2"/>
	<g class="st1">
		<g>
			<line class="st4" x1="101.9" y1="817.6" x2="101.9" y2="896.4"/>
			<path class="st4" d="M95.4,809.3c0-3.6,2.9-6.5,6.5-6.5c3.5,0,6.5,3,6.5,6.5c0,3.6-2.9,6.5-6.5,6.5
				C98.3,815.8,95.4,812.9,95.4,809.3"/>
		</g>
		<path class="st4" d="M56,808.8c0-3.6,3-6.5,6.5-6.5s6.5,3,6.5,6.5c0,3.6-2.9,6.5-6.5,6.5C59,815.2,56,812.3,56,808.8"/>
		<path class="st4" d="M142.7,829.9c5.1,0,9.2,4,9.2,9.1c0,5.1-4.1,9.1-9.2,9.1c-5.1,0-9.2-4-9.2-9.1
			C133.5,833.9,137.6,829.9,142.7,829.9"/>
		<polyline class="st4" points="24,799.6 24,701.8 76.5,701.8 118.1,743.1 118.1,817.4 134.5,833.8 		"/>
		<g>
			<path class="st4" d="M29.7,918.4c0-5-4.1-9-9.2-9.1c-5.1,0-9.2,4.1-9.2,9.1c0,5.1,4.1,9.1,9.2,9.1S29.7,923.4,29.7,918.4"/>
			<polyline class="st4" points="26.7,927.5 43.1,943.8 118.3,943.8 			"/>
		</g>
		<line class="st4" x1="118.9" y1="866.5" x2="118.9" y2="942.2"/>
		<polyline class="st4" points="59.7,814.7 59.7,891.6 82.8,914.3 119.4,914.3 		"/>
		<path class="st4" d="M23.7,800c5.1,0,9.2,4,9.2,9.1c0,5.1-4.1,9.1-9.2,9.1s-9.2-4.1-9.2-9.1C14.6,804,18.7,800,23.7,800"/>
		<path class="st4" d="M118.8,847.4c5.1,0,9.2,4.1,9.2,9.1c0,5.1-4.1,9.1-9.2,9.1s-9.2-4.1-9.2-9.1
			C109.6,851.5,113.7,847.4,118.8,847.4"/>
		<g>
			<line class="st4" x1="101.9" y1="474.5" x2="101.9" y2="395.8"/>
			<path class="st4" d="M95.4,482.9c0,3.5,2.9,6.5,6.5,6.5c3.5,0,6.5-3,6.5-6.5c0-3.6-2.9-6.5-6.5-6.5
				C98.3,476.4,95.4,479.4,95.4,482.9"/>
		</g>
		<path class="st4" d="M56,483.5c0,3.5,3,6.5,6.5,6.5s6.5-3,6.5-6.5c0-3.6-2.9-6.5-6.5-6.5C59,477,56,479.9,56,483.5"/>
		<path class="st4" d="M142.7,462.3c5.1,0,9.2-4,9.2-9.1s-4.1-9.1-9.2-9.1c-5.1,0-9.2,4.1-9.2,9.1
			C133.5,458.3,137.6,462.3,142.7,462.3"/>
		<polyline class="st4" points="24,492.6 24,590.4 76.5,590.4 118.1,549.1 118.1,474.7 134.5,458.4 		"/>
		<g>
			<path class="st4" d="M29.7,373.7c0,5.1-4.1,9.1-9.2,9.1s-9.2-4.1-9.2-9.1c0-5.1,4.1-9.1,9.2-9.1S29.7,368.7,29.7,373.7"/>
			<polyline class="st4" points="26.7,364.6 43.1,348.4 118.3,348.4 			"/>
		</g>
		<line class="st4" x1="118.9" y1="425.8" x2="118.9" y2="350"/>
		<polyline class="st4" points="59.7,477.5 59.7,400.6 82.8,377.8 119.4,377.8 		"/>
		<path class="st4" d="M23.7,492.2c5.1,0,9.2-4.1,9.2-9.1c0-5.1-4.1-9.1-9.2-9.1s-9.2,4.1-9.2,9.1C14.6,488.2,18.7,492.2,23.7,492.2
			"/>
		<path class="st4" d="M118.8,444.7c5.1,0,9.2-4,9.2-9.1c0-5.1-4.1-9.1-9.2-9.1s-9.2,4.1-9.2,9.1
			C109.6,440.7,113.7,444.7,118.8,444.7"/>
	</g>
	<g class="st1">
		<g>
			<g>
				<path class="st2" d="M319.4,1155.9c0,3.5,2.9,6.4,6.3,6.4s6.3-2.9,6.3-6.4s-2.8-6.4-6.3-6.4
					C322.2,1149.5,319.4,1152.4,319.4,1155.9"/>
				<path class="st2" d="M285.9,1205.2c0,3.5,2.8,6.4,6.3,6.4c3.4,0,6.3-2.9,6.3-6.4s-2.8-6.4-6.3-6.4
					C288.8,1198.8,285.9,1201.7,285.9,1205.2"/>
				<polyline class="st2" points="325.9,1149.8 325.9,1101 341.5,1085.9 				"/>
			</g>
			<polyline class="st2" points="267.2,1032.7 289.1,1032.7 289.1,1068.6 305.6,1085.3 305.6,1163.3 289.8,1179.2 289.8,1199.3 			
				"/>
			<g>
				<path class="st2" d="M248.7,1153.2c0,3.4-2.8,6.3-6.2,6.3c-3.4,0-6.2-2.9-6.2-6.3c0-3.4,2.8-6.3,6.2-6.3
					S248.7,1149.8,248.7,1153.2"/>
				<polyline class="st2" points="241.8,1146 242.1,1123.2 253.1,1112.2 289,1112.2 289,1085.4 297.4,1077 				"/>
			</g>
			<g>
				<path class="st2" d="M207.5,1029c0,4.9-4,9-8.9,9c-4.9,0-8.9-4-8.9-9c0-5,4-9,8.9-9C203.5,1020.1,207.5,1024.1,207.5,1029"/>
				<polyline class="st2" points="198.6,1038.2 198.1,1096.1 226.8,1096.1 267.2,1055.3 267.2,1003.8 				"/>
			</g>
		</g>
		<path class="st2" d="M142.6,1224.3c3.5,0,6.4-2.8,6.3-6.4c0-3.5-2.8-6.4-6.3-6.4c-3.4,0-6.3,2.9-6.3,6.4
			S139.1,1224.3,142.6,1224.3"/>
		<path class="st2" d="M124.6,1158.9c0-4.9-4-9-8.9-9s-8.9,4-8.9,9c0,5,4,9,8.9,9S124.6,1163.8,124.6,1158.9"/>
		<polyline class="st2" points="154.3,1275.2 250.1,1275.2 250.1,1223.8 209.6,1182.9 136.7,1182.9 120.7,1166.9 		"/>
		<g>
			<path class="st2" d="M35.1,1250.1c5,0,8.9,4,8.9,9c0,5-4,9-8.9,9s-8.9-4-8.9-9S30.2,1250.1,35.1,1250.1"/>
			<polyline class="st2" points="26.2,1253.1 10.2,1236.9 10.2,1163.4 			"/>
		</g>
		<line class="st2" x1="86.1" y1="1162.7" x2="11.8" y2="1162.7"/>
		<polyline class="st2" points="136.9,1220.7 61.5,1220.7 39.2,1198.1 39.2,1162.2 		"/>
		<path class="st2" d="M153.9,1275.5c0-5-4-9-8.9-9c-4.9,0-8.9,4-8.9,9s4,9,8.9,9S153.9,1280.5,153.9,1275.5"/>
	</g>
	<g class="st1">
		<path class="st2" d="M55.2,1020.1c-3.4,0-6.3,2.9-6.2,6.3c0,3.4,2.8,6.3,6.2,6.3s6.2-2.9,6.2-6.3
			C61.4,1022.9,58.7,1020.1,55.2,1020.1"/>
	</g>
	<path class="st3" d="M142.3,1091.5c-4.9,0-8.9,4-8.9,9c0,5,4,9,8.9,9s8.9-4,8.9-9C151.2,1095.5,147.2,1091.5,142.3,1091.5"/>
	<polyline class="st3" points="150.2,1095.5 166.2,1079.4 166.2,1005.7 	"/>
	<line class="st3" x1="61.4" y1="1026.4" x2="149.8" y2="1026.4"/>
	<polyline class="st3" points="23.9,998.3 23.9,1064.4 79.7,1064.4 87.8,1054.2 129.9,1054.2 	"/>
	<g class="st1">
		<path class="st2" d="M127.9,1006.4c5.6,0,10.2-4.6,10.1-10.2c0-5.6-4.5-10.2-10.1-10.2c-5.5,0-10.1,4.6-10.1,10.2
			C117.8,1001.8,122.3,1006.4,127.9,1006.4"/>
		<polyline class="st2" points="117.9,996.2 78.6,996.2 63.2,980.6 8.8,980.6 		"/>
	</g>
	<polyline class="st3" points="103.7,1103.2 61.6,1103.2 54.1,1095.5 5.7,1095.5 	"/>
	<path class="st3" d="M110.6,1109.5c3.5,0,6.3-2.9,6.3-6.4c0-3.5-2.8-6.4-6.3-6.4c-3.4,0-6.3,2.9-6.3,6.4
		C104.3,1106.6,107.1,1109.5,110.6,1109.5"/>
	<path class="st3" d="M63.2,1116.5c3.4,0,6.2,2.9,6.2,6.3c0,3.4-2.8,6.3-6.2,6.3"/>
	<path class="st3" d="M63.2,1129.2c-3.4,0-6.2-2.9-6.2-6.3c0-3.4,2.8-6.3,6.2-6.3"/>
	<polyline class="st3" points="56,1123.5 33.5,1123.2 22.5,1112.2 22.5,1095.4 	"/>
	<path class="st3" d="M136.1,1047.9c3.4,0,6.3,2.8,6.2,6.3c0,3.4-2.8,6.3-6.2,6.3s-6.2-2.9-6.2-6.3
		C129.9,1050.7,132.7,1047.9,136.1,1047.9"/>
</g>
<g>
	<g class="st1">
		<path class="st2" d="M604.6,70.8c-3.5,0-6.4,2.8-6.3,6.4c0,3.5,2.8,6.4,6.3,6.4c3.4,0,6.3-2.9,6.3-6.4
			C610.9,73.7,608.2,70.8,604.6,70.8"/>
		<path class="st2" d="M622.7,136.2c0,4.9,4,9,8.9,9c4.9,0,8.9-4,8.9-9c0-5-4-9-8.9-9C626.7,127.3,622.7,131.3,622.7,136.2"/>
		<polyline class="st2" points="593,19.9 497.2,19.9 497.2,71.3 537.7,112.2 610.6,112.2 626.6,128.2 		"/>
		<g>
			<path class="st2" d="M712.2,45c-5,0-8.9-4-8.9-9s4-9,8.9-9s8.9,4,8.9,9C721.1,41,717.1,45,712.2,45"/>
			<polyline class="st2" points="721.1,42 737,58.2 737,131.7 			"/>
		</g>
		<line class="st2" x1="661.2" y1="132.4" x2="735.4" y2="132.4"/>
		<polyline class="st2" points="610.4,74.4 685.7,74.4 708.1,97 708.1,132.9 		"/>
		<path class="st2" d="M593.4,19.6c0,5,4,9,8.9,9c4.9,0,8.9-4,8.9-9c0-5-4-9-8.9-9C597.4,10.6,593.4,14.6,593.4,19.6"/>
	</g>
	<g class="st1">
		<path class="st2" d="M692,275c3.4,0,6.3-2.9,6.2-6.3c0-3.4-2.8-6.3-6.2-6.3s-6.2,2.9-6.2,6.3S688.6,275,692,275"/>
	</g>
	<path class="st3" d="M604.9,203.6c4.9,0,8.9-4,8.9-9s-4-9-8.9-9c-4.9,0-8.9,4-8.9,9C596,199.6,600,203.6,604.9,203.6"/>
	<polyline class="st3" points="597.1,199.6 581,215.7 581,289.4 	"/>
	<line class="st3" x1="685.8" y1="268.7" x2="597.5" y2="268.7"/>
	<polyline class="st3" points="723.4,296.8 723.4,230.7 667.6,230.7 659.5,240.9 617.3,240.9 	"/>
	<g class="st1">
		<path class="st2" d="M619.3,288.7c-5.6,0-10.2,4.6-10.1,10.2c0,5.6,4.5,10.2,10.1,10.2c5.5,0,10.1-4.6,10.1-10.2
			C629.5,293.3,625,288.7,619.3,288.7"/>
		<polyline class="st2" points="629.4,298.9 668.6,298.9 684,314.5 738.5,314.5 		"/>
	</g>
	<polyline class="st3" points="643.6,191.9 685.6,191.9 693.2,199.6 741.5,199.6 	"/>
	<path class="st3" d="M636.6,185.6c-3.5,0-6.3,2.9-6.3,6.4s2.8,6.4,6.3,6.4c3.4,0,6.3-2.9,6.3-6.4S640.2,185.6,636.6,185.6"/>
	<path class="st3" d="M684,178.6c-3.4,0-6.2-2.9-6.2-6.3s2.8-6.3,6.2-6.3"/>
	<path class="st3" d="M684,165.9c3.4,0,6.2,2.9,6.2,6.3s-2.8,6.3-6.2,6.3"/>
	<polyline class="st3" points="691.3,171.6 713.7,171.9 724.7,182.9 724.7,199.7 	"/>
	<path class="st3" d="M611.1,247.2c-3.4,0-6.3-2.8-6.2-6.3c0-3.4,2.8-6.3,6.2-6.3s6.2,2.9,6.2,6.3S614.6,247.2,611.1,247.2"/>
	<g class="st1">
		<g>
			<line class="st4" x1="645.4" y1="896.4" x2="645.4" y2="817.6"/>
			<path class="st4" d="M651.9,809.3c0,3.5-3,6.5-6.5,6.5c-3.6,0-6.5-2.9-6.5-6.5c0-3.5,3-6.5,6.5-6.5
				C649,802.8,651.9,805.7,651.9,809.3"/>
		</g>
		<path class="st4" d="M691.3,808.8c0,3.5-3,6.5-6.5,6.5c-3.6,0-6.5-2.9-6.5-6.5c0-3.5,3-6.5,6.5-6.5S691.3,805.1,691.3,808.8"/>
		<path class="st4" d="M604.6,829.9c5.1,0,9.2,4,9.2,9.1c0,5.1-4.1,9.1-9.2,9.1s-9.2-4-9.2-9.1C595.4,833.9,599.5,829.9,604.6,829.9
			"/>
		<polyline class="st4" points="612.7,833.8 629.2,817.4 629.2,743.1 670.8,701.8 723.3,701.8 723.3,799.6 		"/>
		<g>
			<path class="st4" d="M717.5,918.4c0,5,4.1,9.1,9.2,9.1c5.1,0,9.2-4,9.2-9.1c0-5-4.1-9.1-9.2-9.1
				C721.6,909.4,717.5,913.5,717.5,918.4"/>
			<polyline class="st4" points="629,943.8 704.1,943.8 720.6,927.5 			"/>
		</g>
		<line class="st4" x1="628.4" y1="942.2" x2="628.4" y2="866.5"/>
		<polyline class="st4" points="627.8,914.3 664.5,914.3 687.5,891.6 687.5,814.7 		"/>
		<path class="st4" d="M723.5,800c5.1,0,9.2,4,9.2,9.1c0,5-4.1,9.1-9.2,9.1c-5.1,0-9.2-4-9.2-9.1C714.4,804,718.5,800,723.5,800"/>
		<path class="st4" d="M628.5,847.4c5.1,0,9.2,4,9.2,9.1c0,5-4.1,9.1-9.2,9.1c-5.1,0-9.2-4-9.2-9.1
			C619.3,851.6,623.4,847.4,628.5,847.4"/>
		<g>
			<line class="st4" x1="645.4" y1="395.8" x2="645.4" y2="474.5"/>
			<path class="st4" d="M651.9,482.9c0-3.5-3-6.5-6.5-6.5c-3.6,0-6.5,2.9-6.5,6.5c0,3.5,3,6.5,6.5,6.5
				C649,489.4,651.9,486.4,651.9,482.9"/>
		</g>
		<path class="st4" d="M691.3,483.5c0-3.5-3-6.5-6.5-6.5c-3.6,0-6.5,2.9-6.5,6.5c0,3.5,3,6.5,6.5,6.5S691.3,487,691.3,483.5"/>
		<path class="st4" d="M604.6,462.3c5.1,0,9.2-4,9.2-9.1c0-5-4.1-9.1-9.2-9.1s-9.2,4-9.2,9.1S599.5,462.3,604.6,462.3"/>
		<polyline class="st4" points="612.7,458.4 629.2,474.7 629.2,549.1 670.8,590.4 723.3,590.4 723.3,492.6 		"/>
		<g>
			<path class="st4" d="M717.5,373.7c0-5,4.1-9.1,9.2-9.1c5.1,0,9.2,4,9.2,9.1c0,5-4.1,9.1-9.2,9.1
				C721.6,382.8,717.5,378.8,717.5,373.7"/>
			<polyline class="st4" points="629,348.4 704.1,348.4 720.6,364.6 			"/>
		</g>
		<line class="st4" x1="628.4" y1="350" x2="628.4" y2="425.8"/>
		<polyline class="st4" points="627.8,377.8 664.5,377.8 687.5,400.6 687.5,477.5 		"/>
		<path class="st4" d="M723.5,492.2c5.1,0,9.2-4,9.2-9.1c0-5-4.1-9.1-9.2-9.1c-5.1,0-9.2,4-9.2,9.1
			C714.4,488.1,718.5,492.2,723.5,492.2"/>
		<path class="st4" d="M628.5,444.7c5.1,0,9.2-4,9.2-9.1c0-5-4.1-9.1-9.2-9.1c-5.1,0-9.2,4-9.2,9.1
			C619.3,440.7,623.4,444.7,628.5,444.7"/>
	</g>
	<g class="st1">
		<g>
			<g>
				<path class="st2" d="M427.9,1155.9c0-3.5-2.9-6.4-6.3-6.4c-3.5,0-6.3,2.9-6.3,6.4s2.9,6.4,6.3,6.4S427.9,1159.4,427.9,1155.9"/>
				<path class="st2" d="M461.3,1205.2c0-3.5-2.9-6.4-6.3-6.4c-3.5,0-6.3,2.9-6.3,6.4s2.9,6.4,6.3,6.4
					C458.6,1211.6,461.3,1208.7,461.3,1205.2"/>
				<polyline class="st2" points="405.7,1085.9 421.4,1101 421.4,1149.8 				"/>
			</g>
			<polyline class="st2" points="457.5,1199.3 457.5,1179.2 441.7,1163.3 441.7,1085.3 458.2,1068.6 458.2,1032.7 480.1,1032.7 			
				"/>
			<g>
				<path class="st2" d="M498.6,1153.2c0-3.4,2.8-6.3,6.2-6.3c3.4,0,6.2,2.9,6.2,6.3c0,3.4-2.8,6.3-6.2,6.3
					C501.4,1159.5,498.6,1156.7,498.6,1153.2"/>
				<polyline class="st2" points="449.9,1077 458.3,1085.4 458.3,1112.2 494.2,1112.2 505.2,1123.2 505.5,1146 				"/>
			</g>
			<g>
				<path class="st2" d="M539.8,1029c0-5,4-9,8.9-9c4.9,0,8.9,4,8.9,9c0,5-4,9-8.9,9C543.8,1038,539.8,1033.9,539.8,1029"/>
				<polyline class="st2" points="480.1,1003.8 480.1,1055.3 520.5,1096.1 549.1,1096.1 548.7,1038.2 				"/>
			</g>
		</g>
		<path class="st2" d="M604.6,1224.3c3.5,0,6.3-2.9,6.3-6.4s-2.9-6.4-6.3-6.4c-3.5,0-6.3,2.9-6.3,6.4
			C598.2,1221.5,601.1,1224.3,604.6,1224.3"/>
		<path class="st2" d="M622.7,1158.9c0,5,4,9,8.9,9c4.9,0,8.9-4,8.9-9c0-5-4-9-8.9-9C626.7,1149.9,622.7,1154,622.7,1158.9"/>
		<polyline class="st2" points="626.6,1166.9 610.6,1182.9 537.7,1182.9 497.2,1223.8 497.2,1275.2 593,1275.2 		"/>
		<g>
			<path class="st2" d="M712.2,1250.1c4.9,0,8.9,4,8.9,9s-4,9-8.9,9s-8.9-4-8.9-9C703.3,1254.1,707.2,1250.1,712.2,1250.1"/>
			<polyline class="st2" points="737,1163.4 737,1236.9 721.1,1253.1 			"/>
		</g>
		<line class="st2" x1="735.4" y1="1162.7" x2="661.2" y2="1162.7"/>
		<polyline class="st2" points="708.1,1162.2 708.1,1198.1 685.7,1220.7 610.4,1220.7 		"/>
		<path class="st2" d="M593.4,1275.5c0,5,4,9,8.9,9c4.9,0,8.9-4,8.9-9s-4-9-8.9-9C597.4,1266.5,593.4,1270.5,593.4,1275.5"/>
	</g>
	<g class="st1">
		<path class="st2" d="M692,1020.1c-3.4,0-6.2,2.9-6.2,6.3c0,3.4,2.8,6.3,6.2,6.3s6.2-2.9,6.2-6.3
			C698.4,1022.9,695.5,1020.1,692,1020.1"/>
	</g>
	<path class="st3" d="M604.9,1091.5c-4.9,0-8.9,4-8.9,9c0,5,4,9,8.9,9c4.9,0,8.9-4,8.9-9C613.8,1095.5,609.8,1091.5,604.9,1091.5"/>
	<polyline class="st3" points="581,1005.7 581,1079.4 597.1,1095.5 	"/>
	<line class="st3" x1="597.5" y1="1026.4" x2="685.8" y2="1026.4"/>
	<polyline class="st3" points="617.3,1054.2 659.5,1054.2 667.6,1064.4 723.4,1064.4 723.4,998.3 	"/>
	<g class="st1">
		<path class="st2" d="M619.3,1006.4c5.6,0,10.1-4.6,10.1-10.2c0-5.6-4.6-10.2-10.1-10.2c-5.6,0-10.1,4.6-10.1,10.2
			C609.1,1001.8,613.7,1006.4,619.3,1006.4"/>
		<polyline class="st2" points="738.5,980.6 684,980.6 668.6,996.2 629.4,996.2 		"/>
	</g>
	<polyline class="st3" points="741.5,1095.5 693.2,1095.5 685.6,1103.2 643.6,1103.2 	"/>
	<path class="st3" d="M636.6,1109.5c3.5,0,6.3-2.9,6.3-6.4c0-3.5-2.9-6.4-6.3-6.4c-3.5,0-6.3,2.9-6.3,6.4
		C630.3,1106.6,633.1,1109.5,636.6,1109.5"/>
	<path class="st3" d="M684,1129.2c-3.4,0-6.2-2.9-6.2-6.3c0-3.4,2.8-6.3,6.2-6.3"/>
	<path class="st3" d="M684,1116.5c3.4,0,6.2,2.9,6.2,6.3c0,3.4-2.8,6.3-6.2,6.3"/>
	<polyline class="st3" points="724.7,1095.4 724.7,1112.2 713.7,1123.2 691.3,1123.5 	"/>
	<path class="st3" d="M611.1,1047.9c3.4,0,6.2,2.9,6.2,6.3c0,3.4-2.8,6.3-6.2,6.3s-6.2-2.9-6.2-6.3
		C604.8,1050.6,607.7,1047.9,611.1,1047.9"/>
</g>
<g class="st5">
	<path class="st6" d="M263.5,1137.6c1.9-0.1,3.8-0.2,5.8-0.2c130.3,0,260.6,0,390.9,0c14.9,0,23.6,8.4,24.1,23.1
		c0,57.8,0,115.6,0,173.4c-210.2,0-420.5,0-630.7,0c0-35.8,0-71.6,0.1-107.3c1.7,0,3.5,0.1,5.2,0.1c66.1,0,132.2,0,198.4,0
		c1,0,2.1-0.1,3.1,0c2.4,0.2,3.4-0.5,3.4-3.2C263.6,1195,263.6,1166.3,263.5,1137.6z M128.2,1300.5c0-2.4,0-4.6,0-6.8
		c0-1.4,0.3-2.9-2-2.8c-1.8,0.1-1.8,1.3-1.8,2.6c0,7,0,14,0,21c0,1.4-0.1,2.9,2.1,2.8c2.3-0.1,1.6-1.8,1.7-3.1
		c0.1-2.8-0.1-5.6,0.1-8.4c0.2-2.7,2.4-4,4.7-4.1c2.4-0.1,2.8,2.2,2.8,4.2c0,3,0.1,5.9,0.1,8.9c0,1.3,0.2,2.4,1.9,2.4
		c1.8,0,1.9-1.1,1.9-2.4c0-2.1,0-4.2,0-6.3C139.6,1299.4,137.3,1297.7,128.2,1300.5z M160.7,1310.5c0-9.7-1.6-11.9-8.5-11.2
		c-2,0.2-5.2,0.4-4.7,2.6c0.7,3,2.9-0.1,4.5-0.1c0.2,0,0.3-0.1,0.5-0.2c2-0.4,3.6,0.4,4,2.3c0.6,2.5-1.8,1.4-2.8,1.8
		c-1.9,0.8-4,1.3-5.7,2.4c-2,1.2-2.4,3.3-1.9,5.5c0.4,1.8,1.7,3,3.5,3.5c3.3,0.8,6.5-1.6,9.9-0.1c0.9,0.4,1.1-1,1.1-1.9
		C160.7,1313.6,160.7,1312.1,160.7,1310.5z M550.7,1191.1c4.5,0,7.9-0.8,8.5-5.2c0.6-4.4-2.9-5.5-6.2-6.4c-0.7-0.2-1.4-0.2-2-0.4
		c-1.6-0.7-4.4-0.9-3.2-3.6c1-2.2,3.3-2.2,5.5-1.5c1.1,0.4,1.8,1,2.3,2c0.5,1.1,1.4,1.8,2.5,1.1c1.4-1,0.4-2.3-0.2-3.2
		c-2.4-3.3-6-3.4-9.5-2.5c-2.3,0.6-4,2.2-4.1,4.8c-0.1,2.4,1.4,3.9,3.5,4.7c2,0.7,4,1.2,6,1.8c1.4,0.4,2.6,1.2,2.4,2.9
		c-0.1,1.7-1.5,2.3-2.8,2.7c-2.2,0.8-4.1-0.1-5.8-1.3c-1.1-0.8-1.7-3.6-3.4-1.6c-1.4,1.6,0.6,3.2,1.9,4.2
		C547.5,1190.8,549.4,1191.2,550.7,1191.1z M194.1,1317.2c0.3,0,1.6,0,2.7-0.5c0.8-0.3,2.3-0.3,2-1.8c-0.3-1.5-1.5-1.1-2.5-0.8
		c-1,0.3-2,0.9-3,0.8c-2.6-0.3-5-1.8-5-4.5c0-3,2.9-1.2,4.4-1.6c1-0.2,2.1-0.2,3.1,0c4.9,0.7,4.6-2.2,3.5-5.3
		c-0.9-2.5-2.7-3.9-5.4-4.3c-5.4-0.6-9.5,2.8-9.8,8.4C183.7,1313.5,187.3,1317.2,194.1,1317.2z M349.9,1181.5
		C349.9,1181.5,349.9,1181.5,349.9,1181.5c0-2.4,0.1-4.9,0-7.3c0-1.1,0.4-2.8-1.3-2.9c-2.3-0.2-1.9,1.8-1.7,3
		c0.7,4.8-1.7,5.2-5.7,5.3c-4.7,0.1-3.9-2.7-4-5.4c0-1.2,0.3-2.6-1.4-2.9c-1.1-0.2-1.6,0.6-1.6,1.5c0,5.6,0,11.2,0,16.8
		c0,0.7,0.4,1.3,1.2,1.4c1.1,0.1,1.6-0.6,1.7-1.6c0.1-1,0.2-2.1,0.1-3.1c-0.6-4,1.5-4.5,4.9-4.5c3.6,0,5.3,0.9,4.8,4.7
		c-0.1,0.9,0,1.7,0,2.6c0.1,0.9,0.2,1.8,1.3,1.9c1.5,0.1,1.7-0.9,1.7-2C349.9,1186.4,349.9,1184,349.9,1181.5z M172.5,1317.3
		c3.2,0.1,6.1-0.6,7-4.1c0.9-3.8-2.1-5.1-4.9-6.3c-0.8-0.3-1.7-0.6-2.4-1c-1.1-0.6-2.3-1.3-1.5-2.8c0.6-1.2,1.7-1.8,3-1.5
		c0.7,0.1,1.3,0.5,1.9,0.7c1,0.4,2.2,0.7,2.7-0.5c0.6-1.8-1.2-2.1-2.1-2.2c-3.4-0.5-7.4-1.3-9.1,2.9c-1.9,4.6,2.1,5.5,5.1,6.9
		c1.7,0.8,4.3,1.1,3.4,3.7c-0.8,2.6-3.1,2.2-5.2,1.3c-1.2-0.5-3.1-2.5-3.9-0.1c-0.8,2.4,2,2.2,3.4,2.8
		C170.6,1317.4,171.6,1317.2,172.5,1317.3z M71.6,1323.6c6.7,1.5,8.2,0.5,8.4-5.5c0.2-5.2,0.1-10.5,0-15.7c0-1.3,0.5-2.9-1.7-3
		c-2.6-0.1-2.2,1.6-2.2,3.2c0,4.5,0,9.1,0,13.6C76.1,1319.3,76.7,1322.8,71.6,1323.6z M363.4,1183.7c0,1.6,0,3.1,0,4.7
		c0,1.2-0.2,2.7,1.7,2.5c1.4-0.1,1.2-1.5,1.3-2.5c0.1-2.3,0.1-4.5,0.3-6.8c0.2-1.7,1.3-2.9,3-3c2-0.1,2.6,1.5,2.7,3.2
		c0.1,2.3,0,4.5,0.1,6.8c0,1,0,2.2,1.5,2.3c1.5,0.1,1.5-1.2,1.5-2.2c0-2.1,0-4.2,0-6.3c0.1-3.9-1.2-6.4-5.7-6.2
		c-3.8,0.2-7.8,0-6.4,5.8C363.5,1182.6,363.4,1183.2,363.4,1183.7z M114.7,1317.1c-0.3,0,0.8,0.1,1.7-0.3c1-0.4,2.8-0.5,2.2-2.3
		c-0.6-1.9-1.9-1-2.9-0.4c-2.7,1.6-4.8,0.6-6.3-1.6c-1.8-2.7-1.8-5.7-0.1-8.4c1.4-2.2,3.4-3.5,6.2-1.7c1,0.6,2.1,0.7,2.7-0.5
		c0.8-1.9-1.1-2.1-1.9-2.3c-3.5-0.7-7-0.7-9.6,2.4c-2.6,3.1-3,6.6-1.5,10.3C106.5,1315.9,109.4,1317.5,114.7,1317.1z M94,1317.3
		c1.8-0.1,2.5,0,3.2-0.2c1.4-0.4,3.8-0.4,3.3-2.4c-0.6-2.7-2.4-0.8-3.7-0.2c-2.4,1-4.2-0.1-5.4-1.9c-1.9-2.6-1.8-5.6-0.2-8.4
		c1.2-2,3-3.5,5.6-2.2c1.3,0.6,2.9,1.5,3.3-0.5c0.4-1.7-1.6-2-2.9-2.2c-3.6-0.5-7-0.1-9.3,3.2c-2.2,3.1-2.4,6.5-0.9,9.9
		C88.6,1315.9,91.4,1317.5,94,1317.3z M585.6,1191.1c0-3.5,0-6.6,0-9.7c0-2.5-0.8-4.5-3.5-5c-2.8-0.4-5.6-0.5-7.6,2.1
		c-0.6,0.8-1.3,1.9-0.3,2.7c0.7,0.6,1.7,0.3,2.2-0.6c1.2-1.8,2.7-2.8,4.8-1.7c0.5,0.2,1.1,1.3,1,1.6c-1,2-3.1,1.7-4.9,2.1
		c-2.7,0.6-4.6,2-4.2,5c0.5,3,2.8,3.9,5.5,3.5C581,1190.7,583.2,1190,585.6,1191.1z M218.1,1300c-4.8,0-8.9,0-14.1,0
		c3.3,2.5,6.1,0.6,8.7,2.1c-3,4.9-6,9.7-9.4,15.3c5.7-0.6,10.4,0.4,16.2-1c-4-2.2-7.2-0.7-10.5-1.8
		C212.1,1309.6,215.1,1304.8,218.1,1300z M394.6,1191.1c3.5,0,5.9-0.9,6.4-3.7c0.7-3.5-2-4.2-4.6-5.1c-1.3-0.5-4.3-0.2-3.4-2.7
		c0.8-2.1,2.9-1.1,4.4,0.1c0.9,0.7,2,1.3,2.7,0.1c0.6-1-0.4-2-1.3-2.5c-2.2-1.4-4.6-1.4-7-0.4c-1.6,0.7-2.5,2-2.3,3.7
		c0.3,2.8,2.6,3.4,4.8,4.1c1.5,0.4,3.2,0.4,3.6,2.3c0.1,0.4-0.7,1.2-1.3,1.5c-1.4,0.7-2.7,0.3-3.8-0.8c-0.9-0.9-1.9-3-3.1-1.3
		c-1.2,1.7,0.5,3.2,2.1,4C392.9,1190.9,394.2,1191,394.6,1191.1z M605.8,1176.3c-2.6,0-5,0.6-5.6,3.6c-0.5,2.9,1.7,3.9,3.9,4.7
		c0.8,0.3,1.7,0.3,2.5,0.7c0.9,0.4,2.2,0.7,1.7,2.1c-0.5,1.4-1.8,1.8-3,1.4c-0.9-0.3-1.8-1-2.5-1.7c-0.8-0.8-1.6-1.7-2.6-0.8
		c-1,0.9-0.2,2,0.4,2.8c1.9,2.4,4.6,2.4,7.2,1.9c2.2-0.5,3.8-1.9,3.8-4.4c-0.1-2.9-2.5-3.3-4.6-4.2c-1.3-0.5-4.4-0.1-3.4-2.7
		c0.8-2.1,2.9-1.1,4.4,0c0.9,0.7,2,1.3,2.6,0c0.5-1-0.5-1.9-1.4-2.5C608.2,1176.4,607,1176.2,605.8,1176.3z M570.1,1190.5
		c-3.3-4-3.9-7.9-1.2-12.1c1.7-2.6-2.7-3.3-1.9-5.7c-1.9-0.2-2.4,1.1-2.5,2.6c-0.2,4.9-0.5,9.8,1,14.6
		C566.1,1191.5,568.1,1191.3,570.1,1190.5z M596.6,1190.4c-3.3-4-4-7.8-1.2-12.1c1.6-2.5-2.7-3.3-2-5.7c-1.9,0-2.2,1.4-2.5,2.8
		c-1,5,0,9.8,1.2,14.6C592.5,1191.5,594.7,1191.3,596.6,1190.4z M382.6,1171.9c-4.7,6.1-1.2,11.9-1.1,17.4c0,2.1,2.7,2.2,5.1,1.1
		c-3.8-2.6-3.8-6.8-2.5-9.7C385.6,1177.2,384.2,1175.2,382.6,1171.9z M358.4,1183.9c-1-2.4,1.4-7.1-1.7-7.1c-3,0-1.3,4.6-1.4,7
		c0,2.3-1.4,6.6,1.3,6.6C359.6,1190.5,357.6,1186.2,358.4,1183.9z M78.1,1295.1c1.4-0.1,2.5-0.6,2.3-2.1c-0.1-1.4-1.1-2.1-2.6-2
		c-1.2,0.1-2,0.8-2.1,2C75.7,1294.5,76.7,1295.1,78.1,1295.1z"/>
	<path class="st7" d="M53.6,1226.7c-0.1-22-0.2-44.1-0.3-66.1c-0.3-15.6,11.3-23.1,24.4-23c61.9,0.3,123.8,0.1,185.7,0.1
		c0.1,28.7,0.1,57.4,0.3,86c0,2.6-1,3.4-3.4,3.2c-1-0.1-2.1,0-3.1,0c-66.1,0-132.2,0-198.4,0C57.1,1226.8,55.4,1226.7,53.6,1226.7z
		 M102,1176.3c-2.1,4.7-4.1,9.4-5.3,14.5c2.5,0.3,2.8-1.3,3-2.5c0.5-3.1,2.4-3.5,5.2-3.6c3.3-0.1,5.3,0.7,6,4.1
		c0.2,1.1,0.7,2.8,2.3,2c1.6-0.8,0.2-2.1-0.2-3.1c-1.9-4.9-4-9.7-5.9-14.5c-0.2-1.4-0.8-2.6-2.3-2.1
		C102.4,1171.9,102.6,1174.4,102,1176.3z M163.6,1191c0.6,0,1.2-0.1,1.8-0.1c0-3-0.2-6.1,0.1-9.1c0.1-1.9,1.3-3.3,3.5-3.1
		c2.1,0.1,2.3,1.7,2.4,3.4c0.2,3-0.5,6,1.1,8.9c1.4-4,1.4-8,0.6-12c-0.5-2.3-2.8-3.3-5.1-2.3c-2,0.9-3.4,1.3-5.6,0.2
		c-2.3-1.2-7.3-0.1-7.5,0.7c-0.7,4.4-0.4,9-0.4,13.5c0.7,0,1.5,0,2.2,0c0-2.6-0.1-5.3,0-7.9c0.1-2.4,0.7-4.8,3.8-4.5
		c2.9,0.2,2.1,2.7,2.3,4.5C163.2,1185.7,162.3,1188.5,163.6,1191z M179,1196.6c3.9-1.5-0.1-6.4,4.5-5.8c3.1,0.4,5.2-0.5,6.6-2.9
		c1.6-2.7,1.4-5.7,0.1-8.5c-2.1-4.5-6.1-2.2-9.4-2.7c-1.1-0.2-1.7,0.1-1.7,1.2C178.9,1183.9,179,1190,179,1196.6z M149.1,1187.3
		c-2.2-0.7-3,1.5-4.5,1.6c-1.6,0.1-3.2,0.2-4.4-1.2c-0.6-0.6-1.3-1.5-0.6-2.3c1-1.2,2.6-0.4,3.9-0.6c1-0.1,2.1-0.1,3.1,0
		c3.1,0.4,3.3-1.4,2.4-3.5c-1.2-2.9-2.9-5.4-6.5-4.9c-3.6,0.5-5.5,2.9-5.8,6.4c-0.3,3.7,0.8,6.7,4.6,7.9
		C144.6,1191.6,147.4,1190.9,149.1,1187.3z M215.8,1180.6c-1.5-4.2-4.1-4.7-7-4.1c-2,0.4-3.6,1.6-3.6,3.9c0.1,3.3,2.9,3.5,5.2,4.3
		c0.5,0.2,1,0.2,1.5,0.4c1,0.4,2.1,0.9,1.8,2.2c-0.3,1.1-1.3,1.4-2.4,1.7c-2.8,0.8-3.5-2.4-6-3.1c-0.2,4,2.2,5.1,5.1,5.2
		c2.6,0.2,5-0.8,5.7-3.6c0.8-3.3-1.8-4.1-4.2-4.9c-1.6-0.5-3.6-0.4-4.3-2.4c-0.1-0.3,0.4-1,0.7-1.2c1.9-0.9,3.7-0.7,5.2,0.9
		C213.7,1180.2,214.3,1180.2,215.8,1180.6z M124.1,1190.2c-4.7-2.7-4.3-8.1-2.7-10.1c2.9-3.8-1-4.7-1.4-7c-3.6,5.4-0.5,11-0.6,16.4
		C119.4,1191,121.6,1191.5,124.1,1190.2z M129.4,1173.1c-3.6,5.3-0.6,11-0.6,16.4c0,1.6,2.4,2.1,4.7,0.5c-5.2-2.4-4.2-7.9-2.8-9.9
		C133.6,1176.4,129.7,1175.4,129.4,1173.1z M197.7,1172c-3.4,6.6-0.8,12.2-0.4,17.6c0.1,1.5,2.3,1.8,4.3,0.6c-4.2-2.5-4-7.3-2.5-9.9
		C201.1,1176.9,198.8,1175.4,197.7,1172z"/>
	<path class="st8" d="M326.3,58.2c-2,9.5-4,18.6-5.7,27.8c-0.7,3.7-1.7,5.3-5.9,5.2c-11.1-0.3-11.1-0.1-13-10.9
		c-2.4-13.3-4.8-26.5-7.4-39.7c-0.6-3.1-0.5-4.3,3.2-4.3c9.3,0,9.3-0.2,10.6,9.1c1.4,9.9,2.9,19.7,5,29.6c1.8-8.1,3.6-16.1,5.4-24.2
		c0.7-3.1,1.8-6.1,2-9.2c0.4-4.2,2.2-5.2,6.4-5.4c4.9-0.2,6.6,1.5,7.4,6.1c1.8,9.6,4.1,19.2,6.2,28.7c0.2,0.9,0.5,1.8,1.9,2.6
		c0.8-5.6,1.6-11.1,2.4-16.7c0.8-5.4,1.8-10.7,2.2-16.1c0.3-3.6,1.7-5,5.2-4.5c1.4,0.2,2.8,0.1,4.2,0c2.7-0.3,3.7,0.4,3.1,3.4
		c-3,16.2-5.8,32.4-8.7,48.6c-0.1,0.5-0.1,1.3-0.4,1.5c-4.5,2.6-9.4,0.7-14.1,1.2c-2.6,0.3-2.5-2-2.8-3.6
		c-1.9-8.4-3.6-16.8-5.4-25.2C327.8,61,327.9,59.5,326.3,58.2z"/>
	<path class="st8" d="M193.8,63.7c0-7.7,0.2-15.4-0.1-23.1c-0.1-3.5,1-4.4,4.5-4.4c8.7,0.1,8.7-0.1,8.7,8.4c0,12.7,0,12.5,12.7,12.8
		c4.6,0.1,6.3-1.1,5.7-5.7c-0.4-2.6-0.3-5.3,0-7.9c0.2-2.5-1.5-6.2,1.1-7.1c3.1-1.1,6.9-0.4,10.4-0.3c1.7,0.1,1.5,1.7,1.5,2.8
		c0,16.3,0,32.5,0,48.8c0,2.3-0.9,2.9-3.1,3c-10,0.7-10,0.8-10-9.2c0-14.5,0-14.4-14.5-14.1c-2.9,0.1-3.9,0.8-3.8,3.8
		c0.2,5.2-0.1,10.5,0.1,15.7c0.1,2.6-0.6,3.6-3.5,3.7c-9.6,0.3-9.6,0.4-9.6-9.1C193.8,75.9,193.8,69.8,193.8,63.7z"/>
	<path class="st8" d="M412.9,90.4c-10,2.8-16.2-0.3-19.8-9.5c-1.6-4.2-4.4-7.9-6.8-12c-4.3,3.8-6.7,7.9-6.3,13.8
		c0.5,8.5,0.1,8.5-8.5,8.4c-0.2,0-0.4,0-0.5,0c-2.8,0.4-4-0.6-4-3.7c0.1-15.7,0.1-31.5,0-47.2c0-3,0.9-3.8,3.9-3.8
		c9.3-0.1,9.3-0.3,9.3,8.9c0,3.6,0,7.2,0,12c4.8-4.7,8-9.2,10.7-13.8c3.3-5.7,7.6-8.2,14.1-7c1.3,0.2,2.8,0,5.4,0
		c-4.8,6.3-8.8,12.1-13.4,17.4c-2.7,3.2-2.8,5.6-0.5,9.1C402.1,71.8,407.3,81.1,412.9,90.4z"/>
	<path class="st8" d="M244,91c-0.1-3.4,1.3-6.1,2.2-8.9c4.3-14,8.9-28,13.1-42.1c0.9-2.8,2-3.8,5-3.8c11.5,0,11.5-0.2,15,10.9
		c4.1,13,8.2,26,12.2,39c0.5,1.5,0.8,2.9,1.2,4.6c-1.4,0.1-2.4,0.2-3.4,0.2c-9.6,0.1-9.7,0.2-12.3-9.1c-0.7-2.7-1.8-3.9-4.6-3.5
		c-0.7,0.1-1.4,0-2.1,0c-10,0-10.1,0-13,9.6c-0.7,2.2-1.5,3.3-3.9,3.1C250.4,90.9,247.3,91,244,91z M273.5,68.4
		c-1.7-6.6-3.4-13.2-5-19.8c-1.9,3.8-2.8,7.5-3.7,11.2C262.2,70.1,262.2,70.1,273.5,68.4z"/>
	<path class="st8" d="M418.6,63.2c0-7.5,0.1-15-0.1-22.6c-0.1-2.9,0.4-4.4,3.9-4.3c9.1,0.3,18.2,0.3,27.3,0c4.9-0.2,3.7,2.9,3.8,5.4
		c0,2.7,0.8,5.7-3.9,5.3c-4.9-0.4-9.8,0-14.7-0.1c-2.5-0.1-3.2,0.8-3.3,3.3c-0.4,8.3-0.5,8.3,7.7,8.3c1.7,0,3.5,0.2,5.2,0
		c4.7-0.8,5.9,1.1,5.7,5.7c-0.2,3.4-1.2,4.3-4.3,3.9c-1.9-0.2-3.8,0-5.8,0c-9,0-8.8,0-8.6,9c0.1,3.2,1.3,3.8,4,3.7
		c5.1-0.2,10.2,0.2,15.2-0.1c5.1-0.3,3.3,3.3,3.4,5.6c0.2,2.4,1,5.2-3.5,5.1c-9.4-0.3-18.9-0.2-28.3,0c-2.9,0-4-0.8-3.9-3.8
		C418.7,79.2,418.6,71.2,418.6,63.2z"/>
	<path class="st8" d="M509,63.4c0-7.7,0.1-15.4-0.1-23.1c-0.1-2.8,0.5-4.1,3.7-4c9.3,0.2,18.5,0.3,27.8,0c5.1-0.1,3.3,3.4,3.4,5.7
		c0.2,2.5,0.8,5.3-3.6,5c-4.9-0.4-9.8,0.1-14.7-0.1c-2.8-0.1-3.5,0.9-3.6,3.6c-0.2,8-0.3,8,7.5,8c1.7,0,3.5,0,5.2,0
		c5.5,0,7.4,2.8,5.8,8c-0.6,1.7-1.7,1.4-2.8,1.4c-4,0-8.1,0.2-12.1,0c-2.7-0.1-3.5,0.8-3.6,3.5c-0.3,9.1-0.4,9.1,8.5,9.1
		c2.8,0,5.6,0.3,8.4-0.1c4.9-0.7,6.3,1.2,6,5.9c-0.2,3.4-0.6,4.9-4.5,4.8c-9.3-0.3-18.5-0.2-27.8,0c-2.7,0-3.6-0.8-3.6-3.6
		C509.1,79.5,509,71.4,509,63.4z"/>
	<path class="st8" d="M457.7,36.3c4,0,7.1,0.2,10.2-0.1c2.8-0.2,4,0.9,4.9,3.4c2.3,6.6,4.9,13.1,7.9,20.7c2.8-7,5.4-12.9,7.4-19.1
		c1.3-4,3.3-5.7,7.5-5.1c2.4,0.3,4.8,0.1,8,0.1C499,46.4,495,56,490,65.2c-3.6,6.7-2.9,13.6-2.7,20.5c0.1,4.4-1.2,6.4-5.5,5.3
		c-2.6-0.7-8.2,2.8-7.3-3.1c2.3-16.1-6.3-28.6-12.3-42C460.8,42.8,459.4,39.9,457.7,36.3z"/>
	<path class="st9" d="M128.2,1300.5c9.1-2.8,11.5-1,11.5,8.1c0,2.1,0,4.2,0,6.3c0,1.3-0.2,2.4-1.9,2.4c-1.7,0-1.9-1.1-1.9-2.4
		c0-3,0-5.9-0.1-8.9c0-2-0.4-4.3-2.8-4.2c-2.3,0.1-4.5,1.4-4.7,4.1c-0.2,2.8,0,5.6-0.1,8.4c0,1.2,0.7,3-1.7,3.1
		c-2.1,0.1-2.1-1.4-2.1-2.8c0-7,0-14,0-21c0-1.2,0-2.5,1.8-2.6c2.3-0.1,2,1.4,2,2.8C128.2,1295.9,128.2,1298.1,128.2,1300.5z"/>
	<path class="st9" d="M160.7,1310.5c0,1.6,0,3.1,0,4.7c0,0.9-0.2,2.3-1.1,1.9c-3.4-1.6-6.6,0.9-9.9,0.1c-1.8-0.4-3.1-1.6-3.5-3.5
		c-0.5-2.2-0.2-4.3,1.9-5.5c1.8-1,3.8-1.5,5.7-2.4c1-0.4,3.4,0.7,2.8-1.8c-0.4-1.9-2-2.7-4-2.3c-0.2,0-0.3,0.2-0.5,0.2
		c-1.6,0-3.8,3.1-4.5,0.1c-0.5-2.2,2.8-2.4,4.7-2.6C159.1,1298.6,160.7,1300.7,160.7,1310.5z M156.7,1310.7
		c-0.2-1.1,0.4-2.7-1.8-2.2c-2.3,0.5-5.1,0.6-5.2,3.9c-0.1,1.5,1.1,2.7,2.7,2.5C154.7,1314.5,156.9,1313.7,156.7,1310.7z"/>
	<path class="st10" d="M550.7,1191.1c-1.3,0.1-3.2-0.3-4.7-1.5c-1.3-1.1-3.3-2.6-1.9-4.2c1.7-2,2.3,0.8,3.4,1.6
		c1.7,1.2,3.6,2.1,5.8,1.3c1.3-0.5,2.7-1,2.8-2.7c0.1-1.7-1-2.5-2.4-2.9c-2-0.6-4-1.1-6-1.8c-2.1-0.8-3.6-2.3-3.5-4.7
		c0.1-2.7,1.8-4.3,4.1-4.8c3.5-0.9,7-0.9,9.5,2.5c0.7,0.9,1.6,2.3,0.2,3.2c-1,0.7-2,0-2.5-1.1c-0.5-1-1.2-1.7-2.3-2
		c-2.2-0.7-4.5-0.7-5.5,1.5c-1.2,2.7,1.6,2.9,3.2,3.6c0.6,0.3,1.4,0.2,2,0.4c3.3,1,6.8,2.1,6.2,6.4
		C558.6,1190.3,555.1,1191.1,550.7,1191.1z"/>
	<path class="st9" d="M194.1,1317.2c-6.8,0-10.3-3.8-10-9.6c0.3-5.5,4.4-9,9.8-8.4c2.7,0.3,4.6,1.8,5.4,4.3c1.1,3.1,1.4,6-3.5,5.3
		c-1-0.1-2.1-0.2-3.1,0c-1.5,0.4-4.4-1.5-4.4,1.6c0,2.7,2.3,4.2,5,4.5c0.9,0.1,2-0.5,3-0.8c1-0.3,2.2-0.7,2.5,0.8
		c0.3,1.5-1.2,1.5-2,1.8C195.6,1317.2,194.3,1317.2,194.1,1317.2z M196.9,1306.6c-0.7-1.7-0.8-2.8-1.5-3.5c-1.4-1.6-3.1-2.1-5-0.8
		c-1.2,0.8-2.6,1.9-2.2,3.2c0.7,2.3,2.9,0.8,4.4,1.1C193.7,1306.8,195,1306.6,196.9,1306.6z"/>
	<path class="st10" d="M349.9,1181.5c0,2.4,0,4.9,0,7.3c0,1.1-0.3,2.1-1.7,2c-1.1-0.1-1.3-1-1.3-1.9c-0.1-0.9-0.1-1.8,0-2.6
		c0.5-3.8-1.2-4.7-4.8-4.7c-3.4,0-5.4,0.6-4.9,4.5c0.1,1,0,2.1-0.1,3.1c-0.1,1-0.6,1.6-1.7,1.6c-0.8,0-1.2-0.6-1.2-1.4
		c0-5.6,0-11.2,0-16.8c0-1,0.5-1.7,1.6-1.5c1.7,0.3,1.4,1.8,1.4,2.9c0.1,2.7-0.7,5.5,4,5.4c4-0.1,6.4-0.6,5.7-5.3
		c-0.2-1.2-0.5-3.2,1.7-3c1.7,0.2,1.3,1.8,1.3,2.9C350,1176.6,349.9,1179.1,349.9,1181.5C349.9,1181.5,349.9,1181.5,349.9,1181.5z"
		/>
	<path class="st9" d="M172.5,1317.3c-0.9-0.1-1.8,0.1-2.6-0.2c-1.4-0.6-4.2-0.5-3.4-2.8c0.8-2.4,2.6-0.4,3.9,0.1
		c2.2,0.9,4.4,1.3,5.2-1.3c0.8-2.6-1.8-2.9-3.4-3.7c-3-1.4-6.9-2.3-5.1-6.9c1.7-4.2,5.6-3.4,9.1-2.9c0.9,0.1,2.8,0.5,2.1,2.2
		c-0.4,1.3-1.7,0.9-2.7,0.5c-0.7-0.2-1.3-0.6-1.9-0.7c-1.4-0.3-2.4,0.3-3,1.5c-0.8,1.5,0.4,2.2,1.5,2.8c0.8,0.4,1.6,0.6,2.4,1
		c2.8,1.2,5.8,2.4,4.9,6.3C178.6,1316.7,175.7,1317.4,172.5,1317.3z"/>
	<path class="st9" d="M71.6,1323.6c5.1-0.7,4.5-4.2,4.4-7.5c0-4.5,0-9.1,0-13.6c0-1.5-0.3-3.3,2.2-3.2c2.3,0.1,1.7,1.8,1.7,3
		c0,5.2,0.1,10.5,0,15.7C79.8,1324,78.4,1325.1,71.6,1323.6z"/>
	<path class="st10" d="M363.4,1183.7c0-0.5,0.1-1.1,0-1.6c-1.4-5.8,2.6-5.6,6.4-5.8c4.5-0.3,5.8,2.3,5.7,6.2c0,2.1,0,4.2,0,6.3
		c0,1,0,2.3-1.5,2.2c-1.4-0.1-1.4-1.3-1.5-2.3c-0.1-2.3,0-4.5-0.1-6.8c-0.1-1.7-0.6-3.2-2.7-3.2c-1.8,0.1-2.9,1.3-3,3
		c-0.2,2.2-0.2,4.5-0.3,6.8c0,1,0.1,2.3-1.3,2.5c-1.9,0.2-1.7-1.3-1.7-2.5C363.4,1186.8,363.4,1185.2,363.4,1183.7z"/>
	<path class="st9" d="M114.7,1317.1c-5.3,0.4-8.2-1.2-9.7-4.9c-1.5-3.7-1.1-7.2,1.5-10.3c2.6-3,6.1-3.1,9.6-2.4
		c0.8,0.2,2.8,0.4,1.9,2.3c-0.6,1.2-1.7,1.1-2.7,0.5c-2.7-1.7-4.8-0.5-6.2,1.7c-1.7,2.7-1.8,5.7,0.1,8.4c1.5,2.2,3.6,3.2,6.3,1.6
		c1-0.6,2.3-1.5,2.9,0.4c0.6,1.8-1.2,1.9-2.2,2.3C115.5,1317.2,114.4,1317.2,114.7,1317.1z"/>
	<path class="st9" d="M94,1317.3c-2.7,0.2-5.4-1.4-6.9-4.8c-1.5-3.4-1.3-6.8,0.9-9.9c2.3-3.3,5.7-3.7,9.3-3.2
		c1.3,0.2,3.2,0.4,2.9,2.2c-0.4,2-2,1.2-3.3,0.5c-2.6-1.3-4.4,0.2-5.6,2.2c-1.6,2.7-1.7,5.7,0.2,8.4c1.2,1.7,3,2.9,5.4,1.9
		c1.2-0.5,3.1-2.4,3.7,0.2c0.4,1.9-2,1.9-3.3,2.4C96.5,1317.3,95.8,1317.2,94,1317.3z"/>
	<path class="st10" d="M585.6,1191.1c-2.4-1.1-4.7-0.4-7-0.1c-2.7,0.4-5-0.5-5.5-3.5c-0.5-3,1.5-4.4,4.2-5c1.8-0.4,3.9,0,4.9-2.1
		c0.2-0.3-0.5-1.4-1-1.6c-2.1-1-3.7-0.1-4.8,1.7c-0.6,0.9-1.5,1.2-2.2,0.6c-1-0.8-0.4-1.9,0.3-2.7c2-2.6,4.8-2.5,7.6-2.1
		c2.7,0.4,3.6,2.4,3.5,5C585.6,1184.5,585.6,1187.6,585.6,1191.1z M582.2,1186.6c0.3-1.1,0-2-1.1-1.9c-1.8,0.1-4.1-0.6-4.8,1.9
		c-0.4,1.2,0.6,2,1.7,2.2C579.9,1189,581.4,1188.2,582.2,1186.6z"/>
	<path class="st9" d="M218.1,1300c-3,4.9-6,9.6-9.1,14.6c3.3,1.1,6.5-0.4,10.5,1.8c-5.8,1.5-10.5,0.5-16.2,1
		c3.5-5.6,6.4-10.4,9.4-15.3c-2.6-1.5-5.5,0.3-8.7-2.1C209.2,1300,213.4,1300,218.1,1300z"/>
	<path class="st10" d="M394.6,1191.1c-0.4-0.1-1.7-0.2-2.7-0.7c-1.6-0.8-3.4-2.3-2.1-4c1.3-1.7,2.2,0.4,3.1,1.3
		c1.1,1.1,2.4,1.5,3.8,0.8c0.6-0.3,1.3-1.1,1.3-1.5c-0.4-1.9-2.1-1.9-3.6-2.3c-2.2-0.6-4.5-1.2-4.8-4.1c-0.2-1.8,0.8-3.1,2.3-3.7
		c2.4-1,4.7-1,7,0.4c0.9,0.6,1.9,1.5,1.3,2.5c-0.7,1.2-1.8,0.6-2.7-0.1c-1.5-1.2-3.6-2.1-4.4-0.1c-1,2.5,2,2.2,3.4,2.7
		c2.6,0.9,5.3,1.7,4.6,5.1C400.4,1190.2,398.1,1191.1,394.6,1191.1z"/>
	<path class="st10" d="M605.8,1176.3c1.2,0,2.4,0.1,3.5,0.9c0.9,0.6,1.8,1.5,1.4,2.5c-0.6,1.3-1.7,0.7-2.6,0c-1.5-1.1-3.6-2.2-4.4,0
		c-1,2.6,2.1,2.2,3.4,2.7c2.2,0.9,4.5,1.3,4.6,4.2c0.1,2.5-1.6,3.9-3.8,4.4c-2.6,0.6-5.3,0.6-7.2-1.9c-0.6-0.8-1.4-1.9-0.4-2.8
		c1-0.9,1.8-0.1,2.6,0.8c0.7,0.7,1.6,1.5,2.5,1.7c1.2,0.4,2.5,0,3-1.4c0.5-1.4-0.8-1.7-1.7-2.1c-0.8-0.3-1.7-0.4-2.5-0.7
		c-2.2-0.8-4.5-1.8-3.9-4.7C600.8,1176.8,603.1,1176.2,605.8,1176.3z"/>
	<path class="st10" d="M570.1,1190.5c-2.1,0.8-4.1,1-4.6-0.7c-1.5-4.7-1.2-9.7-1-14.6c0.1-1.4,0.6-2.8,2.5-2.6
		c-0.8,2.4,3.6,3.1,1.9,5.7C566.3,1182.6,566.9,1186.5,570.1,1190.5z"/>
	<path class="st10" d="M596.6,1190.4c-1.9,0.9-4.2,1.1-4.5-0.5c-1.1-4.7-2.1-9.6-1.2-14.6c0.3-1.4,0.6-2.8,2.5-2.8
		c-0.6,2.4,3.6,3.2,2,5.7C592.7,1182.6,593.3,1186.4,596.6,1190.4z"/>
	<path class="st10" d="M382.6,1171.9c1.6,3.3,3,5.3,1.4,8.8c-1.3,2.9-1.3,7.1,2.5,9.7c-2.4,1.1-5,1.1-5.1-1.1
		C381.4,1183.8,377.9,1177.9,382.6,1171.9z"/>
	<path class="st10" d="M358.4,1183.9c-0.8,2.3,1.2,6.6-1.7,6.6c-2.7,0-1.4-4.3-1.3-6.6c0-2.5-1.6-7.1,1.4-7
		C359.8,1176.9,357.4,1181.5,358.4,1183.9z"/>
	<path class="st9" d="M78.1,1295.1c-1.4-0.1-2.4-0.6-2.3-2.2c0.1-1.2,0.9-1.9,2.1-2c1.4-0.1,2.4,0.6,2.6,2
		C80.6,1294.5,79.5,1295.1,78.1,1295.1z"/>
	<path class="st6" d="M60.5,182.5c0.6-5.7-1.1-11.4,1.6-17c4-8.2,10.9-11.4,19.3-12.4c1-0.1,2.1,0,3.1,0c193.8,0,387.7,0,581.5,0
		c16.8,0,25.1,8.3,25.2,25.2c0,7.7,0,15.4,0,23.1c0,219.1,0,438.2,0,657.3c0,3.2-0.1,6.3-0.1,9.5c-2.3-0.1-4.5-0.1-6.8-0.1
		c-206,0-411.9,0-617.9,0c-1.9,0-3.9,0-5.8,0.1c0-3-0.1-6-0.1-8.9c0-217.2,0-434.3,0-651.5C60.5,199.3,60.5,190.9,60.5,182.5z
		 M350.1,263.2c0,2.6,0,5.2,0,7.9c0,1.4-0.2,2.8,2,2.9c2.3,0.1,2.5-1.2,2.5-2.9c-0.1-3.1,0.1-6.3,0-9.4c-0.1-3.6,1.9-6.1,5-6.2
		c3.5-0.2,3.5,3.2,3.6,5.8c0.1,3.3,0,6.6,0,10c0,1.4-0.1,2.7,2,2.8c2.4,0.1,2.4-1.3,2.4-3c0-3.1-0.1-6.3,0-9.4
		c0.1-3.4,2.1-6.1,5.2-6.2c3.5-0.1,3.4,3.3,3.4,6c0,3.5,0,7,0,10.5c0,1.6,0.7,2.1,2.2,2.1c1.5,0,2.3-0.4,2.2-2.1
		c-0.2-5.1-0.1-10.1-0.5-15.2c-0.2-2.4-1.7-4.2-4.2-4.8c-3.4-0.8-5.8,1.8-8.6,2.4c-2.2,0.5-5-3.6-8.6-2.5c-1.6,0.5-2.8,2.9-4.4,2
		c-5.3-3.1-3.9,1.2-4.1,3.5C350,259.4,350.1,261.3,350.1,263.2z M187.8,262.9c0,2.3-0.2,4.6,0.1,6.8c0.2,1.6-1.3,4.3,2.1,4.2
		c3.3-0.2,1.7-2.9,1.9-4.4c0.3-3-0.1-6,0.1-8.9c0.2-3,2.4-5,5.1-5.2c3.2-0.2,3.5,2.8,3.5,5.3c0,3.3,0,6.7,0,10
		c0,1.5-0.4,3.2,2.1,3.3c2.9,0.1,2.5-1.8,2.5-3.5c0-3.2-0.1-6.3,0.1-9.5c0.2-3.2,2.1-5.6,5.1-5.7c3.2,0,3.2,3.2,3.3,5.6
		c0.1,3.5,0.1,7,0,10.5c0,1.8,0.5,2.5,2.4,2.5c1.6,0,2.1-0.8,2.1-2.3c-0.1-4.7,0.1-9.5-0.3-14.2c-0.4-3.7-2.8-6.8-6.7-5.6
		c-4.5,1.4-8.4,2-12.8-0.1c-2.3-1.1-4.6,2.6-6.1,1.9c-6.3-3-4.1,2-4.4,4.4C187.6,259.8,187.8,261.4,187.8,262.9z M577,252.9
		C577,252.9,577,252.9,577,252.9c-1.9,0.1-3.9-0.2-5.8,0.1c-3.6,0.6-6.6,2.8-6.1,6.6c0.5,3.8,1.3,7.3,0.6,11.2
		c-0.3,1.7,0.4,3.6-0.9,5.5c-1.7,2.6-0.1,4.6,2.2,6c3.5,2.1,11.8,1.4,15-1.2c1.9-1.5,3.1-3.4,2.3-5.9c-0.7-2.3-2.6-3.2-4.8-3.4
		c-2.1-0.1-4.2,0-6.3-0.1c-1.8-0.1-3.9,0-3.9-2.4c0-2.6,2.2-1.6,3.6-1.6c6.6-0.3,9.1-3.2,8.2-9.6c-0.1-0.7-1.3-1.6,0.4-1.9
		c1.3-0.2,3.2,0,2.6-2.1c-0.6-2.2-2.6-0.9-4-1.2C579.2,252.7,578.1,252.9,577,252.9z M237.4,252.9c-0.7,0-1.4,0-2.1,0
		c-8.9,0-11.2,3.2-8.4,11.5c0.3,0.9,0.4,1.6-0.2,2.4c-2.4,3.5,0.9,7.9-2.1,11.6c-1,1.2,1,3.1,2.6,4c3.7,2.2,12.3,1.5,15.5-1.4
		c1.7-1.5,2.6-3.3,2-5.6c-0.6-2.4-2.5-3.3-4.7-3.4c-2.3-0.2-4.6,0-6.8-0.1c-1.6-0.1-3.4-0.3-3.4-2.4c0-2.7,2.2-1.6,3.5-1.6
		c6.6-0.3,8.8-2.8,8.2-9.6c-0.1-1.2-0.5-2,1.2-2c1.3,0,2-0.5,1.9-1.8c-0.2-1.9-1.7-1.3-2.8-1.4C240.2,252.8,238.8,252.9,237.4,252.9
		z M427,203.5c2.1-2.7,3.8-4.6,5.1-6.6c2.9-4.4,2.6-8.7-0.5-11.4c-3-2.7-8.8-2.9-12.2-0.2c-1.1,0.9-3.6,1.6-1.9,4
		c1.3,1.8,2.7,2.6,4.7,0.7c1.2-1.1,2.7-1.6,4.3-0.3c1.7,1.4,1.4,3.2,0.7,4.8c-0.7,1.5-1.9,2.9-3.1,4.2c-1.9,2-4,3.9-6.1,5.8
		c-1,0.9-1.4,2-1.2,3.3c0.2,1.2,1.2,1.1,2,1.1c4.9,0,9.8,0,14.7,0c1.7,0,2-1,1.9-2.4c0-1.4,0.2-2.9-2-2.9
		C431.6,203.5,429.7,203.5,427,203.5z M340.9,200.4c3.5,0,5.7,0,7.9,0c4.8,0,5.8-1.6,3.9-6c-1.1-2.6-3.1-4.2-5.9-4.6
		c-4.5-0.5-8.5,0.4-10.7,4.7c-2,3.9-1.9,7.9,1.2,11.2c3.5,3.8,8,3.9,12.5,2.1c1.3-0.5,3.3-0.7,2.3-3.2c-0.8-1.9-1.8-2.9-3.9-1.9
		C345.6,204,343.7,203.3,340.9,200.4z M527,245.5c-1.9-0.4-2.8,0.9-3.7,2.3c-2.7,4.1-5.5,8.1-8.2,12.2c-1.1,1.7-3.2,3.5-2.1,5.6
		c1.1,2.2,3.7,0.9,5.7,1c3.6,0.2,8.2-1.3,6.9,5.3c-0.3,1.5,0.6,2.1,2.2,2.1c1.7,0,2-1,1.9-2.3c0-2.5-0.7-5.2,3.3-5.5
		c0.9-0.1,0.9-2.3-0.1-2.4c-4.6-0.4-3-3.8-3.1-6.2c-0.2-3.1-0.1-6.3,0-9.4C529.7,246.1,529,245.2,527,245.5z M382.3,200.4
		c3.5,0,5.7,0,7.8,0c4.9,0,6-1.9,3.9-6.3c-1.1-2.4-3-3.8-5.6-4.2c-4.5-0.6-8.4,0.4-10.8,4.6c-2.1,3.9-1.9,7.9,1.1,11.2
		c3.5,3.8,7.9,3.9,12.5,2.2c1.4-0.5,3.2-0.9,2.3-3.2c-0.8-1.9-1.8-2.9-4-1.8C387.1,204.1,385.2,203.2,382.3,200.4z M551.8,274
		c1.8,0.4,4-0.3,5.8-1.7c1.1-0.8,3.3-1.4,1.9-3.5c-1.4-2.1-2.6-0.5-3.9,0.4c-3.8,2.5-7.3,1.9-10.3-1.4c-3.1-3.5-3.6-11.8-0.8-15.9
		c3.1-4.5,7.1-5.4,11.7-2.1c1.2,0.8,1.9,0.2,2.6-0.7c1-1.2,0.1-2-0.8-2.5c-1.3-0.8-2.7-1.7-4.2-1.9c-5-0.8-9.5,0.2-12.6,4.6
		c-4,5.6-4.2,11.8-1.4,17.9C542,271.8,545.8,274.3,551.8,274z M461.7,265.3c0-1,0-2.1,0-3.1c-0.2-8.7-6-12.1-13.8-8.1
		c-1.1,0.6-3.1,0.8-2.2,2.8c0.8,1.9,2.1,1.1,3.5,0.5c1.4-0.6,3-1.2,4.5-1.1c1.6,0,3.2,0.9,3.3,2.7c0.1,1.9-1.8,1-2.8,1.4
		c-2,0.7-4,1.1-5.9,1.9c-3.1,1.3-4.6,3.7-3.9,7.1c0.7,3.5,3.2,4.5,6.6,4.6c3.2,0.1,6-2.6,9.4-1.3c1.2,0.4,1.4-1.2,1.4-2.2
		C461.7,268.8,461.7,267.1,461.7,265.3z M485.9,265.6c0-1.2,0-2.4,0-3.7c0-3.4-0.4-6.9-3.9-8.4c-3.5-1.5-7.2-1-10.5,0.9
		c-1,0.6-2.5,1-1.5,2.7c0.8,1.5,1.9,1,3.1,0.5c1.4-0.6,2.9-1.2,4.5-1.3c1.6-0.1,3.3,0.8,3.6,2.5c0.4,2.4-1.9,1.3-3,1.7
		c-2.3,0.9-4.7,1.4-6.8,2.5c-2.6,1.4-3.4,3.9-2.8,6.7c0.7,2.9,2.7,4.1,5.7,4.4c3.6,0.4,6.7-2.5,10.5-1.3c1.2,0.4,1.2-1.4,1.2-2.4
		C485.9,268.8,485.9,267.2,485.9,265.6z M316.1,195.3c0,14.4,0,14.4,13.9,13.5c0.3,0,0.7,0,1,0c2.2,0.1,1.9-1.5,1.9-2.8
		c0-1.3,0-2.5-1.8-2.5c-1,0-2.1-0.2-3.1,0c-4.1,0.7-6-0.6-5.5-5.2c0.5-4,0-8,0.1-12c0-2.2,0.1-3.9-3.1-4c-3.4,0-3.6,1.5-3.5,4.1
		C316.3,189.4,316.1,192.4,316.1,195.3z M267.4,263.2c0-2.4,0-4.9,0-7.3c0-1.7-0.1-3.1-2.4-3c-2.2,0.1-1.9,1.6-1.9,2.9
		c0,3.1,0.1,6.3,0,9.4c-0.1,3.4-2.6,5.2-5.4,5.3c-3.2,0.1-3.6-2.7-3.6-5.3c-0.1-3.3-0.1-6.6,0-10c0-1.8-0.6-2.5-2.4-2.4
		c-1.7,0.1-2,0.9-2,2.3c0,3.8-0.1,7.7,0.1,11.5c0.4,6.6,4.7,9.1,10.9,6.5c0.9-0.4,2.1-1.4,2.6-1.1c5,2.9,4.2-0.9,4.2-3.6
		C267.4,266.7,267.4,264.9,267.4,263.2z M421.1,265.3c0-1.2,0-2.5,0-3.7c0.1-3.3-0.3-6.6-3.7-8c-3.7-1.6-7.5-1.1-11,1
		c-0.9,0.6-1.9,1-1.2,2.4c0.6,1.2,1.5,1.3,2.6,0.8c1.3-0.5,2.5-1.3,3.9-1.5c2.1-0.4,4.2,0.2,4.6,2.4c0.5,2.8-2.2,1.2-3.3,1.8
		c-1,0.6-2.4,0.6-3.5,1c-3.7,1.4-6.6,3.5-5.6,8.1c0.9,3.8,4.8,5.4,9.4,4.1c1.6-0.4,2.8-1.9,4.9-1c2.2,0.9,3.2-0.3,3-2.6
		C421,268.5,421.1,266.9,421.1,265.3z M343.3,263.5c0-6.6-4-10.7-10.3-10.7c-6.2,0-10.4,4.4-10.3,10.7c0.1,6.2,4.1,10.3,10.1,10.4
		C339.2,274.1,343.3,270,343.3,263.5z M365,201.2c-3.6-3.6,0.2-13.5-10.3-10.9c1.7,4.9,3.5,9.6,5,14.4c0.9,2.7,1.8,4.4,5.3,4.4
		c3.5,0,4.5-1.5,5.3-4.3c1.4-4.8,3.2-9.6,4.9-14.5C364.6,187.8,368.7,197.9,365,201.2z M398.1,192.9c0.1,0,0.2,0,0.3,0
		c0,4-0.2,8,0.1,12c0.2,2.2,1.7,3.8,4.2,3.9c1.3,0,3.1,0.7,3.9-0.6c1.1-1.8,0.3-3.5-1.2-5.1c-1.2-1.2-0.7-3-0.7-4.5
		c0-4.9-0.1-9.8,0-14.6c0.1-2.5-0.3-3.8-3.3-3.7c-3,0-3.4,1.3-3.3,3.8C398.3,187,398.1,189.9,398.1,192.9z M311.8,274
		c0.7,0,1.4,0.1,2.1,0c2.2-0.5,5.4-0.9,4.9-3.4c-0.7-3.6-3.2-0.6-4.9-0.2c-2.8,0.7-4.8-0.4-6.3-2.5c-2-2.9-1.9-6,0-8.8
		c1.5-2.2,3.8-3.7,6.7-2.3c1.6,0.8,3.4,2,4.1-0.7c0.5-1.9-1.7-2.6-2.9-2.9c-4.1-0.9-8-0.6-11,2.8c-3.2,3.6-3.6,7.9-1.8,12.2
		C304.3,272.2,307.5,274.1,311.8,274z M503.2,252.8c-5.4,0-8.7,2-10.3,6.1c-1.8,4.5-1.3,9,2.4,12.5c3.2,3.1,7.2,3.2,11.2,1.7
		c1.3-0.5,3.4-0.9,2.6-3c-0.9-2.4-2.5-1-3.8-0.3c-3.1,1.6-5.5,0.5-7.3-1.9c-2.1-2.8-2-6-0.1-8.8c1.6-2.4,4-4,7.1-2.2
		c1.5,0.8,3,1.5,3.8-0.7c0.6-1.9-1.3-2.2-2.4-2.7C505.1,253,503.7,252.9,503.2,252.8z M440.5,243.9c0.5-1-0.2-1.4-1.2-1.5
		c-2-0.2-2.1,1.3-2.5,2.6c-3.3,10.8-6.6,21.7-9.9,32.5c-0.3,1.1-1.7,2.8,0.1,3.6c2.5,1,2.7-1.4,3.2-3c2.9-9.3,5.7-18.7,8.5-28
		C439.3,248.1,439.9,246.1,440.5,243.9z M590,257.2c0,0.9,0,1.8,0,2.6c0,3.7,0,7.4,0.2,11c0.1,1.7,1,3,2.9,3.1c1,0,2.4,0.1,2.9-0.5
		c1.3-1.5-0.7-2.2-1.2-3.3c-0.5-1.2-0.5-2.7-0.5-4.1c0-6.8,0-13.7,0-20.5c0-1.6,0.3-3.2-2.2-3.2c-2.6,0-2.1,1.8-2.1,3.3
		C590,249.5,590,253.3,590,257.2z M387.3,281.3c1.6,0,1.8-1.3,2.2-2.5c3.4-11.2,6.8-22.3,10.1-33.5c0.3-1,1.4-2.4-0.6-2.9
		c-1.5-0.4-2.2,0.7-2.6,1.9c-3.5,11.5-7,23-10.5,34.5C385.6,280.2,385.3,281.4,387.3,281.3z M276.1,263.2c0,2.8,0,5.6,0,8.3
		c0,1.3,0.1,2.3,1.9,2.4c2,0.1,2.3-1,2.3-2.6c-0.1-2.6,0-5.2,0-7.8c-0.1-4.4,1-8,6.3-8.3c1.4-0.1,1.8-0.9,1.8-2
		c0.1-2.1-1.6-1.1-2.6-1.4c-2.3-0.7-3.6,2.7-5.5,1.8c-5.3-2.6-4,1.4-4.1,3.8C276,259.4,276.1,261.3,276.1,263.2z M174.8,263
		c0,2.6,0,5.2,0,7.9c0,1.6-0.3,3.2,2.3,3.1c2.1-0.1,2.1-1.4,2.1-2.8c0-5.2,0-10.5,0-15.7c0-1.6-0.4-2.6-2.3-2.6c-2.1,0-2,1.4-2,2.8
		C174.8,258.1,174.8,260.6,174.8,263z M295.9,271.3c-0.2-1.8-1.2-2.7-3-2.7c-1.9,0.1-2.9,1.1-2.8,2.9c0.1,1.5,1.1,2.4,2.8,2.4
		C294.7,274,295.7,273.2,295.9,271.3z M179.8,246.3c0-1.4-1.1-2.3-2.6-2.5c-1.5-0.1-2.8,0.5-3,2.2c-0.2,1.7,0.8,2.6,2.4,2.7
		C178.3,248.8,179.4,248.4,179.8,246.3z"/>
	<path class="st6" d="M163.6,1191c-1.2-2.5-0.4-5.3-0.6-7.9c-0.2-1.8,0.6-4.3-2.3-4.5c-3.1-0.2-3.7,2.1-3.8,4.5
		c-0.1,2.6,0,5.3,0,7.9c-0.7,0-1.5,0-2.2,0c0-4.5-0.4-9.1,0.4-13.5c0.1-0.8,5.2-1.9,7.5-0.7c2.3,1.2,3.6,0.7,5.6-0.2
		c2.2-1,4.6,0,5.1,2.3c0.8,3.9,0.8,8-0.6,12c-1.6-2.9-0.9-5.9-1.1-8.9c-0.1-1.7-0.3-3.2-2.4-3.4c-2.2-0.2-3.3,1.2-3.5,3.1
		c-0.2,3-0.1,6.1-0.1,9.1C164.8,1190.9,164.2,1190.9,163.6,1191z"/>
	<path class="st6" d="M179,1196.6c0-6.6,0-12.7,0-18.8c0-1.1,0.7-1.4,1.7-1.2c3.2,0.5,7.3-1.7,9.4,2.7c1.3,2.8,1.5,5.8-0.1,8.5
		c-1.4,2.5-3.5,3.4-6.6,2.9C178.9,1190.2,182.8,1195.2,179,1196.6z M188.8,1183.1c-0.4-2-0.7-4.7-4-4.5c-3.1,0.1-3.8,2.6-3.8,5.2
		c0,2.7,0.7,5.1,3.9,5C188.2,1188.7,188.7,1186.2,188.8,1183.1z"/>
	<path class="st11" d="M107,1173.2c2,4.8,4,9.7,5.9,14.5c0.4,1,1.9,2.3,0.2,3.1c-1.6,0.8-2.1-0.9-2.3-2c-0.7-3.4-2.6-4.2-6-4.1
		c-2.8,0.1-4.7,0.5-5.2,3.6c-0.2,1.2-0.5,2.9-3,2.5c1.3-5.1,3.2-9.9,5.3-14.5c0.6,0.1,1.1,0.1,1.7,0.2c-2,6.4-2,6.4,4.4,5.6
		c-0.7-2.3-1.4-4.6-2-6.8C106.4,1174.6,106.7,1173.9,107,1173.2z"/>
	<path class="st12" d="M149.1,1187.3c-1.7,3.7-4.5,4.4-7.7,3.4c-3.8-1.1-4.9-4.2-4.6-7.9c0.3-3.6,2.2-6,5.8-6.4
		c3.6-0.5,5.4,2.1,6.5,4.9c0.8,2.1,0.7,3.9-2.4,3.5c-1-0.1-2.1-0.1-3.1,0c-1.3,0.1-2.9-0.6-3.9,0.6c-0.7,0.8,0.1,1.7,0.6,2.3
		c1.2,1.4,2.7,1.3,4.4,1.2C146.1,1188.7,146.8,1186.6,149.1,1187.3z M139,1183c2.9-1.3,5.9,1,7.8-1.7c0.5-0.7-0.8-2.2-2.1-2.6
		C142.1,1177.9,140.1,1178.7,139,1183z"/>
	<path class="st6" d="M215.8,1180.6c-1.4-0.4-2-0.4-2.3-0.7c-1.5-1.6-3.3-1.8-5.2-0.9c-0.4,0.2-0.8,0.9-0.7,1.2
		c0.7,2,2.7,1.9,4.3,2.4c2.4,0.8,5,1.6,4.2,4.9c-0.7,2.8-3.1,3.8-5.7,3.6c-2.9-0.2-5.3-1.2-5.1-5.2c2.5,0.7,3.2,3.9,6,3.1
		c1.1-0.3,2.2-0.6,2.4-1.7c0.3-1.3-0.8-1.8-1.8-2.2c-0.5-0.2-1-0.2-1.5-0.4c-2.2-0.8-5.1-1-5.2-4.3c0-2.3,1.6-3.5,3.6-3.9
		C211.6,1175.9,214.2,1176.4,215.8,1180.6z"/>
	<path class="st6" d="M124.1,1190.2c-2.5,1.3-4.7,0.7-4.7-0.7c0-5.5-3-11.1,0.6-16.4c0.3,2.3,4.3,3.2,1.4,7
		C119.8,1182.2,119.3,1187.5,124.1,1190.2z"/>
	<path class="st6" d="M129.4,1173.1c0.3,2.3,4.2,3.3,1.4,7.1c-1.5,2-2.4,7.5,2.8,9.9c-2.3,1.5-4.7,1-4.7-0.5
		C128.8,1184.1,125.9,1178.4,129.4,1173.1z"/>
	<path class="st6" d="M197.7,1172c1,3.4,3.4,4.9,1.3,8.4c-1.5,2.6-1.7,7.4,2.5,9.9c-2,1.2-4.2,0.9-4.3-0.6
		C197,1184.2,194.3,1178.6,197.7,1172z"/>
	<path class="st6" d="M103.7,1176.5c-0.6-0.1-1.1-0.1-1.7-0.2c0.6-1.9,0.4-4.4,2.7-5.2c1.4-0.5,2.1,0.7,2.3,2.1
		c-0.3,0.7-0.6,1.4-0.9,2.1C104.5,1174.2,104.3,1175.8,103.7,1176.5z"/>
	<path class="st6" d="M273.5,68.4c-11.3,1.7-11.3,1.7-8.7-8.6c0.9-3.7,1.8-7.4,3.7-11.2C270.2,55.2,271.8,61.8,273.5,68.4z"/>
	<path class="st6" d="M156.7,1310.7c0.2,3-2,3.8-4.3,4.2c-1.6,0.2-2.8-1-2.7-2.5c0.1-3.3,2.9-3.4,5.2-3.9
		C157.1,1308,156.5,1309.6,156.7,1310.7z"/>
	<path class="st6" d="M196.9,1306.6c-1.9,0-3.1,0.2-4.3,0c-1.5-0.3-3.8,1.2-4.4-1.1c-0.4-1.3,1-2.4,2.2-3.2c1.9-1.3,3.6-0.8,5,0.8
		C196,1303.8,196.2,1304.9,196.9,1306.6z"/>
	<path class="st6" d="M582.2,1186.6c-0.9,1.6-2.3,2.4-4.2,2.1c-1.1-0.2-2.1-1-1.7-2.2c0.8-2.5,3.1-1.8,4.8-1.9
		C582.2,1184.6,582.5,1185.5,582.2,1186.6z"/>
	<path class="st7" d="M60.7,868.1c1.9,0,3.9-0.1,5.8-0.1c206,0,411.9,0,617.9,0c2.3,0,4.5,0.1,6.8,0.1c0,33.6-0.3,67.2,0.1,100.8
		c0.1,12.1-4.3,20.5-15.7,25c-3,0.1-5.9,0.2-8.9,0.2c-178.9,0-357.8,0-536.7,0c-17.9,0-35.7,0-53.6-0.1c-8.9-3.5-15.6-9.2-15.7-19.4
		C60.5,939.1,60.6,903.6,60.7,868.1z M312.4,961.5c69.7,0,139.4,0,209.2,0c8.4,0,11-2.6,11-11c0-17.7,0-35.4,0-53.1
		c0-8.9-2.7-11.6-11.6-11.6c-139.4,0-278.9,0-418.3,0c-7.9,0-10.5,2.8-10.5,10.9c0,17.5,0,35,0,52.6c0,10.3,1.9,12.2,12.2,12.2
		C173.7,961.5,243,961.5,312.4,961.5z M604.3,960.7c17.2,0,34.3,0,51.5,0c7.2,0,10.2-3,10.2-10.2c0-17.2,0-34.3,0-51.5
		c0-7.5-2.9-10.4-10.5-10.4c-34,0-67.9,0-101.9,0c-7.6,0-10.4,2.9-10.4,10.5c0,17,0,34,0,51c0,7.9,2.8,10.7,10.8,10.7
		C570.7,960.7,587.5,960.7,604.3,960.7z"/>
	<path class="st9" d="M350.1,263.2c0-1.9-0.1-3.9,0-5.8c0.2-2.4-1.3-6.6,4.1-3.5c1.6,0.9,2.8-1.5,4.4-2c3.7-1.1,6.5,3,8.6,2.5
		c2.8-0.7,5.2-3.2,8.6-2.4c2.5,0.6,4,2.4,4.2,4.8c0.4,5,0.3,10.1,0.5,15.2c0.1,1.6-0.8,2.1-2.2,2.1c-1.5,0-2.2-0.5-2.2-2.1
		c0-3.5,0-7,0-10.5c0-2.7,0.1-6.1-3.4-6c-3.1,0.1-5.1,2.7-5.2,6.2c-0.1,3.1,0,6.3,0,9.4c0,1.7,0,3.1-2.4,3c-2.1-0.1-2-1.4-2-2.8
		c0-3.3,0.1-6.6,0-10c-0.1-2.6-0.1-6-3.6-5.8c-3.1,0.2-5.1,2.6-5,6.2c0.1,3.1,0,6.3,0,9.4c0,1.8-0.2,3.1-2.5,2.9
		c-2.2-0.1-1.9-1.6-2-2.9C350.1,268.5,350.1,265.8,350.1,263.2z"/>
	<path class="st9" d="M187.8,262.9c0-1.6-0.2-3.2,0-4.7c0.3-2.4-1.9-7.4,4.4-4.4c1.5,0.7,3.8-2.9,6.1-1.9c4.4,2.1,8.3,1.5,12.8,0.1
		c3.9-1.2,6.3,1.9,6.7,5.6c0.4,4.7,0.2,9.4,0.3,14.2c0,1.5-0.4,2.2-2.1,2.3c-1.9,0.1-2.4-0.7-2.4-2.5c0.1-3.5,0.1-7,0-10.5
		c-0.1-2.4-0.1-5.6-3.3-5.6c-3,0-5,2.5-5.1,5.7c-0.1,3.1,0,6.3-0.1,9.5c0,1.7,0.4,3.6-2.5,3.5c-2.5-0.1-2.1-1.8-2.1-3.3
		c0-3.3,0-6.7,0-10c0-2.5-0.3-5.5-3.5-5.3c-2.7,0.1-4.8,2.2-5.1,5.2c-0.2,3,0.1,6-0.1,8.9c-0.1,1.6,1.5,4.3-1.9,4.4
		c-3.5,0.2-2-2.6-2.1-4.2C187.6,267.5,187.8,265.2,187.8,262.9z"/>
	<path class="st9" d="M577,252.9c1,0,2.1-0.2,3.1,0c1.4,0.3,3.4-1.1,4,1.2c0.6,2.2-1.3,1.9-2.6,2.1c-1.6,0.3-0.5,1.2-0.4,1.9
		c0.9,6.4-1.6,9.3-8.2,9.6c-1.4,0.1-3.6-1-3.6,1.6c0,2.4,2.1,2.4,3.9,2.4c2.1,0.1,4.2,0,6.3,0.1c2.2,0.1,4.1,1,4.8,3.4
		c0.8,2.5-0.4,4.4-2.3,5.9c-3.2,2.6-11.5,3.3-15,1.2c-2.4-1.4-3.9-3.4-2.2-6c1.3-1.9,0.6-3.8,0.9-5.5c0.8-4-0.1-7.5-0.6-11.2
		c-0.5-3.8,2.5-6,6.1-6.6C573.1,252.7,575.1,252.9,577,252.9C577,252.9,577,252.9,577,252.9z M577.6,260.1c-0.3-2.3-1.8-3.8-4.1-3.8
		c-2.3,0-4.1,1.2-4.2,3.7c-0.1,2.8,1.7,4.3,4.2,4.2C575.8,264.2,577.3,262.7,577.6,260.1z M573.9,274.9c-1.8,0.6-5.2-1.1-5.4,2.2
		c-0.2,3,3.1,3,5.2,2.9c2.4,0,6.3,0.1,6.2-3.2C579.7,274.1,576.1,275.4,573.9,274.9z"/>
	<path class="st9" d="M237.4,252.9c1.4,0,2.8-0.1,4.2,0c1.1,0.1,2.6-0.6,2.8,1.4c0.1,1.3-0.6,1.9-1.9,1.8c-1.7-0.1-1.3,0.8-1.2,2
		c0.6,6.8-1.6,9.3-8.2,9.6c-1.3,0.1-3.5-1.1-3.5,1.6c0,2.1,1.8,2.4,3.4,2.4c2.3,0.1,4.6,0,6.8,0.1c2.2,0.1,4.1,1.1,4.7,3.4
		c0.6,2.3-0.3,4.1-2,5.6c-3.2,2.9-11.7,3.6-15.5,1.4c-1.6-0.9-3.6-2.8-2.6-4c3-3.6-0.3-8.1,2.1-11.6c0.6-0.8,0.5-1.4,0.2-2.4
		c-2.8-8.3-0.5-11.5,8.4-11.5C236,252.9,236.7,252.9,237.4,252.9z M237.8,260.3c-0.1-2.4-1.6-3.9-3.9-4c-2.2-0.1-4.1,1.1-4.3,3.6
		c-0.2,2.8,1.6,4.3,4.1,4.4C235.9,264.3,237.5,262.8,237.8,260.3z M234.2,274.9c-1.8,0.6-5.2-1.1-5.4,2.2c-0.2,3.2,3.3,3,5.5,3
		c2.3,0,5.9-0.2,5.8-2.9C240.1,273.9,236.4,275.5,234.2,274.9z"/>
	<path class="st9" d="M427,203.5c2.7,0,4.6,0,6.5,0c2.1,0,1.9,1.5,2,2.9c0,1.4-0.2,2.4-1.9,2.4c-4.9,0-9.8,0-14.7,0
		c-0.8,0-1.8,0.1-2-1.1c-0.2-1.3,0.2-2.3,1.2-3.3c2.1-1.9,4.2-3.8,6.1-5.8c1.2-1.2,2.4-2.6,3.1-4.2c0.7-1.6,1-3.4-0.7-4.8
		c-1.5-1.3-3-0.9-4.3,0.3c-2,1.9-3.5,1.1-4.7-0.7c-1.7-2.4,0.8-3.1,1.9-4c3.4-2.7,9.2-2.5,12.2,0.2c3.1,2.8,3.4,7,0.5,11.4
		C430.8,198.9,429.2,200.7,427,203.5z"/>
	<path class="st9" d="M340.9,200.4c2.8,2.9,4.8,3.6,7.1,2.4c2.2-1.1,3.1,0,3.9,1.9c1,2.4-1,2.7-2.3,3.2c-4.6,1.7-9,1.6-12.5-2.1
		c-3.1-3.3-3.2-7.3-1.2-11.2c2.2-4.3,6.2-5.2,10.7-4.7c2.8,0.3,4.8,2,5.9,4.6c1.9,4.4,0.9,5.9-3.9,6
		C346.5,200.4,344.3,200.4,340.9,200.4z"/>
	<path class="st9" d="M527,245.5c2-0.3,2.8,0.5,2.7,2.6c-0.1,3.1-0.2,6.3,0,9.4c0.1,2.4-1.5,5.8,3.1,6.2c1,0.1,1,2.3,0.1,2.4
		c-4,0.3-3.3,3.1-3.3,5.5c0,1.4-0.2,2.3-1.9,2.3c-1.5,0-2.5-0.6-2.2-2.1c1.3-6.6-3.3-5.1-6.9-5.3c-1.9-0.1-4.5,1.1-5.7-1
		c-1.1-2.1,1-3.9,2.1-5.6c2.7-4.1,5.5-8.1,8.2-12.2C524.1,246.4,525,245.2,527,245.5z M517.7,263.1c8.5,0.6,9.6-1.1,6.8-10.1
		C522.3,256.2,520.2,259.4,517.7,263.1z"/>
	<path class="st9" d="M382.3,200.4c2.9,2.8,4.8,3.7,7.2,2.5c2.1-1.1,3.2-0.1,4,1.8c0.9,2.3-0.9,2.7-2.3,3.2c-4.6,1.7-9,1.6-12.5-2.2
		c-3-3.3-3.2-7.3-1.1-11.2c2.3-4.3,6.3-5.2,10.8-4.6c2.6,0.3,4.5,1.8,5.6,4.2c2.1,4.4,1,6.3-3.9,6.3
		C387.9,200.4,385.8,200.4,382.3,200.4z"/>
	<path class="st9" d="M551.8,274c-5.9,0.3-9.8-2.2-11.9-6.9c-2.8-6.1-2.6-12.3,1.4-17.9c3.1-4.3,7.6-5.3,12.6-4.6
		c1.5,0.2,2.9,1.2,4.2,1.9c0.9,0.5,1.7,1.3,0.8,2.5c-0.7,0.9-1.4,1.6-2.6,0.7c-4.6-3.3-8.6-2.4-11.7,2.1c-2.8,4.1-2.4,12.4,0.8,15.9
		c3,3.3,6.5,3.9,10.3,1.4c1.3-0.8,2.5-2.4,3.9-0.4c1.4,2.1-0.8,2.7-1.9,3.5C555.8,273.7,553.6,274.4,551.8,274z"/>
	<path class="st9" d="M461.7,265.3c0,1.7,0,3.5,0,5.2c0,1.1-0.2,2.7-1.4,2.2c-3.5-1.3-6.2,1.3-9.4,1.3c-3.4-0.1-5.8-1.1-6.6-4.6
		c-0.7-3.4,0.7-5.8,3.9-7.1c1.9-0.8,4-1.2,5.9-1.9c1-0.3,2.8,0.5,2.8-1.4c-0.1-1.8-1.7-2.7-3.3-2.7c-1.5,0-3.1,0.6-4.5,1.1
		c-1.4,0.5-2.7,1.4-3.5-0.5c-0.8-2,1.2-2.2,2.2-2.8c7.8-4,13.7-0.6,13.8,8.1C461.8,263.2,461.7,264.3,461.7,265.3z M455.4,264
		c-2.6,0.8-6.1,0.2-6.9,3.8c-0.4,2,1.5,2.9,3,2.8c2.6-0.2,5.3-0.9,5.6-4.3C457.2,265.2,457.4,263.5,455.4,264z"/>
	<path class="st9" d="M485.9,265.6c0,1.6,0,3.1,0,4.7c0,1,0,2.7-1.2,2.4c-3.8-1.2-6.9,1.7-10.5,1.3c-2.9-0.3-5-1.5-5.7-4.4
		c-0.7-2.8,0.1-5.3,2.8-6.7c2.1-1.1,4.6-1.6,6.8-2.5c1.1-0.4,3.3,0.7,3-1.7c-0.3-1.7-2-2.6-3.6-2.5c-1.5,0.1-3,0.7-4.5,1.3
		c-1.2,0.6-2.3,1-3.1-0.5c-0.9-1.7,0.5-2.1,1.5-2.7c3.4-1.9,7-2.4,10.5-0.9c3.6,1.5,3.9,5,3.9,8.4
		C485.9,263.2,485.9,264.4,485.9,265.6z M481.4,266.2c-0.3-1,0.1-2.7-1.9-2.1c-2.6,0.7-6,0.2-6.8,3.8c-0.4,1.9,1.5,2.9,3,2.8
		C478.3,270.3,480.9,269.5,481.4,266.2z"/>
	<path class="st9" d="M316.1,195.3c0-3,0.1-5.9,0-8.9c-0.1-2.6,0.1-4.2,3.5-4.1c3.3,0,3.1,1.7,3.1,4c-0.1,4,0.3,8.1-0.1,12
		c-0.5,4.6,1.4,5.8,5.5,5.2c1-0.2,2.1,0,3.1,0c1.8,0,1.8,1.2,1.8,2.5c0,1.4,0.2,3-1.9,2.8c-0.3,0-0.7,0-1,0
		C316.1,209.8,316.1,209.8,316.1,195.3z"/>
	<path class="st9" d="M267.4,263.2c0,1.7,0,3.5,0,5.2c-0.1,2.7,0.7,6.5-4.2,3.6c-0.5-0.3-1.7,0.7-2.6,1.1
		c-6.2,2.7-10.5,0.2-10.9-6.5c-0.2-3.8,0-7.7-0.1-11.5c0-1.4,0.3-2.3,2-2.3c1.8-0.1,2.4,0.6,2.4,2.4c-0.1,3.3-0.1,6.6,0,10
		c0,2.6,0.5,5.5,3.6,5.3c2.8-0.1,5.3-1.9,5.4-5.3c0.1-3.1,0-6.3,0-9.4c0-1.3-0.3-2.8,1.9-2.9c2.4-0.1,2.5,1.3,2.4,3
		C267.4,258.3,267.4,260.7,267.4,263.2z"/>
	<path class="st9" d="M421.1,265.3c0,1.6-0.1,3.2,0,4.7c0.2,2.3-0.8,3.5-3,2.6c-2-0.8-3.3,0.6-4.9,1c-4.6,1.3-8.6-0.3-9.4-4.1
		c-1.1-4.6,1.8-6.7,5.6-8.1c1.1-0.4,2.5-0.4,3.5-1c1.1-0.6,3.9,1,3.3-1.8c-0.4-2.2-2.5-2.8-4.6-2.4c-1.3,0.3-2.6,1-3.9,1.5
		c-1.1,0.5-2,0.4-2.6-0.8c-0.7-1.4,0.3-1.8,1.2-2.4c3.5-2.1,7.3-2.6,11-1c3.4,1.4,3.8,4.7,3.7,8
		C421.1,262.9,421.1,264.1,421.1,265.3z M416.8,266.4c-0.1-1.5,0.1-3-1.9-2.4c-2.7,0.8-6.3,0.2-6.8,4.1c-0.2,1.7,1.7,2.7,3.3,2.4
		C413.9,270.1,416.5,269.4,416.8,266.4z"/>
	<path class="st9" d="M343.3,263.5c0,6.4-4.1,10.5-10.5,10.5c-6-0.1-10-4.2-10.1-10.4c-0.1-6.4,4.1-10.7,10.3-10.7
		C339.3,252.9,343.3,257,343.3,263.5z M338.9,263.7c0-4.4-2.8-7.9-6-7.5c-4.2,0.6-5.6,3.6-5.5,7.5c0.1,3.8,1.8,6.8,5.7,6.8
		C337.2,270.6,338.7,267.2,338.9,263.7z"/>
	<path class="st9" d="M365,201.2c3.7-3.2-0.3-13.4,10.1-11c-1.7,4.9-3.4,9.6-4.9,14.5c-0.8,2.8-1.8,4.3-5.3,4.3
		c-3.5,0-4.4-1.6-5.3-4.4c-1.5-4.8-3.3-9.5-5-14.4C365.2,187.7,361.3,197.6,365,201.2z"/>
	<path class="st9" d="M398.1,192.9c0-3,0.1-5.9,0-8.9c-0.1-2.5,0.3-3.8,3.3-3.8c3,0,3.4,1.3,3.3,3.7c-0.1,4.9-0.1,9.8,0,14.6
		c0,1.5-0.4,3.3,0.7,4.5c1.5,1.5,2.3,3.3,1.2,5.1c-0.8,1.3-2.6,0.6-3.9,0.6c-2.5,0-4-1.7-4.2-3.9c-0.3-4-0.1-8-0.1-12
		C398.3,192.9,398.2,192.9,398.1,192.9z"/>
	<path class="st9" d="M311.8,274c-4.3,0.1-7.5-1.8-9.1-5.7c-1.8-4.3-1.4-8.6,1.8-12.2c3-3.4,7-3.7,11-2.8c1.3,0.3,3.4,1,2.9,2.9
		c-0.7,2.6-2.5,1.4-4.1,0.7c-2.9-1.4-5.2,0.1-6.7,2.3c-1.9,2.8-2,6,0,8.8c1.5,2.1,3.6,3.2,6.3,2.5c1.7-0.4,4.1-3.4,4.9,0.2
		c0.5,2.5-2.8,2.9-4.9,3.4C313.2,274.1,312.4,274,311.8,274z"/>
	<path class="st9" d="M503.2,252.8c0.5,0.1,1.9,0.1,3.1,0.7c1.1,0.5,3,0.8,2.4,2.7c-0.7,2.2-2.3,1.6-3.8,0.7
		c-3.1-1.8-5.5-0.2-7.1,2.2c-1.9,2.8-2,6,0.1,8.8c1.8,2.4,4.2,3.5,7.3,1.9c1.3-0.7,2.9-2.1,3.8,0.3c0.8,2.2-1.3,2.6-2.6,3
		c-4,1.5-8,1.4-11.2-1.7c-3.7-3.5-4.2-8-2.4-12.5C494.5,254.9,497.8,252.8,503.2,252.8z"/>
	<path class="st9" d="M440.5,243.9c-0.6,2.2-1.2,4.2-1.8,6.2c-2.8,9.3-5.6,18.7-8.5,28c-0.5,1.5-0.7,4-3.2,3
		c-1.8-0.7-0.4-2.4-0.1-3.6c3.2-10.9,6.6-21.7,9.9-32.5c0.4-1.3,0.6-2.9,2.5-2.6C440.3,242.5,441,242.9,440.5,243.9z"/>
	<path class="st9" d="M590,257.2c0-3.9,0-7.7,0-11.6c0-1.5-0.5-3.3,2.1-3.3c2.5,0,2.2,1.6,2.2,3.2c0,6.8,0,13.7,0,20.5
		c0,1.4-0.1,2.9,0.5,4.1c0.5,1.1,2.5,1.8,1.2,3.3c-0.5,0.6-1.9,0.5-2.9,0.5c-1.9-0.1-2.9-1.4-2.9-3.1c-0.2-3.7-0.1-7.3-0.2-11
		C590,258.9,590,258,590,257.2z"/>
	<path class="st9" d="M387.3,281.3c-2,0-1.7-1.1-1.3-2.4c3.5-11.5,7-23,10.5-34.5c0.4-1.3,1-2.3,2.6-1.9c2.1,0.5,0.9,1.9,0.6,2.9
		c-3.3,11.2-6.8,22.4-10.1,33.5C389.1,280,388.9,281.3,387.3,281.3z"/>
	<path class="st9" d="M276.1,263.2c0-1.9-0.1-3.8,0-5.7c0.1-2.5-1.2-6.4,4.1-3.8c1.8,0.9,3.1-2.5,5.5-1.8c1,0.3,2.7-0.7,2.6,1.4
		c0,1.1-0.4,1.9-1.8,2c-5.3,0.3-6.3,3.9-6.3,8.3c0,2.6,0,5.2,0,7.8c0,1.6-0.3,2.7-2.3,2.6c-1.7-0.1-1.9-1.1-1.9-2.4
		C276.1,268.8,276.1,266,276.1,263.2z"/>
	<path class="st9" d="M174.8,263c0-2.4,0-4.9,0-7.3c0-1.4-0.1-2.8,2-2.8c1.9,0,2.3,1,2.3,2.6c0,5.2,0,10.5,0,15.7
		c0,1.5,0.1,2.8-2.1,2.8c-2.5,0.1-2.3-1.5-2.3-3.1C174.8,268.3,174.8,265.6,174.8,263z"/>
	<path class="st9" d="M295.9,271.3c-0.2,1.9-1.2,2.7-3.1,2.6c-1.6,0-2.7-0.9-2.8-2.4c-0.1-1.8,0.9-2.8,2.8-2.9
		C294.7,268.6,295.7,269.5,295.9,271.3z"/>
	<path class="st9" d="M179.8,246.3c-0.4,2-1.5,2.5-3.1,2.4c-1.7-0.1-2.6-1-2.4-2.7c0.2-1.7,1.5-2.3,3-2.2
		C178.7,244,179.7,244.9,179.8,246.3z"/>
	<path class="st8" d="M188.8,1183.1c-0.2,3.1-0.7,5.6-3.9,5.7c-3.2,0.1-4-2.3-3.9-5c0-2.6,0.7-5.1,3.8-5.2
		C188.2,1178.4,188.5,1181.1,188.8,1183.1z"/>
	<path class="st8" d="M103.7,1176.5c0.6-0.8,0.8-2.3,2.4-1.2c0.7,2.3,1.3,4.5,2,6.8C101.7,1182.9,101.7,1182.9,103.7,1176.5z"/>
	<path class="st8" d="M139,1183c1.1-4.3,3.1-5.1,5.8-4.3c1.2,0.4,2.5,1.9,2.1,2.6C144.9,1184.1,141.9,1181.8,139,1183z"/>
	<path class="st13" d="M312.4,961.5c-69.4,0-138.7,0-208.1,0c-10.3,0-12.2-1.9-12.2-12.2c0-17.5,0-35,0-52.6
		c0-8.1,2.7-10.9,10.5-10.9c139.4,0,278.9,0,418.3,0c8.9,0,11.6,2.8,11.6,11.6c0,17.7,0,35.4,0,53.1c0,8.4-2.6,11-11,11
		C451.9,961.5,382.1,961.5,312.4,961.5z M310.3,920.6c0,2.3-0.1,4.6,0,6.8c0.1,1.3-0.5,3.3,1.5,3.3c2.1,0,1.5-2,1.6-3.2
		c0.2-2.9-0.7-5.9,4.2-6c4.7-0.1,6.4,1.3,5.8,5.9c-0.2,1.2-0.6,3.3,1.4,3.3c1.9,0,1.4-2.1,1.4-3.4c0.1-4.2,0.1-8.4,0-12.6
		c0-1.3,0.5-3.3-1.4-3.4c-2,0-1.6,2.1-1.4,3.3c0.6,4.2-1.5,4.9-5.2,4.9c-3.6,0-5.2-1.1-4.8-4.8c0.1-1.2,0.5-3.3-1.4-3.4
		c-2.5-0.1-1.6,2.2-1.7,3.6C310.2,916.8,310.3,918.7,310.3,920.6z M258.6,922.8c2.2,2.2,1.8,4.5,2.6,6.3c0.7,1.6,2.2,2.6,3,0.9
		c1.8-4.3,3-8.8,4.5-13.3c-0.6-0.2-1.2-0.4-1.8-0.6c-1.1,2.9-2.3,5.8-3.9,9.8c-0.8-3.3-1.3-5.4-1.9-7.5c-0.3-1-0.6-2.1-1.9-2.1
		c-1.3,0-1.6,1-2,2c-0.8,1.9-0.2,4.5-2.4,5.9c-2.4-2.2-0.8-6.4-4.8-7.9c-0.1,4.9,2,8.8,3.1,13c0.2,0.9,0.8,1.5,1.8,1.6
		c1.3,0,1.8-0.9,2.1-2C257.4,927.1,257.9,925.2,258.6,922.8z M128,912.6c0-0.5,0-1.1,0-1.6c-3.9,0-7.8,0-11.8,0
		c-1.9,0-2.1,1.4-2.1,2.9c0,4.7,0,9.4,0,14.2c0,1.2,0.1,2.7,1.7,2.7c4.2,0.1,8.5,0.8,13.8-0.9c-3.7-1.8-6.5-1.2-9.1-1.2
		c-2.8,0-3.6-1.2-3.6-3.8c0-2.5,1-3.4,3.4-3.4c2.3,0,4.7,0.6,7.7-1.1c-3-1.6-5.4-1-7.7-1.1c-2-0.1-3.4-0.3-3.4-2.8
		c-0.1-2.5,1-3.4,3.4-3.4C123,913.1,125.6,913.8,128,912.6z M196.3,931.2c2-0.6,2.6-0.7,2.9-1c1.7-2,1.1-5.7,5.6-5.8
		c4.2,0,5.5,1.9,6.5,5.2c0.3,0.9,1.2,1.4,2.1,1c0.9-0.5,0.7-1.5,0.4-2.3c-2-5.2-4.1-10.4-6.2-15.6c-0.9-2.1-2.9-2.8-3.9-0.6
		C201.1,918.1,199,924.2,196.3,931.2z M218.3,922.6c0,1.9-0.1,3,0,4c0.2,1.4-0.8,3.8,1.3,3.9c2.3,0.1,1.3-2.3,1.5-3.7
		c0.2-1.2,0-2.4,0.1-3.7c0-2.2,0.5-4.5,3.2-4.5c3-0.1,2.6,2.6,2.9,4.6c0.4,2.5-1.3,7.3,1.5,7.1c3.2-0.2,0.8-5,1.5-7.7
		c0.1-0.3,0-0.7-0.1-1c-0.2-3.9-2.2-5.3-6.1-5.4C218.3,915.9,217.4,918.8,218.3,922.6z M343.5,927.2c-2-0.4-2.7,0.5-3.6,1
		c-1.7,0.9-3.4,0.8-4.8-0.7c-0.4-0.5-1-1.4-0.8-1.8c0.9-1.9,2.7-0.8,4.1-1c0.8-0.2,1.7-0.1,2.6,0c3.1,0.2,3.6-1.4,2.7-3.9
		c-1.1-3.2-3.4-4.9-6.8-4.5c-4,0.4-5.7,3.1-6,6.8c-0.3,3.7,1,6.7,4.8,7.7C338.8,931.5,341.9,931.3,343.5,927.2z M172.5,927.4
		c-2.2-1.3-3.1,0.9-4.5,1.2c-1.7,0.4-3.2,0.2-4.3-1.2c-0.4-0.5-0.8-1.4-0.6-1.8c0.9-1.5,2.5-0.6,3.8-0.8c0.9-0.1,1.7-0.1,2.6,0
		c4,0.2,3.9-1.9,2.7-4.6c-1.4-3.2-4-4.4-7.3-3.7c-3.6,0.8-5.1,3.5-5.2,6.9c-0.1,3.7,1.4,6.6,5.2,7.5C168,931.5,171,931,172.5,927.4z
		 M371.6,927.5c-1.8-0.9-2.6,0-3.4,0.5c-1.7,1.1-3.3,1.1-4.8-0.2c-0.7-0.6-1.4-1.4-0.9-2.2c1-1.6,2.8-0.7,4.3-0.9c0.5-0.1,1,0,1.6,0
		c3.8-0.1,4.8-1.8,2.8-5.2c-1.6-2.7-4.1-3.9-7.1-3.1c-3.5,0.9-4.9,3.5-5,7.1c-0.1,3.5,1.2,6.3,4.7,7.2
		C366.9,931.5,370,931.2,371.6,927.5z M284.8,926.6c-1.8,0.5-2.5,0.5-3,0.8c-1.8,1.3-3.7,2-5.7,0.4c-0.7-0.6-1.4-1.5-0.9-2.2
		c1.4-1.8,3.5-0.6,5.3-0.9c0.2,0,0.3,0,0.5,0c3.9-0.1,4.8-1.8,2.8-5.2c-1.6-2.7-4-3.9-7.1-3.1c-3.3,0.8-4.8,3.2-5,6.5
		c-0.2,3.7,0.9,6.7,4.7,7.8C279.6,931.6,282.7,931.2,284.8,926.6z M134.1,924.1c1,1.6-1.5,6,1.2,6.1c2.8,0.1,1-4.2,1.5-6.6
		c0.1-0.3,0-0.7,0-1c0.2-2,0.7-4,3.1-4.1c2.6-0.1,2.9,2,3,4c0.1,2.1,0,4.2,0.1,6.3c0,0.9,0.2,1.9,1.4,1.8c1.1,0,1.2-1.1,1.3-1.9
		c0-2.8,0.2-5.6-0.1-8.4c-0.3-2.9-2.1-4.2-5-4.2C134.1,916.3,134.1,916.3,134.1,924.1z M245.9,920.8c-1.4-4.8-4.2-4.8-7-4.5
		c-2,0.3-3.6,1.5-3.8,3.7c-0.2,3,2.2,3.6,4.4,4.4c0.6,0.2,1.4,0.3,2,0.6c0.9,0.4,2.1,0.9,1.7,2.2c-0.4,1.4-1.8,1.7-3,1.4
		c-0.9-0.3-1.8-1-2.5-1.7c-0.6-0.6-1.2-1.5-2.1-0.7c-1,0.9-0.3,2,0.4,2.8c2,2.3,4.6,2.4,7.2,1.6c1.9-0.6,3.4-2,3.3-4.2
		c-0.2-2.8-2.6-3.3-4.8-4.1c-1.3-0.5-4.3-0.3-3.2-2.9c0.9-1.9,3-1,4.5,0.1C243.6,919.9,244.2,920,245.9,920.8z M156.4,930.3
		c-3.2-3.7-3.3-7.7-1.2-12c1.1-2.2-1-4.3-2.2-5.2c-1.4-1-2.1,1.7-2.1,2.7c0.1,4.7-0.3,9.6,1.3,14.1
		C152.8,931.4,154.7,931.4,156.4,930.3z M185.7,917.5c-7.4-2.3-8.2-1.7-8.2,4.4c0,1.4-0.1,2.8,0,4.2c0.2,1.6-0.8,4.3,1.3,4.4
		c2.4,0.1,1.4-2.7,1.4-4.2C180.4,922.5,179.8,918.5,185.7,917.5z M356.8,917.5c-7.1-2.2-8.1-1.7-8.2,4c0,1.9-0.1,3.8,0,5.8
		c0.1,1.3-0.6,3.4,1.4,3.4c1.9,0,1.4-2.1,1.4-3.4C351.7,923.3,350.2,918.7,356.8,917.5z M296.9,917.3c-7.2-1.5-7.2-1.5-7.2,4.8
		c0,1.6-0.1,3.1,0,4.7c0.1,1.4-0.8,3.8,1.3,3.8c2,0,1.3-2.5,1.3-3.9C292.6,923,291.4,918.8,296.9,917.3z"/>
	<path class="st14" d="M675.5,993.9c0.1,3.1-1.5,5.3-3.5,7.3c-9.2,9.5-20.3,15.2-33.5,16.9c-10.4,1.4-20.8,2.2-31.3,2.2
		c-157.2-0.1-314.4,0-471.6-0.2c-12.9,0-25.8-1.3-38-6.3c-7.6-3.1-14-7.8-19.2-14.2c-1.4-1.7-2.2-3.6-2.1-5.8
		c17.9,0,35.7,0.1,53.6,0.1c178.9,0,357.8,0,536.7,0C669.6,994.1,672.6,994,675.5,993.9z"/>
	<path class="st11" d="M604.3,960.7c-16.8,0-33.6,0-50.4,0c-8,0-10.7-2.8-10.8-10.7c0-17,0-34,0-51c0-7.6,2.8-10.5,10.4-10.5
		c34,0,67.9,0,101.9,0c7.6,0,10.5,2.9,10.5,10.4c0,17.2,0,34.3,0,51.5c0,7.3-3,10.2-10.2,10.2C638.6,960.7,621.5,960.7,604.3,960.7z
		 M612.1,924.4c0,1.7,0,3.5,0,5.2c0,1-0.2,2.2,1.3,2.3c1.8,0.2,1.9-1.1,1.9-2.4c0-2.1,0-4.2,0.1-6.3c0-2,1-3.6,3-3.6
		c2.1,0,2,2,2.1,3.6c0.1,2.3,0.1,4.5,0,6.8c0,1.3,0.5,2,1.8,1.9c1.1-0.1,1.4-0.9,1.4-1.8c0-2.3,0-4.5,0.1-6.8c0-2,0.9-3.7,3-3.6
		c2,0,2.2,1.9,2.2,3.6c0,2.3,0,4.5,0,6.8c0,1.3,0.5,2,1.8,1.9c1.1-0.1,1.4-0.9,1.4-1.8c0-3.1,0.1-6.3-0.2-9.4c-0.2-2.3-2-4-4.4-3.4
		c-3.1,0.8-5.9,0.1-8.9,0C612.1,917.1,612.1,917.3,612.1,924.4z M565.4,932.1c3.8,0.2,7.3-0.6,8.1-4.8c0.8-4.6-2.7-5.9-6.3-6.7
		c-0.7-0.2-1.4-0.2-2-0.5c-1.6-0.7-4.4-0.7-3.3-3.5c0.9-2.3,3.3-2.1,5.4-1.5c1.1,0.3,1.8,1,2.2,2.1c0.6,1.5,1.9,1.8,2.9,1
		c1.2-1,0.2-2.3-0.4-3.2c-2.4-3.5-6-3.1-9.5-2.6c-2.4,0.4-4.1,2.1-4.4,4.6c-0.3,2.6,1.3,4.3,3.6,5.2c2.1,0.8,4.4,1.1,6.5,1.9
		c1.1,0.4,2.2,1.2,2.1,2.7c-0.1,1.4-1.1,2.1-2.3,2.5c-3,0.8-5.5,0.4-7.2-2.4c-0.7-1.1-1.9-1.2-2.7-0.6c-1.1,0.8-0.4,1.9,0.1,2.8
		C559.9,931.4,562.4,932.2,565.4,932.1z M598.3,931.7c6.8,0.4,9.3-1.3,9.6-6.4c0.4-5.1-1.8-7.7-7.6-7.9c-2.7-0.1-2.2-1.5-2.2-2.9
		c0-1.2,0.1-2.6-1.8-2.4c-1.9,0.2-1.4,1.6-1.5,2.8c0,4.2,0,8.3,0,12.5C594.9,930,593.9,933.8,598.3,931.7z M590.3,924.8
		c0-1.7,0-3.5,0-5.2c0-1,0-2.2-1.4-2.3c-1.9-0.2-1.8,1.2-1.8,2.4c0,1.9,0,3.8,0,5.7c-0.1,2.1-0.9,4-3.1,4.1
		c-2.6,0.1-2.8-2.1-2.7-4.1c0-1.6,0.1-3.2,0-4.7c-0.2-1.3,1-3.6-1.7-3.5c-2.2,0.1-1.4,2-1.5,3.2c-0.1,1.6-0.1,3.1,0,4.7
		c0.1,6.2,0.8,6.8,10,6.5c4.7-0.2,1.2-4.1,2.3-5.9C590.4,925.6,590.3,925.2,590.3,924.8z M647.1,913c-0.8,0.7-1.4,1.1-1.7,1.6
		c-2,4.3,0.3,8.7-0.2,13.1c-0.5,4.3,2.1,4.9,5.8,3.8c-3.6-3.8-3.9-8-1-12.3c0.5-0.7,0.6-1.6,0.1-1.6C647,917.5,649,914.4,647.1,913z
		 M636.5,923.7c0,2.3,0,4.3,0,6.2c0,1.1,0.1,2.1,1.6,2.1c1.4,0,1.6-1,1.6-2.2c0-1.9,0.3-3.9-0.1-5.7c-0.4-2.3,1.7-6.5-1.6-6.5
		C634.8,917.7,637.3,922,636.5,923.7z"/>
	<path class="st6" d="M577.6,260.1c-0.2,2.6-1.8,4.1-4,4.2c-2.5,0-4.3-1.4-4.2-4.2c0.1-2.6,1.9-3.8,4.2-3.7
		C575.8,256.3,577.3,257.8,577.6,260.1z"/>
	<path class="st6" d="M573.9,274.9c2.2,0.5,5.8-0.8,5.9,2c0.1,3.3-3.7,3.1-6.2,3.2c-2,0-5.4,0.1-5.2-2.9
		C568.7,273.8,572.1,275.6,573.9,274.9z"/>
	<path class="st6" d="M237.8,260.3c-0.3,2.5-1.9,4-4.1,4c-2.5,0-4.3-1.5-4.1-4.4c0.2-2.6,2-3.7,4.3-3.6
		C236.2,256.4,237.7,257.9,237.8,260.3z"/>
	<path class="st6" d="M234.2,274.9c2.3,0.6,5.9-1,6,2.3c0.1,2.7-3.6,2.8-5.8,2.9c-2.2,0-5.6,0.2-5.5-3
		C229,273.9,232.3,275.5,234.2,274.9z"/>
	<path class="st6" d="M517.7,263.1c2.5-3.7,4.6-6.9,6.8-10.1C527.3,261.9,526.2,263.7,517.7,263.1z"/>
	<path class="st6" d="M455.4,264c2-0.4,1.8,1.2,1.7,2.3c-0.2,3.4-3,4.1-5.6,4.3c-1.5,0.1-3.4-0.8-3-2.8
		C449.3,264.2,452.8,264.8,455.4,264z"/>
	<path class="st6" d="M481.4,266.2c-0.5,3.4-3,4.2-5.7,4.4c-1.5,0.1-3.4-0.8-3-2.8c0.7-3.6,4.2-3.1,6.8-3.8
		C481.5,263.5,481.1,265.2,481.4,266.2z"/>
	<path class="st6" d="M416.8,266.4c-0.2,3-2.9,3.7-5.4,4.2c-1.6,0.3-3.5-0.7-3.3-2.4c0.4-4,4.1-3.4,6.8-4.1
		C416.9,263.4,416.7,264.9,416.8,266.4z"/>
	<path class="st6" d="M338.9,263.7c-0.2,3.5-1.6,6.8-5.9,6.8c-3.9,0-5.6-3-5.7-6.8c-0.1-3.9,1.3-6.9,5.5-7.5
		C336,255.8,338.8,259.3,338.9,263.7z"/>
	<path class="st15" d="M310.3,920.6c0-1.9-0.1-3.9,0-5.8c0.1-1.4-0.7-3.7,1.7-3.6c1.9,0.1,1.5,2.2,1.4,3.4c-0.3,3.7,1.2,4.8,4.8,4.8
		c3.7,0,5.7-0.7,5.2-4.9c-0.2-1.2-0.6-3.3,1.4-3.3c1.9,0,1.4,2.1,1.4,3.4c0.1,4.2,0.1,8.4,0,12.6c0,1.3,0.5,3.3-1.4,3.4
		c-2,0-1.6-2.1-1.4-3.3c0.6-4.6-1.1-6-5.8-5.9c-4.9,0.1-4,3.1-4.2,6c-0.1,1.3,0.5,3.3-1.6,3.2c-2.1,0-1.5-2-1.5-3.3
		C310.2,925.2,310.3,922.9,310.3,920.6z"/>
	<path class="st15" d="M258.6,922.8c-0.6,2.4-1.1,4.2-1.6,6.1c-0.3,1.1-0.7,2-2.1,2c-1,0-1.6-0.7-1.8-1.6c-1-4.2-3.2-8.1-3.1-13
		c4,1.5,2.4,5.7,4.8,7.9c2.1-1.4,1.6-4,2.4-5.9c0.4-1,0.7-2,2-2c1.4,0,1.7,1.1,1.9,2.1c0.6,2.1,1.1,4.3,1.9,7.5
		c1.6-4,2.7-6.9,3.9-9.8c0.6,0.2,1.2,0.4,1.8,0.6c-1.4,4.4-2.6,9-4.5,13.3c-0.8,1.8-2.3,0.7-3-0.9
		C260.4,927.3,260.7,925,258.6,922.8z"/>
	<path class="st15" d="M128,912.6c-2.4,1.2-5,0.5-7.5,0.6c-2.4,0-3.5,0.9-3.4,3.4c0.1,2.5,1.5,2.7,3.4,2.8c2.3,0.1,4.7-0.6,7.7,1.1
		c-3,1.7-5.4,1.1-7.7,1.1c-2.5,0-3.4,0.9-3.4,3.4c0,2.6,0.8,3.8,3.6,3.8c2.6,0,5.4-0.6,9.1,1.2c-5.4,1.7-9.6,0.9-13.8,0.9
		c-1.6,0-1.7-1.5-1.7-2.7c0-4.7,0-9.4,0-14.2c0-1.5,0.2-2.9,2.1-2.9c3.9,0,7.8,0,11.8,0C128,911.5,128,912.1,128,912.6z"/>
	<path class="st15" d="M196.3,931.2c2.7-7,4.7-13.2,7.4-19.1c1-2.2,3-1.5,3.9,0.6c2.2,5.2,4.2,10.4,6.2,15.6
		c0.3,0.8,0.5,1.8-0.4,2.3c-0.9,0.4-1.8-0.1-2.1-1c-1-3.3-2.3-5.2-6.5-5.2c-4.5,0-3.9,3.7-5.6,5.8
		C199,930.6,198.3,930.6,196.3,931.2z M208.1,922c-0.5-2.5-1.1-4.9-3-7.2c-0.9,2.7-2.9,4.9-1.9,7.1
		C203.8,923.2,206.3,922.7,208.1,922z"/>
	<path class="st15" d="M218.3,922.6c-0.9-3.8,0-6.7,5.8-6.4c3.9,0.2,5.9,1.6,6.1,5.4c0,0.3,0.1,0.7,0.1,1c-0.6,2.7,1.7,7.4-1.5,7.7
		c-2.8,0.2-1-4.6-1.5-7.1c-0.3-2,0.1-4.6-2.9-4.6c-2.7,0-3.2,2.3-3.2,4.5c0,1.2,0.1,2.5-0.1,3.7c-0.2,1.4,0.8,3.8-1.5,3.7
		c-2.1-0.1-1.1-2.5-1.3-3.9C218.2,925.6,218.3,924.5,218.3,922.6z"/>
	<path class="st15" d="M343.5,927.2c-1.6,4.1-4.7,4.3-7.7,3.5c-3.8-1-5.1-4.1-4.8-7.7c0.3-3.7,2-6.4,6-6.8c3.4-0.3,5.6,1.3,6.8,4.5
		c0.9,2.6,0.4,4.1-2.7,3.9c-0.9,0-1.8-0.1-2.6,0c-1.4,0.3-3.3-0.9-4.1,1c-0.2,0.4,0.4,1.3,0.8,1.8c1.4,1.5,3,1.5,4.8,0.7
		C340.8,927.7,341.5,926.8,343.5,927.2z M338.1,922.7c0.5-1,3,1,2.7-1.7c-0.2-1.7-1.6-2.6-3.4-2.5c-1.7,0.2-3.3,1.2-3,2.9
		C334.6,923.3,336.6,922.1,338.1,922.7z"/>
	<path class="st15" d="M172.5,927.4c-1.5,3.6-4.4,4.1-7.6,3.4c-3.8-0.8-5.3-3.7-5.2-7.5c0.1-3.5,1.7-6.1,5.2-6.9
		c3.3-0.7,5.9,0.5,7.3,3.7c1.2,2.7,1.2,4.9-2.7,4.6c-0.9-0.1-1.8-0.1-2.6,0c-1.3,0.2-2.9-0.7-3.8,0.8c-0.2,0.4,0.2,1.3,0.6,1.8
		c1.1,1.4,2.6,1.6,4.3,1.2C169.4,928.3,170.2,926.1,172.5,927.4z M163,921.2c0.5,2,2.2,1.2,3.4,1.2c1.2,0,3.2,0.8,3.3-1.3
		c0.1-1.8-1.4-2.7-3.2-2.7C164.7,918.5,163.6,919.6,163,921.2z"/>
	<path class="st15" d="M371.6,927.5c-1.7,3.8-4.7,4.1-7.9,3.2c-3.5-0.9-4.8-3.7-4.7-7.2c0.1-3.6,1.5-6.1,5-7.1
		c3-0.8,5.5,0.4,7.1,3.1c2,3.4,1.1,5-2.8,5.2c-0.5,0-1.1-0.1-1.6,0c-1.5,0.2-3.2-0.7-4.3,0.9c-0.5,0.8,0.1,1.6,0.9,2.2
		c1.6,1.2,3.2,1.2,4.8,0.2C369,927.5,369.8,926.5,371.6,927.5z M365.7,922.5c1.2-0.4,3.2,0.8,3.4-1.3c0.1-1.6-1.4-2.7-3.2-2.8
		c-1.8-0.1-3.3,0.8-3.3,2.5C362.4,923.3,364.5,922.1,365.7,922.5z"/>
	<path class="st15" d="M284.8,926.6c-2.1,4.6-5.2,5-8.3,4.1c-3.8-1-4.9-4.1-4.7-7.8c0.2-3.4,1.7-5.7,5-6.5c3-0.8,5.5,0.4,7.1,3.1
		c2,3.4,1.1,5-2.8,5.2c-0.2,0-0.4,0-0.5,0c-1.8,0.4-3.9-0.9-5.3,0.9c-0.6,0.7,0.2,1.6,0.9,2.2c2,1.6,3.9,0.9,5.7-0.4
		C282.3,927.1,283.1,927,284.8,926.6z M278.7,922.6c1-0.5,3.2,0.9,3-1.5c-0.2-1.7-1.7-2.6-3.4-2.5c-1.5,0-2.9,0.8-3,2.3
		C275.1,923.5,277.5,922,278.7,922.6z"/>
	<path class="st15" d="M134.1,924.1c0-7.8,0-7.8,6.5-7.9c2.9,0,4.8,1.3,5,4.2c0.2,2.8,0.1,5.6,0.1,8.4c0,0.9-0.1,1.9-1.3,1.9
		c-1.1,0-1.3-1-1.4-1.8c-0.1-2.1,0-4.2-0.1-6.3c-0.1-2-0.3-4.1-3-4c-2.4,0.1-2.9,2.1-3.1,4.1c0,0.3,0,0.7,0,1
		c-0.6,2.3,1.3,6.6-1.5,6.6C132.6,930.2,135.1,925.8,134.1,924.1z"/>
	<path class="st15" d="M245.9,920.8c-1.7-0.8-2.4-1-2.9-1.3c-1.5-1.1-3.7-1.9-4.5-0.1c-1.2,2.6,1.8,2.4,3.2,2.9
		c2.2,0.8,4.5,1.3,4.8,4.1c0.2,2.2-1.3,3.6-3.3,4.2c-2.6,0.8-5.2,0.7-7.2-1.6c-0.7-0.8-1.4-1.9-0.4-2.8c0.9-0.8,1.4,0.2,2.1,0.7
		c0.8,0.7,1.6,1.4,2.5,1.7c1.2,0.3,2.6,0.1,3-1.4c0.4-1.3-0.7-1.8-1.7-2.2c-0.6-0.3-1.4-0.3-2-0.6c-2.1-0.8-4.6-1.4-4.4-4.4
		c0.2-2.2,1.7-3.5,3.8-3.7C241.7,916,244.5,916.1,245.9,920.8z"/>
	<path class="st15" d="M156.4,930.3c-1.7,1.1-3.7,1.1-4.2-0.4c-1.6-4.5-1.2-9.4-1.3-14.1c0-1,0.7-3.7,2.1-2.7c1.2,0.9,3.2,3,2.2,5.2
		C153.1,922.6,153.2,926.5,156.4,930.3z"/>
	<path class="st15" d="M185.7,917.5c-5.9,1-5.4,5-5.4,8.8c0,1.5,1,4.3-1.4,4.2c-2.2-0.1-1.2-2.8-1.3-4.4c-0.2-1.4,0-2.8,0-4.2
		C177.6,915.8,178.4,915.3,185.7,917.5z"/>
	<path class="st15" d="M356.8,917.5c-6.7,1.2-5.2,5.8-5.4,9.7c-0.1,1.3,0.5,3.4-1.4,3.4c-1.9,0-1.3-2.1-1.4-3.4
		c-0.1-1.9,0-3.8,0-5.8C348.7,915.9,349.7,915.3,356.8,917.5z"/>
	<path class="st15" d="M296.9,917.3c-5.5,1.5-4.3,5.7-4.5,9.4c-0.1,1.4,0.7,3.9-1.3,3.9c-2.2,0-1.2-2.4-1.3-3.8
		c-0.2-1.5,0-3.1,0-4.7C289.7,915.8,289.7,915.8,296.9,917.3z"/>
	<path class="st9" d="M612.1,924.4c0-7.2,0-7.3,6.5-7.1c3,0.1,5.9,0.8,8.9,0c2.4-0.6,4.1,1.1,4.4,3.4c0.3,3.1,0.2,6.3,0.2,9.4
		c0,1-0.3,1.7-1.4,1.8c-1.3,0.1-1.8-0.6-1.8-1.9c0-2.3,0-4.5,0-6.8c0-1.6-0.2-3.5-2.2-3.6c-2.1,0-2.9,1.7-3,3.6
		c-0.1,2.3,0,4.5-0.1,6.8c0,0.9-0.2,1.7-1.4,1.8c-1.3,0.1-1.9-0.6-1.8-1.9c0-2.3,0-4.5,0-6.8c0-1.6,0-3.6-2.1-3.6c-2,0-3,1.6-3,3.6
		c-0.1,2.1-0.1,4.2-0.1,6.3c0,1.3,0,2.6-1.9,2.4c-1.5-0.1-1.3-1.3-1.3-2.3C612.1,927.9,612.1,926.2,612.1,924.4z"/>
	<path class="st9" d="M565.4,932.1c-3,0.2-5.5-0.7-7.2-3.3c-0.5-0.8-1.2-2-0.1-2.8c0.8-0.6,2-0.5,2.7,0.6c1.7,2.9,4.3,3.2,7.2,2.4
		c1.3-0.3,2.2-1.1,2.3-2.5c0.1-1.5-1-2.3-2.1-2.7c-2.1-0.8-4.4-1.1-6.5-1.9c-2.3-0.9-3.9-2.6-3.6-5.2c0.3-2.5,2-4.2,4.4-4.6
		c3.4-0.6,7.1-0.9,9.5,2.6c0.6,0.9,1.7,2.2,0.4,3.2c-1,0.8-2.4,0.6-2.9-1c-0.4-1.1-1.1-1.7-2.2-2.1c-2.1-0.7-4.5-0.8-5.4,1.5
		c-1.2,2.8,1.6,2.8,3.3,3.5c0.6,0.3,1.3,0.3,2,0.5c3.6,0.9,7.1,2.2,6.3,6.7C572.7,931.5,569.2,932.3,565.4,932.1z"/>
	<path class="st9" d="M598.3,931.7c-4.4,2.1-3.4-1.6-3.5-4.4c0-4.2,0-8.3,0-12.5c0-1.1-0.4-2.6,1.5-2.8c1.9-0.2,1.7,1.2,1.8,2.4
		c0.1,1.5-0.4,2.9,2.2,2.9c5.8,0.2,8,2.7,7.6,7.9C607.6,930.3,605.1,932.1,598.3,931.7z M604.8,923.6c-0.3-1.5-0.8-4.2-3.6-3.9
		c-2.6,0.2-3.3,2.8-3.2,5.2c0.1,2.4,0.7,5,3.6,4.7C604.2,929.4,604.8,926.9,604.8,923.6z"/>
	<path class="st9" d="M590.3,924.8c0,0.3,0.1,0.8,0,1c-1.1,1.9,2.4,5.8-2.3,5.9c-9.2,0.3-9.9-0.2-10-6.5c0-1.6-0.1-3.1,0-4.7
		c0.1-1.2-0.7-3.2,1.5-3.2c2.7-0.1,1.5,2.2,1.7,3.5c0.2,1.5,0.1,3.1,0,4.7c0,2,0.1,4.2,2.7,4.1c2.2-0.1,3.1-2,3.1-4.1
		c0-1.9,0-3.8,0-5.7c0-1.2-0.1-2.6,1.8-2.4c1.5,0.1,1.4,1.2,1.4,2.3C590.3,921.4,590.3,923.1,590.3,924.8z"/>
	<path class="st9" d="M647.1,913c1.8,1.4-0.2,4.5,3,4.6c0.5,0,0.4,0.9-0.1,1.6c-3,4.3-2.7,8.4,1,12.3c-3.6,1.1-6.2,0.5-5.8-3.8
		c0.5-4.4-1.9-8.8,0.2-13.1C645.7,914.1,646.4,913.7,647.1,913z"/>
	<path class="st9" d="M636.5,923.7c0.8-1.8-1.6-6.1,1.6-6.1c3.3,0,1.1,4.2,1.6,6.5c0.4,1.8,0.1,3.8,0.1,5.7c0,1.1-0.2,2.1-1.6,2.2
		c-1.5,0-1.6-1-1.6-2.1C636.5,928,636.5,926.1,636.5,923.7z"/>
	<path class="st13" d="M208.1,922c-1.8,0.8-4.3,1.2-4.9-0.1c-1-2.2,1-4.5,1.9-7.1C207,917.1,207.6,919.4,208.1,922z"/>
	<path class="st13" d="M338.1,922.7c-1.5-0.5-3.5,0.7-3.8-1.2c-0.2-1.7,1.3-2.7,3-2.9c1.8-0.2,3.2,0.8,3.4,2.5
		C341.1,923.6,338.7,921.6,338.1,922.7z"/>
	<path class="st13" d="M163,921.2c0.6-1.7,1.7-2.7,3.5-2.7c1.8,0,3.3,0.9,3.2,2.7c-0.1,2.1-2.1,1.3-3.3,1.3
		C165.2,922.4,163.5,923.3,163,921.2z"/>
	<path class="st13" d="M365.7,922.5c-1.1-0.4-3.2,0.8-3.2-1.5c0-1.8,1.6-2.6,3.3-2.5c1.8,0.1,3.3,1.2,3.2,2.8
		C368.9,923.3,366.8,922.1,365.7,922.5z"/>
	<path class="st13" d="M278.7,922.6c-1.2-0.5-3.6,0.9-3.4-1.7c0.1-1.5,1.4-2.3,3-2.3c1.8,0,3.3,0.9,3.4,2.5
		C281.9,923.4,279.7,922,278.7,922.6z"/>
	<path class="st6" d="M604.8,923.6c0,3.3-0.6,5.8-3.2,6c-2.9,0.3-3.5-2.3-3.6-4.7c-0.1-2.5,0.6-5,3.2-5.2
		C604,919.4,604.5,922.1,604.8,923.6z"/>
</g>
</svg>
